<svg width="53" height="53" viewBox="0 0 53 53" fill="none" xmlns="http://www.w3.org/2000/svg">
<path d="M17.9762 20.1175C17.8209 19.9622 17.6103 19.875 17.3906 19.875H4.96875C4.09053 19.876 3.24857 20.2253 2.62757 20.8463C2.00657 21.4673 1.65725 22.3093 1.65625 23.1875V48.0312C1.65725 48.9095 2.00657 49.7514 2.62757 50.3724C3.24857 50.9934 4.09053 51.3427 4.96875 51.3438H19.875C20.7532 51.3427 21.5952 50.9934 22.2162 50.3724C22.8372 49.7514 23.1865 48.9095 23.1875 48.0312V25.6719C23.1875 25.4522 23.1003 25.2416 22.945 25.0863L17.9762 20.1175ZM18.2188 22.7024L20.3601 24.8438H18.2188V22.7024ZM19.875 49.6875H4.96875C4.52964 49.687 4.10866 49.5123 3.79816 49.2018C3.48766 48.8913 3.313 48.4704 3.3125 48.0312V23.1875C3.313 22.7484 3.48766 22.3274 3.79816 22.0169C4.10866 21.7064 4.52964 21.5318 4.96875 21.5312H16.5625V25.6719C16.5625 25.8915 16.6498 26.1021 16.8051 26.2574C16.9604 26.4127 17.171 26.5 17.3906 26.5H21.5312V48.0312C21.5307 48.4704 21.3561 48.8913 21.0456 49.2018C20.7351 49.5123 20.3141 49.687 19.875 49.6875Z" fill="#00A892"/>
<path d="M4.96875 23.1875H8.28125V24.8438H4.96875V23.1875Z" fill="#00A892"/>
<path d="M8.28125 28.1562H16.5625V29.8125H8.28125V28.1562Z" fill="#00A892"/>
<path d="M18.2188 28.1562H19.875V29.8125H18.2188V28.1562Z" fill="#00A892"/>
<path d="M16.5625 34.7812H19.875V36.4375H16.5625V34.7812Z" fill="#00A892"/>
<path d="M4.96875 34.7812H14.9062V36.4375H4.96875V34.7812Z" fill="#00A892"/>
<path d="M13.25 31.4688H19.875V33.125H13.25V31.4688Z" fill="#00A892"/>
<path d="M4.96875 31.4688H11.5938V33.125H4.96875V31.4688Z" fill="#00A892"/>
<path d="M4.96875 38.0938H9.9375V39.75H4.96875V38.0938Z" fill="#00A892"/>
<path d="M11.5938 38.0938H19.875V39.75H11.5938V38.0938Z" fill="#00A892"/>
<path d="M4.96875 41.4062H13.25V43.0625H4.96875V41.4062Z" fill="#00A892"/>
<path d="M14.9888 41.4062H18.2187V43.0625H14.9888V41.4062Z" fill="#00A892"/>
<path d="M15.8169 44.7188H19.0468V46.375H15.8169V44.7188Z" fill="#00A892"/>
<path d="M23.9917 37.26L24.0394 38.9156C24.6262 38.8986 25.2116 38.8474 25.7924 38.7622L25.5512 37.1235C25.0345 37.1994 24.5138 37.245 23.9917 37.26Z" fill="#00A892"/>
<path d="M30.1784 37.3972C31.6471 36.6744 32.9867 35.7147 34.1434 34.5565C34.2987 34.4012 34.386 34.1906 34.386 33.9709C34.386 33.7513 34.2987 33.5406 34.1434 33.3853L25.4295 24.6714L24.2583 25.8426L32.3686 33.9528C31.4862 34.7327 30.5036 35.3913 29.4469 35.9112L30.1784 37.3972Z" fill="#00A892"/>
<path d="M9.20015 18.1223C9.13969 17.6046 9.10938 17.0838 9.10938 16.5625C9.11388 14.3778 9.65639 12.2278 10.689 10.3025C11.7216 8.37721 13.2125 6.73586 15.0299 5.52348L21.4031 16.5625L19.7297 19.4609L21.1642 20.2891L22.8375 17.3906H36.4375C36.6571 17.3906 36.8678 17.3034 37.0231 17.1481C37.1784 16.9928 37.2656 16.7821 37.2656 16.5625C37.2656 8.34312 30.5788 1.65625 22.3594 1.65625C20.4016 1.65542 18.4629 2.04041 16.654 2.78922C14.8451 3.53803 13.2015 4.63599 11.8172 6.02033C10.4329 7.40467 9.33491 9.04825 8.5861 10.8571C7.83728 12.666 7.45229 14.6048 7.45313 16.5625C7.45316 17.1482 7.48725 17.7334 7.55523 18.3152L9.20015 18.1223ZM35.5838 15.7344H22.8376L16.4636 4.69397C18.296 3.78488 20.3139 3.31207 22.3594 3.3125C29.3872 3.3125 35.1547 8.81278 35.5838 15.7344Z" fill="#00A892"/>
<path d="M32.2969 19.8574H26.5C26.3362 19.8574 26.1761 19.906 26.0399 19.997C25.9037 20.088 25.7976 20.2174 25.7349 20.3687C25.6722 20.52 25.6558 20.6865 25.6878 20.8471C25.7197 21.0078 25.7986 21.1553 25.9144 21.2712L35.8695 31.2262C36.0248 31.3815 36.2354 31.4688 36.4551 31.4688C36.6747 31.4688 36.8854 31.3815 37.0407 31.2262C38.4292 29.8452 39.5299 28.2025 40.2793 26.3932C41.0286 24.5839 41.4117 22.6439 41.4062 20.6855C41.4062 20.4659 41.319 20.2553 41.1637 20.1C41.0084 19.9447 40.7977 19.8574 40.5781 19.8574H38.9219V21.5137H39.7247C39.5497 24.4534 38.3919 27.249 36.4372 29.4516L28.4992 21.5137H32.2969V19.8574Z" fill="#00A892"/>
<path d="M26.2576 34.1958L25.0864 35.367L30.0552 40.3358C30.2105 40.491 30.4212 40.5783 30.6408 40.5783H45.547V38.922H30.9838L26.2576 34.1958Z" fill="#00A892"/>
<path d="M42.2344 41.4062H33.9531C33.0749 41.4073 32.2329 41.7566 31.6119 42.3776C30.9909 42.9986 30.6416 43.8405 30.6406 44.7188V48.0312C30.6416 48.9095 30.9909 49.7514 31.6119 50.3724C32.2329 50.9934 33.0749 51.3427 33.9531 51.3438H42.2344C43.1126 51.3427 43.9546 50.9934 44.5756 50.3724C45.1966 49.7514 45.5459 48.9095 45.5469 48.0312V44.7188C45.5459 43.8405 45.1966 42.9986 44.5756 42.3776C43.9546 41.7566 43.1126 41.4073 42.2344 41.4062ZM43.8906 48.0312C43.8901 48.4704 43.7155 48.8913 43.405 49.2018C43.0945 49.5123 42.6735 49.687 42.2344 49.6875H33.9531C33.514 49.687 33.093 49.5123 32.7825 49.2018C32.472 48.8913 32.2974 48.4704 32.2969 48.0312V44.7188C32.2974 44.2796 32.472 43.8587 32.7825 43.5482C33.093 43.2377 33.514 43.063 33.9531 43.0625H42.2344C42.6735 43.063 43.0945 43.2377 43.405 43.5482C43.7155 43.8587 43.8901 44.2796 43.8906 44.7188V48.0312Z" fill="#00A892"/>
<path d="M34.7812 43.8906H39.75V45.5469H34.7812V43.8906Z" fill="#00A892"/>
<path d="M41.4062 43.8906H43.0625V45.5469H41.4062V43.8906Z" fill="#00A892"/>
<path d="M33.125 47.2031H34.7812V48.8594H33.125V47.2031Z" fill="#00A892"/>
<path d="M36.4375 47.2031H41.4062V48.8594H36.4375V47.2031Z" fill="#00A892"/>
<path d="M48.0312 6.625H41.4062C40.528 6.626 39.6861 6.97532 39.0651 7.59632C38.4441 8.21731 38.0948 9.05928 38.0938 9.9375V13.25C38.0948 14.1282 38.4441 14.9702 39.0651 15.5912C39.6861 16.2122 40.528 16.5615 41.4062 16.5625H48.0312C48.9095 16.5615 49.7514 16.2122 50.3724 15.5912C50.9934 14.9702 51.3427 14.1282 51.3438 13.25V9.9375C51.3427 9.05928 50.9934 8.21731 50.3724 7.59632C49.7514 6.97532 48.9095 6.626 48.0312 6.625ZM49.6875 13.25C49.687 13.6891 49.5123 14.1101 49.2018 14.4206C48.8913 14.7311 48.4704 14.9057 48.0312 14.9062H41.4062C40.9671 14.9057 40.5462 14.7311 40.2357 14.4206C39.9252 14.1101 39.7505 13.6891 39.75 13.25V9.9375C39.7505 9.49839 39.9252 9.07741 40.2357 8.76691C40.5462 8.45641 40.9671 8.28175 41.4062 8.28125H48.0312C48.4704 8.28175 48.8913 8.45641 49.2018 8.76691C49.5123 9.07741 49.687 9.49839 49.6875 9.9375V13.25Z" fill="#00A892"/>
<path d="M42.2344 9.10938H45.5469V10.7656H42.2344V9.10938Z" fill="#00A892"/>
<path d="M47.2031 9.10938H48.8594V10.7656H47.2031V9.10938Z" fill="#00A892"/>
<path d="M40.5781 12.4219H42.2344V14.0781H40.5781V12.4219Z" fill="#00A892"/>
<path d="M43.8906 12.4219H47.2031V14.0781H43.8906V12.4219Z" fill="#00A892"/>
<path d="M37.5083 17.6331L33.3677 21.7738L34.5389 22.945L38.4369 19.0469H51.3439V17.3906H38.0939C37.8743 17.3906 37.6636 17.4779 37.5083 17.6331Z" fill="#00A892"/>
</svg>
