<svg width="47" height="47" viewBox="0 0 47 47" fill="none" xmlns="http://www.w3.org/2000/svg">
<path d="M24.2578 3.03223H22.7417V4.54836H21.2256V6.06448H22.7417V7.58061H24.2578V6.06448H25.774V4.54836H24.2578V3.03223Z" fill="url(#paint0_linear)"/>
<path d="M25.7742 15.1613V12.129H27.2903C28.1265 12.129 28.8065 11.4491 28.8065 10.6129V9.85484H32.9492L35.072 13.0381L37.9617 5.09102L39.6777 9.09677H47V7.58065H40.6771L37.8455 0.973491L34.6707 9.70382L33.7605 8.33871H28.8065V1.51613C28.8065 0.679963 28.1265 0 27.2903 0H19.7097C18.8735 0 18.1935 0.679963 18.1935 1.51613V5.30645H11.6293L9.91258 9.3122L7.02357 1.36511L4.90077 4.54839H0V6.06452H5.71213L6.62159 4.69941L9.79636 13.4297L12.6287 6.82258H18.1935V10.6129C18.1935 11.4491 18.8735 12.129 19.7097 12.129H21.2258V15.1613H22.7419V19.7097H18.9516C17.6635 19.7097 16.3743 20.0136 15.2227 20.5899L14.6968 20.8527C14.2122 19.3177 12.7916 18.1935 11.0982 18.1935H8.33871C7.48219 18.1935 6.69969 18.49 6.06452 18.9712V15.9194C6.06452 14.6657 5.04402 13.6452 3.79032 13.6452C2.53663 13.6452 1.51613 14.6657 1.51613 15.9194V27.2903C0.679963 27.2903 0 27.9703 0 28.8065V30.3226C0 31.1587 0.679963 31.8387 1.51613 31.8387H3.79032V40.1859C2.84052 40.9007 2.27419 42.0134 2.27419 43.2097C2.27419 45.2995 3.97466 47 6.06452 47C8.15438 47 9.85484 45.2995 9.85484 43.2097C9.85484 42.0141 9.28259 40.8922 8.33871 40.1811V31.8387H38.6613V40.1811C37.7174 40.8914 37.1452 42.0141 37.1452 43.2097C37.1452 45.2995 38.8456 47 40.9355 47C43.0253 47 44.7258 45.2995 44.7258 43.2097C44.7258 42.0141 44.1536 40.8922 43.2097 40.1811V31.8387H45.4839C46.32 31.8387 47 31.1587 47 30.3226V28.8065C47 27.9703 46.32 27.2903 45.4839 27.2903H45.4454C45.0608 23.0466 41.4874 19.7097 37.1452 19.7097H24.2581V15.1613H25.7742ZM8.33871 19.7097H11.0982C12.3519 19.7097 13.3724 20.7302 13.3724 21.9839C13.3724 23.2376 12.3519 24.2581 11.0982 24.2581H8.33871C7.08502 24.2581 6.06452 23.2376 6.06452 21.9839C6.06452 20.7302 7.08502 19.7097 8.33871 19.7097ZM11.371 25.7742C12.3578 25.7742 13.1917 26.4101 13.5056 27.2903H6.20406C6.51795 26.4101 7.35189 25.7742 8.33871 25.7742H11.371ZM6.06452 24.9965C6.07303 25.0032 6.07969 25.0102 6.08784 25.0161C6.07969 25.0221 6.07303 25.0291 6.06452 25.0357V24.9965ZM3.03226 15.9194C3.03226 15.5018 3.37205 15.1613 3.79032 15.1613C4.20859 15.1613 4.54839 15.5018 4.54839 15.9194V27.2903H3.03226V15.9194ZM6.06452 45.4839C4.81082 45.4839 3.79032 44.4634 3.79032 43.2097C3.79032 42.9487 3.84955 42.7011 3.93357 42.4623C4.24968 43.337 5.0814 43.9677 6.06452 43.9677C7.04689 43.9677 7.87861 43.3377 8.19546 42.4631C8.27949 42.7018 8.33871 42.9498 8.33871 43.2097C8.33871 44.4634 7.31821 45.4839 6.06452 45.4839ZM6.82258 41.6935C6.82258 42.1111 6.48278 42.4516 6.06452 42.4516C5.64625 42.4516 5.30645 42.1111 5.30645 41.6935V31.8387H6.82258V41.6935ZM40.9355 45.4839C39.6818 45.4839 38.6613 44.4634 38.6613 43.2097C38.6613 42.9498 38.7205 42.7018 38.8045 42.4631C39.1214 43.3377 39.9531 43.9677 40.9355 43.9677C41.9179 43.9677 42.7496 43.3377 43.0664 42.4631C43.1505 42.7018 43.2097 42.9498 43.2097 43.2097C43.2097 44.4634 42.1892 45.4839 40.9355 45.4839ZM41.6935 41.6935C41.6935 42.1111 41.3538 42.4516 40.9355 42.4516C40.5172 42.4516 40.1774 42.1111 40.1774 41.6935V31.8387H41.6935V41.6935ZM43.923 27.2903H40.9355V28.8065H45.4839V30.3226H1.51613V28.8065H39.4194V27.2903H15.0847C14.8829 26.3009 14.2948 25.4507 13.4845 24.904C14.2122 24.308 14.7093 23.4545 14.8385 22.4773L15.9012 21.9461C16.8425 21.4753 17.8971 21.2258 18.9516 21.2258H37.1452C40.6512 21.2258 43.5447 23.8842 43.923 27.2903ZM19.7097 1.51613H27.2903L27.2911 10.6129H19.7097V1.51613ZM24.2581 12.129V13.6452H22.7419V12.129H24.2581Z" fill="#00A892"/>
<defs>
<linearGradient id="paint0_linear" x1="23.4998" y1="3.03223" x2="23.4998" y2="7.58061" gradientUnits="userSpaceOnUse">
<stop offset="0.711796" stop-color="#00BFA6"/>
<stop offset="1" stop-color="#46BC75"/>
</linearGradient>
</defs>
</svg>
