<svg width="59" height="59" viewBox="0 0 59 59" fill="none" xmlns="http://www.w3.org/2000/svg">
<path d="M57.7151 12.7693C57.254 11.725 56.4487 10.8704 55.4336 10.348C54.4185 9.82563 53.255 9.66709 52.1371 9.89883C51.0193 10.1306 50.0147 10.7386 49.2909 11.6214C48.5671 12.5043 48.1679 13.6086 48.1599 14.7502H1.84375C1.59925 14.7502 1.36477 14.8473 1.19189 15.0202C1.019 15.1931 0.921875 15.4276 0.921875 15.6721V43.3283C0.921875 43.5728 1.019 43.8073 1.19189 43.9802C1.36477 44.1531 1.59925 44.2502 1.84375 44.2502H5.95531C6.54399 46.1215 7.71424 47.7564 9.29592 48.9169C10.8776 50.0774 12.7882 50.7032 14.75 50.7032C16.7118 50.7032 18.6224 50.0774 20.2041 48.9169C21.7858 47.7564 22.956 46.1215 23.5447 44.2502H57.1562C57.4007 44.2502 57.6352 44.1531 57.8081 43.9802C57.981 43.8073 58.0781 43.5728 58.0781 43.3283V16.5409C58.0784 16.3849 58.0387 16.2313 57.9629 16.095C58.266 14.991 58.1785 13.8162 57.7151 12.7693ZM14.75 48.8596C12.9546 48.8572 11.2215 48.2008 9.87505 47.013C8.52863 45.8253 7.66114 44.1876 7.43492 42.4064H14.3179L18.6507 47.6058C18.6754 47.6351 18.702 47.6628 18.7302 47.6888C17.5438 48.454 16.1618 48.8606 14.75 48.8596ZM7.43492 40.5627C7.58405 39.3737 8.02085 38.2389 8.70746 37.2568C9.39408 36.2747 10.3098 35.4748 11.3753 34.9265C12.4408 34.3781 13.6239 34.0978 14.8222 34.1099C16.0205 34.122 17.1977 34.426 18.252 34.9957L14.2752 40.5627H7.43492ZM20.1338 46.5168C20.1139 46.485 20.092 46.4546 20.0681 46.4258L15.9139 41.4408L19.75 36.0697C20.4653 36.728 21.043 37.5215 21.4498 38.4043C21.8566 39.2871 22.0844 40.2419 22.1201 41.2133C22.1557 42.1847 21.9986 43.1535 21.6576 44.0638C21.3167 44.9741 20.7988 45.8079 20.1338 46.5168ZM56.2344 42.4064H23.9227C23.9526 42.1034 23.9688 41.7957 23.9688 41.4846C23.9688 39.0396 22.9975 36.6948 21.2686 34.9659C19.5398 33.2371 17.195 32.2658 14.75 32.2658C12.305 32.2658 9.96021 33.2371 8.23136 34.9659C6.50251 36.6948 5.53125 39.0396 5.53125 41.4846C5.53125 41.7957 5.54738 42.1034 5.57734 42.4064H2.76562V16.5939H48.4975C48.524 16.6642 48.5528 16.7345 48.584 16.8037C48.925 17.5801 49.4594 18.2562 50.1362 18.7673L48.577 22.7958C48.0505 22.6062 47.4788 22.5813 46.9378 22.7246C46.3968 22.8679 45.9123 23.1725 45.5487 23.5979C45.5484 23.5979 45.5481 23.5978 45.5479 23.5975C45.5477 23.5973 45.5475 23.597 45.5475 23.5967L40.6858 21.7149C40.7018 21.1432 40.5405 20.5805 40.224 20.1041C39.9076 19.6277 39.4514 19.261 38.9181 19.0542C38.3097 18.8182 37.6374 18.8049 37.0202 19.0169C36.403 19.2288 35.8806 19.6522 35.5455 20.2121C35.2104 20.7721 35.0842 21.4326 35.1892 22.0767C35.2941 22.7207 35.6235 23.3069 36.1191 23.7315L34.2373 28.5944C33.5806 28.5722 32.9372 28.7831 32.421 29.1897C31.9048 29.5963 31.5492 30.1724 31.417 30.8161C31.2848 31.4598 31.3847 32.1294 31.6989 32.7065C32.013 33.2836 32.5213 33.731 33.1336 33.9693C33.746 34.2077 34.4229 34.2217 35.0445 34.0089C35.6662 33.7961 36.1925 33.3701 36.5303 32.8065C36.8681 32.2429 36.9956 31.5779 36.8901 30.9293C36.7847 30.2808 36.4532 29.6904 35.9543 29.2628C35.9554 29.2616 35.9554 29.2616 35.9554 29.2605L37.8384 24.3976V24.3953C37.8672 24.3965 37.8948 24.3988 37.9236 24.3988C38.3215 24.3985 38.7146 24.312 39.0758 24.1453C39.4371 23.9786 39.7579 23.7357 40.0163 23.4331C40.0174 23.4331 40.0174 23.4342 40.0186 23.4342L44.8803 25.316C44.8681 25.731 44.9494 26.1435 45.1183 26.5228C45.2872 26.9021 45.5393 27.2385 45.8559 27.5072C46.1725 27.7758 46.5456 27.9697 46.9473 28.0745C47.3491 28.1793 47.7693 28.1923 48.1768 28.1126C48.5842 28.0329 48.9686 27.8625 49.3012 27.614C49.6339 27.3656 49.9063 27.0454 50.0984 26.6773C50.2905 26.3092 50.3972 25.9026 50.4108 25.4876C50.4243 25.0726 50.3442 24.6599 50.1765 24.2801C50.1419 24.204 50.1051 24.1303 50.0647 24.0588L51.7944 19.5912C52.9117 19.9089 54.1051 19.8241 55.1662 19.3515C55.5479 19.184 55.9068 18.9687 56.2344 18.7108V42.4064ZM48.0193 26.2414C47.9082 26.2932 47.7878 26.3223 47.6653 26.327C47.5428 26.3318 47.4206 26.312 47.3058 26.269C47.191 26.2259 47.0859 26.1603 46.9968 26.0762C46.9076 25.992 46.8362 25.8909 46.7866 25.7787C46.737 25.6666 46.7103 25.5457 46.708 25.4231C46.7057 25.3005 46.7279 25.1787 46.7732 25.0648C46.8186 24.9509 46.8862 24.8471 46.9722 24.7597C47.0581 24.6722 47.1606 24.6028 47.2738 24.5555C47.3904 24.503 47.5169 24.4759 47.6448 24.476C47.8565 24.4754 48.062 24.5477 48.2267 24.6807C48.3914 24.8137 48.5053 24.9994 48.5492 25.2065C48.5931 25.4136 48.5644 25.6295 48.4679 25.818C48.3715 26.0064 48.213 26.1559 48.0193 26.2414ZM38.7798 21.9662C38.725 22.1074 38.6361 22.2329 38.5212 22.3316C38.4063 22.4304 38.2688 22.4992 38.1209 22.5322C37.973 22.5651 37.8193 22.5611 37.6734 22.5205C37.5274 22.4799 37.3937 22.4039 37.2841 22.2993C37.1745 22.1947 37.0923 22.0647 37.0449 21.9208C36.9975 21.7769 36.9863 21.6236 37.0123 21.4743C37.0383 21.325 37.1006 21.1845 37.1939 21.0651C37.2871 20.9456 37.4083 20.851 37.5468 20.7896C37.6642 20.7382 37.7909 20.7116 37.919 20.7113C38.0329 20.7112 38.1458 20.7323 38.2521 20.7735C38.48 20.8619 38.6635 21.0371 38.7625 21.2607C38.8614 21.4843 38.8676 21.738 38.7798 21.9662ZM34.5277 32.2024C34.4022 32.2578 34.266 32.2844 34.1289 32.2804C33.9918 32.2764 33.8574 32.2419 33.7353 32.1793C33.6133 32.1168 33.5067 32.0278 33.4234 31.9189C33.3401 31.81 33.2822 31.6838 33.2538 31.5497C33.2254 31.4155 33.2274 31.2767 33.2594 31.1434C33.2915 31.01 33.3529 30.8855 33.4392 30.7789C33.5254 30.6724 33.6344 30.5863 33.7581 30.5272C33.8818 30.4681 34.0172 30.4372 34.1543 30.437C34.2683 30.437 34.3813 30.4585 34.4873 30.5004C34.6574 30.5661 34.8041 30.6807 34.909 30.8298C35.0139 30.9789 35.0721 31.1557 35.0765 31.3379C35.0808 31.5202 35.0309 31.6996 34.9332 31.8535C34.8356 32.0073 34.6944 32.1288 34.5277 32.2024ZM54.4217 17.6656C53.8522 17.9176 53.2207 17.995 52.6072 17.888C51.9937 17.781 51.4257 17.4945 50.975 17.0646C50.5244 16.6348 50.2113 16.0809 50.0755 15.4732C49.9397 14.8654 49.9871 14.231 50.2119 13.6502C50.4367 13.0694 50.8287 12.5683 51.3383 12.2103C51.8479 11.8523 52.4522 11.6535 53.0748 11.639C53.6974 11.6245 54.3103 11.795 54.836 12.1289C55.3617 12.4628 55.7766 12.9452 56.0281 13.5149C56.1977 13.8925 56.2907 14.3001 56.3016 14.7139C56.3126 15.1278 56.2413 15.5397 56.0918 15.9257C55.9424 16.3118 55.7179 16.6644 55.4312 16.9631C55.1445 17.2617 54.8014 17.5005 54.4217 17.6656Z" fill="#00A892"/>
<path d="M54.3906 34.1094H45.1719C44.9274 34.1094 44.6929 34.2065 44.52 34.3794C44.3471 34.5523 44.25 34.7868 44.25 35.0312C44.25 35.2757 44.3471 35.5102 44.52 35.6831C44.6929 35.856 44.9274 35.9531 45.1719 35.9531H54.3906C54.6351 35.9531 54.8696 35.856 55.0425 35.6831C55.2154 35.5102 55.3125 35.2757 55.3125 35.0312C55.3125 34.7868 55.2154 34.5523 55.0425 34.3794C54.8696 34.2065 54.6351 34.1094 54.3906 34.1094Z" fill="#00A892"/>
<path d="M54.3906 36.875H47.9375C47.693 36.875 47.4585 36.9721 47.2856 37.145C47.1128 37.3179 47.0156 37.5524 47.0156 37.7969C47.0156 38.0414 47.1128 38.2759 47.2856 38.4487C47.4585 38.6216 47.693 38.7188 47.9375 38.7188H54.3906C54.6351 38.7188 54.8696 38.6216 55.0425 38.4487C55.2154 38.2759 55.3125 38.0414 55.3125 37.7969C55.3125 37.5524 55.2154 37.3179 55.0425 37.145C54.8696 36.9721 54.6351 36.875 54.3906 36.875Z" fill="#00A892"/>
<path d="M54.3906 39.6406H52.5469C52.3024 39.6406 52.0679 39.7378 51.895 39.9106C51.7221 40.0835 51.625 40.318 51.625 40.5625C51.625 40.807 51.7221 41.0415 51.895 41.2144C52.0679 41.3872 52.3024 41.4844 52.5469 41.4844H54.3906C54.6351 41.4844 54.8696 41.3872 55.0425 41.2144C55.2154 41.0415 55.3125 40.807 55.3125 40.5625C55.3125 40.318 55.2154 40.0835 55.0425 39.9106C54.8696 39.7378 54.6351 39.6406 54.3906 39.6406Z" fill="#00A892"/>
<path d="M49.7812 39.6406H48.8594C48.6149 39.6406 48.3804 39.7378 48.2075 39.9106C48.0346 40.0835 47.9375 40.318 47.9375 40.5625C47.9375 40.807 48.0346 41.0415 48.2075 41.2144C48.3804 41.3872 48.6149 41.4844 48.8594 41.4844H49.7812C50.0257 41.4844 50.2602 41.3872 50.4331 41.2144C50.606 41.0415 50.7031 40.807 50.7031 40.5625C50.7031 40.318 50.606 40.0835 50.4331 39.9106C50.2602 39.7378 50.0257 39.6406 49.7812 39.6406Z" fill="#00A892"/>
<path d="M29.5 28.5862V21.2031C29.5 20.9586 29.4029 20.7241 29.23 20.5513C29.0571 20.3784 28.8226 20.2812 28.5781 20.2812H24.8906C24.6461 20.2812 24.4116 20.3784 24.2387 20.5513C24.0659 20.7241 23.9687 20.9586 23.9687 21.2031V28.5781H23.0469V19.3594C23.0469 19.1149 22.9497 18.8804 22.7769 18.7075C22.604 18.5346 22.3695 18.4375 22.125 18.4375H18.4375C18.193 18.4375 17.9585 18.5346 17.7856 18.7075C17.6127 18.8804 17.5156 19.1149 17.5156 19.3594V28.5781H16.5937V25.8125C16.5937 25.568 16.4966 25.3335 16.3237 25.1606C16.1508 24.9878 15.9164 24.8906 15.6719 24.8906H11.9844C11.7399 24.8906 11.5054 24.9878 11.3325 25.1606C11.1596 25.3335 11.0625 25.568 11.0625 25.8125V28.5781H10.1406V21.2031C10.1406 20.9586 10.0435 20.7241 9.87061 20.5513C9.69772 20.3784 9.46324 20.2812 9.21875 20.2812H5.53125C5.28675 20.2812 5.05227 20.3784 4.87939 20.5513C4.7065 20.7241 4.60937 20.9586 4.60937 21.2031V28.5781C4.36488 28.5781 4.1304 28.6753 3.95751 28.8481C3.78463 29.021 3.6875 29.2555 3.6875 29.5C3.6875 29.7445 3.78463 29.979 3.95751 30.1519C4.1304 30.3247 4.36488 30.4219 4.60937 30.4219H29.3847C29.6182 30.4203 29.8423 30.3302 30.0119 30.1698C30.1815 30.0095 30.2839 29.7907 30.2985 29.5578C30.3131 29.3248 30.2389 29.095 30.0907 28.9147C29.9424 28.7344 29.7314 28.617 29.5 28.5862ZM8.29687 28.5781H6.45312V22.125H8.29687V28.5781ZM14.75 28.5781H12.9062V26.7344H14.75V28.5781ZM21.2031 28.5781H19.3594V20.2812H21.2031V28.5781ZM27.6562 28.5781H25.8125V22.125H27.6562V28.5781Z" fill="#00A892"/>
<path d="M36.875 36.875H25.8125C25.568 36.875 25.3335 36.9721 25.1606 37.145C24.9878 37.3179 24.8906 37.5524 24.8906 37.7969V40.5625C24.8906 40.807 24.9878 41.0415 25.1606 41.2144C25.3335 41.3872 25.568 41.4844 25.8125 41.4844H36.875C37.1195 41.4844 37.354 41.3872 37.5269 41.2144C37.6997 41.0415 37.7969 40.807 37.7969 40.5625V37.7969C37.7969 37.5524 37.6997 37.3179 37.5269 37.145C37.354 36.9721 37.1195 36.875 36.875 36.875ZM35.9531 39.6406H26.7344V38.7188H35.9531V39.6406Z" fill="#00A892"/>
</svg>
