<svg width="47" height="47" viewBox="0 0 47 47" fill="none" xmlns="http://www.w3.org/2000/svg">
<path d="M44.65 26.6337C43.3521 26.6337 42.3 27.6859 42.3 28.9838V31.3338H16.9584C17.1371 30.9677 17.231 30.5661 17.2333 30.1588C17.2333 28.6446 16.0058 27.4171 14.4917 27.4171H9.00834C7.49416 27.4171 6.26667 28.6446 6.26667 30.1588C6.26896 30.5661 6.36294 30.9677 6.54162 31.3338H4.7V22.717C4.7 21.4191 3.64787 20.3669 2.35 20.3669C1.05213 20.3669 4.26784e-06 21.4191 4.26784e-06 22.717V44.6507C-0.00216196 45.7939 0.820536 46.7721 1.94723 46.9658C3.07393 47.1595 4.17607 46.5124 4.55587 45.434H42.4441C42.8239 46.5124 43.9261 47.1595 45.0528 46.9658C46.1795 46.7721 47.0022 45.7939 47 44.6507V28.9838C47 27.6859 45.9479 26.6337 44.65 26.6337ZM42.3 39.9506H14.8833C14.4507 39.9506 14.1 39.5999 14.1 39.1673V32.9005H42.3V39.9506ZM7.83334 30.1588C7.83334 29.5098 8.3594 28.9838 9.00834 28.9838H14.4917C15.1406 28.9838 15.6667 29.5098 15.6667 30.1588C15.6667 30.8077 15.1406 31.3338 14.4917 31.3338H9.00834C8.3594 31.3338 7.83334 30.8077 7.83334 30.1588ZM2.35 45.434C1.91738 45.434 1.56667 45.0833 1.56667 44.6507V22.717C1.56667 22.2844 1.91738 21.9336 2.35 21.9336C2.78263 21.9336 3.13334 22.2844 3.13334 22.717V44.6507C3.13334 45.0833 2.78263 45.434 2.35 45.434ZM4.7 32.9005H12.5333V39.1673C12.5333 40.4652 13.5855 41.5173 14.8833 41.5173H42.3V43.8674H4.7V32.9005ZM45.4333 44.6507C45.4333 45.0833 45.0826 45.434 44.65 45.434C44.2174 45.434 43.8667 45.0833 43.8667 44.6507V28.9838C43.8667 28.5511 44.2174 28.2004 44.65 28.2004C45.0826 28.2004 45.4333 28.5511 45.4333 28.9838V44.6507Z" fill="#00A892"/>
<path d="M23.5001 25.0671C30.4221 25.0671 36.0335 19.4556 36.0335 12.5336C36.0335 5.61146 30.4221 0 23.5001 0C16.5782 0 10.9668 5.61146 10.9668 12.5336C10.975 19.4522 16.5816 25.0589 23.5001 25.0671ZM23.5001 1.56669C29.5568 1.56669 34.4668 6.47672 34.4668 12.5336C34.4668 18.5904 29.5568 23.5004 23.5001 23.5004C17.4434 23.5004 12.5335 18.5904 12.5335 12.5336C12.5399 6.47941 17.4461 1.57317 23.5001 1.56669Z" fill="#00A892"/>
<path d="M18.0169 15.6669H20.3669V18.017C20.3669 18.8822 21.0683 19.5836 21.9335 19.5836H25.0669C25.9321 19.5836 26.6335 18.8822 26.6335 18.017V15.6669H28.9835C29.8488 15.6669 30.5502 14.9655 30.5502 14.1002V10.9668C30.5502 10.1016 29.8488 9.40013 28.9835 9.40013H26.6335V7.05009C26.6335 6.18483 25.9321 5.4834 25.0669 5.4834H21.9335C21.0683 5.4834 20.3669 6.18483 20.3669 7.05009V9.40013H18.0169C17.1516 9.40013 16.4502 10.1016 16.4502 10.9668V14.1002C16.4502 14.9655 17.1516 15.6669 18.0169 15.6669ZM18.0169 10.9668H20.3669C21.2321 10.9668 21.9335 10.2654 21.9335 9.40013V7.05009H25.0669V9.40013C25.0669 10.2654 25.7683 10.9668 26.6335 10.9668H28.9835V14.1002H26.6335C25.7683 14.1002 25.0669 14.8016 25.0669 15.6669V18.017H21.9335V15.6669C21.9335 14.8016 21.2321 14.1002 20.3669 14.1002H18.0169V10.9668Z" fill="#00A892"/>
<path d="M16.4503 36.034H33.6837C34.1163 36.034 34.467 35.6833 34.467 35.2506C34.467 34.818 34.1163 34.4673 33.6837 34.4673H16.4503C16.0177 34.4673 15.667 34.818 15.667 35.2506C15.667 35.6833 16.0177 36.034 16.4503 36.034Z" fill="#00A892"/>
<path d="M36.8165 36.034C37.2492 36.034 37.5999 35.6833 37.5999 35.2506C37.5999 34.818 37.2492 34.4673 36.8165 34.4673C36.3839 34.4673 36.0332 34.818 36.0332 35.2506C36.0332 35.6833 36.3839 36.034 36.8165 36.034Z" fill="#00A892"/>
</svg>
