<svg width="47" height="47" viewBox="0 0 47 47" fill="none" xmlns="http://www.w3.org/2000/svg">
<path d="M12.4844 7.34375C13.699 7.34375 14.6875 6.35528 14.6875 5.14062C14.6875 3.92597 13.699 2.9375 12.4844 2.9375C11.2697 2.9375 10.2812 3.92597 10.2812 5.14062C10.2812 6.35528 11.2697 7.34375 12.4844 7.34375ZM12.4844 4.40625C12.889 4.40625 13.2188 4.73598 13.2188 5.14062C13.2188 5.54527 12.889 5.875 12.4844 5.875C12.0797 5.875 11.75 5.54527 11.75 5.14062C11.75 4.73598 12.0797 4.40625 12.4844 4.40625Z" fill="#00A892"/>
<path d="M34.5156 7.34375C35.7303 7.34375 36.7188 6.35528 36.7188 5.14062C36.7188 3.92597 35.7303 2.9375 34.5156 2.9375C33.301 2.9375 32.3125 3.92597 32.3125 5.14062C32.3125 6.35528 33.301 7.34375 34.5156 7.34375ZM34.5156 4.40625C34.9203 4.40625 35.25 4.73598 35.25 5.14062C35.25 5.54527 34.9203 5.875 34.5156 5.875C34.111 5.875 33.7812 5.54527 33.7812 5.14062C33.7812 4.73598 34.111 4.40625 34.5156 4.40625Z" fill="#00A892"/>
<path d="M44.0625 0.734375C42.8478 0.734375 41.8594 1.72284 41.8594 2.9375H38.3256C37.5625 1.62297 36.1423 0.734375 34.5156 0.734375C32.889 0.734375 31.4687 1.62297 30.7057 2.9375H28.0788C27.0015 1.59653 25.3506 0.734375 23.5 0.734375C21.6494 0.734375 19.9985 1.59653 18.9212 2.9375H16.2943C15.5313 1.62297 14.111 0.734375 12.4844 0.734375C10.8577 0.734375 9.43745 1.62297 8.67444 2.9375H5.14062C5.14062 1.72284 4.15216 0.734375 2.9375 0.734375C1.72284 0.734375 0.734375 1.72284 0.734375 2.9375V7.34375C0.734375 8.55841 1.72284 9.54688 2.9375 9.54688C4.15216 9.54688 5.14062 8.55841 5.14062 7.34375H8.67444C9.06072 8.00983 9.61591 8.56428 10.2812 8.95056V11.3542C7.30483 12.292 5.14062 15.0775 5.14062 18.3594V39.6562C5.14062 41.158 6.04905 42.4483 7.34375 43.0168V44.0625C7.34375 45.2772 8.33222 46.2656 9.54688 46.2656C10.7615 46.2656 11.75 45.2772 11.75 44.0625V43.3281H13.2188V44.0625C13.2188 45.2772 14.2072 46.2656 15.4219 46.2656C16.6365 46.2656 17.625 45.2772 17.625 44.0625V43.0168C18.9197 42.4483 19.8281 41.158 19.8281 39.6562V18.3594C19.8281 15.0775 17.6639 12.292 14.6875 11.3542V8.95056C15.3536 8.56428 15.908 8.00909 16.2943 7.34375H17.6757C18.0392 10.2372 20.5096 12.4844 23.5 12.4844C26.4904 12.4844 28.9608 10.2372 29.3243 7.34375H30.7057C31.092 8.00983 31.6472 8.56428 32.3125 8.95056V11.3542C29.3361 12.292 27.1719 15.0775 27.1719 18.3594V39.6562C27.1719 41.158 28.0803 42.4483 29.375 43.0168V44.0625C29.375 45.2772 30.3635 46.2656 31.5781 46.2656C32.7928 46.2656 33.7812 45.2772 33.7812 44.0625V43.3281H35.25V44.0625C35.25 45.2772 36.2385 46.2656 37.4531 46.2656C38.6678 46.2656 39.6562 45.2772 39.6562 44.0625V43.0168C40.951 42.4483 41.8594 41.158 41.8594 39.6562V18.3594C41.8594 15.0775 39.6952 12.292 36.7188 11.3542V8.95056C37.3848 8.56428 37.9393 8.00909 38.3256 7.34375H41.8594C41.8594 8.55841 42.8478 9.54688 44.0625 9.54688C45.2772 9.54688 46.2656 8.55841 46.2656 7.34375V2.9375C46.2656 1.72284 45.2772 0.734375 44.0625 0.734375ZM3.67188 7.34375C3.67188 7.74839 3.34214 8.07812 2.9375 8.07812C2.53286 8.07812 2.20312 7.74839 2.20312 7.34375V2.9375C2.20312 2.53286 2.53286 2.20312 2.9375 2.20312C3.34214 2.20312 3.67188 2.53286 3.67188 2.9375V7.34375ZM5.14062 5.875V4.40625H8.14422C8.10383 4.64566 8.07812 4.8902 8.07812 5.14062C8.07812 5.39105 8.10383 5.63559 8.14422 5.875H5.14062ZM12.4844 2.20312C14.1044 2.20312 15.4219 3.52059 15.4219 5.14062C15.4219 6.76066 14.1044 8.07812 12.4844 8.07812C10.8643 8.07812 9.54688 6.76066 9.54688 5.14062C9.54688 3.52059 10.8643 2.20312 12.4844 2.20312ZM6.60938 27.9062V26.4375H18.3594V27.9062H6.60938ZM18.3594 29.375V32.3125H6.60938V29.375H18.3594ZM6.60938 24.9688V22.0312H18.3594V24.9688H6.60938ZM6.60938 20.5625V19.0938H18.3594V20.5625H6.60938ZM10.2812 44.0625C10.2812 44.4679 9.95152 44.7969 9.54688 44.7969C9.14223 44.7969 8.8125 44.4679 8.8125 44.0625V43.3281H10.2812V44.0625ZM16.1562 44.0625C16.1562 44.4679 15.8265 44.7969 15.4219 44.7969C15.0172 44.7969 14.6875 44.4679 14.6875 44.0625V43.3281H16.1562V44.0625ZM16.1562 41.8594H8.8125C7.59784 41.8594 6.60938 40.8709 6.60938 39.6562V33.7812H18.3594V39.6562C18.3594 40.8709 17.3709 41.8594 16.1562 41.8594ZM18.3087 17.625H6.66005C7.02356 14.7316 9.494 12.4844 12.4844 12.4844C15.4748 12.4844 17.9452 14.7316 18.3087 17.625ZM13.2188 11.0531C12.9771 11.0288 12.7326 11.0156 12.4844 11.0156C12.2362 11.0156 11.9916 11.0288 11.75 11.0531V9.48078C11.9894 9.52117 12.234 9.54688 12.4844 9.54688C12.7348 9.54688 12.9793 9.52117 13.2188 9.48078V11.0531ZM16.8245 4.40625H18.0575C17.8695 4.86964 17.7403 5.36241 17.6757 5.875H16.8238C16.8649 5.63559 16.8906 5.39105 16.8906 5.14062C16.8906 4.8902 16.8649 4.64566 16.8245 4.40625ZM23.5 11.0156C21.07 11.0156 19.0938 9.03942 19.0938 6.60938C19.0938 4.17933 21.07 2.20312 23.5 2.20312C25.93 2.20312 27.9062 4.17933 27.9062 6.60938C27.9062 9.03942 25.93 11.0156 23.5 11.0156ZM29.3243 5.875C29.2597 5.36241 29.1312 4.86964 28.9425 4.40625H30.1755C30.1351 4.64566 30.1094 4.8902 30.1094 5.14062C30.1094 5.39105 30.1351 5.63559 30.1755 5.875H29.3243ZM34.5156 2.20312C36.1357 2.20312 37.4531 3.52059 37.4531 5.14062C37.4531 6.76066 36.1357 8.07812 34.5156 8.07812C32.8956 8.07812 31.5781 6.76066 31.5781 5.14062C31.5781 3.52059 32.8956 2.20312 34.5156 2.20312ZM28.6406 27.9062V26.4375H40.3906V27.9062H28.6406ZM40.3906 29.375V32.3125H28.6406V29.375H40.3906ZM28.6406 24.9688V22.0312H40.3906V24.9688H28.6406ZM28.6406 20.5625V19.0938H40.3906V20.5625H28.6406ZM32.3125 44.0625C32.3125 44.4679 31.9828 44.7969 31.5781 44.7969C31.1735 44.7969 30.8438 44.4679 30.8438 44.0625V43.3281H32.3125V44.0625ZM38.1875 44.0625C38.1875 44.4679 37.8578 44.7969 37.4531 44.7969C37.0485 44.7969 36.7188 44.4679 36.7188 44.0625V43.3281H38.1875V44.0625ZM38.1875 41.8594H30.8438C29.6291 41.8594 28.6406 40.8709 28.6406 39.6562V33.7812H40.3906V39.6562C40.3906 40.8709 39.4022 41.8594 38.1875 41.8594ZM40.34 17.625H28.6913C29.0548 14.7316 31.5252 12.4844 34.5156 12.4844C37.506 12.4844 39.9764 14.7316 40.34 17.625ZM35.25 11.0531C35.0084 11.0288 34.7638 11.0156 34.5156 11.0156C34.2674 11.0156 34.0229 11.0288 33.7812 11.0531V9.48078C34.0207 9.52117 34.2652 9.54688 34.5156 9.54688C34.766 9.54688 35.0106 9.52117 35.25 9.48078V11.0531ZM38.8558 5.875C38.8962 5.63559 38.9219 5.39105 38.9219 5.14062C38.9219 4.8902 38.8962 4.64566 38.8558 4.40625H41.8594V5.875H38.8558ZM44.7969 7.34375C44.7969 7.74839 44.4671 8.07812 44.0625 8.07812C43.6579 8.07812 43.3281 7.74839 43.3281 7.34375V2.9375C43.3281 2.53286 43.6579 2.20312 44.0625 2.20312C44.4671 2.20312 44.7969 2.53286 44.7969 2.9375V7.34375Z" fill="#00A892"/>
<path d="M24.2344 5.34478V2.9375H22.7656V5.34478C22.3287 5.59961 22.0312 6.06814 22.0312 6.60938C22.0312 7.41939 22.69 8.07812 23.5 8.07812C24.0412 8.07812 24.5098 7.7807 24.7646 7.34375H27.1719V5.875H24.7646C24.6361 5.65469 24.4547 5.4733 24.2344 5.34478Z" fill="#00A892"/>
</svg>
