<svg width="30" height="30" viewBox="0 0 30 30" fill="none" xmlns="http://www.w3.org/2000/svg">
<path d="M0.57666 8.84082H29.4234V29.4236H0.57666V8.84082Z" fill="#DFEEF4"/>
<path d="M0.57666 2.95947H29.4234V8.84072H0.57666V2.95947Z" fill="#F45858"/>
<path d="M14.0674 0.57666H15.9329V5.34216H14.0674V0.57666Z" fill="#6D7A84"/>
<path d="M21.5132 0.57666H23.3787V5.34216H21.5132V0.57666Z" fill="#6D7A84"/>
<path d="M6.62158 0.57666H8.48708V5.34216H6.62158V0.57666Z" fill="#6D7A84"/>
<path d="M5.91547 14.8329C6.78298 14.8329 7.48622 14.1297 7.48622 13.2622C7.48622 12.3947 6.78298 11.6914 5.91547 11.6914C5.04797 11.6914 4.34473 12.3947 4.34473 13.2622C4.34473 14.1297 5.04797 14.8329 5.91547 14.8329Z" fill="#3EA2E5"/>
<path d="M11.9721 14.8329C12.8396 14.8329 13.5429 14.1297 13.5429 13.2622C13.5429 12.3947 12.8396 11.6914 11.9721 11.6914C11.1046 11.6914 10.4014 12.3947 10.4014 13.2622C10.4014 14.1297 11.1046 14.8329 11.9721 14.8329Z" fill="#3EA2E5"/>
<path d="M18.0288 14.8329C18.8963 14.8329 19.5995 14.1297 19.5995 13.2622C19.5995 12.3947 18.8963 11.6914 18.0288 11.6914C17.1613 11.6914 16.458 12.3947 16.458 13.2622C16.458 14.1297 17.1613 14.8329 18.0288 14.8329Z" fill="#3EA2E5"/>
<path d="M24.0849 14.8329C24.9524 14.8329 25.6557 14.1297 25.6557 13.2622C25.6557 12.3947 24.9524 11.6914 24.0849 11.6914C23.2174 11.6914 22.5142 12.3947 22.5142 13.2622C22.5142 14.1297 23.2174 14.8329 24.0849 14.8329Z" fill="#3EA2E5"/>
<path d="M5.91547 20.703C6.78298 20.703 7.48622 19.9998 7.48622 19.1323C7.48622 18.2648 6.78298 17.5615 5.91547 17.5615C5.04797 17.5615 4.34473 18.2648 4.34473 19.1323C4.34473 19.9998 5.04797 20.703 5.91547 20.703Z" fill="#3EA2E5"/>
<path d="M11.9721 20.703C12.8396 20.703 13.5429 19.9998 13.5429 19.1323C13.5429 18.2648 12.8396 17.5615 11.9721 17.5615C11.1046 17.5615 10.4014 18.2648 10.4014 19.1323C10.4014 19.9998 11.1046 20.703 11.9721 20.703Z" fill="#3EA2E5"/>
<path d="M18.0288 20.703C18.8963 20.703 19.5995 19.9998 19.5995 19.1323C19.5995 18.2648 18.8963 17.5615 18.0288 17.5615C17.1613 17.5615 16.458 18.2648 16.458 19.1323C16.458 19.9998 17.1613 20.703 18.0288 20.703Z" fill="#3EA2E5"/>
<path d="M24.0849 20.703C24.9524 20.703 25.6557 19.9998 25.6557 19.1323C25.6557 18.2648 24.9524 17.5615 24.0849 17.5615C23.2174 17.5615 22.5142 18.2648 22.5142 19.1323C22.5142 19.9998 23.2174 20.703 24.0849 20.703Z" fill="#3EA2E5"/>
<path d="M5.91547 26.5731C6.78298 26.5731 7.48622 25.8699 7.48622 25.0024C7.48622 24.1349 6.78298 23.4316 5.91547 23.4316C5.04797 23.4316 4.34473 24.1349 4.34473 25.0024C4.34473 25.8699 5.04797 26.5731 5.91547 26.5731Z" fill="#3EA2E5"/>
<path d="M11.9721 26.5731C12.8396 26.5731 13.5429 25.8699 13.5429 25.0024C13.5429 24.1349 12.8396 23.4316 11.9721 23.4316C11.1046 23.4316 10.4014 24.1349 10.4014 25.0024C10.4014 25.8699 11.1046 26.5731 11.9721 26.5731Z" fill="#3EA2E5"/>
<path d="M18.0288 26.5731C18.8963 26.5731 19.5995 25.8699 19.5995 25.0024C19.5995 24.1349 18.8963 23.4316 18.0288 23.4316C17.1613 23.4316 16.458 24.1349 16.458 25.0024C16.458 25.8699 17.1613 26.5731 18.0288 26.5731Z" fill="#3EA2E5"/>
<path d="M24.0849 26.5731C24.9524 26.5731 25.6557 25.8699 25.6557 25.0024C25.6557 24.1349 24.9524 23.4316 24.0849 23.4316C23.2174 23.4316 22.5142 24.1349 22.5142 25.0024C22.5142 25.8699 23.2174 26.5731 24.0849 26.5731Z" fill="#3EA2E5"/>
</svg>
