<svg width="22" height="22" viewBox="0 0 22 22" fill="none" xmlns="http://www.w3.org/2000/svg">
<path d="M21.7312 20.436L15.475 14.1798C16.6868 12.683 17.4165 10.7809 17.4165 8.70924C17.4165 3.90779 13.5097 0.000976562 8.70822 0.000976562C3.90677 0.000976562 0 3.90774 0 8.7092C0 13.5106 3.90681 17.4175 8.70826 17.4175C10.7799 17.4175 12.682 16.6878 14.1789 15.476L20.4351 21.7322C20.6138 21.9109 20.8484 22.0008 21.0831 22.0008C21.3178 22.0008 21.5525 21.9109 21.7312 21.7322C22.0896 21.3738 22.0896 20.7944 21.7312 20.436ZM8.70826 15.5841C4.91695 15.5841 1.83333 12.5005 1.83333 8.7092C1.83333 4.91789 4.91695 1.83426 8.70826 1.83426C12.4996 1.83426 15.5832 4.91789 15.5832 8.7092C15.5832 12.5005 12.4995 15.5841 8.70826 15.5841Z" fill="white"/>
</svg>