<svg width="72" height="112" viewBox="0 0 72 112" fill="none" xmlns="http://www.w3.org/2000/svg">
<path d="M55.9277 111.186C55.9277 111.186 71.9555 93.6766 70.955 87.6842C69.9546 81.6917 60.9297 78.1855 61.4405 67.6881C61.9514 57.1907 54.9272 57.6794 58.4393 53.6844C61.9514 49.6894 59.9505 42.677 59.9505 42.677C59.9505 42.677 54.9485 44.6744 45.434 47.6706C35.9195 50.6669 28.9166 50.1782 31.9179 40.1695C34.9191 30.1608 35.43 20.6622 35.43 20.6622L26.9159 22.6597L24.4042 15.1584C24.4042 15.1584 20.4026 16.1571 21.403 7.16843C22.4034 -1.82025 13.3997 1.66479 13.3997 1.66479L2.374 18.6647C2.374 18.6647 3.28927 22.3622 1.11817 26.9096C0.415761 28.3759 3.03379 27.7383 3.99163 29.6508C5.24746 32.1583 5.05594 34.1345 6.63104 34.772C11.9098 36.9395 13.8041 37.4921 14.762 41.657C15.5069 44.9083 11.7395 52.1332 11.8885 55.2781C11.9949 57.4881 10.6114 57.4244 15.0174 59.2731C15.8263 59.6131 15.9753 60.9731 16.1455 61.3981C16.55 62.4181 16.1455 64.1393 17.2737 66.5193C18.7211 69.558 16.4435 66.6893 21.105 68.5593C22.2331 69.0055 23.0207 70.0468 23.1697 71.2368C23.2548 71.9168 23.2122 72.5968 23.0206 73.2556L20.6793 81.6491C20.6793 81.6491 25.809 89.4054 33.7059 89.0229C41.6027 88.6404 44.6039 100.264 44.6039 100.264L49.1164 108.509L55.9277 111.186Z" fill="#FD0600" stroke="white" stroke-miterlimit="10"/>
</svg>
