<svg width="269" height="403" viewBox="0 0 269 403" fill="none" xmlns="http://www.w3.org/2000/svg">
<path d="M127.992 140.983C127.992 140.083 127.932 139.18 128.007 138.284C128.142 136.65 127.642 135.08 127.586 133.468C127.567 132.921 127.293 132.422 126.937 132.01C124.883 129.642 122.387 128.172 119.151 128.146C117.641 128.135 116.162 128.229 114.717 128.69C113.298 129.143 112.044 128.907 110.884 127.88C110.088 127.175 109.168 126.598 108.102 126.28C107.085 125.972 106.116 125.882 105.117 126.276C104.84 126.385 104.536 126.433 104.262 126.549C103.443 126.894 102.711 126.658 102.065 126.171C101.446 125.702 100.913 125.14 100.511 124.447C99.9104 123.409 99.092 122.532 98.2661 121.658C96.3853 119.676 93.9638 118.911 91.3885 118.469C90.3298 118.289 89.2523 118.225 88.1899 118.064C85.8698 117.708 83.8764 116.707 82.2095 115.043C81.7665 114.601 81.5563 114.121 81.4512 113.484C80.9294 110.325 81.2372 107.15 81.1584 103.983C81.7703 100.655 81.5112 97.2931 81.4437 93.9462C81.3986 91.6974 81.2635 89.4336 80.5277 87.2374C80.0209 85.7194 79.8594 84.0928 79.6755 82.4925C79.4953 80.8959 79.2475 79.3067 79.0297 77.7139C79.0147 77.5939 78.9847 77.474 78.996 77.3578C79.1611 75.1952 78.6356 73.0739 78.5755 70.9226C78.5455 69.742 78.2939 68.5576 78.0649 67.3883C77.8472 66.2789 77.5356 65.1882 77.423 64.0526C77.3141 62.9507 77.2615 62.932 78.2001 62.6247C78.9396 62.3848 79.683 62.1299 80.4451 62.0063C83.2269 61.5453 85.9374 60.7919 88.6141 59.9449C90.9492 59.2028 93.258 58.352 95.4843 57.2988C96.7307 56.7067 98.0221 56.2119 99.2384 55.571C101.303 54.4804 103.345 53.3448 105.354 52.1529C106.169 51.6694 106.878 51.0023 107.621 50.3989C109.529 48.8585 111.492 47.3856 113.309 45.744C114.769 44.4247 116.181 43.0417 117.409 41.4713C118.88 39.5861 120.386 37.7271 121.677 35.7107C123.295 33.1884 124.756 30.5798 126.107 27.9075C126.505 27.1205 126.618 26.3109 126.554 25.4714C126.43 23.9085 126.94 22.5742 127.74 21.24C128.66 19.707 129.557 18.1442 130.199 16.4613C130.605 15.3932 130.89 14.3025 130.875 13.1444C130.864 12.3648 130.882 11.5853 130.886 10.8057C130.905 7.61245 129.418 5.21003 126.933 3.33981C126.313 2.87506 125.578 2.56773 125.052 1.97181C124.767 1.64949 124.831 1.30468 125.214 1.0873C126.171 0.547593 127.252 0.333961 128.299 0.169052C129.835 -0.0708157 131.404 -0.0483289 132.958 0.191539C135.001 0.510114 136.885 1.20723 138.586 2.40657C139.277 2.8938 140.106 3.18989 140.936 3.24986C142.07 3.33231 143.162 3.70336 144.318 3.65089C145.081 3.61341 145.276 3.83453 145.283 4.61411C145.291 5.52111 145.411 6.40187 145.67 7.26764C145.79 7.66493 145.907 8.08095 146.12 8.4295C146.642 9.28778 147.72 9.58012 148.632 9.14911C148.85 9.04791 149.052 8.91673 149.259 8.7968C150.565 8.02098 151.418 8.35454 151.737 9.81624C151.913 10.6295 152.075 11.4616 152.112 12.2899C152.161 13.3356 152.484 14.2838 152.904 15.2133C153.351 16.2065 153.606 17.2222 153.614 18.3353C153.625 20.5728 154.935 22.027 157.173 22.3269C157.826 22.4131 158.468 22.5367 159.114 22.6529C160.916 22.9678 162.56 23.6386 164.054 24.6731C165.394 25.5988 166.844 26.3184 168.311 26.993C169.498 27.5365 170.376 28.421 171.221 29.3542C172.167 30.3999 172.099 31.6817 171.855 32.9298C171.728 33.5819 171.634 34.2191 171.615 34.8787C171.593 35.6358 171.84 36.2954 172.295 36.8763C173.421 38.3156 174.862 39.23 176.728 39.2563C177.528 39.2675 178.271 39.4887 179.022 39.6686C180.629 40.0583 181.154 40.9841 180.798 42.5994C180.46 44.1174 180.197 45.6315 180.223 47.2057C180.242 48.4687 180.858 49.3645 181.695 50.159C182.078 50.5226 182.555 50.8636 183.046 51.0285C184.811 51.6245 186.639 52.0855 188.501 51.7744C189.519 51.6057 190.521 51.5533 191.535 51.527C191.835 51.5195 192.139 51.542 192.436 51.512C195.079 51.2497 197.568 51.6432 199.82 53.1574C200.263 53.4535 200.774 53.6334 201.337 53.6708C202.227 53.7308 203.007 53.5921 203.593 52.85C203.777 52.6177 204.021 52.4265 204.216 52.2016C204.832 51.4858 205.534 51.0136 206.555 51.1335C207.291 51.2234 207.963 50.8749 208.631 50.6238C209.326 50.3652 209.859 49.9079 210.212 49.2295C210.512 48.6449 210.884 48.0977 211.233 47.5392C211.36 47.3368 211.496 47.1344 211.657 46.9658C212.472 46.115 213.35 45.9089 214.416 46.4411C216.5 47.483 218.722 48.3 220.404 50.0204C220.881 50.5076 221.508 50.5038 222.094 50.3951C222.736 50.279 223.359 50.0353 223.974 49.8142C224.312 49.6943 224.631 49.5219 224.943 49.342C225.806 48.8472 226.636 48.9222 227.515 49.3457C230.698 50.8899 233.792 52.6027 236.851 54.3792C237.951 55.0201 238.259 56.0658 237.707 57.3176C237.152 58.5769 236.483 59.7875 235.811 60.9906C234.467 63.3967 233.228 65.8554 232.121 68.3815C231.4 70.0268 230.691 71.6759 229.906 73.2913C229.245 74.648 228.859 76.091 228.356 77.5002C228.277 77.7213 228.224 77.9612 228.202 78.1973C228.025 79.7865 228.472 80.3786 230.075 80.656C231.194 80.8471 232.309 81.0083 233.457 81.0383C235.376 81.087 236.866 81.9303 237.854 83.6656C238.379 84.5913 239.107 85.4084 239.761 86.2591C240.485 87.2074 241.315 88.0844 241.848 89.1675C242.355 90.1982 242.077 91.0003 241.048 91.5362C240.301 91.926 239.558 91.9373 238.807 91.5625C237.786 91.0528 236.757 90.558 235.744 90.0408C234.182 89.2388 232.523 88.8152 230.788 88.5454C229.647 88.3692 228.585 88.3317 227.432 88.5379C225.641 88.8602 224.132 89.6173 222.874 90.8691C220.892 92.833 218.568 94.0249 215.787 94.4222C214.837 94.5571 213.898 94.7145 212.941 94.7032C208.203 94.6508 203.706 95.7414 199.31 97.4355C195.867 98.7623 192.777 100.704 189.778 102.788C188.359 103.777 187.007 104.879 185.723 106.041C182.791 108.691 180.91 111.933 180.223 115.872C180.017 117.063 179.9 118.237 179.9 119.432C179.9 121.655 179.011 123.356 176.995 124.413C175.981 124.945 175.061 125.597 174.254 126.426C173.098 127.618 172.813 129.027 173.226 130.567C173.646 132.141 174.419 133.566 175.324 134.919C175.959 135.867 176.574 136.823 177.036 137.864C177.689 139.334 177.273 140.462 175.737 141.009C174.386 141.489 172.982 141.815 171.6 142.205C169.869 142.696 168.172 143.232 166.671 144.3C164.557 145.806 163.589 147.894 163.345 150.383C163.27 151.155 163.322 151.942 163.33 152.721C163.333 153.265 163.213 153.778 163.086 154.307C162.763 155.633 162.136 156.739 161.081 157.616C160.574 158.036 160.142 158.542 159.651 158.984C158.926 159.64 158.16 159.715 157.387 159.089C156.722 158.549 155.979 158.182 155.243 157.789C154.594 157.44 153.895 157.369 153.171 157.283C150.731 156.986 148.681 157.878 146.838 159.306C144.833 160.858 144.048 162.931 144.472 165.464C144.87 167.844 143.8 169.662 142.047 171.112C141.364 171.678 140.557 172.139 139.731 172.477C137.505 173.384 135.395 174.523 133.244 175.584C130.229 177.068 127.226 178.578 124.222 180.077C123.847 180.265 123.479 180.475 123.096 180.643C122.777 180.782 122.432 181.112 122.101 180.876C121.756 180.628 121.985 180.235 122.068 179.886C122.541 177.911 123.07 175.929 122.905 173.882C122.736 171.806 122.526 169.722 121.538 167.814C121.148 167.061 120.675 166.394 120.097 165.772C118.955 164.55 117.829 163.309 116.891 161.915C115.505 159.857 114.908 157.582 115.025 155.12C115.04 154.764 115.096 154.404 115.194 154.063C115.595 152.676 115.851 151.271 115.753 149.817C115.719 149.329 115.809 148.868 116.031 148.422C116.56 147.358 117.615 147.039 118.546 147.748C119.117 148.179 119.597 148.73 120.115 149.228C122.101 151.136 123.937 151.061 125.901 150.334C126.907 149.963 127.413 149.03 127.627 147.965C127.898 146.612 128.048 145.252 128.003 143.869C127.965 142.902 127.992 141.942 127.992 140.983Z" fill="#F38620"/>
<path d="M174.712 202.28C175.91 202.295 177.111 202.194 178.283 202.573C178.557 202.662 178.88 202.625 179.18 202.621C180.805 202.61 182.386 202.974 183.978 203.21C185.04 203.367 186.114 203.423 187.165 203.693C189.061 204.177 190.822 204.975 192.267 206.246C194.219 207.962 195.484 210.102 195.405 212.831C195.39 213.31 195.39 213.79 195.409 214.27C195.454 215.379 195.969 216.189 196.96 216.721C198.352 217.467 199.865 217.804 201.397 218.108C204.37 218.7 207.374 218.445 210.366 218.43C211.492 218.423 212.645 218.276 213.741 218.018C215.141 217.684 216.38 217.032 217.51 216.039C219.357 214.416 221.227 212.804 222.833 210.953C224.091 209.502 225.409 208.116 226.741 206.74C227.387 206.077 228.164 205.638 228.998 205.297C229.779 204.979 230.387 205.196 230.879 205.886C231.603 206.901 231.566 208.052 231.337 209.173C231.032 210.661 230.263 211.957 229.343 213.157C229.005 213.599 228.513 213.843 228.022 214.067C225.863 215.046 224.609 216.785 223.787 218.94C222.717 221.739 222.146 224.689 221.178 227.519C220.915 228.291 220.517 228.909 219.939 229.453C219.488 229.876 218.978 230.169 218.388 230.322C214.368 231.353 210.538 232.893 206.818 234.722C206.229 235.011 205.613 235.251 204.997 235.491C203.942 235.903 202.899 235.903 201.859 235.404C201.483 235.225 201.082 235.09 200.684 234.962C198.664 234.314 197.001 235.086 196.119 236.994C195.424 238.489 195.221 240.082 195.075 241.682C195.007 242.413 194.831 243.099 194.602 243.774C194.29 244.703 193.791 245.381 192.747 245.771C191.46 246.255 190.206 246.809 188.854 247.117C188.137 247.278 187.447 247.263 186.726 247.102C185.37 246.802 184.053 246.401 182.859 245.685C181.102 244.632 179.274 244.433 177.333 245.063C174.299 246.049 171.168 245.79 168.056 245.779C167.508 245.775 167.32 245.543 167.275 244.999C167.215 244.272 167.343 243.579 167.579 242.885C168.623 239.823 167.887 237.065 165.89 234.666C164.88 233.452 163.517 232.665 161.779 232.852C160.713 232.968 159.816 233.422 159.054 234.108C157.886 235.157 156.527 235.922 155.243 236.799C154.384 237.387 153.377 237.676 152.39 237.818C151.369 237.968 150.397 237.511 149.559 236.889C149.282 236.683 149.267 236.353 149.488 236.094C149.875 235.637 150.295 235.21 150.72 234.782C151.395 234.1 152.09 233.433 152.758 232.747C154.278 231.192 154.902 229.322 154.631 227.17C154.579 226.765 154.425 226.361 154.26 225.978C152.375 221.571 150.922 217.006 149.492 212.437C149.049 211.024 148.621 209.6 148.414 208.101C148.219 206.699 147.596 205.361 146.924 204.075C146.023 202.351 145.591 200.507 145.636 198.544C145.666 197.202 145.97 195.946 146.53 194.736C147.007 193.705 147.551 192.708 147.945 191.632C148.407 190.366 148.49 189.087 148.576 187.764C148.67 186.321 147.254 185.16 146.173 185.062C142.776 184.751 139.716 185.325 137.625 188.409C137.193 189.046 136.593 189.578 136.033 190.118C134.715 191.389 133.796 192.94 133.079 194.582C132.332 196.295 131.299 197.839 130.451 199.488C130.188 200.001 129.726 200.466 129.253 200.807C128.405 201.426 127.492 201.744 126.415 201.178C125.537 200.717 124.793 200.133 124.223 199.357C122.717 197.322 121.501 195.11 120.577 192.768C119.703 190.545 118.963 188.263 118.505 185.905C118.362 185.175 118.362 185.133 119.019 184.789C119.391 184.594 119.766 184.384 120.168 184.283C121.52 183.938 122.736 183.286 123.971 182.671C128.968 180.182 133.957 177.683 138.965 175.22C140.467 174.482 142.036 173.878 143.373 172.829C145.201 171.393 146.44 169.662 146.395 167.226C146.383 166.506 146.429 165.783 146.376 165.067C146.252 163.362 146.909 162.012 148.246 161.015C149.503 160.078 150.84 159.31 152.525 159.411C153.569 159.475 154.519 159.692 155.401 160.281C156.144 160.776 156.843 161.375 157.736 161.604C158.134 161.705 158.303 162.02 158.506 162.312C159.354 163.545 160.18 164.786 160.92 166.09C162.759 169.325 164.107 172.784 165.639 176.157C166.697 178.492 167.531 180.951 169.1 183.046C169.644 183.777 170.226 184.399 170.985 184.924C173 186.318 174.986 187.764 176.713 189.522C176.882 189.695 177.059 189.856 177.216 190.036C178.613 191.625 178.688 192.569 177.521 194.361C177.032 195.114 176.492 195.826 175.835 196.456C174.667 197.58 173.537 198.742 172.396 199.893C172.062 200.23 171.713 200.556 171.626 201.073C171.503 201.812 171.803 202.235 172.554 202.258C173.267 202.295 173.992 202.28 174.712 202.28Z" fill="#FFE604"/>
<path d="M236.389 242.2C238.202 242.173 239.948 241.761 241.656 241.218C243.147 240.745 244.663 240.408 246.191 240.138C247.858 239.846 249.544 240.003 251.162 240.547C252.112 240.865 252.739 241.622 253.32 242.391C254.154 243.496 254.788 244.73 255.299 246.008C256.016 247.792 256.894 249.493 257.765 251.198C259.646 254.879 261.508 258.571 263.494 262.195C264.504 264.035 265.446 265.902 266.426 267.757C267.526 269.837 268.24 272.056 268.773 274.331C269.201 276.156 268.979 277.903 267.763 279.42C267.504 279.743 267.215 280.076 266.869 280.286C266.186 280.702 265.552 281.219 265.165 281.86C264.553 282.872 263.622 283.3 262.623 283.701C261.381 284.199 260.329 285.009 259.331 285.856C257.589 287.336 255.641 288.513 253.718 289.724C252.543 290.462 251.229 291.005 249.799 290.769C248.684 290.586 247.603 290.226 246.608 289.63C244.862 288.584 243.102 287.561 241.322 286.572C240.275 285.991 239.212 285.338 238.026 285.17C236.75 284.99 235.961 283.989 234.839 283.599C234.557 283.502 234.272 283.401 233.994 283.288C232.451 282.666 230.946 282.797 229.47 283.513C228.825 283.828 228.16 284.117 227.544 284.491C226.497 285.125 225.356 285.192 224.233 284.964C221.474 284.409 218.767 283.641 216.147 282.61C212.971 281.366 209.813 280.069 206.66 278.768C205.83 278.427 205.049 277.97 204.235 277.588C203.551 277.269 203.274 276.748 203.289 276.006C203.296 275.47 203.266 274.927 203.176 274.402C202.876 272.655 202.08 271.194 200.927 269.811C198.754 267.195 196.76 264.425 194.703 261.711C193.659 260.332 193.1 258.799 193.209 257.03C193.254 256.292 193.483 255.621 193.719 254.95C193.997 254.159 194.297 253.372 194.684 252.634C195.341 251.378 195.307 249.969 195.668 248.65C195.683 248.594 195.698 248.519 195.675 248.474C195.105 247.308 195.814 246.409 196.291 245.46C196.835 244.381 197.188 243.264 197.218 242.027C197.248 240.899 197.496 239.782 197.823 238.692C197.962 238.223 198.16 237.807 198.506 237.451C199.137 236.803 199.411 236.713 200.248 237.065C201.134 237.436 201.997 237.833 202.981 237.905C204.46 238.009 205.838 237.728 207.148 237.043C209.325 235.903 211.6 234.97 213.868 234.029C215.426 233.385 217.021 232.879 218.658 232.522C220.933 232.028 222.379 230.645 223.092 228.508C223.775 226.47 224.335 224.389 224.954 222.332C225.314 221.129 225.652 219.922 226.212 218.786C226.565 218.067 227.079 217.497 227.695 217.014C227.77 216.954 227.927 216.939 228.014 216.98C228.096 217.017 228.183 217.152 228.183 217.246C228.201 218.805 228.201 220.36 228.216 221.92C228.224 222.635 228.269 223.34 228.427 224.056C228.667 225.169 228.607 226.308 228.412 227.444C228.055 229.52 228.1 231.601 228.415 233.688C228.603 234.932 228.873 236.143 229.264 237.342C229.786 238.958 230.829 240.161 232.106 241.188C233.029 241.934 234.197 242.024 235.319 242.196C235.661 242.248 236.029 242.2 236.389 242.2Z" fill="#FD0600"/>
<path d="M218.654 332.293C218.042 332.18 217.671 331.652 217.19 331.322C215.542 330.198 213.71 329.77 211.769 329.662C209.603 329.542 207.471 329.827 205.353 330.25C205.237 330.273 205.121 330.318 205.004 330.329C203.442 330.479 203.251 330.299 203.292 328.867C203.33 327.608 203.165 326.371 202.977 325.127C202.703 323.283 201.201 321.858 199.148 322.192C197.425 322.469 195.694 322.447 193.974 322.672C192.206 322.904 190.412 322.417 188.88 321.334C188.535 321.09 188.505 320.73 188.546 320.371C188.651 319.467 188.963 318.624 189.421 317.841C190.416 316.139 191.831 314.88 193.577 313.98C194.218 313.65 194.853 313.309 195.514 313.028C197.181 312.312 198.01 310.948 198.198 309.262C198.352 307.909 198.318 306.544 197.995 305.161C197.274 302.092 195.529 299.896 192.754 298.483C191.741 297.969 190.686 297.534 189.623 297.126C186.718 296.009 183.812 294.888 180.88 293.839C179.476 293.337 178.019 292.962 176.57 292.598C175.56 292.343 174.663 291.987 173.946 291.174C173.079 290.181 171.862 289.57 170.984 288.566C169.253 286.598 168.007 284.379 167.346 281.842C167.316 281.726 167.282 281.606 167.29 281.489C167.384 279.578 166.49 278.056 165.454 276.542C164.133 274.612 163.123 272.498 162.109 270.392C161.737 269.623 161.715 268.863 162.207 268.173C163.877 265.819 164.429 263.02 165.311 260.366C165.784 258.942 166.194 257.495 166.956 256.21C167.917 254.59 167.71 253.144 166.625 251.716C166.374 251.382 166.134 251.034 165.92 250.674C165.218 249.486 165.788 248.065 167.136 248.005C168.547 247.945 169.952 247.267 171.393 247.882C171.645 247.99 172.009 247.96 172.279 247.867C173.214 247.544 174.179 247.589 175.132 247.623C176.236 247.661 177.28 247.383 178.308 247.083C179.536 246.724 180.655 246.832 181.773 247.451C183.193 248.234 184.664 248.882 186.282 249.193C187.303 249.388 188.291 249.493 189.297 249.197C190.502 248.841 191.707 248.481 192.912 248.129C193.272 248.024 193.505 248.185 193.546 248.526C193.607 249.014 193.498 249.463 193.363 249.936C192.953 251.379 192.289 252.728 191.79 254.137C190.81 256.892 190.859 259.763 192.657 262.33C194.372 264.774 196.234 267.116 198.036 269.5C198.577 270.216 199.133 270.92 199.677 271.632C200.687 272.955 201.344 274.376 201.156 276.111C201.014 277.438 201.731 278.394 202.748 279.147C203.87 279.975 205.192 280.414 206.45 280.957C208.811 281.984 211.199 282.944 213.605 283.862C217.018 285.162 220.46 286.384 224.064 287.07C225.472 287.336 226.808 287.126 228.085 286.508C228.787 286.167 229.478 285.803 230.172 285.451C231.595 284.731 232.954 284.908 234.268 285.74C234.628 285.968 234.711 286.276 234.568 286.662C234.527 286.774 234.478 286.886 234.414 286.984C233.044 289.109 232.218 291.496 231.175 293.779C230.33 295.634 229.421 297.452 227.886 298.884C227.131 299.588 226.354 300.199 225.423 300.656C224.301 301.211 223.227 301.841 222.547 303.003C222.018 303.91 221.676 304.828 221.68 305.874C221.688 307.673 221.661 309.472 221.703 311.271C221.748 313.115 221.192 314.674 219.792 315.922C219.12 316.521 218.534 317.189 218.14 318.028C217.682 319.003 217.592 319.981 217.919 320.989C218.102 321.555 218.339 322.11 218.568 322.66C218.752 323.103 218.988 323.523 219.15 323.972C220.051 326.457 220.107 327.447 219.371 330.284C219.214 330.958 219.259 331.742 218.654 332.293Z" fill="#F38620"/>
<path d="M263.701 285.638C264.027 286.541 264.219 287.441 264.249 288.404C264.358 291.991 263.671 295.405 262.293 298.715C261.674 300.206 261.294 301.766 261.332 303.426C261.369 305.157 261.925 306.709 262.766 308.175C263.213 308.95 263.776 309.659 264.253 310.42C264.572 310.926 264.838 311.461 265.109 311.994C265.409 312.582 265.304 313.144 265.007 313.71C264.692 314.314 264.23 314.775 263.69 315.161C262.518 315.993 261.373 316.866 260.149 317.616C258.828 318.425 258.111 319.576 257.739 321.034C257.394 322.383 256.816 323.639 255.779 324.605C254.916 325.411 254.435 326.438 254.008 327.491C253.658 328.346 253.666 329.249 254.041 330.111C254.424 330.992 254.939 331.802 255.404 332.637C256.23 334.125 256.346 335.718 255.423 337.232C255.085 337.787 255.107 338.653 254.473 338.885C253.756 339.144 253.133 338.514 252.502 338.207C250.993 337.476 249.51 336.689 247.93 336.108C246.683 335.651 245.41 335.351 244.07 335.422C242.493 335.504 241.442 336.333 241.206 337.877C241.063 338.818 240.763 339.728 240.8 340.71C240.838 341.749 240.504 342.704 239.779 343.506C239.501 343.814 239.317 344.211 239.051 344.53C238.676 344.979 238.615 345.496 238.634 346.047C238.653 346.568 238.833 346.981 239.31 347.228C240.38 347.779 241.322 348.517 242.298 349.211C243.92 350.358 245.711 350.946 247.727 350.309C248.065 350.204 248.433 350.163 248.789 350.148C249.675 350.118 249.979 350.331 250.175 351.197C250.437 352.359 250.61 353.543 250.888 354.698C251.455 357.051 253.129 358.386 255.509 358.423C256.346 358.434 257.195 358.502 257.994 358.157C258.047 358.135 258.111 358.131 258.171 358.123C259.984 357.823 260.855 358.401 261.302 360.192C261.399 360.582 261.246 360.897 260.979 361.167C260.345 361.804 259.71 362.445 259.064 363.071C258.584 363.532 258.148 364.023 257.889 364.641C257.259 366.155 256.196 367.392 255.216 368.67C254.124 370.09 252.96 371.466 251.62 372.677C251.087 373.156 250.569 373.643 249.983 374.071C248.816 374.925 247.884 376.02 247.089 377.238C246.619 377.957 246.51 377.927 245.775 377.676C243.473 376.897 241.589 375.379 239.524 374.176C238.593 373.632 238.405 372.658 238.278 371.706C238.214 371.241 238.214 370.72 238.36 370.282C238.788 368.985 238.57 367.666 238.627 366.358C238.649 365.863 238.473 365.417 238.323 364.963C237.891 363.655 237.455 362.351 237.039 361.039C236.37 358.937 235.653 356.856 235.297 354.653C235.019 352.925 233.84 351.654 232.297 350.811C231.618 350.44 230.878 350.155 230.135 349.934C228.074 349.323 226.028 348.637 223.82 348.72C222.743 348.761 222.619 348.566 222.409 347.524C221.609 343.551 220.802 339.579 219.987 335.606C219.848 334.935 219.886 334.358 220.28 333.732C221.222 332.236 221.605 330.542 221.692 328.788C221.725 328.069 221.669 327.349 221.714 326.629C221.816 325.022 221.358 323.567 220.64 322.151C219.417 319.729 219.51 319.025 221.493 317.11C222.675 315.966 223.287 314.64 223.557 313.039C223.73 312.02 223.756 311.079 223.595 310.045C223.392 308.755 223.46 307.41 223.557 306.098C223.674 304.535 224.733 303.538 225.945 302.691C226.043 302.624 226.155 302.575 226.268 302.53C229.099 301.365 230.814 299.097 232.139 296.488C233.007 294.783 233.851 293.052 234.531 291.268C234.966 290.128 235.65 289.154 236.209 288.104C236.69 287.205 237.219 287.096 238.146 287.418C239.929 288.033 241.457 289.094 243.068 290.008C243.901 290.481 244.701 291.009 245.523 291.5C246.781 292.246 248.181 292.583 249.589 292.883C250.103 292.992 250.693 292.999 251.196 292.864C252.585 292.493 253.974 292.081 255.19 291.279C256.936 290.124 258.7 288.989 260.326 287.662C260.881 287.209 261.445 286.759 262.041 286.362C262.533 286.028 263.033 285.676 263.701 285.638Z" fill="#00BF46"/>
<path d="M220.629 351.07C220.674 351.984 220.693 352.985 220.847 354.004C221.042 355.312 220.686 356.617 219.773 357.674C218.861 358.734 217.739 359.525 216.496 360.151C215.37 360.717 214.247 361.29 213.11 361.826C212.043 362.329 211.244 363.161 210.561 364.06C209.982 364.825 209.753 365.825 209.926 366.777C210.181 368.183 210.576 369.566 210.936 370.949C211.311 372.395 211.694 373.838 211.612 375.353C211.537 376.762 210.41 378.194 209.081 378.508C208.867 378.557 208.597 378.505 208.391 378.418C207.951 378.231 207.493 378.04 207.114 377.759C205.984 376.923 204.712 376.417 203.375 376.046C201.246 375.454 199.535 374.135 197.808 372.849C197.53 372.643 197.368 372.287 197.128 372.024C195.762 370.522 194.504 368.917 192.608 367.98C191.486 367.426 190.457 366.684 189.368 366.054C187.382 364.907 185.209 364.217 183.046 363.498C181.515 362.988 180.009 362.385 178.466 361.905C177.013 361.448 175.767 360.612 174.483 359.851C173.927 359.521 173.443 359.045 172.985 358.573C171.611 357.156 170.004 356.204 168.033 355.86C166.329 355.56 164.617 355.275 162.95 354.829C159.695 353.952 156.838 352.423 154.834 349.567C154.361 348.892 153.715 348.308 153.058 347.798C151.121 346.291 149.049 344.994 146.935 343.739C144.513 342.3 142.137 340.8 139.603 339.56C138.743 339.14 137.929 338.627 137.11 338.132C136.596 337.821 136.588 337.341 137.114 336.992C139.002 335.726 140.898 334.466 142.813 333.237C143.312 332.919 143.838 332.589 144.45 332.521C145.568 332.398 146.608 332.581 147.449 333.406C148.26 334.2 149.09 334.969 149.615 336.022C149.987 336.768 150.505 337.439 150.986 338.128C152.315 340.043 154.124 340.722 156.44 340.141C157.95 339.762 159.429 339.275 160.938 338.904C162.503 338.518 164.091 338.248 165.721 338.267C167.215 338.286 168.698 338.259 170.188 337.959C173.466 337.304 175.838 335.527 177.483 332.656C178.395 331.063 178.684 329.29 179.127 327.559C179.318 326.809 179.42 326.037 179.529 325.273C179.622 324.606 180.002 324.201 180.591 323.942C182.352 323.166 184.203 322.679 186.065 322.233C186.481 322.136 186.748 322.304 187.029 322.548C187.758 323.178 188.546 323.684 189.47 324.021C190.615 324.441 191.76 324.688 192.984 324.632C194.714 324.553 196.437 324.651 198.176 324.321C200.394 323.897 201.078 324.579 201.156 326.881C201.183 327.72 201.164 328.56 201.164 329.399C201.164 329.879 201.213 330.344 201.37 330.812C201.78 332.019 202.309 332.454 203.582 332.514C203.882 332.529 204.212 332.585 204.475 332.484C205.56 332.075 206.72 332.124 207.839 331.97C209.847 331.693 211.878 331.622 213.909 332.098C215.141 332.386 216.083 333.061 217.025 333.796C217.461 334.137 217.678 334.594 217.787 335.167C218.354 338.154 218.97 341.13 219.578 344.11C219.803 345.219 219.984 346.347 220.318 347.427C220.678 348.596 220.633 349.78 220.629 351.07Z" fill="#FD0600"/>
<path d="M126.186 140.735C126.179 141.665 126.141 142.426 125.972 143.202C125.8 144.007 125.856 144.869 125.848 145.705C125.841 146.372 125.751 147.006 125.537 147.643C125.36 148.168 125.011 148.449 124.531 148.569C123.479 148.842 122.503 148.662 121.681 147.913C121.193 147.467 120.739 146.987 120.266 146.526C118.254 144.562 116.012 145.027 114.376 147.01C114.192 147.231 114.015 147.523 113.989 147.797C113.888 148.805 113.61 149.779 113.576 150.81C113.531 152.11 113.246 153.407 113.065 154.704C113.009 155.116 112.866 155.532 112.893 155.937C113.073 158.861 113.899 161.563 115.727 163.913C116.538 164.955 117.349 165.993 118.336 166.874C119.215 167.657 119.759 168.65 120.086 169.756C120.754 172.012 121.035 174.28 120.566 176.648C120.3 177.994 120.056 179.343 119.722 180.674C119.342 182.173 118.22 183.136 116.684 183.237C115.783 183.297 114.886 183.256 114.068 182.765C113.76 182.581 113.426 182.443 113.099 182.285C111.432 181.476 109.841 181.753 108.301 182.645C108.042 182.795 107.817 183.001 107.558 183.151C106.131 183.987 104.618 184.421 102.929 184.335C101.593 184.268 100.639 183.672 99.9558 182.611C99.5691 182.012 99.2425 181.356 98.991 180.685C98.3753 179.032 97.388 177.6 96.2692 176.288C95.2143 175.048 93.799 174.178 92.2936 173.582C90.3789 172.829 88.9148 171.618 87.7585 169.936C86.6323 168.298 85.7238 166.566 84.9767 164.726C84.0569 162.455 82.9907 160.24 82.0184 157.987C81.0461 155.735 80.0437 153.493 79.1878 151.2C78.6321 149.716 78.8086 148.261 80.0174 147.051C80.7044 146.365 81.4252 145.761 82.3262 145.375C85.2845 144.116 87.2855 141.89 88.6633 139.045C89.3653 137.591 90.0899 136.152 90.5967 134.604C90.9195 133.618 90.6755 132.809 90.1837 132.07C89.7257 131.381 89.11 130.781 88.3667 130.354C87.4319 129.818 86.5009 129.274 85.5511 128.768C84.2746 128.086 83.0658 127.269 82.0447 126.283C80.6631 124.949 79.5369 123.356 79.0901 121.441C78.741 119.949 78.925 118.465 79.6796 117.09C79.8823 116.722 80.1939 116.599 80.5843 116.737C81.0386 116.899 81.4327 117.161 81.8044 117.48C83.8917 119.256 86.3807 119.964 89.05 120.268C90.3489 120.418 91.6516 120.59 92.9243 120.95C95.5559 121.692 97.4555 123.304 98.8033 125.635C99.0698 126.1 99.3251 126.587 99.6705 126.992C100.609 128.09 101.882 128.577 103.271 128.821C103.774 128.911 104.209 128.663 104.671 128.547C107.603 127.809 107.524 127.936 109.773 129.634C111.455 130.905 113.122 131.388 115.126 130.714C116.752 130.166 118.438 130.268 120.116 130.309C120.352 130.316 120.615 130.301 120.825 130.395C122.196 130.995 123.618 131.501 124.711 132.591C125.146 133.026 125.398 133.494 125.529 134.128C125.773 135.312 125.886 136.489 125.863 137.688C125.841 138.768 126.385 139.791 126.186 140.735Z" fill="#FD0600"/>
<path d="M114.383 237.17C114.477 237.181 114.833 237.211 115.186 237.278C115.419 237.32 115.648 237.481 115.877 237.47C117.803 237.38 119.68 237.889 121.598 237.912C123.19 237.93 124.718 237.649 126.088 236.847C128.029 235.712 130.237 235.322 132.29 234.501C132.617 234.37 132.989 234.321 133.341 234.302C134.058 234.261 134.764 234.228 135.474 234.044C136.401 233.804 137.171 234.059 137.876 234.835C138.676 235.708 139.63 236.465 140.609 237.136C141.815 237.96 143.162 238.463 144.683 238.264C144.979 238.227 145.283 238.275 145.584 238.245C146.939 238.11 148.133 238.38 149.315 239.152C151.572 240.618 153.873 240.34 156.05 238.864C157.285 238.024 158.491 237.136 159.711 236.27C160.101 235.993 160.514 235.742 160.878 235.438C161.607 234.831 162.324 234.992 163.044 235.416C165.117 236.63 166.419 240.243 165.62 242.004C165.143 243.058 165.034 244.197 165.105 245.348C165.143 245.974 165.019 246.525 164.542 246.986C164.332 247.188 164.171 247.454 164.032 247.716C163.168 249.328 163.089 250.902 164.264 252.42C164.373 252.562 164.426 252.754 164.546 252.877C165.481 253.833 165.466 254.789 164.79 255.932C163.874 257.487 163.42 259.245 162.969 260.984C162.436 263.03 161.595 264.938 160.574 266.775C160.251 267.352 160.094 267.438 159.598 267.168C157.864 266.212 156.002 265.883 154.049 265.984C153.336 266.021 152.788 265.778 152.296 265.257C151.388 264.301 150.4 263.416 149.503 262.45C148.234 261.078 146.729 260.669 144.942 261.13C143.369 261.539 141.773 261.76 140.14 261.651C139.784 261.629 139.389 261.685 139.07 261.557C137.854 261.07 136.69 261.449 135.545 261.749C134.648 261.985 133.995 262.536 133.679 263.514C133.311 264.665 133.011 265.793 133.037 267.018C133.06 268.146 133.116 269.274 132.744 270.399C132.377 271.505 131.772 272.303 130.698 272.745C130.477 272.835 130.27 272.97 130.045 273.045C128.311 273.618 127.947 273.971 128.007 271.729C128.04 270.47 128.018 269.218 127.613 268C127.346 267.198 127.038 266.415 126.483 265.77C124.973 264.016 123.228 262.592 120.953 261.925C120.206 261.707 119.481 261.411 118.734 261.194C116.234 260.463 114.469 258.874 113.193 256.644C111.706 254.047 110.156 251.487 108.65 248.904C108.35 248.387 108.091 247.84 107.866 247.289C107.622 246.686 107.438 246.06 107.224 245.441C107.67 244.875 108.38 244.909 108.969 244.662C109.525 244.429 110.036 244.137 110.479 243.706C111.477 242.732 112.341 241.671 112.817 240.344C113.099 239.553 113.343 238.766 113.058 237.893C112.911 237.443 113.133 237.218 113.579 237.185C113.756 237.158 113.936 237.17 114.383 237.17Z" fill="#00BF46"/>
<path d="M172.617 292.711C171.663 293.445 170.823 293.471 169.94 293.04C169.347 292.752 168.735 292.486 168.281 291.984C167.714 291.354 166.967 290.942 166.348 290.383C165.049 289.214 163.547 288.862 161.854 288.993C159.736 289.158 158.344 290.855 158.715 292.943C158.809 293.471 159.016 293.977 158.971 294.528C158.82 296.414 159.241 298.228 159.766 300C160.506 302.485 161.7 304.745 163.318 306.803C164.857 308.763 165.968 310.922 165.878 313.534C165.826 315.03 165.856 316.506 165.281 317.953C164.962 318.763 164.737 319.655 164.767 320.577C164.827 322.289 165.976 323.597 167.673 323.908C169.118 324.175 170.526 323.927 171.922 323.68C173.3 323.432 174.671 323.504 176.048 323.552C176.39 323.564 176.735 323.751 177.058 323.901C177.475 324.096 177.7 324.399 177.58 324.905C177.208 326.472 176.878 328.05 176.491 329.613C176.157 330.973 175.478 332.184 174.603 333.256C173.589 334.489 172.227 335.253 170.717 335.737C169.681 336.071 168.611 336.138 167.523 336.142C165.127 336.153 162.744 336.385 160.405 336.873C159.181 337.127 157.998 337.596 156.801 337.986C156.343 338.136 155.896 338.263 155.404 338.289C154.578 338.334 153.887 338.147 153.302 337.513C152.611 336.764 151.886 336.067 151.432 335.119C150.745 333.691 149.596 332.619 148.448 331.558C147.948 331.097 147.34 330.857 146.706 330.651C146.255 330.505 146.03 330.168 146.015 329.703C145.914 326.948 144.378 325.074 142.313 323.447C141.138 322.522 139.997 321.566 138.758 320.715C137.711 319.996 136.919 319.002 136.476 317.773C135.886 316.131 135.409 314.471 135.567 312.695C135.616 312.159 135.845 311.806 136.386 311.649C137.309 311.383 138.21 311.064 139.066 310.615C141.326 309.43 142.689 307.676 143.207 305.105C143.53 303.493 143.214 302.028 142.937 300.521C142.681 299.112 142.268 297.733 141.923 296.342C141.893 296.226 141.825 296.118 141.807 296.001C141.42 293.704 141.814 293.299 143.47 292.583C144.731 292.036 146.037 291.583 147.333 291.118C149.431 290.364 151.147 289.131 152.329 287.212C153.125 285.919 153.621 284.563 153.625 283C153.628 281.118 153.422 279.342 152.622 277.588C151.856 275.901 151.241 274.143 150.362 272.506C149.886 271.614 149.799 270.811 150.644 270.084C150.779 269.968 150.888 269.818 150.978 269.661C151.721 268.353 152.709 267.731 154.255 268.342C154.68 268.506 155.205 268.417 155.682 268.45C157.826 268.596 159.44 269.552 160.382 271.535C161.591 274.08 162.897 276.572 164.531 278.877C164.88 279.368 165.06 279.919 165.139 280.541C165.717 285.308 167.996 289.098 171.825 291.976C172.054 292.167 172.257 292.385 172.617 292.711Z" fill="#00BF46"/>
<path d="M90.8666 189.886C90.8403 190.032 90.8028 190.456 90.6752 190.849C90.3411 191.876 90.6489 192.749 91.3209 193.506C92.0379 194.312 92.7775 195.096 93.656 195.744C94.4744 196.347 95.2815 196.962 96.0774 197.595C97.4927 198.72 97.6354 200.223 97.2224 201.827C97.046 202.516 96.7119 203.165 96.4303 203.828C96.13 204.544 95.8484 205.275 95.488 205.961C94.5945 207.659 94.6696 209.405 95.1239 211.193C95.3303 212.003 95.4355 212.846 95.7133 213.629C96.3252 215.364 96.3515 217.148 96.3064 218.947C96.2989 219.187 96.3365 219.446 96.2651 219.663C95.8146 221.001 95.8935 222.388 95.9272 223.76C95.9498 224.577 95.7283 225.158 94.9324 225.469C94.2454 225.739 93.7273 226.245 93.2205 226.758C91.9929 227.991 90.7465 229.206 89.5377 230.457C88.9896 231.027 88.3513 231.469 87.6944 231.885C86.9285 232.369 86.2227 232.294 85.5545 231.713C84.4545 230.757 83.6136 229.595 82.9754 228.291C82.5511 227.425 82.0781 226.586 81.4587 225.859C79.6567 223.737 77.7946 223.868 75.9325 225.724C75.3919 226.263 75.0315 226.987 74.5886 227.624C74.2469 228.115 74.0517 228.141 73.6087 227.691C73.0644 227.137 72.4862 226.616 72.0582 225.949C71.6978 225.383 71.3449 224.85 71.4163 224.135C71.4576 223.707 71.3149 223.321 71.0221 222.976C69.9597 221.725 69.6293 220.151 69.6481 218.633C69.6706 216.879 69.1901 215.196 69.2163 213.46C69.2238 213.067 69.0174 212.647 68.8297 212.284C68.5293 211.699 68.2215 211.103 67.8085 210.597C66.4232 208.914 65.4246 207.014 64.5161 205.054C64.441 204.893 64.3622 204.724 64.2571 204.582C63.0482 202.962 62.4926 201.066 61.9107 199.177C61.4377 197.633 61.006 196.078 60.4541 194.563C60.1838 193.818 60.3415 193.342 60.8558 192.802C62.136 191.46 63.4011 190.103 64.61 188.698C66.0891 186.978 67.5007 185.197 68.946 183.447C70.8494 181.138 72.6139 178.732 74.352 176.3C75.4295 174.793 77.5919 174.527 79.1649 175.677C80.0321 176.311 80.9031 176.944 81.6539 177.735C83.8388 180.04 86.4142 181.94 88.5653 184.287C89.823 185.658 90.8328 187.922 90.8666 189.886Z" fill="#F38620"/>
<path d="M42.5766 128.165C41.1913 127.46 39.7235 126.917 38.5409 125.845C38.1955 125.534 37.715 125.38 37.2307 125.286C36.7089 125.182 36.2021 125.013 35.6464 124.859C35.6615 124.271 36.1683 123.889 36.0932 123.323C36.0294 122.854 36.0631 122.367 36.0819 121.887C36.112 121.19 35.7778 120.748 35.1471 120.515C34.5277 120.287 33.9158 120.036 33.2776 119.882C32.2339 119.631 31.4305 119.114 30.9199 118.143C30.7285 117.776 30.4694 117.438 30.1991 117.12C29.9589 116.835 29.6398 116.666 29.2456 116.854C28.9152 117.011 28.5886 117.191 28.5548 117.603C28.521 118.019 28.5173 118.439 28.5173 118.859C28.5135 120.418 28.5285 121.973 28.506 123.532C28.4947 124.331 28.4497 124.379 27.6088 124.593C26.6852 124.829 25.758 125.107 24.8157 125.223C23.4266 125.391 22.1652 125.942 20.8513 126.351C20.0929 126.587 19.4547 127.044 18.8766 127.561C17.5251 128.761 16.365 130.118 15.5429 131.752C14.8971 133.033 14.1613 134.27 13.4743 135.53C13.2753 135.897 13.0238 136.009 12.5958 135.901C11.4921 135.62 10.3771 135.383 9.37852 134.81C9.01812 134.604 8.63895 134.394 8.33861 134.113C6.84821 132.722 5.40661 131.287 4.2278 129.612C4.12644 129.465 4.03634 129.308 3.94999 129.151C3.47696 128.3 3.63839 127.644 4.51687 127.235C5.11003 126.958 5.7595 126.808 6.38269 126.591C6.83319 126.433 7.29871 126.298 7.72668 126.085C8.99559 125.448 9.78397 124.469 9.78022 122.982C9.78022 121.726 9.81776 120.482 9.43858 119.249C8.87546 117.42 7.88436 115.917 6.35266 114.766C5.77827 114.335 5.18887 113.926 4.63325 113.473C3.55205 112.596 3.24796 110.984 3.9162 109.755C4.00255 109.598 4.13394 109.466 4.22404 109.313C4.97488 107.994 4.85474 106.67 3.80733 105.516C3.20666 104.853 2.61726 104.156 1.82513 103.702C0.92413 103.181 0.552467 102.289 0.169542 101.416C-0.0819872 100.846 -0.0519542 100.235 0.248379 99.6768C0.593763 99.0322 0.725159 98.3313 0.924129 97.6417C1.13061 96.9259 1.15313 96.2325 0.972934 95.5204C0.957917 95.4642 0.935393 95.4079 0.916622 95.348C-0.0106573 92.4246 2.23809 90.0222 4.23531 89.1751C4.70082 88.9765 5.14757 88.9315 5.63561 89.0327C8.14715 89.5574 10.6587 90.0709 13.174 90.5881C13.4067 90.6368 13.6433 90.6855 13.8798 90.7155C14.7507 90.828 15.5541 90.7418 16.1435 89.9734C16.2862 89.786 16.4852 89.6399 16.6729 89.4937C16.8869 89.3213 17.1384 89.3475 17.3374 89.5012C17.7578 89.8348 18.1558 90.1983 18.5575 90.5431C18.565 90.9779 18.1896 91.1353 17.9681 91.3977C16.7855 92.7956 16.778 94.4447 17.495 95.9214C17.9193 96.7947 19.1243 97.3869 20.0854 97.1582C21.0239 96.9371 21.9062 96.5286 22.5331 95.7453C23.13 94.9994 23.6781 94.2161 24.2788 93.4703C24.5379 93.1479 24.8344 92.8369 25.1723 92.6045C26.1071 91.9598 26.6665 92.0086 27.2671 92.998C27.9128 94.0624 28.8814 94.6021 29.9551 94.9769C31.1902 95.4079 32.4591 95.8015 33.8031 95.7715C34.7154 95.7527 35.5826 96.0338 36.4273 96.3112C37.5423 96.6747 38.4621 97.3156 38.9163 98.4812C39.1566 99.0922 39.4719 99.6731 39.7122 100.288C40.2641 101.697 41.0111 102.975 42.0698 104.069C42.4002 104.41 42.7005 104.789 42.9671 105.183C43.7404 106.311 43.853 107.428 43.1773 108.717C42.1149 110.748 41.6907 112.967 41.4504 115.253C41.3077 116.621 41.0074 117.989 41.1838 119.35C41.4992 121.767 41.6193 124.226 42.3739 126.568C42.5428 127.093 42.6329 127.61 42.5879 128.154L42.5766 128.165Z" fill="#00BF46"/>
<path d="M79.6639 96.9667C79.6639 97.3302 79.6864 97.4539 79.6601 97.5701C79.0895 99.995 79.4198 102.457 79.326 104.905C79.2697 106.393 79.4536 107.896 79.0294 109.369C78.9318 109.702 79.0031 110.084 78.9919 110.444C78.9355 112.483 78.7328 114.477 77.7455 116.336C77.1523 117.453 76.8783 118.753 76.9045 119.968C76.9383 121.557 77.2837 123.157 78.1509 124.581C79.7502 127.201 81.9389 129.173 84.6344 130.616C85.5316 131.095 86.4176 131.601 87.2848 132.13C87.6377 132.343 87.9493 132.636 88.2534 132.921C88.6363 133.277 88.7752 133.7 88.5763 134.221C87.5776 136.796 86.4551 139.307 84.6118 141.41C83.8535 142.275 82.8399 142.823 81.815 143.332C80.685 143.895 79.6639 144.603 78.7328 145.472C77.6704 146.466 77.0998 147.661 76.837 149.048C76.6417 150.086 76.3489 150.364 75.3616 150.468C75.1251 150.495 74.881 150.495 74.6408 150.48C73.9913 150.438 73.6722 150.131 73.5896 149.475C73.5596 149.239 73.5483 148.996 73.5633 148.759C73.6271 147.785 73.4507 146.848 73.0941 145.952C72.8388 145.311 72.7712 144.674 73.0077 144.026C73.5521 142.542 72.9814 141.297 72.0617 140.218C71.2395 139.255 70.5337 138.235 69.9143 137.133C69.475 136.354 68.9795 135.6 68.3 134.99C67.8983 134.63 67.5679 134.21 67.3164 133.719C66.742 132.595 65.8861 131.673 65.1014 130.687C63.9414 129.233 62.6424 127.917 61.3735 126.568C60.9305 126.096 60.5326 125.518 60.3224 124.915C60.0371 124.094 60.2173 123.247 60.7428 122.528C61.351 121.699 61.8015 120.8 62.1094 119.818C62.4585 118.697 62.5111 117.595 62.1319 116.475C61.7264 115.287 61.3923 114.072 60.9343 112.903C60.4387 111.64 60.5476 110.426 61.077 109.245C61.4636 108.372 61.9329 107.528 62.4322 106.715C63.6148 104.796 63.6148 102.926 62.4059 101.011C61.7565 99.98 60.9193 99.1293 60.0258 98.3347C59.1398 97.5439 58.9784 96.7268 59.3763 95.6137C60.022 93.8147 60.3224 91.9257 60.6302 90.0368C61.1708 86.7311 61.9742 83.4816 63.5697 80.4908C64.1366 79.4301 64.5984 78.332 64.9362 77.1776C65.2403 76.1432 65.6533 75.15 66.1526 74.1867C66.5468 73.4184 67.0836 72.8112 67.8232 72.3577C68.6904 71.8255 69.5238 71.2446 70.3911 70.7162C71.8026 69.8579 72.5197 68.4899 73.1354 67.0507C73.3005 66.6684 73.3869 66.2524 73.5333 65.8588C73.6347 65.5815 73.7285 65.2816 73.905 65.0568C74.1565 64.7344 74.4155 64.2697 74.866 64.3372C75.3728 64.4159 75.3278 64.9406 75.3916 65.3529C75.7182 67.4142 75.951 69.4831 76.1837 71.5557C76.4616 74.0368 76.5704 76.5404 77.1035 79.0028C77.4076 80.3933 77.3738 81.8475 77.569 83.2642C77.753 84.621 78.0458 85.9628 78.2711 87.312C78.5151 88.7812 78.7854 90.2467 78.9431 91.7271C79.1195 93.3874 79.3372 95.0403 79.6451 96.6781C79.6751 96.8468 79.6676 97.0304 79.6639 96.9667Z" fill="#00BF46"/>
<path d="M69.8055 165.247C68.5817 165.19 67.4629 164.834 66.4756 164.081C64.7111 162.728 62.7139 162.035 60.4877 161.963C60.0147 161.949 59.5379 161.87 59.0724 161.769C58.2952 161.6 57.5294 161.592 56.756 161.765C54.3046 162.305 52.0033 161.802 49.7883 160.742C49.4166 160.562 49.06 160.322 48.7409 160.056C46.6986 158.335 45.1969 156.173 43.7929 153.935C43.5414 153.534 43.7103 153.178 44.2321 152.987C45.0205 152.702 45.8051 152.44 46.4959 151.927C47.7948 150.956 48.3167 149.258 47.686 147.781C47.1153 146.443 46.2819 145.278 45.2045 144.296C44.2509 143.426 43.6502 142.362 43.211 141.147C42.8093 140.038 43.1547 139.157 43.7629 138.31C44.0407 137.924 44.4161 137.609 44.769 137.283C45.4635 136.631 45.7676 135.848 45.8089 134.888C45.9215 132.355 45.73 129.892 44.8103 127.482C44.0669 125.526 43.8342 123.438 43.6089 121.355C43.4625 119.987 43.2523 118.637 43.2898 117.254C43.3461 115.084 43.7291 112.978 44.5325 110.965C45.0205 109.743 45.6174 108.567 46.0942 107.337C46.3007 106.805 46.5822 106.61 47.1341 106.554C48.9999 106.367 50.7569 105.838 52.3824 104.856C53.6663 104.084 54.5298 102.952 55.2281 101.7C55.7387 100.786 56.4369 100.07 57.169 99.3617C57.4581 99.0806 57.7847 98.9869 58.1226 99.2905C59.1962 100.254 60.2024 101.281 60.9307 102.54C61.3136 103.2 61.4262 103.867 61.0959 104.598C60.9232 104.976 60.8668 105.4 60.5853 105.733C60.4351 105.913 60.3262 106.134 60.2061 106.34C58.7683 108.878 58.5393 109.983 58.8096 112.862C58.8771 113.589 59.1737 114.245 59.414 114.919C59.5979 115.425 59.8044 115.92 59.9846 116.43C60.4914 117.873 60.36 119.252 59.5604 120.564C59.2188 121.126 58.8546 121.673 58.5393 122.25C57.9198 123.378 57.9198 124.533 58.4642 125.695C58.9522 126.733 59.5191 127.7 60.3863 128.487C61.0508 129.09 61.8842 129.671 62.2071 130.447C62.7402 131.729 63.6412 132.587 64.6398 133.43C65.064 133.786 65.3118 134.27 65.522 134.768C65.6384 135.042 65.691 135.349 65.8374 135.604C66.3967 136.586 67.5981 137.047 67.8984 138.269C68.1687 139.367 69.0885 140.038 69.8356 140.81C70.1246 141.11 70.4212 141.417 70.654 141.762C70.9618 142.216 71.127 142.703 70.9093 143.284C70.5413 144.284 70.669 145.293 71.0519 146.263C71.3447 147.002 71.4724 147.759 71.4198 148.546C71.311 150.236 71.9079 151.717 72.8164 153.096C73.7737 154.554 74.4457 156.162 75.2303 157.71C75.7859 158.811 75.7033 159.887 74.915 160.892C74.0327 162.02 73.2443 163.223 72.227 164.242C71.5662 164.909 70.7741 165.288 69.8055 165.247Z" fill="#FFE604"/>
<path d="M141.326 209.12C140.906 209.12 140.485 209.131 140.065 209.116C137.354 209.023 134.693 209.435 132.046 209.911C129.932 210.29 127.834 210.788 125.75 211.305C124.538 211.605 123.321 211.935 122.266 212.685C121.151 213.472 120.284 214.401 119.965 215.777C119.684 216.998 119.342 218.205 119.357 219.472C119.361 219.892 119.376 220.315 119.323 220.728C119.162 221.923 118.321 222.875 117.165 223.096C116.17 223.284 115.156 223.411 114.146 223.49C112.569 223.617 111.053 223.269 109.555 222.815C107.61 222.223 105.666 222.223 103.717 222.781C102.107 223.242 100.496 223.696 98.8818 224.149C98.7691 224.183 98.6452 224.187 98.5251 224.202C98.1234 224.247 97.8081 224.015 97.7668 223.625C97.7105 223.085 97.7818 222.564 97.8832 222.024C98.0971 220.915 98.405 219.828 98.45 218.677C98.5439 216.429 98.0446 214.289 97.4477 212.152C97.2562 211.463 97.1098 210.754 96.9221 210.072C96.6293 209.015 96.7719 208.138 97.1811 207.138C97.8419 205.533 98.7579 204.042 99.2009 202.344C99.3848 201.639 99.4899 200.954 99.5237 200.23C99.5838 198.945 99.0882 197.876 98.2811 196.958C97.5716 196.152 96.8282 195.362 95.8634 194.826C95.4467 194.593 95.0563 194.308 94.6808 194.012C93.3594 192.967 92.9765 192.371 92.7475 190.737C92.5898 189.601 92.6348 188.488 93.2242 187.42C93.7461 186.479 94.4406 185.771 95.4542 185.448C96.419 185.141 97.4139 184.927 98.405 184.706C98.619 184.657 98.8743 184.732 99.092 184.811C99.2534 184.867 99.3811 185.021 99.5237 185.13C102.099 187 104.776 186.846 107.494 185.493C108.136 185.175 108.729 184.762 109.352 184.399C110.418 183.777 111.5 183.713 112.603 184.32C113.5 184.815 114.447 185.197 115.464 185.355C116.102 185.452 116.342 185.823 116.485 186.419C116.778 187.637 117.176 188.829 117.491 190.043C118.452 193.739 120.157 197.082 122.304 200.215C122.95 201.16 123.761 202.003 124.684 202.651C125.942 203.528 127.35 203.941 128.923 203.36C130.199 202.887 131.22 202.202 131.99 201.021C133.011 199.454 133.886 197.82 134.651 196.134C136.048 193.064 138.293 190.673 140.658 188.368C141.469 187.581 142.535 187.337 143.609 187.176C143.962 187.124 144.33 187.157 144.69 187.161C146.387 187.176 146.492 187.307 146.398 189.035C146.353 189.833 146.06 190.553 145.756 191.265C145.475 191.925 145.133 192.562 144.822 193.21C143.579 195.763 143.192 198.397 143.763 201.223C144.056 202.659 144.491 203.997 145.197 205.252C145.734 206.204 146.045 207.228 146.278 208.281C146.395 208.805 146.177 209.094 145.651 209.124C145.351 209.143 145.051 209.124 144.75 209.124C143.609 209.124 142.468 209.124 141.326 209.124V209.12Z" fill="#00BF46"/>
<path d="M144.765 236.109C143.098 236.341 141.702 235.641 140.515 234.404C140.433 234.318 140.335 234.243 140.256 234.153C139.078 232.747 137.707 231.784 135.74 232.121C135.567 232.151 135.365 232.14 135.207 232.076C133.792 231.522 132.504 232.065 131.209 232.526C130.026 232.942 128.896 233.519 127.609 233.602C126.925 233.643 126.355 233.999 125.878 234.475C125.146 235.202 124.26 235.464 123.25 235.401C123.01 235.386 122.754 235.352 122.533 235.416C120.19 236.087 117.915 235.476 115.618 235.101C114.912 234.985 114.18 235.007 113.459 235.037C112.123 235.093 111.184 235.798 110.809 237.08C110.591 237.822 110.497 238.598 110.358 239.359C110.306 239.651 110.306 239.958 110.231 240.243C109.953 241.326 109.07 242.068 107.94 242.196C107.291 242.267 106.698 241.907 106.416 241.176C106.138 240.449 105.887 239.707 105.703 238.954C105.106 236.506 104.31 234.111 103.255 231.836C102.403 230.007 101.645 228.096 100.263 226.552C99.9591 226.215 100.087 225.859 100.522 225.742C102.253 225.278 103.991 224.832 105.722 224.363C106.142 224.251 106.54 224.232 106.961 224.341C107.944 224.595 108.92 224.922 109.919 225.056C111.492 225.266 113.039 225.9 114.687 225.386C115.239 225.214 115.881 225.334 116.477 225.289C118.035 225.165 119.368 224.595 120.386 223.351C121.151 222.414 121.26 221.267 121.463 220.162C121.677 218.992 121.711 217.789 121.876 216.609C122.007 215.672 122.488 214.952 123.348 214.476C124.41 213.888 125.551 213.509 126.704 213.205C128.724 212.673 130.777 212.268 132.849 211.969C134.088 211.789 135.32 211.541 136.558 211.361C137.092 211.283 137.636 211.283 138.173 211.26C139.246 211.215 140.331 211.328 141.386 210.983C141.713 210.874 142.126 210.859 142.456 210.953C143.691 211.298 144.953 211.253 146.207 211.279C146.68 211.29 146.988 211.451 147.138 211.935C147.419 212.849 147.783 213.741 148.05 214.66C149.169 218.509 150.389 222.324 151.954 226.023C152.116 226.409 152.262 226.807 152.371 227.208C152.683 228.358 152.611 229.457 151.86 230.45C151.357 231.117 150.929 231.818 150.167 232.275C149.116 232.905 148.433 233.95 147.802 234.947C147.19 235.914 146.443 236.21 145.403 236.102C145.227 236.094 145.043 236.109 144.765 236.109Z" fill="#F38620"/>
<path d="M77.01 173.121C75.0841 173.05 73.7364 173.725 72.6289 175.243C70.275 178.477 67.801 181.625 65.3045 184.751C64.1107 186.243 62.7554 187.607 61.4678 189.02C60.8633 189.684 60.1613 190.253 59.6958 191.04C59.5494 191.288 59.2866 191.475 59.0538 191.655C58.8323 191.824 58.5883 191.749 58.4081 191.569C58.2842 191.445 58.1904 191.28 58.1265 191.119C57.7774 190.227 57.3945 189.346 57.1167 188.435C56.6774 186.996 56.0805 185.632 55.371 184.309C55.0556 183.721 54.8567 183.121 54.8154 182.439C54.7515 181.423 54.4963 180.441 54.0608 179.508C53.614 178.556 52.9646 177.836 52.0298 177.308C51.1513 176.809 50.3479 176.172 49.5332 175.569C48.5759 174.857 47.6261 174.126 46.7026 173.373C45.5839 172.462 44.5402 171.495 43.9358 170.123C43.6017 169.362 43.0948 168.676 42.7007 167.942C42.3891 167.365 42.0549 166.78 41.8635 166.161C40.9737 163.227 39.7161 160.453 38.2933 157.747C38.0417 157.271 37.794 156.788 37.6025 156.286C37.3735 155.69 37.5875 155.225 38.2144 155.008C39.1192 154.697 40.039 154.438 40.9587 154.187C41.2816 154.097 41.5369 154.281 41.7133 154.547C42.3816 155.54 43.0761 156.514 43.703 157.534C44.5552 158.92 45.5914 160.142 46.7477 161.285C47.934 162.455 49.2554 163.208 50.9448 163.493C52.1386 163.695 53.3099 163.789 54.5075 163.789C55.9491 163.793 57.387 163.782 58.8286 163.782C61.2275 163.782 63.4274 164.411 65.4134 165.79C66.2393 166.364 67.1028 166.844 68.1277 167.117C70.2675 167.687 72.0357 167.095 73.59 165.719C74.9865 164.482 76.0527 162.946 77.0663 161.402C77.8547 160.202 78.0837 158.875 77.4155 157.485C76.8186 156.244 76.2967 154.974 75.7223 153.722C75.2718 152.74 75.5572 152.302 76.6534 152.26C77.2428 152.238 77.5243 152.568 77.7233 153.036C78.8834 155.791 80.0284 158.549 81.2072 161.297C82.1495 163.493 83.0542 165.715 84.1242 167.852C85.1115 169.827 86.2265 171.75 87.9234 173.253C88.9182 174.13 89.9431 174.909 91.2271 175.351C94.2942 176.416 96.0061 178.818 97.245 181.637C97.5453 182.319 97.2863 182.799 96.5993 183.053C96.4303 183.117 96.2576 183.162 96.0812 183.196C94.6997 183.454 93.4345 183.919 92.4547 185.006C92.113 185.388 91.8427 185.347 91.5799 184.961C89.4776 181.843 86.4855 179.572 83.9139 176.899C83.0092 175.962 81.8454 175.28 80.8693 174.403C79.7243 173.361 78.3953 173.024 77.01 173.121Z" fill="#FD0600"/>
<path d="M140.868 263.806C142.036 263.769 143.65 263.907 145.253 263.48C146.349 263.188 147.389 263.521 148.208 264.383C148.827 265.036 149.488 265.65 150.1 266.31C150.43 266.666 150.415 267.063 150.1 267.449C149.833 267.772 149.544 268.083 149.236 268.364C148.688 268.866 148.392 269.514 148.08 270.166C147.806 270.736 147.753 271.321 147.96 271.913C148.174 272.535 148.377 273.169 148.681 273.746C149.664 275.605 150.355 277.587 151.173 279.514C152.585 282.834 151.173 285.983 149.293 287.703C148.392 288.524 147.277 288.981 146.139 289.382C144.784 289.862 143.425 290.312 142.118 290.93C140.211 291.837 139.216 293.947 139.712 295.978C140.208 298.006 140.819 300.004 141.214 302.058C141.484 303.467 141.345 304.842 140.793 306.102C140.211 307.436 139.261 308.534 137.692 308.871C137.167 308.984 136.664 309.197 136.161 309.385C135.353 309.681 134.726 309.415 134.298 308.736C133.379 307.282 132.174 306.173 130.627 305.397C129.989 305.078 129.456 304.565 128.836 304.198C128.029 303.722 127.695 303.013 127.627 302.125C127.5 300.521 127.188 298.932 127.256 297.305C127.301 296.17 126.764 295.173 125.99 294.419C124.969 293.419 124.241 292.144 122.983 291.361C122.39 290.994 122.146 290.368 122.195 289.648C122.221 289.228 122.233 288.805 122.199 288.389C122.12 287.411 122.597 286.811 123.441 286.41C124.038 286.129 124.628 285.825 125.206 285.507C126.28 284.915 127.117 284.075 127.732 283.018C128.164 282.28 128.412 281.504 128.378 280.627C128.333 279.428 128.371 278.228 128.329 277.029C128.307 276.377 128.626 275.994 129.182 275.815C130.101 275.518 130.931 275.028 131.821 274.675C133.668 273.944 134.336 272.363 134.809 270.665C135.162 269.398 135.275 268.079 135.203 266.756C135.184 266.396 135.188 266.036 135.222 265.676C135.338 264.417 135.898 263.862 137.189 263.81C138.263 263.772 139.344 263.806 140.868 263.806Z" fill="#F38620"/>
<path d="M196.134 307.68C196.134 307.92 196.119 308.16 196.134 308.4C196.231 309.835 195.631 310.802 194.279 311.342C193.667 311.585 193.093 311.915 192.507 312.222C190.555 313.249 189.027 314.73 187.796 316.548C187.315 317.26 187.049 318.05 186.812 318.849C186.564 319.685 186.125 320.146 185.235 320.333C183.186 320.768 181.185 321.39 179.263 322.248C178.966 322.379 178.681 322.406 178.403 322.244C176.762 321.289 174.957 321.277 173.158 321.412C172.096 321.491 171.045 321.783 169.99 321.982C169.273 322.117 168.571 322.173 167.872 321.87C167.268 321.607 166.9 321.225 166.893 320.52C166.885 319.793 166.998 319.104 167.223 318.41C167.647 317.106 167.948 315.787 168.011 314.385C168.165 311.027 166.934 308.19 164.963 305.596C163.912 304.209 163.033 302.736 162.312 301.147C161.712 299.817 161.393 298.423 161.182 297.013C160.965 295.544 160.623 294.079 160.758 292.565C160.856 291.466 161.074 291.215 162.147 291.122C163.277 291.028 164.276 291.26 165.139 292.047C165.8 292.651 166.536 293.172 167.204 293.771C168.026 294.51 169.021 294.93 170.02 295.331C170.583 295.559 171.202 295.518 171.788 295.331C172.302 295.166 172.828 295.016 173.301 294.772C174.213 294.304 175.095 294.356 176.083 294.581C179.191 295.293 182.142 296.429 185.07 297.654C186.561 298.276 188.085 298.816 189.609 299.352C190.69 299.731 191.711 300.218 192.676 300.832C194.978 302.309 196.081 304.434 196.126 307.14C196.138 307.324 196.134 307.5 196.134 307.68Z" fill="#FFE604"/>
<path d="M125.446 300.255C125.416 300.401 125.393 300.581 125.341 300.753C124.834 302.444 125.517 303.789 126.584 305.015C127.383 305.929 128.344 306.69 129.459 307.121C131.092 307.755 131.963 309.111 132.924 310.401C133.285 310.884 133.446 311.465 133.42 312.095C133.39 312.814 133.454 313.534 133.401 314.25C133.311 315.528 133.638 316.746 133.904 317.964C134.347 319.988 135.571 321.513 137.219 322.72C137.651 323.039 138.101 323.368 138.593 323.563C140.155 324.186 141.214 325.415 142.389 326.528C143.47 327.551 143.612 328.795 143.455 330.156C143.417 330.493 143.192 330.677 142.925 330.831C140.324 332.319 137.846 333.994 135.376 335.684C135.132 335.853 134.854 335.988 134.572 336.081C134.156 336.22 133.735 336.175 133.382 335.89C132.962 335.549 132.598 335.163 132.297 334.702C131.415 333.349 130.48 332.03 129.609 330.673C128.209 328.496 126.591 326.502 124.673 324.774C122.934 323.207 121.027 321.866 118.918 320.831C118.107 320.434 117.322 320.022 116.706 319.328C115.993 318.522 115.482 317.698 115.948 316.573C116.233 315.891 115.967 315.269 115.603 314.711C115.377 314.366 115.07 314.062 114.765 313.781C114.131 313.193 113.714 312.511 113.557 311.641C113.343 310.453 112.836 309.419 112.059 308.437C111.297 307.47 110.636 306.353 110.677 305.004C110.692 304.453 110.775 303.962 111.101 303.486C112.134 301.979 112.513 300.199 113.087 298.501C113.219 298.115 113.204 297.676 113.207 297.26C113.215 296.301 113.252 295.338 113.17 294.386C113.08 293.291 113.425 292.354 114.123 291.582C115.171 290.428 116.278 289.33 117.412 288.262C117.742 287.951 118.227 287.718 118.677 287.624C119.781 287.4 120.074 287.726 120.051 288.663C120.044 289.022 120.085 289.386 120.051 289.742C119.879 291.429 120.678 292.632 122.007 293.52C122.923 294.135 123.659 294.869 124.256 295.799C124.755 296.575 125.044 297.392 125.134 298.302C125.198 298.936 125.337 299.58 125.446 300.255Z" fill="#FD0600"/>
<path d="M236.464 367.879C236.359 368.228 236.828 369.037 236.141 369.438C235.56 369.779 235.041 369.138 234.482 368.989C234.253 368.929 234.013 368.895 233.78 368.85C233.209 368.741 232.676 368.43 232.046 368.756C231.381 369.101 230.852 369.554 230.458 370.173C230.232 370.525 230.067 370.915 229.894 371.297C228.858 373.587 227.818 375.874 226.797 378.167C226.264 379.367 225.889 380.645 225.033 381.683C224.729 382.05 224.477 382.466 224.151 382.807C223.325 383.673 222.503 384.512 221.913 385.596C221.526 386.308 220.798 386.832 220.216 387.436C219.469 388.208 218.654 388.92 218.174 389.921C217.911 390.464 217.686 390.539 217.16 390.341C216.376 390.044 215.576 389.763 214.852 389.351C213.684 388.688 212.933 387.683 213.038 386.278C213.2 384.123 212.348 382.312 211.244 380.566C210.857 379.955 210.868 379.816 211.443 379.397C213.459 377.92 214.078 375.926 213.568 373.557C213.128 371.515 212.629 369.487 212.141 367.459C211.657 365.454 212.149 365.139 213.391 364.067C213.744 363.76 214.217 363.588 214.645 363.374C215.662 362.861 216.691 362.37 217.701 361.841C219.432 360.938 220.884 359.731 221.936 358.06C222.495 357.168 222.799 356.231 222.792 355.185C222.784 354.045 222.762 352.906 222.78 351.771C222.792 351.088 222.979 350.89 223.629 350.875C224.706 350.849 225.769 350.837 226.835 351.156C228.092 351.534 229.395 351.744 230.619 352.258C232.106 352.88 233.022 353.869 233.337 355.533C233.896 358.472 234.955 361.283 235.931 364.105C236.325 365.252 236.614 366.395 236.464 367.879Z" fill="#FFE604"/>
<path d="M36.6114 153.325C36.0407 153.332 35.7404 153.171 35.5076 152.86C34.8657 151.998 34.1974 151.155 33.5742 150.278C32.3128 148.505 30.7511 147.051 29.0279 145.728C26.4226 143.722 23.8434 141.676 21.0616 139.914C19.3947 138.861 17.7542 137.748 15.8658 137.092C15.3478 136.912 15.2501 136.631 15.5242 136.11C16.3914 134.472 17.1535 132.752 18.2122 131.242C19.4173 129.521 20.9377 128.146 23.1827 127.655C25.1649 127.224 27.1696 126.89 29.1331 126.358C30.1842 126.073 30.3044 125.957 30.3382 124.911C30.3644 124.072 30.3306 123.232 30.3532 122.393C30.3794 121.355 30.676 121.156 31.7159 121.463C32.2903 121.636 32.8572 121.831 33.4166 122.044C33.8971 122.228 34.0961 122.745 33.8671 123.214C33.7357 123.48 33.5217 123.701 33.3753 123.963C33.1988 124.274 33.0111 124.593 32.9135 124.93C32.6545 125.826 32.9773 126.418 33.8295 126.815C34.2237 126.999 34.6292 127.082 35.0534 127.048C36.2547 126.958 37.2683 127.284 38.1693 128.138C38.6311 128.577 39.2731 128.866 39.8775 129.109C41.3379 129.69 42.2652 130.886 43.3276 131.931C43.6542 132.254 43.6955 132.666 43.688 133.097C43.6692 134.146 43.3013 135.087 42.7945 135.979C42.588 136.343 42.329 136.676 42.1037 137.029C40.741 139.146 40.7334 141.305 42.0024 143.453C42.4566 144.221 42.9522 144.982 43.6504 145.574C44.3938 146.204 44.9156 147.017 45.4186 147.826C46.2596 149.187 45.7866 149.877 44.6303 150.664C44.4388 150.795 44.1835 150.825 43.9545 150.9C41.7396 151.642 39.5246 152.384 37.3096 153.122C37.0168 153.223 36.7278 153.295 36.6114 153.325Z" fill="#FFE604"/>
<path d="M233.634 402.713C232.797 402.75 232.106 402.431 231.505 401.884C228.938 399.549 226.122 397.525 223.37 395.415C222.188 394.508 220.975 393.616 219.969 392.499C219.646 392.14 219.59 391.81 219.792 391.364C220.145 390.592 220.566 389.883 221.196 389.302C222.387 388.204 223.528 387.057 224.316 385.618C224.429 385.412 224.598 385.225 224.774 385.067C227 383.096 228.145 380.472 229.242 377.804C230.105 375.705 231.077 373.647 232.054 371.593C232.508 370.638 232.744 370.626 233.765 370.9C234.828 371.185 235.71 371.818 236.025 372.781C236.615 374.577 237.921 375.637 239.359 376.631C241.086 377.83 242.956 378.782 244.848 379.689C246.094 380.285 247.318 380.911 248.38 381.81C248.516 381.926 248.685 382.001 248.827 382.11C250.254 383.201 250.19 384.573 248.673 385.622C248.283 385.892 247.832 386.053 247.352 386.162C246.717 386.308 246.079 386.503 245.486 386.773C243.872 387.507 243.121 388.98 242.704 390.55C242.468 391.45 242.299 392.402 242.216 393.365C242.017 395.67 241.221 397.791 239.738 399.605C238.927 400.595 237.891 401.337 236.724 401.821C235.736 402.225 234.723 402.623 233.634 402.713Z" fill="#F38620"/>
<path d="M240.947 345.575C241.104 345.268 241.187 345.039 241.326 344.848C242.46 343.3 243.019 341.599 242.985 339.654C242.952 337.731 243.451 337.334 245.388 337.573C246.642 337.731 247.817 338.211 248.958 338.743C250.587 339.5 252.13 340.437 253.842 341.018C254.304 341.175 254.743 341.426 254.972 341.865C255.828 343.488 257.39 344.117 258.959 344.736C259.962 345.129 260.979 345.482 261.989 345.86C262.323 345.988 262.653 346.137 262.976 346.295C264.594 347.097 264.853 347.547 264.455 349.263C264.324 349.822 264.347 350.294 264.512 350.826C264.782 351.696 265.176 352.49 265.694 353.229C266.002 353.671 266.332 354.102 266.588 354.574C267.245 355.792 267.046 356.718 265.95 357.546C265.473 357.906 264.958 358.221 264.437 358.509C263.232 359.173 263.149 359.222 262.548 357.985C262.522 357.932 262.496 357.876 262.462 357.827C261.411 356.073 260.39 355.549 258.43 356.021C257.473 356.249 256.538 356.287 255.581 356.287C254.086 356.283 253.092 355.519 252.75 354.076C252.558 353.266 252.412 352.434 252.352 351.606C252.307 350.991 252.172 350.399 251.916 349.878C251.368 348.757 250.584 347.888 249.153 347.989C248.617 348.026 248.091 348.049 247.558 348.203C246.161 348.615 244.829 348.42 243.608 347.603C242.715 347.011 241.806 346.43 240.947 345.575Z" fill="#BFF5FF"/>
<path d="M6.35254 86.8776C7.16344 85.5658 7.86547 84.194 9.29956 83.4145C9.56235 83.272 9.8289 83.1371 10.103 83.0134C10.576 82.7961 10.9214 82.4812 10.8538 81.919C10.7337 80.8734 11.3231 80.255 12.0927 79.7078C13.2114 78.9132 14.3114 78.0886 15.4264 77.2866C16.0758 76.8181 16.5451 76.2147 16.8717 75.4913C17.142 74.8992 17.5775 74.6181 18.242 74.4944C19.4133 74.277 20.5621 73.9322 21.7146 73.6248C22.1238 73.5162 22.4241 73.6324 22.6306 73.9734C22.9122 74.4344 23.1487 74.9141 23.1337 75.4838C23.1187 75.9636 23.1524 76.4433 23.1299 76.9193C23.0924 77.8263 23.1862 78.7071 23.5166 79.5578C23.648 79.8877 23.7681 80.2362 23.8169 80.5848C24.0234 82.009 21.6883 84.1865 20.3068 83.853C19.9614 83.7705 19.6423 83.5831 19.3044 83.4669C18.9665 83.3545 18.6249 83.2308 18.272 83.1933C17.5475 83.1184 17.1908 83.3995 16.9956 84.1416C16.8755 84.6026 16.669 85.0711 16.684 85.5321C16.7216 86.9638 15.6141 87.5934 14.7581 88.3842C14.3827 88.7328 13.8308 88.6391 13.3766 88.5042C11.5971 87.9832 9.76132 87.7396 7.96683 87.2973C7.47128 87.1849 6.89689 87.3123 6.35254 86.8776Z" fill="#F38620"/>
<path d="M42.5878 128.153C42.6403 128.206 42.689 128.254 42.7414 128.307C42.7077 128.299 42.6628 128.307 42.644 128.284C42.6141 128.251 42.5991 128.202 42.5804 128.161C42.5766 128.165 42.5878 128.153 42.5878 128.153Z" fill="white"/>
</svg>
