<svg width="69" height="69" viewBox="0 0 69 69" fill="none" xmlns="http://www.w3.org/2000/svg">
<g filter="url(#filter0_d)">
<circle cx="34.5" cy="30.5" r="30.5" fill="url(#paint0_linear)"/>
</g>
<path d="M48.7792 27.7769H29.1248C28.1645 27.7769 26.5615 28.1408 26.5615 30.6112V34.3903H51.3425V30.6112C51.3425 28.1486 49.7394 27.7769 48.7792 27.7769Z" fill="white"/>
<path d="M21.2185 35.2113H17.4781V22H15V47.6095H17.4781V40.9961H50.5219V47.6018H53V35.2113H21.2185Z" fill="white"/>
<path d="M21.6056 34.5452C23.5174 34.5452 25.0672 32.9954 25.0672 31.0837C25.0672 29.1719 23.5174 27.6221 21.6056 27.6221C19.6938 27.6221 18.144 29.1719 18.144 31.0837C18.144 32.9954 19.6938 34.5452 21.6056 34.5452Z" fill="white"/>
<defs>
<filter id="filter0_d" x="0" y="0" width="69" height="69" filterUnits="userSpaceOnUse" color-interpolation-filters="sRGB">
<feFlood flood-opacity="0" result="BackgroundImageFix"/>
<feColorMatrix in="SourceAlpha" type="matrix" values="0 0 0 0 0 0 0 0 0 0 0 0 0 0 0 0 0 0 127 0"/>
<feOffset dy="4"/>
<feGaussianBlur stdDeviation="2"/>
<feColorMatrix type="matrix" values="0 0 0 0 0 0 0 0 0 0 0 0 0 0 0 0 0 0 0.25 0"/>
<feBlend mode="normal" in2="BackgroundImageFix" result="effect1_dropShadow"/>
<feBlend mode="normal" in="SourceGraphic" in2="effect1_dropShadow" result="shape"/>
</filter>
<linearGradient id="paint0_linear" x1="34.5" y1="0" x2="34.5" y2="61" gradientUnits="userSpaceOnUse">
<stop stop-color="#0019BF"/>
<stop offset="1" stop-color="#277CB6"/>
</linearGradient>
</defs>
</svg>
