<svg width="69" height="69" viewBox="0 0 69 69" fill="none" xmlns="http://www.w3.org/2000/svg">
<g filter="url(#filter0_d)">
<circle cx="34.5" cy="30.5" r="30.5" fill="url(#paint0_linear)"/>
</g>
<path d="M45.0237 23.3291H51.9995V46.9998H45.0237V23.3291ZM47.3906 38.8211H49.6326V36.5268H47.3906V38.8211ZM47.3906 33.6571H49.6326V31.3628H47.3906V33.6571ZM49.6326 28.4931V26.1988H47.3906V28.4931H49.6326Z" fill="white"/>
<path d="M24.9756 46.9999H17.9998V23.3291H24.9756V46.9999ZM22.6086 26.1988H20.3667V28.4931H22.6086V26.1988ZM22.6086 31.3628H20.3667V33.6571H22.6086V31.3628ZM20.3667 36.5268V38.8211H22.6087V36.5268H20.3667Z" fill="white"/>
<path d="M38.4868 43.9849H35.995V46.9997H38.4868V43.9849Z" fill="white"/>
<path d="M34.0034 43.9849H31.5117V46.9997H34.0034V43.9849Z" fill="white"/>
<path d="M43.0317 46.9998H40.4796V41.6906H29.5194V46.9998H26.9673V13H43.0317V46.9998ZM33.8785 38.821H36.1205V36.5266H33.8785V38.821ZM33.8785 33.657H36.1205V31.3626H33.8785V33.657ZM33.8785 28.493H36.1205V26.1986H33.8785V28.493ZM29.3945 38.821H31.6365V36.5266H29.3945V38.821ZM29.3945 33.657H31.6365V31.3626H29.3945V33.657ZM29.3945 28.493H31.6365V26.1986H29.3945V28.493ZM38.3625 18.4558H35.9956V15.7299H34.0034V18.4558H31.6364V20.7501H34.0034V23.476H35.9956V20.7501H38.3625V18.4558ZM40.6045 26.1986H38.3625V28.493H40.6045V26.1986ZM40.6045 31.3626H38.3625V33.657H40.6045V31.3626ZM40.6045 36.5266H38.3625V38.821H40.6045V36.5266Z" fill="white"/>
<defs>
<filter id="filter0_d" x="0" y="0" width="69" height="69" filterUnits="userSpaceOnUse" color-interpolation-filters="sRGB">
<feFlood flood-opacity="0" result="BackgroundImageFix"/>
<feColorMatrix in="SourceAlpha" type="matrix" values="0 0 0 0 0 0 0 0 0 0 0 0 0 0 0 0 0 0 127 0"/>
<feOffset dy="4"/>
<feGaussianBlur stdDeviation="2"/>
<feColorMatrix type="matrix" values="0 0 0 0 0 0 0 0 0 0 0 0 0 0 0 0 0 0 0.25 0"/>
<feBlend mode="normal" in2="BackgroundImageFix" result="effect1_dropShadow"/>
<feBlend mode="normal" in="SourceGraphic" in2="effect1_dropShadow" result="shape"/>
</filter>
<linearGradient id="paint0_linear" x1="34.5" y1="0" x2="34.5" y2="61" gradientUnits="userSpaceOnUse">
<stop stop-color="#8200B2"/>
<stop offset="1" stop-color="#BA00FF"/>
</linearGradient>
</defs>
</svg>
