<svg width="69" height="69" viewBox="0 0 69 69" fill="none" xmlns="http://www.w3.org/2000/svg">
<g filter="url(#filter0_d)">
<circle cx="34.5" cy="30.5" r="30.5" fill="url(#paint0_linear)"/>
</g>
<path d="M35.0014 29.0625C35.0014 28.7415 34.9514 28.4339 34.9066 28.125H21.9712C21.9265 28.4339 21.8765 28.7415 21.8765 29.0625V41.3124H35.0014V29.0625ZM28.4389 39.4374C26.8881 39.4374 25.6264 38.1758 25.6264 36.625C25.6264 35.0741 26.8881 33.8125 28.4389 33.8125C29.9898 33.8125 31.2514 35.0741 31.2514 36.625C31.2514 38.1758 29.9898 39.4374 28.4389 39.4374ZM30.3139 31.875C29.7962 31.875 29.3764 31.4552 29.3764 30.9375C29.3764 30.4196 29.7962 30 30.3139 30C30.8317 30 31.2514 30.4196 31.2514 30.9375C31.2514 31.4552 30.8317 31.875 30.3139 31.875Z" fill="white"/>
<path d="M21.8765 46.0625C21.8765 46.5807 22.2958 47 22.814 47H34.0639C34.5821 47 35.0014 46.5807 35.0014 46.0625V43.1875H21.8765V46.0625Z" fill="white"/>
<path d="M28.4375 37.5625C28.9553 37.5625 29.375 37.1428 29.375 36.625C29.375 36.1072 28.9553 35.6875 28.4375 35.6875C27.9197 35.6875 27.5 36.1072 27.5 36.625C27.5 37.1428 27.9197 37.5625 28.4375 37.5625Z" fill="white"/>
<path d="M41.5624 43.1874C44.1469 43.1874 46.2499 41.0844 46.2499 38.4999V28.0301C48.3868 27.5945 49.9998 25.7009 49.9998 23.4375C49.9998 21.1843 48.1743 16.875 45.3124 16.875C42.4504 16.875 40.6249 21.1843 40.6249 23.4375C40.6249 25.7009 42.2379 27.5945 44.3749 28.0301V38.4999C44.3749 40.0508 43.1133 41.3124 41.5624 41.3124C40.0115 41.3124 38.7499 40.0508 38.7499 38.4999V23.4375C38.7499 20.8529 36.647 18.75 34.0624 18.75H29.375V16.875H30.3124C30.8306 16.875 31.2499 16.4557 31.2499 15.9375C31.2499 15.4193 30.8306 15 30.3124 15H26.5625C26.0443 15 25.625 15.4193 25.625 15.9375C25.625 16.4557 26.0443 16.875 26.5625 16.875H27.5V18.75H25.4523C25.064 17.6611 24.0331 16.875 22.8125 16.875C21.2616 16.875 20 18.1366 20 19.6875C20 21.2383 21.2616 22.5 22.8125 22.5C24.0331 22.5 25.064 21.7138 25.4523 20.625H27.5V22.5688C25.3005 22.888 23.4616 24.3108 22.5332 26.2499H34.3417C33.4133 24.3109 31.5744 22.888 29.375 22.5688V20.625H34.0624C35.6133 20.625 36.8749 21.8866 36.8749 23.4375V38.4999C36.8749 41.0844 38.9778 43.1874 41.5624 43.1874ZM45.3124 22.5C45.8301 22.5 46.2499 22.9196 46.2499 23.4375C46.2499 23.9552 45.8301 24.375 45.3124 24.375C44.7946 24.375 44.3749 23.9552 44.3749 23.4375C44.3749 22.9196 44.7946 22.5 45.3124 22.5Z" fill="white"/>
<defs>
<filter id="filter0_d" x="0" y="0" width="69" height="69" filterUnits="userSpaceOnUse" color-interpolation-filters="sRGB">
<feFlood flood-opacity="0" result="BackgroundImageFix"/>
<feColorMatrix in="SourceAlpha" type="matrix" values="0 0 0 0 0 0 0 0 0 0 0 0 0 0 0 0 0 0 127 0"/>
<feOffset dy="4"/>
<feGaussianBlur stdDeviation="2"/>
<feColorMatrix type="matrix" values="0 0 0 0 0 0 0 0 0 0 0 0 0 0 0 0 0 0 0.25 0"/>
<feBlend mode="normal" in2="BackgroundImageFix" result="effect1_dropShadow"/>
<feBlend mode="normal" in="SourceGraphic" in2="effect1_dropShadow" result="shape"/>
</filter>
<linearGradient id="paint0_linear" x1="34.5" y1="0" x2="34.5" y2="61" gradientUnits="userSpaceOnUse">
<stop offset="0.711796" stop-color="#00BFA6"/>
<stop offset="1" stop-color="#46BC75"/>
</linearGradient>
</defs>
</svg>
