<svg width="69" height="69" viewBox="0 0 69 69" fill="none" xmlns="http://www.w3.org/2000/svg">
<g filter="url(#filter0_d)">
<circle cx="34.5" cy="30.5" r="30.5" fill="url(#paint0_linear)"/>
</g>
<path d="M35.0546 8C22.3329 8 12 18.3084 12 31C12 43.6916 22.3329 54 35.0546 54C47.7763 54 58.1093 43.6916 58.1093 31C58.1093 18.3084 47.7763 8 35.0546 8ZM35.0546 52.0048C23.444 52.0048 13.9999 42.5831 13.9999 31C13.9999 19.4169 23.444 9.99518 35.0546 9.99518C46.6653 9.99518 56.1093 19.4169 56.1093 31C56.1093 42.5831 46.6653 52.0048 35.0546 52.0048Z" fill="white"/>
<path d="M47.0542 26.012H40.0545V19.0288C40.0545 18.4746 39.61 18.0312 39.0545 18.0312H31.0548C30.4993 18.0312 30.0549 18.4746 30.0549 19.0288V26.012H23.0551C22.4996 26.012 22.0552 26.4553 22.0552 27.0096V34.9903C22.0552 35.5445 22.4996 35.9879 23.0551 35.9879H30.0549V42.971C30.0549 43.5252 30.4993 43.9686 31.0548 43.9686H39.0545C39.61 43.9686 40.0545 43.5252 40.0545 42.971V35.9879H47.0542C47.6097 35.9879 48.0541 35.5445 48.0541 34.9903V27.0096C47.9986 26.4553 47.5541 26.012 47.0542 26.012Z" fill="white"/>
<defs>
<filter id="filter0_d" x="0" y="0" width="69" height="69" filterUnits="userSpaceOnUse" color-interpolation-filters="sRGB">
<feFlood flood-opacity="0" result="BackgroundImageFix"/>
<feColorMatrix in="SourceAlpha" type="matrix" values="0 0 0 0 0 0 0 0 0 0 0 0 0 0 0 0 0 0 127 0"/>
<feOffset dy="4"/>
<feGaussianBlur stdDeviation="2"/>
<feColorMatrix type="matrix" values="0 0 0 0 0 0 0 0 0 0 0 0 0 0 0 0 0 0 0.25 0"/>
<feBlend mode="normal" in2="BackgroundImageFix" result="effect1_dropShadow"/>
<feBlend mode="normal" in="SourceGraphic" in2="effect1_dropShadow" result="shape"/>
</filter>
<linearGradient id="paint0_linear" x1="34.5" y1="0" x2="34.5" y2="61" gradientUnits="userSpaceOnUse">
<stop offset="0.177083" stop-color="#FE5B00"/>
<stop offset="0.713542" stop-color="#F98C4F"/>
</linearGradient>
</defs>
</svg>
