<svg width="69" height="69" viewBox="0 0 69 69" fill="none" xmlns="http://www.w3.org/2000/svg">
<g filter="url(#filter0_d)">
<circle cx="34.5" cy="30.5" r="30.5" fill="#FF0600"/>
</g>
<g clip-path="url(#clip0)">
<path d="M27.2282 14.0195H39.7708C40.0273 14.0195 40.2353 14.2275 40.2353 14.4841V23.5426C40.2353 23.7991 40.0273 24.0071 39.7708 24.0071H27.2282C26.9717 24.0071 26.7637 23.7991 26.7637 23.5426V14.4841C26.7637 14.2275 26.9717 14.0195 27.2282 14.0195Z" fill="white"/>
<path d="M28.3893 15.1807H38.6092C38.8657 15.1807 39.0737 15.3887 39.0737 15.6452V20.7551C39.0737 21.0117 38.8657 21.2197 38.6092 21.2197H28.3893C28.1328 21.2197 27.9248 21.0117 27.9248 20.7551V15.6452C27.9248 15.3887 28.1328 15.1807 28.3893 15.1807Z" fill="#FF0600"/>
<path d="M38.1449 22.6135C38.1449 22.87 37.9369 23.078 37.6804 23.078C37.4238 23.078 37.2158 22.87 37.2158 22.6135C37.2158 22.3569 37.4238 22.1489 37.6804 22.1489C37.9369 22.1489 38.1449 22.3569 38.1449 22.6135Z" fill="#FF0600"/>
<path d="M31.8739 22.1489H32.3384C32.4667 22.1489 32.5707 22.2529 32.5707 22.3812V22.8457C32.5707 22.974 32.4667 23.078 32.3384 23.078H31.8739C31.7456 23.078 31.6416 22.974 31.6416 22.8457V22.3812C31.6416 22.2529 31.7456 22.1489 31.8739 22.1489Z" fill="#FF0600"/>
<path d="M33.7318 22.1489H34.1963C34.3246 22.1489 34.4286 22.2529 34.4286 22.3812V22.8457C34.4286 22.974 34.3246 23.078 34.1963 23.078H33.7318C33.6035 23.078 33.4995 22.974 33.4995 22.8457V22.3812C33.4995 22.2529 33.6035 22.1489 33.7318 22.1489Z" fill="#FF0600"/>
<path d="M35.5902 22.1489H36.0547C36.183 22.1489 36.287 22.2529 36.287 22.3812V22.8457C36.287 22.974 36.183 23.078 36.0547 23.078H35.5902C35.4619 23.078 35.3579 22.974 35.3579 22.8457V22.3812C35.3579 22.2529 35.4619 22.1489 35.5902 22.1489Z" fill="#FF0600"/>
<path d="M35.7284 12.0851C35.6403 11.9859 35.5139 11.9292 35.3812 11.9292H31.6175C31.4848 11.9292 31.3585 11.9859 31.2703 12.0851L29.5508 14.0196H31.1767L32.0074 13.025C32.0958 12.9193 32.2263 12.8583 32.364 12.8583H34.6347C34.7724 12.8583 34.903 12.9193 34.9913 13.025L35.8221 14.0196H37.4479L35.7284 12.0851Z" fill="white"/>
<path d="M30.731 18.2585L31.3965 17.4262L32.6433 19.2075C32.73 19.3319 32.8721 19.4059 33.0236 19.4055H33.0357C33.1917 19.4015 33.3351 19.3197 33.4178 19.1873L34.2025 17.9318L34.3985 18.2258C34.4846 18.3552 34.6296 18.4329 34.785 18.4327H37.4479V17.9681H34.785L34.589 17.6742C34.5026 17.5416 34.3537 17.4633 34.1955 17.4673C34.0377 17.4692 33.8919 17.5516 33.8085 17.6855L33.0239 18.9412L31.7771 17.1599C31.6931 17.0402 31.5576 16.9668 31.4114 16.9621C31.2651 16.9575 31.1253 17.0219 31.0338 17.1361L30.3683 17.9681H29.5508V18.4327H30.3683C30.5095 18.433 30.6429 18.3688 30.731 18.2585Z" fill="white"/>
</g>
<path d="M48.7792 27.4473H29.1248C28.1645 27.4473 26.5615 27.8112 26.5615 30.2816V34.0607H51.3425V30.2816C51.3425 27.819 49.7394 27.4473 48.7792 27.4473Z" fill="white"/>
<path d="M21.2185 34.8817H17.4781V21.6704H15V47.2799H17.4781V40.6665H50.5219V47.2722H53V34.8817H21.2185Z" fill="white"/>
<path d="M21.6056 34.2157C23.5174 34.2157 25.0672 32.6658 25.0672 30.7541C25.0672 28.8423 23.5174 27.2925 21.6056 27.2925C19.6938 27.2925 18.144 28.8423 18.144 30.7541C18.144 32.6658 19.6938 34.2157 21.6056 34.2157Z" fill="white"/>
<defs>
<filter id="filter0_d" x="0" y="0" width="69" height="69" filterUnits="userSpaceOnUse" color-interpolation-filters="sRGB">
<feFlood flood-opacity="0" result="BackgroundImageFix"/>
<feColorMatrix in="SourceAlpha" type="matrix" values="0 0 0 0 0 0 0 0 0 0 0 0 0 0 0 0 0 0 127 0"/>
<feOffset dy="4"/>
<feGaussianBlur stdDeviation="2"/>
<feColorMatrix type="matrix" values="0 0 0 0 0 0 0 0 0 0 0 0 0 0 0 0 0 0 0.25 0"/>
<feBlend mode="normal" in2="BackgroundImageFix" result="effect1_dropShadow"/>
<feBlend mode="normal" in="SourceGraphic" in2="effect1_dropShadow" result="shape"/>
</filter>
<clipPath id="clip0">
<rect width="13.9362" height="13.9362" fill="white" transform="translate(26.5312 11)"/>
</clipPath>
</defs>
</svg>
