<svg width="33" height="34" viewBox="0 0 33 34" fill="none" xmlns="http://www.w3.org/2000/svg">
<path d="M32.8992 17.0766C32.914 18.0883 32.8779 19.1016 32.3635 20.005C31.9 20.82 31.3692 20.9 30.8663 20.02C30.4538 19.2983 30.4588 18.2266 29.4152 18.03C28.5163 17.86 27.6108 17.9933 26.771 18.39C24.9846 19.2333 24.0561 21.5183 24.7315 23.3783C25.0356 24.2166 25.6009 24.8766 26.2172 25.48C26.8367 26.085 27.5105 25.9183 28.2172 25.5733C28.6773 25.3483 29.2361 24.94 29.7077 25.4566C30.1942 25.9916 29.854 26.6 29.5681 27.105C28.7431 28.5683 27.6206 29.7283 26.0611 30.3966C25.6798 30.56 25.2854 30.705 24.9238 30.3633C24.559 30.0166 24.6658 29.585 24.8417 29.22C25.3133 28.2383 25.7455 27.3333 24.6806 26.3966C23.3922 25.2616 22.0084 24.6933 20.3388 25.3133C18.4735 26.0066 17.3379 28.08 17.6847 30.0683C17.8326 30.9166 18.4423 31.2383 19.1703 31.4733C19.642 31.6266 20.2155 31.8533 20.2171 32.4133C20.2188 33.05 19.6157 33.2733 19.0914 33.435C17.494 33.9266 15.895 33.9216 14.3091 33.375C13.872 33.2233 13.425 33.0116 13.3675 32.4983C13.305 31.935 13.7964 31.75 14.199 31.5533C16.1251 30.61 16.5261 28.9466 15.2804 27.04C13.6945 24.6083 9.89006 24.6966 8.39293 27.1916C8.00838 27.8333 8.18915 28.4033 8.47017 29.005C8.6986 29.4916 9.05686 30.0716 8.5737 30.5216C8.06754 30.9933 7.46113 30.6633 6.94674 30.3733C5.52521 29.575 4.4455 28.435 3.74377 26.945C3.54821 26.53 3.39044 26.045 3.75856 25.6616C4.1349 25.27 4.5934 25.475 5.02233 25.6383C6.89744 26.3516 8.21051 25.6116 8.75283 23.5416C9.49236 20.7216 7.01905 17.9233 4.1349 18.3116C3.29348 18.425 2.92865 18.995 2.68542 19.7416C2.5178 20.2566 2.3173 20.9133 1.69281 20.895C1.00259 20.875 0.818529 20.1683 0.65912 19.6083C0.20883 18.0283 0.221977 16.445 0.780731 14.8883C0.936853 14.4533 1.15049 13.9833 1.66323 13.9566C2.19405 13.93 2.39126 14.415 2.58846 14.8316C3.47918 16.72 4.44057 17.0816 6.31075 16.185C7.80788 15.4683 8.48332 14.1366 8.63944 12.565C8.7857 11.085 8.02645 9.92496 6.96646 8.98829C6.36663 8.45829 5.70434 8.67663 5.06834 8.99996C4.57697 9.24996 4.00014 9.52329 3.55642 9.08163C3.02561 8.55329 3.45618 7.94496 3.73227 7.45329C4.55232 5.98663 5.6879 4.83329 7.24091 4.15829C7.61725 3.99496 8.0281 3.83996 8.36992 4.19329C8.65423 4.48663 8.57863 4.87329 8.48167 5.23329C8.26639 6.03329 7.52522 6.78329 8.19079 7.67163C8.78077 8.45996 9.56303 8.99996 10.5293 9.19329C12.7841 9.64329 15.0963 8.15329 15.494 6.01663C15.826 4.23496 15.6173 3.82329 13.9985 3.05663C13.5861 2.86163 13.0996 2.65829 13.0897 2.14329C13.0782 1.53996 13.6239 1.33329 14.0873 1.16996C15.7208 0.593293 17.3659 0.598293 18.9945 1.19329C19.4119 1.34663 19.895 1.53829 19.9296 2.07496C19.9641 2.62496 19.4858 2.82663 19.0848 3.02663C17.2229 3.94996 16.8203 5.36496 17.9246 7.15829C19.4201 9.58663 23.0093 9.79829 24.7628 7.57496C25.2607 6.94329 25.1818 6.33163 24.8663 5.65829C24.6247 5.13996 24.1794 4.53996 24.7348 4.02829C25.3182 3.48996 25.9378 3.94663 26.4637 4.26329C27.8524 5.09829 28.9584 6.22163 29.5911 7.75496C29.7455 8.12829 29.8704 8.55996 29.5319 8.91663C29.2377 9.22829 28.8893 9.11996 28.5261 9.01496C26.2615 8.36663 25.0783 8.98163 24.5458 11.055C23.9986 13.1916 25.4053 15.6016 27.4694 16.0633C29.4826 16.5133 29.8211 16.3483 30.7234 14.505C30.9041 14.135 31.0833 13.7066 31.5483 13.68C32.089 13.6483 32.3125 14.1033 32.4917 14.525C32.8417 15.335 32.9206 16.2 32.8992 17.0766Z" fill="#FE0000"/>
<path d="M9.83233 17.4967C9.81425 12.6601 14.4075 9.26505 18.6524 10.7317C19.221 10.9284 19.8439 11.1067 19.7666 11.8751C19.6861 12.6767 19.0074 12.6434 18.4256 12.7117C14.8891 13.1217 12.6968 15.3067 12.1232 18.9601C12.0312 19.5434 12.2235 20.3834 11.2867 20.4251C10.3714 20.4667 10.2793 19.6467 10.1035 19.0084C9.94737 18.4434 9.89149 17.8467 9.83233 17.4967Z" fill="#FEFDFD"/>
</svg>
