<svg width="20" height="20" viewBox="0 0 20 20" fill="none" xmlns="http://www.w3.org/2000/svg">
<g clip-path="url(#clip0)">
<path d="M15.8618 18.4482C15.8618 17.5912 13.2372 16.8965 9.99976 16.8965C6.76229 16.8965 4.1377 17.5912 4.1377 18.4482C4.1377 19.3052 6.76229 19.9999 9.99976 19.9999C13.2372 19.9999 15.8618 19.3052 15.8618 18.4482Z" fill="#ADABAC"/>
<path d="M9.31055 6.89648H10.6899V17.931C10.6899 18.3118 10.3811 18.6206 10.0002 18.6206C9.61934 18.6206 9.31055 18.3118 9.31055 17.931V6.89648Z" fill="#494342"/>
<path d="M14.1382 4.13793C14.1382 6.42326 12.2856 8.27586 10.0002 8.27586C7.71491 8.27586 5.8623 6.42326 5.8623 4.13793C5.8623 1.85261 7.71491 0 10.0002 0C12.2856 0 14.1382 1.85261 14.1382 4.13793Z" fill="#AD2943"/>
<path d="M12.7585 4.13802C12.7585 5.66162 11.5234 6.89664 9.99983 6.89664C8.47623 6.89664 7.24121 5.66162 7.24121 4.13802C7.24121 2.61441 8.47623 1.37939 9.99983 1.37939C11.5234 1.37939 12.7585 2.61441 12.7585 4.13802Z" fill="#EE3446"/>
</g>
<defs>
<clipPath id="clip0">
<rect width="20" height="20" fill="white"/>
</clipPath>
</defs>
</svg>
