<svg width="16" height="15" viewBox="0 0 16 15" fill="none" xmlns="http://www.w3.org/2000/svg">
<path d="M7.7543 0C3.4721 0 0 3.3581 0 7.49968C0 11.6413 3.4721 15 7.7543 15C12.0365 15 15.5093 11.6413 15.5093 7.49968C15.5093 3.3581 12.0365 0 7.7543 0ZM9.36858 11.6235C8.96944 11.7759 8.6517 11.8914 8.4134 11.9714C8.17576 12.0514 7.89938 12.0914 7.58493 12.0914C7.10176 12.0914 6.7256 11.9771 6.45776 11.7492C6.18992 11.5213 6.05665 11.2324 6.05665 10.8813C6.05665 10.7448 6.0665 10.6051 6.08619 10.4629C6.10654 10.3206 6.13871 10.1606 6.1827 9.98095L6.68227 8.27429C6.72626 8.11048 6.76433 7.95492 6.79453 7.81016C6.82473 7.66413 6.83917 7.53016 6.83917 7.40825C6.83917 7.19111 6.79256 7.03873 6.7 6.95302C6.60612 6.8673 6.42953 6.8254 6.16628 6.8254C6.03761 6.8254 5.90501 6.84381 5.76912 6.88254C5.63454 6.92254 5.51769 6.95873 5.42184 6.99429L5.55379 6.46857C5.88072 6.33968 6.19386 6.22921 6.49255 6.13778C6.79125 6.04508 7.07353 5.99937 7.33941 5.99937C7.81929 5.99937 8.18954 6.11238 8.45017 6.33587C8.70947 6.56 8.84011 6.85143 8.84011 7.20952C8.84011 7.28381 8.83092 7.4146 8.8132 7.60127C8.79547 7.78857 8.76199 7.95937 8.71341 8.11619L8.21646 9.81778C8.17576 9.95429 8.13965 10.1105 8.10683 10.2851C8.07466 10.4597 8.05891 10.593 8.05891 10.6825C8.05891 10.9086 8.11077 11.0629 8.2158 11.1448C8.31953 11.2267 8.50137 11.2679 8.75871 11.2679C8.88016 11.2679 9.01605 11.247 9.16966 11.2063C9.32197 11.1657 9.43225 11.1295 9.50184 11.0984L9.36858 11.6235ZM9.28061 4.71683C9.04887 4.92508 8.76987 5.02921 8.4436 5.02921C8.11799 5.02921 7.83702 4.92508 7.60331 4.71683C7.37092 4.50857 7.25341 4.25524 7.25341 3.95937C7.25341 3.66413 7.37158 3.41016 7.60331 3.2C7.83702 2.98921 8.11799 2.88444 8.4436 2.88444C8.76987 2.88444 9.04953 2.98921 9.28061 3.2C9.51235 3.41016 9.62854 3.66413 9.62854 3.95937C9.62854 4.25587 9.51235 4.50857 9.28061 4.71683Z" fill="#3A3838"/>
</svg>
