<svg width="212" height="66" viewBox="0 0 212 66" fill="none" xmlns="http://www.w3.org/2000/svg">
<path d="M53.8994 31.7812C53.9199 33.1166 53.8698 34.4542 53.157 35.6466C52.5149 36.7224 51.7794 36.828 51.0826 35.6664C50.511 34.7138 50.5178 33.2992 49.0719 33.0396C47.8263 32.8152 46.5716 32.9912 45.408 33.5148C42.9328 34.628 41.6462 37.6442 42.5821 40.0994C43.0034 41.206 43.7867 42.0772 44.6406 42.8736C45.4991 43.6722 46.4327 43.4522 47.4119 42.9968C48.0495 42.6998 48.8237 42.1608 49.4772 42.8428C50.1512 43.549 49.6799 44.352 49.2836 45.0186C48.1405 46.9502 46.5853 48.4814 44.4243 49.3636C43.896 49.5792 43.3495 49.7706 42.8485 49.3196C42.343 48.862 42.491 48.2922 42.7346 47.8104C43.3882 46.5146 43.9871 45.32 42.5115 44.0836C40.7262 42.5854 38.8089 41.8352 36.4953 42.6536C33.9108 43.5688 32.3373 46.3056 32.8178 48.9302C33.0227 50.05 33.8675 50.4746 34.8763 50.7848C35.5298 50.9872 36.3246 51.2864 36.3268 52.0256C36.3291 52.866 35.4934 53.1608 34.767 53.3742C32.5536 54.0232 30.338 54.0166 28.1406 53.295C27.5349 53.0948 26.9155 52.8154 26.8358 52.1378C26.7493 51.3942 27.4301 51.15 27.988 50.8904C30.6568 49.6452 31.2124 47.4496 29.4864 44.9328C27.2889 41.723 22.0174 41.8396 19.943 45.133C19.4101 45.98 19.6606 46.7324 20.05 47.5266C20.3665 48.169 20.8629 48.9346 20.1934 49.5286C19.4921 50.1512 18.6518 49.7156 17.9391 49.3328C15.9694 48.279 14.4733 46.7742 13.501 44.8074C13.23 44.2596 13.0114 43.6194 13.5215 43.1134C14.0429 42.5964 14.6782 42.867 15.2726 43.0826C17.8708 44.0242 19.6902 43.0474 20.4416 40.315C21.4663 36.5926 18.0393 32.8988 14.0429 33.4114C12.877 33.561 12.3715 34.3134 12.0345 35.299C11.8022 35.9788 11.5244 36.8456 10.6591 36.8214C9.70274 36.795 9.4477 35.8622 9.22682 35.123C8.60289 33.0374 8.62111 30.9474 9.39533 28.8926C9.61165 28.3184 9.90768 27.698 10.6181 27.6628C11.3537 27.6276 11.6269 28.2678 11.9002 28.8178C13.1344 31.3104 14.4665 31.7878 17.0578 30.6042C19.1323 29.6582 20.0682 27.9004 20.2845 25.8258C20.4872 23.8722 19.4352 22.341 17.9664 21.1046C17.1353 20.405 16.2176 20.6932 15.3363 21.12C14.6555 21.45 13.8562 21.8108 13.2414 21.2278C12.5059 20.5304 13.1025 19.7274 13.485 19.0784C14.6213 17.1424 16.1948 15.62 18.3467 14.729C18.8681 14.5134 19.4374 14.3088 19.9111 14.7752C20.305 15.1624 20.2003 15.6728 20.0659 16.148C19.7676 17.204 18.7406 18.194 19.6629 19.3666C20.4803 20.4072 21.5643 21.12 22.9032 21.3752C26.0274 21.9692 29.2313 20.0024 29.7824 17.182C30.2424 14.8302 29.9532 14.2868 27.7102 13.2748C27.1387 13.0174 26.4646 12.749 26.451 12.0692C26.435 11.2728 27.191 11 27.8332 10.7844C30.0966 10.0232 32.376 10.0298 34.6327 10.8152C35.211 11.0176 35.8805 11.2706 35.9283 11.979C35.9762 12.705 35.3135 12.9712 34.7579 13.2352C32.1779 14.454 31.62 16.3218 33.1502 18.689C35.2224 21.8944 40.1957 22.1738 42.6254 19.239C43.3153 18.4052 43.206 17.5978 42.7688 16.709C42.4341 16.0248 41.817 15.2328 42.5866 14.5574C43.395 13.8468 44.2535 14.4496 44.9822 14.8676C46.9063 15.9698 48.4388 17.4526 49.3155 19.4766C49.5296 19.9694 49.7026 20.5392 49.2336 21.01C48.826 21.4214 48.3432 21.2784 47.84 21.1398C44.7021 20.284 43.0626 21.0958 42.3248 23.8326C41.5665 26.653 43.5157 29.8342 46.3758 30.4436C49.1652 31.0376 49.6343 30.8198 50.8845 28.3866C51.135 27.8982 51.3832 27.3328 52.0276 27.2976C52.7768 27.2558 53.0864 27.8564 53.3346 28.413C53.8197 29.4822 53.929 30.624 53.8994 31.7812Z" fill="#FE0000"/>
<path d="M137.506 30.4348C132.49 30.4458 128.892 27.4406 127.947 22.4488C126.836 16.5814 130.056 11.4752 135.566 10.3598C140.041 9.45557 144.445 11.6358 145.841 15.3758C146.367 16.7816 146.112 17.3844 144.436 17.292C143.065 17.2172 142.024 17.2436 141.107 15.752C139.324 12.8546 134.696 13.409 133.137 16.577C131.953 18.9816 131.943 21.4962 133.043 23.947C133.888 25.8302 135.79 26.8972 137.862 26.7564C139.918 26.6156 141.148 25.4914 141.787 23.6478C142.129 22.66 145.155 21.9406 146.052 22.5918C146.533 22.9416 146.248 23.364 146.194 23.7512C145.615 27.7486 142.131 30.426 137.506 30.4348Z" fill="#5E5E5E"/>
<path d="M115.821 17.3647C117.155 16.1283 118.572 15.5849 120.202 15.5827C123.135 15.5761 124.763 16.8763 125.169 19.6923C125.617 22.8141 125.285 25.9601 125.36 29.0951C125.374 29.6473 125.173 29.9355 124.524 30.0477C121.796 30.5185 121.284 30.1159 121.245 27.4671C121.213 25.2979 121.407 23.1243 121.09 20.9595C120.899 19.6571 120.314 18.8255 118.836 18.7947C117.415 18.7639 116.402 19.2831 116.047 20.6823C115.411 23.1837 115.728 25.7335 115.785 28.2525C115.823 29.8783 115.186 30.1269 113.731 30.0785C112.41 30.0345 111.526 30.0741 111.604 28.3185C111.759 24.8249 111.62 21.3181 111.677 17.8201C111.688 17.1667 111.132 15.9787 112.467 16.0117C113.635 16.0403 115.341 15.0943 115.821 17.3647Z" fill="#5E5E5E"/>
<path d="M113.967 53.185C113.205 53.6294 112.56 54.1222 111.831 54.4104C107.869 55.9768 104.599 53.944 104.463 49.8058C104.376 47.1504 104.515 44.4884 104.388 41.8352C104.303 40.0796 105.481 40.458 106.478 40.4448C107.516 40.4316 108.637 40.1698 108.539 41.8924C108.409 44.1804 108.477 46.4816 108.534 48.7762C108.584 50.8244 109.409 51.7396 111.028 51.7242C112.706 51.7088 113.778 50.6704 113.858 48.752C113.951 46.4596 113.997 44.1584 113.883 41.8704C113.799 40.1478 114.935 40.4382 115.964 40.4448C116.973 40.4514 118.107 40.0994 118.05 41.8484C117.936 45.408 118.053 48.9742 117.984 52.536C117.971 53.2114 118.636 54.4918 117.105 54.417C115.964 54.362 114.266 55.3234 113.967 53.185Z" fill="#FE0101"/>
<path d="M172 24.6928C172.806 22.1672 173.599 19.635 174.425 17.1138C174.744 16.137 177.85 15.3758 178.561 16.0842C178.884 16.4076 178.627 16.7552 178.511 17.083C177.112 21.076 175.705 25.0668 174.327 29.0686C174.1 29.7286 173.758 30.0014 173.004 30.0564C169.559 30.305 169.568 30.3314 168.441 27.1436C167.293 23.8942 166.155 20.6426 164.957 17.4108C164.579 16.3944 164.543 15.9126 165.943 15.9148C168.744 15.917 168.742 15.8422 169.6 18.4866C170.267 20.548 170.944 22.605 171.618 24.6642C171.745 24.6752 171.873 24.684 172 24.6928Z" fill="#5E5E5E"/>
<path d="M97.4607 42.4117C98.8907 41.1181 99.9997 40.1743 101.639 40.1061C102.778 40.0577 103.169 40.6055 102.935 41.5185C102.73 42.3171 103.864 43.6987 101.881 43.8219C98.7495 44.0177 97.7499 45.0649 97.6634 48.1295C97.6155 49.8169 97.611 51.5043 97.6611 53.1917C97.6861 54.0893 97.4311 54.4545 96.4155 54.4919C93.5531 54.5953 93.5554 54.6437 93.5554 51.8937C93.5554 48.6993 93.5349 45.5049 93.5691 42.3105C93.5782 41.5119 93.1205 40.3107 94.7509 40.4493C95.9396 40.5505 97.7203 39.7255 97.4607 42.4117Z" fill="#FE0101"/>
<path d="M180.523 22.9614C180.523 21.0342 180.589 19.1048 180.5 17.182C180.43 15.6662 181.475 15.8928 182.359 15.9654C183.26 16.0402 184.64 15.3604 184.627 17.1732C184.597 21.087 184.624 24.9986 184.613 28.9124C184.608 30.7538 183.135 29.8958 182.272 30.0058C181.489 30.1048 180.455 30.3556 180.505 28.919C180.578 26.9346 180.526 24.948 180.523 22.9614Z" fill="#606060"/>
<path d="M116.534 33.561C113.917 35.2066 113.239 38.8718 109.372 38.0314C110.529 33.7678 112.007 32.7558 116.534 33.561Z" fill="#FE0707"/>
<path d="M182.523 13.9633C181.018 14.2823 180.489 13.7675 180.444 12.1923C180.391 10.4059 181.437 10.6215 182.582 10.6083C183.775 10.5929 184.729 10.5027 184.711 12.2319C184.695 13.9061 183.962 14.2097 182.523 13.9633Z" fill="#6A6A6A"/>
<path d="M21.9376 32.3356C21.9125 25.9512 28.2771 21.4698 34.1589 23.4058C34.9468 23.6654 35.8098 23.9008 35.7028 24.915C35.5912 25.9732 34.6507 25.9292 33.8446 26.0194C28.9443 26.5606 25.9066 29.4448 25.1119 34.2672C24.9844 35.0372 25.2508 36.146 23.9528 36.201C22.6845 36.256 22.557 35.1736 22.3133 34.331C22.097 33.5852 22.0196 32.7976 21.9376 32.3356Z" fill="#FEFDFD"/>
<path d="M66.4281 10.1926C60.5668 10.1684 56.4998 14.3528 56.5044 20.4072C56.509 26.3604 60.5281 30.4436 66.378 30.437C72.2029 30.4304 76.2744 26.2592 76.2152 20.3632C76.1537 14.3418 72.1847 10.2168 66.4281 10.1926ZM70.7114 24.3364C68.8168 27.5528 63.9984 27.5924 62.0446 24.3958C61.2613 23.1154 61.0154 21.6942 60.9926 20.471C61.1406 16.7354 62.072 15.2724 64.529 14.2384C66.4941 13.4112 68.8555 14.0734 70.1558 15.5738C71.9251 17.6088 72.1892 21.8262 70.7114 24.3364Z" fill="#5E5E5E"/>
<path d="M68.8465 35.1737C66.1618 35.1011 63.4702 35.2089 60.7855 35.1209C59.5695 35.0813 59.3327 35.5455 59.3555 36.5949C59.417 39.3119 59.376 42.0289 59.376 44.7459C59.376 47.4629 59.3669 50.1799 59.3851 52.8969C59.3874 53.3589 59.1369 54.0453 59.6151 54.2433C60.7855 54.7317 62.0903 54.5469 63.2926 54.3907C64.3811 54.2499 63.8164 53.1983 63.8642 52.5625C63.9803 51.0027 63.3814 49.0183 64.1693 47.9843C65.0255 46.8623 67.2002 47.7445 68.7873 47.5575C68.8488 47.5509 68.9126 47.5509 68.974 47.5487C73 47.3441 75.2908 45.1155 75.3022 41.3909C75.3158 37.6157 72.9408 35.2859 68.8465 35.1737ZM65.9819 44.1937C63.887 44.1937 63.887 44.1937 63.8847 41.2721C63.9803 39.9829 63.2357 38.3593 65.8681 38.5001C69.6503 38.7047 70.9346 39.2393 70.9711 41.3205C71.0098 43.4391 69.7004 44.1937 65.9819 44.1937Z" fill="#FE0000"/>
<path d="M201.753 11.957C201.771 10.153 200.485 10.7162 199.551 10.659C198.558 10.5974 197.495 10.4566 197.597 12.0318C197.702 13.6312 197.62 15.2438 197.62 16.9268C194.482 15.5936 193.772 15.4308 192.316 15.6816C188.343 16.368 186.089 20.5436 187.227 25.1042C188.441 29.964 192.61 31.7218 197.06 29.1874C197.795 28.7672 197.64 29.1258 197.957 29.557C198.738 30.6218 199.995 29.9046 201.036 29.9882C201.867 30.0542 201.719 29.2864 201.719 28.7782C201.735 23.1726 201.694 17.5648 201.753 11.957ZM197.54 24.7544C197.221 26.1954 196.347 27.1678 194.801 27.3306C193.239 27.4956 192.171 26.675 191.565 25.355C190.882 23.8612 190.914 22.2926 191.451 20.7658C191.975 19.2764 193.136 18.5284 194.758 18.6582C196.322 18.7836 197.194 19.7538 197.54 21.1816C197.681 21.7668 197.743 22.3674 197.841 22.9614C197.743 23.5686 197.67 24.167 197.54 24.7544Z" fill="#5E5E5E"/>
<path d="M92.9409 20.042C91.6201 15.9984 87.4758 14.4342 83.6661 16.5286C83.1834 16.7948 82.9876 17.1006 82.4092 16.3988C81.5985 15.4176 80.1708 15.851 79.0959 16.0776C78.1988 16.2668 78.636 17.3184 78.6291 17.9762C78.5927 22.7436 78.6086 27.5132 78.6086 32.2806C78.6086 34.9558 78.6086 34.8876 81.3275 34.8788C82.5549 34.8744 82.7963 34.397 82.7485 33.3674C82.6824 31.9242 82.7325 30.4744 82.7325 28.8288C87.5737 31.5304 91.7613 30.2148 93.0456 25.7532C93.5921 23.8546 93.5557 21.9252 92.9409 20.042ZM89.0424 24.9656C88.6325 26.3868 87.6625 27.2998 86.1141 27.3482C84.4905 27.3988 83.3906 26.5474 82.9192 25.0492C82.4934 23.694 82.5276 22.2904 82.917 20.9418C83.3268 19.5294 84.3402 18.6604 85.9068 18.6362C87.387 18.6142 88.3843 19.4128 88.8899 20.7086C89.1722 21.4324 89.2724 22.22 89.4318 22.88C89.2906 23.6632 89.2269 24.3298 89.0424 24.9656Z" fill="#5E5E5E"/>
<path d="M86.4144 40.348C83.1376 39.4416 79.5329 40.7528 77.9276 43.4368C76.1514 46.4046 76.6729 50.8244 79.0593 53.0112C81.8693 55.5852 87.4778 55.4246 89.7276 52.6636C90.2855 51.9794 91.2829 51.0092 90.7159 50.3426C90.0988 49.6188 88.7257 50.006 87.7055 50.1644C87.3002 50.2282 86.9973 50.7936 86.6102 51.0862C84.6178 52.591 81.6962 51.7748 81.1451 49.5968C80.9539 48.8422 81.0541 48.4638 81.974 48.4924C83.3448 48.5342 84.7202 48.5034 86.0933 48.5034C87.4664 48.5034 88.8395 48.4946 90.2126 48.5056C90.8184 48.51 91.2373 48.4704 91.3489 47.6872C91.7588 44.77 89.3838 41.1708 86.4144 40.348ZM87.0452 45.5774C86.8402 46.3166 85.9817 45.9008 85.4193 45.9404C84.4925 46.0064 83.5566 45.991 82.6275 45.9448C82.1152 45.9184 81.382 46.2418 81.1565 45.5664C80.9539 44.9592 81.4002 44.4224 81.8442 43.9824C82.4887 43.3444 83.2993 43.0936 84.2079 43.0958C84.9775 43.1068 85.688 43.285 86.2391 43.8416C86.7195 44.3278 87.2137 44.9724 87.0452 45.5774Z" fill="#FE0101"/>
<path d="M100.499 23.9403C101.742 24.0151 102.992 23.9557 104.24 23.9557C105.488 23.9557 106.74 23.8897 107.981 23.9733C109.138 24.0525 109.482 23.6499 109.443 22.5411C109.329 19.1047 107.155 16.3987 103.864 15.7585C100.392 15.0831 97.0511 16.6869 95.6644 19.6987C94.1569 22.9701 95.1361 27.1699 97.8458 29.0553C100.806 31.1145 105.595 30.7405 107.783 28.2391C108.373 27.5659 109.366 26.6199 108.817 25.9269C108.211 25.1635 106.843 25.5683 105.829 25.7267C105.417 25.7905 105.098 26.3317 104.707 26.6177C102.887 27.9509 100.25 27.4493 99.4307 25.6035C98.9867 24.6025 98.9662 23.8479 100.499 23.9403ZM100.093 19.4039C101.118 18.5525 102.318 18.3875 103.575 18.8605C104.536 19.2235 105.21 20.0617 105.094 20.9219C104.966 21.8657 103.873 21.2497 103.224 21.3927C102.871 21.4697 102.482 21.4059 102.111 21.4059C101.676 21.4059 101.239 21.4433 100.808 21.3971C100.291 21.3399 99.5582 21.6919 99.31 21.0957C99.0231 20.4093 99.581 19.8285 100.093 19.4039Z" fill="#5E5E5E"/>
<path d="M155.792 15.5848C151.331 15.6464 148.4 18.6032 148.409 23.0274C148.421 27.4362 151.385 30.36 155.874 30.3798C160.455 30.3996 163.45 27.4538 163.427 22.9482C163.404 18.4514 160.364 15.5232 155.792 15.5848ZM158.661 25.8764C157.493 27.731 154.801 27.8828 153.417 26.169C152.207 24.6774 152.207 21.3488 153.414 19.8198C154.812 18.0488 157.611 18.2886 158.752 20.2664C159.262 21.153 159.278 22.1144 159.285 23.0824C159.298 24.0614 159.203 25.014 158.661 25.8764Z" fill="#5E5E5E"/>
</svg>
