<svg width="71" height="70" viewBox="0 0 71 70" fill="none" xmlns="http://www.w3.org/2000/svg">
<path d="M71 35C71 28.0777 68.918 21.3108 65.0172 15.5551C61.1164 9.79934 55.572 5.3133 49.0853 2.66423C42.5985 0.0151656 35.4606 -0.677952 28.5743 0.672531C21.688 2.02301 15.3625 5.35644 10.3977 10.2513C5.43296 15.1461 2.05191 21.3825 0.682139 28.1719C-0.687636 34.9612 0.0153804 41.9985 2.70229 48.3939C5.3892 54.7893 9.93932 60.2556 15.7773 64.1014C21.6152 67.9473 28.4788 70 35.5 70C35.7089 70 35.9177 70 36.1329 70V42.7501H28.538V34.0141H36.1329V27.537C36.1329 20.049 40.7658 15.9806 47.5253 15.9806C49.8106 15.969 52.0948 16.0836 54.3671 16.3238V24.1425H49.6709C46 24.1425 45.2785 25.8647 45.2785 28.3981V33.9704H54.0823L52.9304 42.7064H45.2785V68.6147C52.6833 66.5197 59.1966 62.1079 63.8361 56.0446C68.4757 49.9813 70.99 42.5952 71 35Z" fill="white"/>
</svg>
