<svg width="72" height="70" viewBox="0 0 72 70" fill="none" xmlns="http://www.w3.org/2000/svg">
<path d="M46.5806 18.6235H25.4193C22.0417 18.6235 19.2937 21.3328 19.2937 24.6629V45.5261C19.2937 48.8562 22.0417 51.5662 25.4193 51.5662H46.5806C49.9582 51.5662 52.707 48.8569 52.707 45.5261V24.6629C52.707 21.3328 49.959 18.6235 46.5806 18.6235ZM36 45.9394C29.9352 45.9394 25.0009 41.0746 25.0009 35.0945C25.0009 29.1152 29.9352 24.2503 36 24.2503C42.0655 24.2503 46.9998 29.1152 46.9998 35.0945C46.9998 41.0738 42.0647 45.9394 36 45.9394ZM47.3534 26.4925C45.9177 26.4925 44.7502 25.3414 44.7502 23.9267C44.7502 22.512 45.9177 21.3609 47.3534 21.3609C48.7883 21.3609 49.9558 22.512 49.9558 23.9267C49.9558 25.3414 48.7883 26.4925 47.3534 26.4925Z" fill="white"/>
<path d="M36.0001 28.8325C32.499 28.8325 29.6482 31.6416 29.6482 35.0934C29.6482 38.5466 32.499 41.3565 36.0001 41.3565C39.5027 41.3565 42.3511 38.5466 42.3511 35.0934C42.3511 31.6424 39.5019 28.8325 36.0001 28.8325Z" fill="white"/>
<path d="M36 0C16.3947 0 0.5 15.6708 0.5 35C0.5 54.3292 16.3947 70 36 70C55.6053 70 71.5 54.3292 71.5 35C71.5 15.6708 55.6053 0 36 0ZM57.3543 45.526C57.3543 51.3836 52.5219 56.1479 46.5806 56.1479H25.4194C19.4788 56.1479 14.6457 51.3836 14.6457 45.526V24.6628C14.6457 18.8059 19.4788 14.0409 25.4194 14.0409H46.5806C52.5219 14.0409 57.3543 18.8059 57.3543 24.6628V45.526Z" fill="white"/>
</svg>
