<svg width="71" height="70" viewBox="0 0 71 70" fill="none" xmlns="http://www.w3.org/2000/svg">
<path d="M35.5 0C15.8969 0 0 15.673 0 35C0 54.327 15.8969 70 35.5 70C55.1031 70 71 54.327 71 35C71 15.673 55.1031 0 35.5 0ZM25.1841 52.9102H16.5382V27.2652H25.1841V52.9102ZM20.8615 23.7634H20.8051C17.9038 23.7634 16.0274 21.7944 16.0274 19.3334C16.0274 16.8169 17.9613 14.9023 20.9189 14.9023C23.8765 14.9023 25.6965 16.8169 25.7529 19.3334C25.7529 21.7944 23.8765 23.7634 20.8615 23.7634ZM56.3593 52.9102H47.7145V39.1908C47.7145 35.7429 46.4627 33.3914 43.3344 33.3914C40.9461 33.3914 39.5237 34.9776 38.8985 36.5087C38.67 37.0567 38.6142 37.8225 38.6142 38.5889V52.9102H29.9688C29.9688 52.9102 30.082 29.6712 29.9688 27.2652H38.6142V30.8963C39.7631 29.1489 41.8188 26.6634 46.4058 26.6634C52.094 26.6634 56.3593 30.3286 56.3593 38.2054V52.9102Z" fill="white"/>
</svg>
