<svg width="71" height="70" viewBox="0 0 71 70" fill="none" xmlns="http://www.w3.org/2000/svg">
<path d="M35.5 0C15.8959 0 0 15.672 0 35C0 54.328 15.8959 70 35.5 70C55.1041 70 71 54.328 71 35C71 15.6658 55.1041 0 35.5 0ZM53.0095 29.4786C53.0285 29.8342 53.0349 30.1961 53.0349 30.5579C53.0349 41.6132 44.4984 54.3592 28.8936 54.3592C24.1033 54.3592 19.6421 52.9742 15.8896 50.6034C16.554 50.6845 17.2311 50.7219 17.9145 50.7219C21.8885 50.7219 25.5461 49.3868 28.457 47.1408C24.7424 47.0722 21.6101 44.6515 20.528 41.3324C21.0469 41.4323 21.5784 41.4822 22.1226 41.4822C22.8947 41.4822 23.6477 41.3824 24.3564 41.1889C20.471 40.4216 17.5475 37.0401 17.5475 32.9848C17.5475 32.9474 17.5475 32.9162 17.5475 32.8788C18.6929 33.5089 20.0028 33.8832 21.3886 33.9269C19.1105 32.4296 17.6171 29.8654 17.6171 26.9643C17.6171 25.4296 18.0348 23.9947 18.7688 22.7594C22.9516 27.8191 29.2037 31.1506 36.2594 31.5C36.1138 30.8886 36.0379 30.246 36.0379 29.5909C36.0379 24.9742 39.841 21.2246 44.5237 21.2246C46.9663 21.2246 49.1684 22.2415 50.7188 23.8636C52.6488 23.4893 54.465 22.7906 56.1039 21.836C55.4711 23.7888 54.1233 25.4296 52.3704 26.4652C54.0853 26.2656 55.7242 25.8164 57.243 25.1488C56.1102 26.8271 54.6675 28.2995 53.0095 29.4786Z" fill="white"/>
</svg>
