<svg width="64" height="64" viewBox="0 0 64 64" fill="none" xmlns="http://www.w3.org/2000/svg">
<path d="M0 18.3352H64V64.0005H0V18.3352Z" fill="#00BFA6"/>
<path d="M0 5.28735H64V18.3356H0V5.28735Z" fill="#FA6142"/>
<path d="M29.9307 0H34.0695V10.5728H29.9307V0Z" fill="#6D7A84"/>
<path d="M46.4502 0H50.589V10.5728H46.4502V0Z" fill="#6D7A84"/>
<path d="M13.4116 0H17.5505V10.5728H13.4116V0Z" fill="#6D7A84"/>
<path d="M11.8448 31.6292C13.7694 31.6292 15.3297 30.069 15.3297 28.1443C15.3297 26.2197 13.7694 24.6594 11.8448 24.6594C9.9201 24.6594 8.35986 26.2197 8.35986 28.1443C8.35986 30.069 9.9201 31.6292 11.8448 31.6292Z" fill="white"/>
<path d="M25.2818 31.6292C27.2064 31.6292 28.7667 30.069 28.7667 28.1443C28.7667 26.2197 27.2064 24.6594 25.2818 24.6594C23.3571 24.6594 21.7969 26.2197 21.7969 28.1443C21.7969 30.069 23.3571 31.6292 25.2818 31.6292Z" fill="white"/>
<path d="M38.7188 31.6292C40.6434 31.6292 42.2037 30.069 42.2037 28.1443C42.2037 26.2197 40.6434 24.6594 38.7188 24.6594C36.7941 24.6594 35.2339 26.2197 35.2339 28.1443C35.2339 30.069 36.7941 31.6292 38.7188 31.6292Z" fill="white"/>
<path d="M52.1558 31.6292C54.0804 31.6292 55.6407 30.069 55.6407 28.1443C55.6407 26.2197 54.0804 24.6594 52.1558 24.6594C50.2311 24.6594 48.6709 26.2197 48.6709 28.1443C48.6709 30.069 50.2311 31.6292 52.1558 31.6292Z" fill="white"/>
<path d="M11.8448 44.6524C13.7694 44.6524 15.3297 43.0922 15.3297 41.1675C15.3297 39.2429 13.7694 37.6826 11.8448 37.6826C9.9201 37.6826 8.35986 39.2429 8.35986 41.1675C8.35986 43.0922 9.9201 44.6524 11.8448 44.6524Z" fill="white"/>
<path d="M25.2818 44.6524C27.2064 44.6524 28.7667 43.0922 28.7667 41.1675C28.7667 39.2429 27.2064 37.6826 25.2818 37.6826C23.3571 37.6826 21.7969 39.2429 21.7969 41.1675C21.7969 43.0922 23.3571 44.6524 25.2818 44.6524Z" fill="white"/>
<path d="M38.7188 44.6524C40.6434 44.6524 42.2037 43.0922 42.2037 41.1675C42.2037 39.2429 40.6434 37.6826 38.7188 37.6826C36.7941 37.6826 35.2339 39.2429 35.2339 41.1675C35.2339 43.0922 36.7941 44.6524 38.7188 44.6524Z" fill="white"/>
<path d="M52.1558 44.6524C54.0804 44.6524 55.6407 43.0922 55.6407 41.1675C55.6407 39.2429 54.0804 37.6826 52.1558 37.6826C50.2311 37.6826 48.6709 39.2429 48.6709 41.1675C48.6709 43.0922 50.2311 44.6524 52.1558 44.6524Z" fill="white"/>
<path d="M11.8448 57.6763C13.7694 57.6763 15.3297 56.1161 15.3297 54.1914C15.3297 52.2668 13.7694 50.7065 11.8448 50.7065C9.9201 50.7065 8.35986 52.2668 8.35986 54.1914C8.35986 56.1161 9.9201 57.6763 11.8448 57.6763Z" fill="white"/>
<path d="M25.2818 57.6763C27.2064 57.6763 28.7667 56.1161 28.7667 54.1914C28.7667 52.2668 27.2064 50.7065 25.2818 50.7065C23.3571 50.7065 21.7969 52.2668 21.7969 54.1914C21.7969 56.1161 23.3571 57.6763 25.2818 57.6763Z" fill="white"/>
<path d="M38.7188 57.6763C40.6434 57.6763 42.2037 56.1161 42.2037 54.1914C42.2037 52.2668 40.6434 50.7065 38.7188 50.7065C36.7941 50.7065 35.2339 52.2668 35.2339 54.1914C35.2339 56.1161 36.7941 57.6763 38.7188 57.6763Z" fill="white"/>
<path d="M52.1558 57.6763C54.0804 57.6763 55.6407 56.1161 55.6407 54.1914C55.6407 52.2668 54.0804 50.7065 52.1558 50.7065C50.2311 50.7065 48.6709 52.2668 48.6709 54.1914C48.6709 56.1161 50.2311 57.6763 52.1558 57.6763Z" fill="white"/>
</svg>
