<svg width="99" height="99" viewBox="0 0 99 99" fill="none" xmlns="http://www.w3.org/2000/svg">
<path d="M12.6992 37.9932L17.5264 33.166L29.5942 45.2339L24.7671 50.061L12.6992 37.9932Z" fill="#E93E3A"/>
<path d="M48.9004 74.2024L53.7275 69.3752L65.7954 81.4431L60.9683 86.2703L48.9004 74.2024Z" fill="#E93E3A"/>
<path d="M12.6953 81.4404L24.7632 69.3726L29.5903 74.1997L17.5225 86.2676L12.6953 81.4404Z" fill="#E93E3A"/>
<path d="M39.0815 81.733C51.3366 81.733 61.2713 71.7982 61.2713 59.5431C61.2713 47.288 51.3366 37.3533 39.0815 37.3533C26.8263 37.3533 16.8916 47.288 16.8916 59.5431C16.8916 71.7982 26.8263 81.733 39.0815 81.733Z" fill="#FA6142"/>
<path d="M35.8452 78.4966H42.6729V93.8588H35.8452V78.4966Z" fill="#E93E3A"/>
<path d="M39.2588 98.9795C43.0296 98.9795 46.0864 96.6869 46.0864 93.8588C46.0864 91.0307 43.0296 88.738 39.2588 88.738C35.488 88.738 32.4312 91.0307 32.4312 93.8588C32.4312 96.6869 35.488 98.9795 39.2588 98.9795Z" fill="#E93E3A"/>
<path d="M35.8452 25.5823H42.6729V42.6514H35.8452V25.5823Z" fill="#E93E3A"/>
<path d="M39.2588 30.7031C43.0296 30.7031 46.0864 28.4105 46.0864 25.5824C46.0864 22.7543 43.0296 20.4617 39.2588 20.4617C35.488 20.4617 32.4312 22.7543 32.4312 25.5824C32.4312 28.4105 35.488 30.7031 39.2588 30.7031Z" fill="#E93E3A"/>
<path d="M67.001 87.4783C69.6669 84.8123 70.2072 81.0302 68.2078 79.0308C66.2083 77.0313 62.4262 77.5716 59.7603 80.2376C57.0943 82.9035 56.554 86.6856 58.5535 88.6851C60.5529 90.6845 64.335 90.1442 67.001 87.4783Z" fill="#E93E3A"/>
<path d="M18.7339 39.1999C21.3998 36.534 21.9401 32.7519 19.9407 30.7524C17.9412 28.753 14.1591 29.2933 11.4932 31.9592C8.8272 34.6252 8.28691 38.4073 10.2864 40.4067C12.2858 42.4062 16.0679 41.8659 18.7339 39.1999Z" fill="#E93E3A"/>
<path d="M56.3281 56.3066H73.3972V63.1343H56.3281V56.3066Z" fill="#E93E3A"/>
<path d="M73.3971 66.5484C76.2252 66.5484 78.5178 63.4915 78.5178 59.7207C78.5178 55.9499 76.2252 52.8931 73.3971 52.8931C70.569 52.8931 68.2764 55.9499 68.2764 59.7207C68.2764 63.4915 70.569 66.5484 73.3971 66.5484Z" fill="#E93E3A"/>
<path d="M5.12061 56.3066H22.1897V63.1343H5.12061V56.3066Z" fill="#E93E3A"/>
<path d="M5.12073 66.5484C7.94884 66.5484 10.2415 63.4915 10.2415 59.7207C10.2415 55.9499 7.94884 52.8931 5.12073 52.8931C2.29263 52.8931 0 55.9499 0 59.7207C0 63.4915 2.29263 66.5484 5.12073 66.5484Z" fill="#E93E3A"/>
<path d="M19.9348 88.6797C21.9343 86.6802 21.394 82.8981 18.728 80.2322C16.0621 77.5662 12.28 77.0259 10.2805 79.0254C8.28105 81.0249 8.82134 84.8069 11.4873 87.4729C14.1533 90.1389 17.9353 90.6792 19.9348 88.6797Z" fill="#E93E3A"/>
<path d="M32.4314 56.3067C34.3168 56.3067 35.8452 54.7782 35.8452 52.8928C35.8452 51.0074 34.3168 49.479 32.4314 49.479C30.546 49.479 29.0176 51.0074 29.0176 52.8928C29.0176 54.7782 30.546 56.3067 32.4314 56.3067Z" fill="#E93E3A"/>
<path d="M39.2592 71.669C43.9727 71.669 47.7937 70.1405 47.7937 68.2551C47.7937 66.3697 43.9727 64.8413 39.2592 64.8413C34.5457 64.8413 30.7246 66.3697 30.7246 68.2551C30.7246 70.1405 34.5457 71.669 39.2592 71.669Z" fill="#E93E3A"/>
<path d="M51.1973 37.533L76.7968 11.9334L87.0364 22.173L61.4368 47.7725L51.1973 37.533Z" fill="#00BFA6" fill-opacity="0.41"/>
<path d="M78.5063 13.6445L87.0395 5.11134L93.8663 11.9381L85.3331 20.4713L78.5063 13.6445Z" fill="white"/>
<path d="M39.2589 61.4275C38.3167 61.4275 37.552 60.6645 37.5503 59.7223C37.5503 59.27 37.7295 58.8347 38.0504 58.5138L49.9988 46.5654C50.6764 45.91 51.7569 45.9287 52.4124 46.6081C53.0508 47.2704 53.0508 48.3184 52.4124 48.979L40.464 60.9274C40.1448 61.2466 39.7112 61.4275 39.2589 61.4275Z" fill="white"/>
<path d="M52.9143 49.479L49.5005 46.0652L52.9143 39.2375L59.742 46.0652L52.9143 49.479Z" fill="white"/>
<path d="M88.7595 25.5822C88.3072 25.5822 87.8719 25.403 87.5527 25.0821L73.8974 11.4268C73.242 10.7491 73.2608 9.66867 73.9401 9.01321C74.6024 8.37483 75.6504 8.37483 76.311 9.01321L89.9663 22.6685C90.632 23.3359 90.632 24.4164 89.9663 25.0821C89.6454 25.403 89.2119 25.5822 88.7595 25.5822Z" fill="#00BFA6"/>
<path d="M59.588 36.1481C59.2637 36.4639 58.8285 36.6414 58.3761 36.6431C57.9238 36.638 57.4903 36.4605 57.1642 36.1481C57.1642 36.1481 54.9418 33.9103 54.894 33.8438L57.2837 31.4541C57.3503 31.5019 59.588 33.7243 59.588 33.7243C60.2555 34.3951 60.2572 35.479 59.588 36.1481Z" fill="white"/>
<path d="M64.5382 31.1982C63.8725 31.8604 62.7972 31.8604 62.1315 31.1982C62.1315 31.1982 59.8903 28.9553 59.8442 28.8938L62.2339 26.5042C62.3039 26.5451 64.5382 28.7743 64.5382 28.7743C65.2005 29.4452 65.1988 30.5256 64.5382 31.1982Z" fill="white"/>
<path d="M69.4884 26.2482C68.8227 26.9105 67.7474 26.9105 67.0817 26.2482C67.0817 26.2482 64.8405 24.0053 64.7944 23.9439L67.1841 21.5542C67.2541 21.5952 69.4884 23.8244 69.4884 23.8244C70.1558 24.4952 70.1575 25.5791 69.4884 26.2482Z" fill="white"/>
<path d="M74.4387 21.2809C73.8003 21.9449 72.7437 21.9671 72.078 21.327C72.0626 21.3117 72.0473 21.2963 72.0319 21.2809C72.0319 21.2809 69.8027 19.0466 69.7617 18.9766L72.1343 16.604C72.2043 16.645 74.4387 18.8742 74.4387 18.8742C75.1009 19.5399 75.1009 20.6152 74.4387 21.2809Z" fill="white"/>
<path d="M97.2942 17.0478C96.8419 17.0478 96.4066 16.8686 96.0874 16.5477L82.4321 2.89236C81.7767 2.21472 81.7954 1.13424 82.4748 0.478789C83.1371 -0.159596 84.1851 -0.159596 84.8457 0.478789L98.501 14.1341C99.1667 14.8015 99.1667 15.882 98.501 16.5477C98.1801 16.8686 97.7465 17.0478 97.2942 17.0478Z" fill="#00BFA6"/>
</svg>