<svg width="175" height="90" viewBox="0 0 175 90" fill="none" xmlns="http://www.w3.org/2000/svg">
<path d="M62.4885 73.8863V86.9124C62.4885 87.8942 61.6927 88.69 60.7109 88.69H1.77759C0.795793 88.69 0 87.8942 0 86.9124V73.8863C0 65.187 5.68996 57.5132 14.0125 54.9856L18.6075 53.5901H43.8808L48.4758 54.9856C56.7985 57.5134 62.4885 65.187 62.4885 73.8863Z" fill="#B78E8E"/>
<path d="M31.244 62.9362C30.5076 62.9362 29.9109 63.5331 29.9109 64.2693V88.69H32.5773V64.2695C32.5771 63.5331 31.9804 62.9362 31.244 62.9362Z" fill="#AA8080"/>
<path d="M51.5194 56.194C51.5618 56.8994 51.586 57.6098 51.586 58.3259C51.586 71.3271 44.4867 82.6694 33.9536 88.6899H60.7105C61.6923 88.6899 62.4881 87.8941 62.4881 86.9123V73.8856C62.488 66.295 58.1542 59.485 51.5194 56.194Z" fill="#AA8080"/>
<path d="M31.2441 64.2695L36.0258 68.0849C38.1652 69.7919 41.3513 68.5742 41.8069 65.8754L43.8804 53.5905L38.247 51.8796L31.2441 64.2695Z" fill="#F9EFDA"/>
<path d="M31.2442 64.2695L26.4625 68.0849C24.3231 69.7919 21.137 68.5742 20.6814 65.8754L18.6079 53.5905L24.2413 51.8796L31.2442 64.2695Z" fill="#F9EFDA"/>
<path d="M38.2471 51.8797V44.6971H24.2412V51.8797L31.2441 64.2695L38.2471 51.8797Z" fill="#FFDDCE"/>
<path d="M24.2411 49.0973C26.423 49.9104 28.7824 50.3559 31.244 50.3559C33.7058 50.3559 36.065 49.9104 38.2469 49.0973V44.6971H24.241V49.0973H24.2411Z" fill="#FFCBBE"/>
<path d="M31.244 0.345093C22.3187 0.345093 15.0833 7.5804 15.0833 16.5058V30.245C15.0833 39.1702 22.3186 46.4057 31.244 46.4057C40.1694 46.4057 47.4047 39.1704 47.4047 30.245V16.5058C47.4047 7.5804 40.1692 0.345093 31.244 0.345093V0.345093Z" fill="#FFDDCE"/>
<path d="M40.792 3.46719C42.7099 6.12427 43.8407 9.38716 43.8407 12.9144V33.8361C43.8407 37.3635 42.7099 40.6262 40.792 43.2833C44.8012 40.3424 47.4047 35.598 47.4047 30.2448V16.5058C47.4047 11.1525 44.8012 6.40811 40.792 3.46719Z" fill="#FFCBBE"/>
<path d="M50.6232 79.3525V88.6899H47.9568V79.3525C47.9568 78.6165 48.5542 78.0193 49.2899 78.0193C50.026 78.0192 50.6232 78.6165 50.6232 79.3525Z" fill="#9D6B6B"/>
<path d="M14.5315 79.3525V88.6899H11.8652V79.3525C11.8652 78.6165 12.4607 78.0193 13.1983 78.0193C13.9343 78.0192 14.5315 78.6165 14.5315 79.3525Z" fill="#9D6B6B"/>
<path d="M26.2596 38.9447C25.8225 38.9447 25.4945 38.5548 25.5566 38.1222C25.9557 35.3384 28.35 33.1987 31.2442 33.1987C34.1383 33.1987 36.5326 35.3383 36.9317 38.1222C36.9937 38.5548 36.6658 38.9447 36.2288 38.9447H26.2596Z" fill="#E7ECF6"/>
<path d="M42.377 20.4561L43.5888 28.6355C43.7178 29.507 44.466 30.1525 45.3472 30.1525H47.4048V23.9603H50.8165V16.3262C50.8165 15.9183 50.8039 15.5133 50.7792 15.1116C50.6624 13.2148 49.0934 11.7345 47.193 11.7345H45.8978C43.9534 11.7345 42.3771 13.3107 42.3771 15.2552V20.4561H42.377Z" fill="#E7ECF6"/>
<path d="M50.7791 15.1114C50.6622 13.2146 49.0933 11.7343 47.1928 11.7343H45.8977C45.53 11.7343 45.1757 11.7911 44.8425 11.8956C46.2359 12.3268 47.2734 13.5832 47.3674 15.1114C47.3921 15.5131 47.4047 15.9181 47.4047 16.326V23.9601H50.8163V16.3262C50.8163 15.9183 50.8037 15.5131 50.7791 15.1114Z" fill="#D8E2F1"/>
<path d="M50.2777 30.1525H47.4048V22.2337C47.4048 21.2519 48.2006 20.4561 49.1824 20.4561H50.2779C52.2613 20.4561 53.8691 22.064 53.8691 24.0474V26.5613C53.869 28.5447 52.2612 30.1525 50.2777 30.1525Z" fill="#FFDDCE"/>
<path d="M20.2398 20.4561L19.028 28.6355C18.8989 29.507 18.1508 30.1525 17.2696 30.1525H15.2119V23.9603H11.8003V16.3262C11.8003 15.9183 11.8129 15.5133 11.8376 15.1116C11.9544 13.2148 13.5234 11.7345 15.4238 11.7345H16.719C18.6634 11.7345 20.2396 13.3107 20.2396 15.2552V20.4561H20.2398Z" fill="#E7ECF6"/>
<path d="M43.5825 80.6468H36.5282C35.8134 80.6468 35.2341 80.0675 35.2341 79.3526C35.2341 78.6378 35.8134 78.0585 36.5282 78.0585H43.5825C44.2974 78.0585 44.8767 78.6378 44.8767 79.3526C44.8767 80.0675 44.2972 80.6468 43.5825 80.6468Z" fill="#F9EFDA"/>
<path d="M12.2106 30.1525H15.0835V22.2337C15.0835 21.2519 14.2877 20.4561 13.3059 20.4561H12.2104C10.2269 20.4561 8.61914 22.064 8.61914 24.0474V26.5613C8.61931 28.5447 10.2273 30.1525 12.2106 30.1525Z" fill="#FFDDCE"/>
<path d="M146.304 64.5554L154.842 56.5362L151.452 55.9066C149.816 55.5777 148.639 53.6799 148.639 52.0111V44.5745H140.711H132.784V52.0111C132.784 53.68 131.607 55.5779 129.971 55.9066L126.581 56.5362L135.119 64.5554C138.262 67.5082 143.16 67.5082 146.304 64.5554Z" fill="#CDA47A"/>
<path d="M141.363 44.5745V55.1381C141.363 56.8068 142.54 58.7048 144.176 59.0335L150.863 60.2736L154.842 56.5362L151.452 55.9066C149.816 55.5777 148.639 53.6799 148.639 52.0111V44.5745H141.363Z" fill="#CDA47A"/>
<path d="M164.198 57.2358L152.146 54.9971C151.704 54.915 151.247 55.0214 150.887 55.2908L140.711 62.896L130.536 55.2906C130.176 55.0213 129.719 54.9148 129.277 54.9969L117.225 57.2356C111.163 59.0206 107 64.5855 107 70.9052V85.3508C107 87.0044 108.34 88.3447 109.994 88.3447H171.429C173.082 88.3447 174.422 87.0044 174.422 85.3508V70.9054C174.423 64.5856 170.26 59.0208 164.198 57.2358Z" fill="#2D5872"/>
<path d="M164.198 57.2358L152.146 54.9971C151.704 54.915 151.247 55.0215 150.887 55.2908L145.543 59.285L157.012 61.4154C163.075 63.2004 167.237 64.8748 167.237 71.1948V88.3449H171.429C173.082 88.3449 174.423 87.0045 174.423 85.351V70.9054C174.423 64.5857 170.26 59.0208 164.198 57.2358Z" fill="#1D4559"/>
<path d="M125.819 55.6393L132.415 64.869C132.912 65.5643 133.825 65.8213 134.611 65.4872L140.711 62.896L130.536 55.2906C130.176 55.0213 129.719 54.9148 129.277 54.9969L125.819 55.6393Z" fill="#1D4559"/>
<path d="M155.604 55.6393L149.008 64.869C148.511 65.5643 147.598 65.8213 146.811 65.4872L140.711 62.896L150.887 55.2906C151.247 55.0213 151.704 54.9148 152.146 54.9969L155.604 55.6393Z" fill="#1D4559"/>
<path d="M140.711 0C127.924 0 117.557 8.84657 117.557 13.8455C117.557 18.8444 127.924 22.4166 140.711 22.4166C153.499 22.4166 163.865 18.8444 163.865 13.8455C163.865 8.84657 153.499 0 140.711 0Z" fill="#2D5872"/>
<path d="M140.711 0C139.469 0 138.249 0.0845488 137.06 0.239843C148.112 1.68373 156.562 9.33229 156.562 13.8455C156.562 18.3586 148.112 21.7085 137.06 22.3169C138.249 22.3823 139.469 22.4165 140.711 22.4165C153.499 22.4165 163.865 18.8442 163.865 13.8453C163.865 8.84639 153.499 0 140.711 0Z" fill="#1D4559"/>
<path d="M157.267 27.8012H156.21V26.5602V23.5941C156.21 19.406 154.491 15.3477 151.317 12.615C148.829 10.4725 132.593 10.4725 130.105 12.615C126.931 15.3477 125.212 19.406 125.212 23.5941V26.5602V27.8012H124.155C122.606 27.8012 121.35 29.0572 121.35 30.6063V33.7149C121.35 35.2643 122.606 36.5201 124.155 36.5201H125.216C125.304 40.5912 127.014 44.5098 130.105 47.171C132.593 49.3135 136.091 51.1836 140.711 51.235C145.331 51.1834 148.829 49.3133 151.317 47.171C154.408 44.5098 156.119 40.5912 156.206 36.5201H157.267C158.816 36.5201 160.072 35.2641 160.072 33.7149V30.6063C160.072 29.0572 158.816 27.8012 157.267 27.8012Z" fill="#CDA47A"/>
<path d="M157.267 27.8012H156.211V26.5602V23.5939C156.211 19.4058 154.491 15.3475 151.318 12.6148C149.751 11.266 142.736 10.7667 137.133 11.1163C140.43 11.3219 143.239 11.8213 144.16 12.6148C147.334 15.3475 149.054 19.4058 149.054 23.5939V26.5602L149.049 36.5199C148.962 40.591 147.251 44.5096 144.161 47.1708C142.361 48.7206 140.032 50.1274 137.133 50.8069C138.242 51.0668 139.433 51.2207 140.711 51.235C145.332 51.1834 148.829 49.3133 151.318 47.1708C154.408 44.5096 156.119 40.591 156.206 36.5199H157.267C158.817 36.5199 160.072 35.2639 160.072 33.7148V30.6061C160.073 29.0572 158.817 27.8012 157.267 27.8012Z" fill="#CDA47A"/>
<path d="M122.862 18.4591V28.1171C122.862 28.1171 125.233 28.0635 126.756 29.5712C127.073 29.8852 127.613 29.6557 127.613 29.2094V22.057H153.81V29.2094C153.81 29.6557 154.349 29.8852 154.666 29.5712C156.19 28.0635 158.561 28.1171 158.561 28.1171V18.4591C158.561 12.4771 122.862 12.4771 122.862 18.4591Z" fill="#3A3838"/>
<path d="M140.711 26.3273C130.853 26.3273 122.862 23.2675 122.862 19.493H158.561C158.561 23.2675 150.569 26.3273 140.711 26.3273Z" fill="#2D5872"/>
<path d="M122.862 14.7486V19.4931H158.561V14.7983C158.561 13.5249 157.698 12.4145 156.464 12.0993C153.161 11.2552 146.443 9.77797 139.876 9.77521C133.824 9.77279 127.899 11.2222 124.894 12.0667C123.692 12.4047 122.862 13.4998 122.862 14.7486Z" fill="#1D4559"/>
<path d="M140.712 62.896L135.915 64.9336L138.719 68.1936H142.705L145.509 64.9336L140.712 62.896Z" fill="#282C3A"/>
<path d="M142.704 68.1936H140.711H138.719L135.914 88.3449H145.508L142.704 68.1936Z" fill="#282C3A"/>
<path d="M158.915 81.6292H151.892C151.425 81.6292 151.047 81.251 151.047 80.7843V77.0427C151.047 76.5762 151.425 76.1978 151.892 76.1978H158.915C159.381 76.1978 159.76 76.576 159.76 77.0427V80.7843C159.76 81.2508 159.381 81.6292 158.915 81.6292Z" fill="#1D4559"/>
<path d="M129.531 81.6293H122.508C122.041 81.6293 121.663 81.2511 121.663 80.7843V77.0428C121.663 76.5762 122.041 76.1978 122.508 76.1978H129.531C129.997 76.1978 130.376 76.576 130.376 77.0428V80.7843C130.376 81.2509 129.997 81.6293 129.531 81.6293Z" fill="#1D4559"/>
<path d="M109.71 66.0659C111.027 67.1278 112.955 66.9209 114.017 65.604L115.469 63.804C116.531 62.4869 116.324 60.5587 115.007 59.4968L113.966 58.6579C111.476 60.1389 109.511 62.3399 108.312 64.9381L109.71 66.0659Z" fill="#FFBF14"/>
<path d="M173.111 64.9381C171.912 62.3399 169.947 60.1389 167.456 58.6579L166.416 59.4968C165.099 60.5587 164.892 62.4871 165.954 63.804L167.405 65.604C168.467 66.9209 170.395 67.1278 171.712 66.0659L173.111 64.9381Z" fill="#EAA200"/>
<path d="M164.761 74.864C164.024 74.864 163.427 75.461 163.427 76.1976V88.3449H166.095V76.1976C166.094 75.461 165.497 74.864 164.761 74.864Z" fill="#183D4C"/>
<path d="M116.662 74.864C115.925 74.864 115.328 75.461 115.328 76.1976V88.3449H117.995V76.1976C117.995 75.461 117.398 74.864 116.662 74.864Z" fill="#183D4C"/>
<path d="M72.856 56.1355L63.4693 56.7409C63.4693 56.7409 46.8149 35.9141 59.4659 13.8385C68.7913 -2.42908 85.6449 1.11743 93.866 4.10702C93.866 4.10702 103.035 3.24513 104.651 17.3721C106.267 31.499 101.623 48.9689 91.4281 58.1532L72.856 56.1355Z" fill="#3A3838"/>
<path d="M94.3163 67.8793L88.7369 78.5061L77.9636 79.7903L68.6122 75.8818L67.4014 66.5964L69.7596 59.8092L70.4297 57.8065C70.9367 57.2513 71.2806 56.5668 71.423 55.8285C71.5423 55.3724 71.6286 54.9083 71.6816 54.4398C71.7301 54.0606 71.7699 53.6727 71.7894 53.2688C71.8975 51.0261 71.811 48.7784 71.5308 46.5507C71.5308 46.5507 92.431 36.9259 91.484 46.5507C90.5371 56.1755 92.4041 57.2259 92.4041 57.2259L94.3163 67.8793Z" fill="#F4BB87"/>
<path d="M68.5359 67.5432C68.5359 67.5432 79.1442 72.7973 95.2094 67.5432V89.8978H72.2742L68.5359 67.5432Z" fill="#69B0EE"/>
<path d="M88.669 16.1989C88.669 16.1989 88.0636 18.7554 84.0257 19.4967C82.1488 19.8867 80.3078 20.4341 78.5228 21.1332C73.8846 22.8244 70.1173 26.3033 68.0629 30.7924C66.4886 34.437 65.8904 38.4289 66.3274 42.3748C66.3274 42.3748 73.26 54.0831 81.6039 54.0154C89.9478 53.9474 97.0096 42.7778 98.225 39.0103C98.225 39.0103 100.445 39.1783 101.556 35.8474C102.101 34.3471 102.369 32.7603 102.348 31.1643C102.337 30.7541 102.188 30.3597 101.924 30.045C101.092 29.1748 99.824 28.8791 98.6925 29.2909C98.6925 29.2905 91.1586 26.2923 88.669 16.1989Z" fill="#FED19A"/>
<path d="M92.4136 57.2214L84.8723 89.8978H113.937C115.859 89.8978 117.419 88.3389 117.419 86.4158V76.8459C117.418 68.3683 110.8 61.3652 102.336 60.8864L98.4802 60.671C96.304 60.5477 94.2803 59.5148 92.9038 57.8247L92.4136 57.2214Z" fill="#EEEFEE"/>
<path d="M70.8187 57.3312L78.3407 89.8977H49.2711C47.3481 89.8977 45.7891 88.3389 45.7891 86.4158V76.8459C45.7892 68.3683 52.4075 61.3652 60.8716 60.8863L64.7274 60.671C66.9036 60.5477 68.9273 59.5147 70.3036 57.8247L70.8187 57.3312Z" fill="#EEEFEE"/>
<path d="M102.181 64.1733C97.8361 64.1733 94.424 69.9391 94.424 77.3027C94.3559 80.4847 95.0948 83.6322 96.5722 86.4513C96.9617 87.1472 97.4318 87.7948 97.9729 88.3807C98.5721 88.3639 99.1004 87.9829 99.3055 87.4197C98.7488 86.8377 98.2773 86.1797 97.9049 85.4654C96.6259 82.9376 95.9857 80.1349 96.04 77.3025C96.04 71.0605 98.8497 65.7881 102.181 65.7881C105.512 65.7881 108.322 71.0605 108.322 77.3025C108.37 80.1381 107.727 82.9428 106.448 85.474C106.098 86.1445 105.658 86.7638 105.14 87.3152C105.296 87.8959 105.8 88.3158 106.4 88.3645C106.965 87.7418 107.456 87.0547 107.862 86.3175C109.288 83.5304 110.001 80.4328 109.937 77.3025C109.938 69.9393 106.528 64.1733 102.181 64.1733Z" fill="#BBBBCD"/>
<path d="M107.99 86.9201C107.987 87.7265 107.334 88.3796 106.528 88.382C106.484 88.3847 106.44 88.3791 106.399 88.3658C105.799 88.3171 105.295 87.8971 105.139 87.3164C105.093 87.1899 105.071 87.0558 105.075 86.921C105.071 86.1492 105.676 85.5115 106.447 85.4751C106.474 85.4686 106.501 85.4661 106.528 85.4676C107.332 85.464 107.986 86.1128 107.99 86.9165V86.9208V86.9201Z" fill="#575B6D"/>
<path d="M99.4055 86.92C99.407 87.0918 99.374 87.2621 99.3086 87.4209C99.1034 87.9842 98.5752 88.3652 97.9759 88.3819H97.9436C97.139 88.3783 96.4891 87.7246 96.4904 86.92C96.488 86.7602 96.5154 86.6012 96.5711 86.4514C96.7638 85.8722 97.3009 85.4776 97.9114 85.4668H97.9436C98.7482 85.4655 99.4021 86.1155 99.4055 86.92Z" fill="#575B6D"/>
<path d="M102.181 65.7915C101.82 65.7908 101.504 65.5513 101.405 65.2043C100.809 63.4189 99.6814 61.8584 98.173 60.7323C97.8077 60.4767 97.7186 59.9735 97.9742 59.6081C98.2298 59.2428 98.733 59.1538 99.0984 59.4093C100.915 60.7443 102.265 62.6179 102.956 64.7636C103.077 65.1938 102.826 65.6405 102.396 65.7612C102.325 65.7811 102.252 65.7913 102.179 65.7913H102.181V65.7915Z" fill="#BBBBCD"/>
<path d="M71.8002 53.2687C71.7755 53.6726 71.7355 54.0605 71.6924 54.4397C71.6394 54.9081 71.5531 55.3722 71.4338 55.8284C70.0333 56.9509 61.2832 64.5731 61.7605 79.7623C61.7756 80.2102 61.425 80.5858 60.9772 80.6015H60.9525C60.5161 80.6006 60.1589 80.2544 60.1445 79.8184C59.7332 69.6455 64.0331 59.8509 71.8002 53.2687Z" fill="#BBBBCD"/>
<path d="M60.7928 87.0203C63.0235 87.0203 64.8317 85.212 64.8317 82.9814C64.8317 80.7507 63.0235 78.9424 60.7928 78.9424C58.5622 78.9424 56.7539 80.7507 56.7539 82.9814C56.7539 85.212 58.5622 87.0203 60.7928 87.0203Z" fill="#575B6D"/>
<path d="M60.7941 85.1802C62.0085 85.1802 62.993 84.1958 62.993 82.9814C62.993 81.7669 62.0085 80.7825 60.7941 80.7825C59.5797 80.7825 58.5952 81.7669 58.5952 82.9814C58.5952 84.1958 59.5797 85.1802 60.7941 85.1802Z" fill="#BBBBCD"/>
</svg>
