<svg width="213" height="212" viewBox="0 0 213 212" fill="none" xmlns="http://www.w3.org/2000/svg">
<path d="M131.531 79.5728C129.271 79.5728 127.433 77.7415 127.433 75.4908V41.7793H124.807V75.4907C124.807 79.184 127.824 82.1887 131.531 82.1887H136.451V79.5726H131.531V79.5728Z" fill="#89C947"/>
<path d="M132.341 12.3283V8.4515C132.341 7.94677 131.93 7.53397 131.427 7.53397H120.242C119.739 7.53397 119.328 7.94677 119.328 8.4515V12.3283H132.341Z" fill="#48C1E1"/>
<path d="M136.806 89.0378C136.231 89.0378 135.766 88.5737 135.766 88.0015V61.6776C135.766 59.3919 137.632 57.5321 139.925 57.5321H182.974C185.267 57.5321 187.134 59.3917 187.134 61.6776V88.0015C187.134 88.5737 186.668 89.0378 186.094 89.0378H136.806Z" fill="#A2DFF9"/>
<path d="M170.211 82.3795H166.15L167.229 81.2806C167.95 80.5458 167.956 79.3492 167.242 78.6216C166.527 77.8937 165.352 77.8992 164.631 78.6341L161.792 81.5248C161.878 81.6764 161.929 81.8521 161.929 82.0401V89.0378H170.211C171.231 89.0378 172.066 88.1876 172.066 87.1487V84.2685C172.065 83.2295 171.231 82.3795 170.211 82.3795Z" fill="#FFB98A"/>
<path d="M160.757 81.0935H144.727V71.8974C144.727 70.7742 143.798 69.8604 142.657 69.8604H137.836C136.694 69.8604 135.766 70.7741 135.766 71.8974V88.0194C135.766 88.5817 136.229 89.0378 136.801 89.0378H161.792V82.1121C161.792 81.5496 161.329 81.0935 160.757 81.0935Z" fill="#48C1E1"/>
<path d="M142.615 57.5321L144.665 60.1037C148.913 65.4336 155.031 68.4906 161.45 68.4906C167.868 68.4906 173.986 65.4338 178.234 60.1037L180.285 57.5321H142.615Z" fill="#0291C9"/>
<g opacity="0.1">
<path opacity="0.1" d="M141.58 88.0843V61.7797C141.58 59.4956 143.438 57.6372 145.722 57.6372H140.117C137.833 57.6372 135.974 59.4954 135.974 61.7797V88.0843C135.974 88.6561 136.438 89.1198 137.01 89.1198H142.616C142.044 89.1198 141.58 88.6561 141.58 88.0843Z" fill="black"/>
</g>
<path d="M157.211 6.84906C158.676 6.40619 160.211 6.1705 161.792 6.1705C163.373 6.1705 164.908 6.40619 166.373 6.84906C167.765 5.38235 168.641 3.25987 168.641 0.902051C168.641 0.403941 168.254 0 167.777 0H155.807C155.33 0 154.943 0.403941 154.943 0.902051C154.943 3.25969 155.82 5.38217 157.211 6.84906Z" fill="#EF5050"/>
<path opacity="0.1" d="M157.09 6.84906C158.477 6.40619 159.929 6.1705 161.426 6.1705C161.548 6.1705 161.67 6.17319 161.792 6.17624C160.79 4.76675 160.181 2.92104 160.181 0.902051C160.181 0.403941 160.547 0 160.999 0H155.761C155.309 0 154.943 0.403941 154.943 0.902051C154.943 3.25969 155.773 5.38217 157.09 6.84906Z" fill="black"/>
<path d="M167.353 54.1674C165.505 54.8805 163.551 55.2527 161.554 55.2527C159.557 55.2527 157.603 54.8803 155.754 54.1674V57.6372H148.01C151.286 61.7567 156.138 64.4808 161.554 64.4808C166.969 64.4808 171.821 61.7567 175.097 57.6372H167.353V54.1674Z" fill="#FFB98A"/>
<path d="M143.866 36.3409V34.3004H142.809C140.121 34.3004 137.942 36.4796 137.942 39.1679C137.942 41.8561 140.121 44.0353 142.809 44.0353H145.49C144.435 41.603 143.866 38.971 143.866 36.3409Z" fill="#FFB98A"/>
<path d="M180.298 34.3006H179.241V36.3411C179.241 38.9711 178.672 41.6031 177.617 44.0355H180.298C182.986 44.0355 185.166 41.8563 185.166 39.168C185.166 36.4797 182.986 34.3006 180.298 34.3006Z" fill="#FFB98A"/>
<path d="M143.985 32.1906V36.6099C143.985 46.5429 151.957 55.4774 161.792 55.4774C171.627 55.4774 179.6 46.5429 179.6 36.6099V32.1906H143.985Z" fill="#FFD5B3"/>
<g opacity="0.1">
<path opacity="0.1" d="M148.213 36.3409V31.8704H143.692V36.3409C143.692 46.3888 151.689 55.4267 161.554 55.4267C162.32 55.4267 163.074 55.3722 163.814 55.267C155.016 54.0176 148.213 45.609 148.213 36.3409Z" fill="black"/>
</g>
<path d="M122.752 36.9849V40.9316C122.752 41.3978 123.17 41.7793 123.679 41.7793H127.99C128.499 41.7793 128.917 41.3978 128.917 40.9316V36.9849H122.752Z" fill="#48C1E1"/>
<path d="M135.081 36.0987C135.081 36.5861 134.68 36.9849 134.19 36.9849H118.163C117.674 36.9849 117.273 36.5861 117.273 36.0987V13.2146C117.273 12.7271 117.674 12.3283 118.163 12.3283H134.19C134.68 12.3283 135.081 12.7271 135.081 13.2146L135.081 36.0987Z" fill="#A2DFF9"/>
<path d="M135.081 16.4377H117.273V32.1906H135.081V16.4377Z" fill="#E6E9ED"/>
<g opacity="0.1">
<path opacity="0.1" d="M121.484 36.0802V12.9359C121.484 12.443 121.887 12.0396 122.38 12.0396H117.896C117.403 12.0396 117 12.443 117 12.9359V36.0802C117 36.5732 117.403 36.9765 117.896 36.9765H122.38C121.887 36.9765 121.484 36.5732 121.484 36.0802Z" fill="black"/>
</g>
<path d="M128.926 23.4013H127.194V21.8025C127.194 21.1092 126.585 20.5472 125.834 20.5472C125.083 20.5472 124.475 21.1092 124.475 21.8025V23.4013H122.742C121.991 23.4013 121.383 23.9634 121.383 24.6566C121.383 25.3499 121.991 25.9119 122.742 25.9119H124.475V27.5108C124.475 28.204 125.083 28.7661 125.834 28.7661C126.585 28.7661 127.194 28.204 127.194 27.5108V25.9119H128.926C129.677 25.9119 130.286 25.3499 130.286 24.6566C130.286 23.9634 129.677 23.4013 128.926 23.4013Z" fill="#368C0E"/>
<path d="M142.72 24.6515H180.179C180.215 24.6515 180.249 24.6554 180.285 24.6566C179.147 14.2373 171.149 6.16415 161.45 6.16415C151.751 6.16415 143.753 14.2373 142.615 24.6566C142.65 24.6554 142.684 24.6515 142.72 24.6515Z" fill="#C0272D"/>
<path opacity="0.1" d="M142.721 24.6515H148.312C149.353 15.262 156.034 7.77934 164.532 6.39492C163.602 6.24365 162.651 6.16415 161.683 6.16415C151.864 6.16415 143.767 14.2373 142.615 24.6566C142.65 24.6554 142.685 24.6515 142.721 24.6515Z" fill="black"/>
<path d="M183.024 29.577C183.024 31.0144 181.812 32.1906 180.33 32.1906H143.254C141.772 32.1906 140.56 31.0144 140.56 29.577V27.2702C140.56 25.8328 141.772 24.6566 143.254 24.6566H180.33C181.812 24.6566 183.024 25.8328 183.024 27.2702V29.577Z" fill="#EF5050"/>
<g opacity="0.1">
<path opacity="0.1" d="M145.984 29.3819V27.0085C145.984 25.5296 147.194 24.3195 148.673 24.3195H143.051C141.572 24.3195 140.362 25.5296 140.362 27.0085V29.3819C140.362 30.8608 141.572 32.0708 143.051 32.0708H148.673C147.194 32.0708 145.984 30.8608 145.984 29.3819Z" fill="black"/>
</g>
<path d="M36.1072 90.921L42.6471 92.4517L49.1541 90.921L52.5167 84.7914C52.9399 84.02 54.1126 84.3205 54.1126 85.2005V90.921L77.983 92.4517L101.854 90.921V85.2005C101.854 84.3207 103.026 84.02 103.45 84.7914L106.812 90.921L113.889 92.4517L119.859 90.921L108.856 70.0319C105.418 63.5042 99.2744 58.8263 92.0672 57.2483L85.7615 55.8677H70.2047L63.899 57.2483C56.6918 58.8261 50.5482 63.504 47.1099 70.0317L36.1072 90.921Z" fill="#FDD4BB"/>
<path d="M76.9238 77.8389C76.9238 83.2401 82.8901 86.197 84.3293 86.9739C84.581 87.1098 84.8819 87.1098 85.1336 86.9739C86.5728 86.1968 92.5389 83.0076 92.5389 77.8389C91.3179 73.5284 85.6663 74.1476 84.7314 77.1308C83.7966 74.1476 78.1448 73.5284 76.9238 77.8389Z" fill="#F4594E"/>
<path d="M56.3635 35.3465C56.3635 35.3465 51.5247 28.8276 51.3846 19.4242C51.3783 19.0051 51.7503 18.6789 52.1646 18.7414C53.199 18.8975 55.0975 19.0672 56.8382 18.598C61.8497 17.2467 66.7805 7.30446 75.4677 7.01481C84.155 6.72517 85.8397 10.7794 85.8397 10.7794C85.8397 10.7794 89.0355 8.87958 93.8076 9.52452C100.95 10.4897 107.225 21.3718 100.848 36.3209L56.3635 35.3465Z" fill="#3A3838"/>
<path d="M53.9617 38.2811C53.9617 41.6571 56.5818 43.4039 58.887 43.4039C58.887 43.4039 61.3753 41.1916 61.3762 41.2331C61.3762 41.2192 61.3751 41.2056 61.3751 41.1918L62.9059 38.0315L61.3751 35.3264C60.6368 34.9204 59.789 34.6889 58.8869 34.6889C56.5818 34.6889 54.6296 36.1976 53.9617 38.2811Z" fill="#EBBAA1"/>
<path d="M58.887 41.8732C56.5817 41.8732 54.6295 40.3645 53.9616 38.2811C53.8019 38.7792 53.7148 39.3099 53.7148 39.8611C53.7148 42.7176 56.0305 45.0332 58.887 45.0332C59.9049 45.0332 60.8533 44.738 61.6535 44.2303L62.9897 42.8608L61.3761 41.233C60.6375 41.64 59.7898 41.8732 58.887 41.8732Z" fill="#E8A990"/>
<path d="M102.005 38.2811C102.005 41.6571 99.3847 43.4039 97.0794 43.4039C97.0794 43.4039 94.5911 41.1916 94.5903 41.2331C94.5903 41.2192 94.5913 41.2056 94.5913 41.1918L93.0605 38.0315L94.5913 35.3264C95.3296 34.9204 96.1774 34.6889 97.0795 34.6889C99.3847 34.6889 101.337 36.1976 102.005 38.2811Z" fill="#EBBAA1"/>
<path d="M97.0792 41.8732C99.3845 41.8732 101.337 40.3645 102.005 38.2811C102.164 38.7792 102.251 39.3099 102.251 39.8611C102.251 42.7176 99.9357 45.0332 97.0792 45.0332C96.0613 45.0332 95.1129 44.738 94.3127 44.2303L92.9766 42.8608L94.5901 41.233C95.3288 41.64 96.1765 41.8732 97.0792 41.8732Z" fill="#E8A990"/>
<path d="M77.9829 56.1701C87.1551 56.1701 94.5907 49.0727 94.5907 38.0315V33.2632C94.5907 31.8093 93.9988 30.4104 92.9304 29.4248C89.8293 26.564 86.3772 21.6149 84.9905 19.548C84.6721 19.0735 83.9966 19.0293 83.6106 19.4508C76.6152 27.0909 67.554 29.6371 63.4993 30.4291C62.264 30.6705 61.375 31.7542 61.375 33.0128V38.0332C61.3748 49.6406 68.8111 56.1701 77.9829 56.1701Z" fill="#FDD4BB"/>
<path d="M77.983 54.6394C68.8107 54.6394 61.375 47.2038 61.375 38.0315V41.1918C61.375 50.3641 68.8106 57.7997 77.983 57.7997C87.1553 57.7997 94.5909 50.3641 94.5909 41.1918V38.0315C94.5909 47.2036 87.1553 54.6394 77.983 54.6394Z" fill="#F7C4A8"/>
<path d="M92.539 77.8389C91.4405 81.7861 86.5729 84.6663 85.1335 85.4432C84.8818 85.5791 84.5809 85.5791 84.3292 85.4432C82.89 84.6661 78.0223 81.7859 76.9237 77.8389C76.8521 78.0915 76.7933 78.3581 76.754 78.6451C76.0521 83.7764 82.6123 87.6763 84.3273 88.6024C84.5801 88.7388 84.8825 88.7388 85.1352 88.6024C86.8503 87.6763 93.4105 83.7764 92.7086 78.6451C92.6695 78.3581 92.6104 78.0915 92.539 77.8389Z" fill="#E84642"/>
<path d="M36.1071 90.921L35.0992 92.8344C34.8008 93.4008 35.2116 94.0811 35.8516 94.0811H46.9167C47.2271 94.0811 47.513 93.9118 47.6623 93.6397L49.1539 90.9208H36.1071V90.921Z" fill="#F7C4A8"/>
<path d="M54.963 94.0812H101.003C101.473 94.0812 101.854 93.7004 101.854 93.2308V90.921H54.1125V93.2308C54.1125 93.7004 54.4932 94.0812 54.963 94.0812Z" fill="#F7C4A8"/>
<path d="M106.812 90.921L108.304 93.6399C108.453 93.912 108.739 94.0812 109.049 94.0812H120.115C120.755 94.0812 121.165 93.4007 120.867 92.8345L119.859 90.9211H106.812V90.921Z" fill="#F7C4A8"/>
<path d="M97.8238 76.5119C98.0366 76.6397 98.2708 76.7007 98.5023 76.7005C98.9501 76.7005 99.3869 76.4725 99.6343 76.0607L101.709 72.6089C101.953 72.2014 101.96 71.6935 101.726 71.2797C101.492 70.8659 101.053 70.61 100.578 70.61H99.3059L100.374 68.8265C100.749 68.2015 100.546 67.3912 99.9206 67.0167C99.296 66.6422 98.4853 66.8451 98.1108 67.4703L95.8456 71.251C95.6014 71.6585 95.5951 72.166 95.8295 72.5795C96.0638 72.993 96.5021 73.2484 96.9773 73.2484H98.2456L97.3724 74.7012C96.9972 75.326 97.1995 76.1366 97.8238 76.5119Z" fill="#F4594E"/>
<path d="M70.5293 76.7005C70.9771 76.7005 71.4139 76.4725 71.6613 76.0607L73.7356 72.6089C73.9804 72.2014 73.9872 71.6935 73.753 71.2797C73.5189 70.8659 73.0803 70.61 72.6048 70.61H71.3329L72.4015 68.8265C72.776 68.2015 72.573 67.3912 71.9479 67.0167C71.3232 66.6422 70.5126 66.8451 70.1381 67.4703L67.873 71.251C67.6287 71.6585 67.6224 72.166 67.8568 72.5795C68.0912 72.993 68.5295 73.2484 69.0047 73.2484H70.273L69.3998 74.7012C69.0244 75.3258 69.2266 76.1364 69.851 76.5118C70.0638 76.6397 70.298 76.7005 70.5293 76.7005Z" fill="#F4594E"/>
<path d="M85.872 60.995C85.2473 60.6206 84.4367 60.8235 84.0622 61.4487L81.797 65.2295C81.5528 65.637 81.5465 66.1445 81.7809 66.5578C82.0152 66.9713 82.4535 67.2267 82.9287 67.2267H84.197L83.3238 68.6795C82.9485 69.3041 83.1507 70.1147 83.7751 70.4901C83.9878 70.6178 84.222 70.6787 84.4535 70.6787C84.9013 70.6787 85.3381 70.4506 85.5856 70.0388L87.6599 66.587C87.9046 66.1795 87.9114 65.6717 87.6772 65.2579C87.4432 64.8441 87.0046 64.5881 86.529 64.5881H85.2572L86.3258 62.8046C86.7001 62.1796 86.497 61.3695 85.872 60.995Z" fill="#F4594E"/>
<path d="M71.3953 131.712L61.7879 128.109C59.9618 127.424 58.7516 125.678 58.7516 123.727V119.952H44.7155V123.728C44.7155 125.678 43.5057 127.424 41.6796 128.109L32.0722 131.712C28.4196 133.081 26 136.573 26 140.473V157.383C26 159.967 28.0948 162.061 30.6788 162.061H77.4671V140.473C77.4671 136.573 75.0475 133.081 71.3953 131.712Z" fill="#E6AF78"/>
<path d="M51.7336 126.97C54.3605 126.97 56.866 126.465 59.187 125.582C58.933 125.002 58.7517 124.388 58.7517 123.727V119.952H44.7156V123.728C44.7156 124.388 44.5346 125.002 44.2803 125.582C46.6013 126.465 49.1067 126.97 51.7336 126.97Z" fill="#D29B6E"/>
<path d="M30.6788 162.062H77.4671V140.474C77.4671 136.573 75.0475 133.082 71.395 131.712L62.1546 128.247L55.0421 135.359C53.215 137.186 50.2525 137.186 48.4251 135.359L41.3125 128.247L32.0718 131.712C28.4196 133.081 26 136.573 26 140.473V157.383C26 159.967 28.0948 162.062 30.6788 162.062Z" fill="#DBD9DC"/>
<path d="M51.824 122.292H51.6433C42.6489 122.292 35.3577 115 35.3577 106.006V98.8069C35.3577 89.8125 42.6489 82.5212 51.6433 82.5212H51.824C60.8183 82.5212 68.1096 89.8125 68.1096 98.8069V106.006C68.1096 115 60.8183 122.292 51.824 122.292Z" fill="#F0C087"/>
<path d="M44.7155 105.916V98.8972C44.7155 91.48 49.6499 85.2224 56.4127 83.2083C54.9293 82.7666 53.3607 82.5212 51.7339 82.5212C42.6899 82.5212 35.3579 89.8528 35.3579 98.8972V105.916C35.3579 114.96 42.6899 122.292 51.7339 122.292C53.3611 122.292 54.9293 122.046 56.4127 121.604C49.6496 119.59 44.7155 113.332 44.7155 105.916Z" fill="#E6AF78"/>
<path d="M33.3022 141.291L27.477 135.466C26.5442 136.933 26 138.653 26 140.473V157.383C26 159.967 28.0948 162.061 30.6788 162.061H35.3576V146.253C35.3576 144.392 34.6183 142.607 33.3022 141.291Z" fill="#EDEBED"/>
<path d="M49.3943 136.082V162.062H54.0731V136.082C52.6266 136.922 50.8405 136.922 49.3943 136.082Z" fill="#EDEBED"/>
<path d="M51.7338 91.8785C56.9011 91.8785 61.0901 87.6895 61.0901 82.5222C61.0901 77.3548 56.9011 73.1658 51.7338 73.1658C46.5664 73.1658 42.3774 77.3548 42.3774 82.5222C42.3774 87.6895 46.5664 91.8785 51.7338 91.8785Z" fill="#6E4B53"/>
<path d="M35.3577 98.8972V104.147C37.949 102.92 41.1226 100.984 43.5513 98.1044C44.2607 97.263 45.4744 97.0893 46.4341 97.6284C49.518 99.361 56.75 102.661 68.1096 103.408V98.8972C68.1096 89.8528 60.778 82.5212 51.7336 82.5212C42.6896 82.5212 35.3577 89.8528 35.3577 98.8972Z" fill="#5C414B"/>
<path d="M42.7934 85.1868C38.3196 88.11 35.3577 93.154 35.3577 98.8969V104.147C37.9487 102.92 41.123 100.984 43.5513 98.1041C43.9235 97.6627 44.435 97.4167 44.975 97.3494C43.2422 94.0563 41.8885 89.7612 42.7934 85.1868Z" fill="#503441"/>
<path d="M184.861 125.882L173.1 120.437C171.537 119.714 170.531 118.1 170.531 116.318V107.98H153.225V116.318C153.225 118.099 152.218 119.713 150.656 120.437L138.894 125.882C135.769 127.328 133.755 130.557 133.755 134.118V162.062H185.673C188.063 162.062 190 160.044 190 157.555V134.119C190 130.557 187.986 127.328 184.861 125.882Z" fill="#FAD7A5"/>
<path d="M184.861 125.882L173.18 120.474L164.937 128.717C163.247 130.406 160.508 130.406 158.819 128.717L150.576 120.473L138.894 125.882C135.769 127.328 133.755 130.556 133.755 134.118V162.062L185.674 162.061C188.063 162.061 190 160.044 190 157.555V134.118C190 130.556 187.986 127.328 184.861 125.882Z" fill="#DBD9DC"/>
<path d="M153.225 107.98V116.318C153.225 117.144 152.989 117.922 152.602 118.604C155.361 120.106 158.522 120.96 161.878 120.96C165.234 120.96 168.395 120.106 171.154 118.604C170.766 117.923 170.53 117.144 170.53 116.318V107.98H153.225Z" fill="#F0C891"/>
<path d="M161.878 116.633C153.515 116.633 146.735 109.853 146.735 101.49V88.5107H177.02V101.49C177.02 109.853 170.241 116.633 161.878 116.633Z" fill="#FFE1B4"/>
<path d="M155.388 101.49V88.5107H146.735V101.49C146.735 109.853 153.515 116.633 161.878 116.633C163.382 116.633 164.833 116.406 166.204 115.998C159.951 114.135 155.388 108.349 155.388 101.49Z" fill="#FAD7A5"/>
<path d="M164.041 77.6947H159.715C151.352 77.6947 144.572 84.4745 144.572 92.8375V96.2982C144.572 97.9013 146.273 98.9897 147.691 98.2418C149.885 97.0842 152.459 94.9247 154.189 92.595C154.888 91.6543 156.231 91.5146 157.17 92.2155C164.035 97.3379 173.596 96.1604 177.461 95.3968C178.468 95.1979 179.184 94.3048 179.184 93.2782V92.8372C179.184 84.4741 172.404 77.6947 164.041 77.6947Z" fill="#D59F63"/>
<path d="M147.691 98.2418C149.886 97.0842 152.46 94.9247 154.189 92.595C154.454 92.2385 154.823 92.0351 155.216 91.9108C152.157 87.6536 151.949 82.9078 152.329 79.6243C147.703 82.2156 144.572 87.158 144.572 92.8375V96.2982C144.572 97.901 146.272 98.9894 147.691 98.2418Z" fill="#CD915A"/>
<path d="M179.184 143.117C179.184 141.396 179.867 139.745 181.085 138.528L189.221 130.392C189.723 131.541 190 132.806 190 134.118V157.555C190 160.044 188.063 162.061 185.674 162.061H179.184V143.117Z" fill="#EDEBED"/>
<path d="M159.715 129.385V162.062H164.041V129.385C162.704 130.162 161.052 130.162 159.715 129.385Z" fill="#EDEBED"/>
<path d="M135.438 117.007L120.792 110.226C118.846 109.326 117.592 107.316 117.592 105.098V94.7145L96.0415 94.7148V105.098C96.0415 107.316 94.7878 109.326 92.8419 110.226L78.1956 117.007C74.3041 118.808 71.7964 122.828 71.7964 127.264V156.449C71.7964 159.549 74.2087 162.061 77.184 162.061H136.449C139.425 162.061 141.837 159.549 141.837 156.449V127.264C141.837 122.829 139.329 118.809 135.438 117.007Z" fill="#B48764"/>
<path d="M77.1841 162.062L136.449 162.061C139.425 162.061 141.837 159.549 141.837 156.449V127.264C141.837 122.828 139.329 118.809 135.438 117.007L120.891 110.273L110.627 120.537C108.523 122.642 105.111 122.642 103.007 120.537L92.742 110.272L78.1953 117.007C74.3039 118.808 71.7961 122.828 71.7961 127.264V156.449C71.7961 159.549 74.2084 162.062 77.1841 162.062Z" fill="#5D5360"/>
<path d="M96.0412 94.7145V105.098C96.0412 106.126 95.7478 107.096 95.2651 107.944C98.7011 109.814 102.637 110.878 106.817 110.878C110.996 110.878 114.932 109.815 118.368 107.945C117.885 107.096 117.592 106.126 117.592 105.098V94.7145H96.0412Z" fill="#966D50"/>
<path d="M106.817 105.49C96.4022 105.49 87.9597 97.0474 87.9597 86.6331V70.4698H125.674V86.6331C125.674 97.0474 117.231 105.49 106.817 105.49Z" fill="#C39772"/>
<path d="M98.7349 86.6327V70.4695H87.9592V86.6327C87.9592 97.0474 96.402 105.49 106.816 105.49C108.69 105.49 110.496 105.207 112.204 104.699C104.417 102.379 98.7349 95.1739 98.7349 86.6327Z" fill="#B48764"/>
<path d="M109.511 57H104.123C93.7083 57 85.2659 65.4428 85.2659 75.8571V80.1666C85.2659 82.1628 87.3841 83.5183 89.1497 82.5872C91.8826 81.1458 95.0882 78.4564 97.2423 75.5554C98.1123 74.3837 99.785 74.2101 100.955 75.0829C109.503 81.4616 121.409 79.9955 126.223 79.0449C127.477 78.7973 128.368 77.6851 128.368 76.4068V75.8574C128.368 65.4428 119.925 57 109.511 57Z" fill="#5C414B"/>
<path d="M89.1495 82.5872C91.8824 81.1458 95.0878 78.4564 97.2419 75.5554C97.5715 75.1114 98.0311 74.858 98.5205 74.7033C94.712 69.4018 94.4523 63.4921 94.9254 59.403C89.1645 62.6301 85.2654 68.7846 85.2654 75.8574V80.1669C85.2654 82.1631 87.3836 83.5187 89.1495 82.5872Z" fill="#503441"/>
<path d="M85.2656 138.47C85.2656 136.327 84.4142 134.271 82.8985 132.755L72.766 122.623C72.1414 124.054 71.7961 125.63 71.7961 127.264V156.449C71.7961 159.549 74.2084 162.061 77.1838 162.061H85.2656V138.47Z" fill="#6F6571"/>
<path d="M128.367 138.47C128.367 136.327 129.219 134.271 130.735 132.755L140.867 122.623C141.492 124.054 141.837 125.63 141.837 127.264V156.449C141.837 159.549 139.425 162.061 136.449 162.061H128.367V138.47Z" fill="#6F6571"/>
<path d="M104.123 121.37V162.062L109.51 162.061V121.37C107.845 122.337 105.788 122.337 104.123 121.37Z" fill="#6F6571"/>
<path d="M184.304 183.555L192.842 175.536L189.452 174.907C187.816 174.578 186.639 172.68 186.639 171.011V163.574H178.711H170.784V171.011C170.784 172.68 169.607 174.578 167.971 174.907L164.581 175.536L173.119 183.555C176.262 186.508 181.16 186.508 184.304 183.555Z" fill="#FFE7CF"/>
<path d="M179.363 163.574V174.138C179.363 175.807 180.54 177.705 182.176 178.034L188.863 179.274L192.842 175.536L189.452 174.907C187.816 174.578 186.639 172.68 186.639 171.011V163.574H179.363Z" fill="#F4D3A6"/>
<path d="M202.198 176.236L190.146 173.997C189.704 173.915 189.247 174.021 188.887 174.291L178.711 181.896L168.536 174.291C168.176 174.021 167.719 173.915 167.277 173.997L155.225 176.236C149.163 178.021 145 183.585 145 189.905V204.351C145 206.004 146.34 207.345 147.994 207.345H209.429C211.082 207.345 212.422 206.004 212.422 204.351V189.905C212.423 183.586 208.26 178.021 202.198 176.236Z" fill="#2D5872"/>
<path d="M202.198 176.236L190.146 173.997C189.704 173.915 189.247 174.021 188.887 174.291L183.543 178.285L195.012 180.415C201.075 182.2 205.237 183.875 205.237 190.195V207.345H209.429C211.082 207.345 212.423 206.005 212.423 204.351V189.905C212.423 183.586 208.26 178.021 202.198 176.236Z" fill="#1D4559"/>
<path d="M163.819 174.639L170.415 183.869C170.912 184.564 171.825 184.821 172.611 184.487L178.711 181.896L168.536 174.291C168.176 174.021 167.719 173.915 167.277 173.997L163.819 174.639Z" fill="#1D4559"/>
<path d="M193.604 174.639L187.008 183.869C186.511 184.564 185.598 184.821 184.811 184.487L178.711 181.896L188.887 174.291C189.247 174.021 189.704 173.915 190.146 173.997L193.604 174.639Z" fill="#1D4559"/>
<path d="M178.711 119C165.924 119 155.557 127.847 155.557 132.845C155.557 137.844 165.924 141.417 178.711 141.417C191.499 141.417 201.865 137.844 201.865 132.845C201.865 127.847 191.499 119 178.711 119Z" fill="#2D5872"/>
<path d="M178.711 119C177.469 119 176.249 119.085 175.06 119.24C186.112 120.684 194.562 128.332 194.562 132.845C194.562 137.359 186.112 140.709 175.06 141.317C176.249 141.382 177.469 141.416 178.711 141.416C191.499 141.416 201.865 137.844 201.865 132.845C201.865 127.846 191.499 119 178.711 119Z" fill="#1D4559"/>
<path d="M195.267 146.801H194.21V145.56V142.594C194.21 138.406 192.491 134.348 189.317 131.615C186.829 129.472 170.593 129.472 168.105 131.615C164.931 134.348 163.212 138.406 163.212 142.594V145.56V146.801H162.155C160.606 146.801 159.35 148.057 159.35 149.606V152.715C159.35 154.264 160.606 155.52 162.155 155.52H163.216C163.304 159.591 165.014 163.51 168.105 166.171C170.593 168.314 174.091 170.184 178.711 170.235C183.331 170.183 186.829 168.313 189.317 166.171C192.408 163.51 194.119 159.591 194.206 155.52H195.267C196.816 155.52 198.072 154.264 198.072 152.715V149.606C198.072 148.057 196.816 146.801 195.267 146.801Z" fill="#FFE7CF"/>
<path d="M195.267 146.801H194.211V145.56V142.594C194.211 138.406 192.491 134.348 189.318 131.615C187.751 130.266 180.736 129.767 175.133 130.116C178.43 130.322 181.239 130.821 182.16 131.615C185.334 134.348 187.054 138.406 187.054 142.594V145.56L187.049 155.52C186.962 159.591 185.251 163.51 182.161 166.171C180.361 167.721 178.032 169.127 175.133 169.807C176.242 170.067 177.433 170.221 178.711 170.235C183.332 170.183 186.829 168.313 189.318 166.171C192.408 163.51 194.119 159.591 194.206 155.52H195.267C196.817 155.52 198.072 154.264 198.072 152.715V149.606C198.073 148.057 196.817 146.801 195.267 146.801Z" fill="#F4D3A6"/>
<path d="M160.862 137.459V147.117C160.862 147.117 163.233 147.063 164.756 148.571C165.073 148.885 165.613 148.656 165.613 148.209V141.057H191.81V148.209C191.81 148.656 192.349 148.885 192.666 148.571C194.19 147.063 196.561 147.117 196.561 147.117V137.459C196.561 131.477 160.862 131.477 160.862 137.459Z" fill="#3A3838"/>
<path d="M178.711 145.327C168.853 145.327 160.862 142.267 160.862 138.493H196.561C196.561 142.267 188.569 145.327 178.711 145.327Z" fill="#2D5872"/>
<path d="M160.862 133.749V138.493H196.561V133.798C196.561 132.525 195.698 131.415 194.464 131.099C191.161 130.255 184.443 128.778 177.876 128.775C171.824 128.773 165.899 130.222 162.894 131.067C161.692 131.405 160.862 132.5 160.862 133.749Z" fill="#1D4559"/>
<path d="M178.712 181.896L173.915 183.934L176.719 187.194H180.705L183.509 183.934L178.712 181.896Z" fill="#282C3A"/>
<path d="M180.704 187.194H178.711H176.719L173.914 207.345H183.508L180.704 187.194Z" fill="#282C3A"/>
<path d="M196.915 200.629H189.892C189.425 200.629 189.047 200.251 189.047 199.784V196.043C189.047 195.576 189.425 195.198 189.892 195.198H196.915C197.381 195.198 197.76 195.576 197.76 196.043V199.784C197.76 200.251 197.381 200.629 196.915 200.629Z" fill="#1D4559"/>
<path d="M167.531 200.629H160.508C160.041 200.629 159.663 200.251 159.663 199.784V196.043C159.663 195.576 160.041 195.198 160.508 195.198H167.531C167.997 195.198 168.376 195.576 168.376 196.043V199.784C168.376 200.251 167.997 200.629 167.531 200.629Z" fill="#1D4559"/>
<path d="M147.71 185.066C149.027 186.128 150.955 185.921 152.017 184.604L153.469 182.804C154.531 181.487 154.324 179.559 153.007 178.497L151.966 177.658C149.476 179.139 147.511 181.34 146.312 183.938L147.71 185.066Z" fill="#FFBF14"/>
<path d="M211.111 183.938C209.912 181.34 207.947 179.139 205.456 177.658L204.416 178.497C203.099 179.559 202.892 181.487 203.954 182.804L205.405 184.604C206.467 185.921 208.395 186.128 209.712 185.066L211.111 183.938Z" fill="#EAA200"/>
<path d="M202.761 193.864C202.024 193.864 201.427 194.461 201.427 195.198V207.345H204.095V195.198C204.094 194.461 203.497 193.864 202.761 193.864Z" fill="#183D4C"/>
<path d="M154.662 193.864C153.925 193.864 153.328 194.461 153.328 195.198V207.345H155.995V195.198C155.995 194.461 155.398 193.864 154.662 193.864Z" fill="#183D4C"/>
<path d="M135.488 194.541V207.567C135.488 208.549 134.693 209.345 133.711 209.345H74.7776C73.7958 209.345 73 208.549 73 207.567V194.541C73 185.842 78.69 178.168 87.0125 175.64L91.6075 174.245H116.881L121.476 175.64C129.799 178.168 135.488 185.842 135.488 194.541Z" fill="#B78E8E"/>
<path d="M104.244 183.591C103.508 183.591 102.911 184.188 102.911 184.924V209.345H105.577V184.924C105.577 184.188 104.98 183.591 104.244 183.591Z" fill="#AA8080"/>
<path d="M124.519 176.849C124.562 177.554 124.586 178.265 124.586 178.981C124.586 191.982 117.487 203.324 106.954 209.345H133.711C134.692 209.345 135.488 208.549 135.488 207.567V194.541C135.488 186.95 131.154 180.14 124.519 176.849Z" fill="#AA8080"/>
<path d="M104.244 184.924L109.026 188.74C111.165 190.447 114.351 189.229 114.807 186.53L116.88 174.245L111.247 172.535L104.244 184.924Z" fill="#F9EFDA"/>
<path d="M104.244 184.924L99.4625 188.74C97.3231 190.447 94.137 189.229 93.6814 186.53L91.6079 174.245L97.2413 172.535L104.244 184.924Z" fill="#F9EFDA"/>
<path d="M111.247 172.535V165.352H97.2412V172.535L104.244 184.924L111.247 172.535Z" fill="#FFDDCE"/>
<path d="M97.2411 169.752C99.423 170.565 101.782 171.011 104.244 171.011C106.706 171.011 109.065 170.565 111.247 169.752V165.352H97.241V169.752H97.2411Z" fill="#FFCBBE"/>
<path d="M104.244 121C95.3187 121 88.0833 128.235 88.0833 137.161V150.9C88.0833 159.825 95.3186 167.061 104.244 167.061C113.169 167.061 120.405 159.825 120.405 150.9V137.161C120.405 128.235 113.169 121 104.244 121V121Z" fill="#FFDDCE"/>
<path d="M113.792 124.122C115.71 126.779 116.841 130.042 116.841 133.569V154.491C116.841 158.018 115.71 161.281 113.792 163.938C117.801 160.997 120.405 156.253 120.405 150.9V137.161C120.405 131.807 117.801 127.063 113.792 124.122Z" fill="#FFCBBE"/>
<path d="M123.623 200.007V209.345H120.957V200.007C120.957 199.271 121.554 198.674 122.29 198.674C123.026 198.674 123.623 199.271 123.623 200.007Z" fill="#9D6B6B"/>
<path d="M87.5315 200.007V209.345H84.8652V200.007C84.8652 199.271 85.4607 198.674 86.1983 198.674C86.9343 198.674 87.5315 199.271 87.5315 200.007Z" fill="#9D6B6B"/>
<path d="M99.2596 159.6C98.8225 159.6 98.4945 159.21 98.5566 158.777C98.9557 155.993 101.35 153.854 104.244 153.854C107.138 153.854 109.533 155.993 109.932 158.777C109.994 159.21 109.666 159.6 109.229 159.6H99.2596Z" fill="#E7ECF6"/>
<path d="M115.377 141.111L116.589 149.29C116.718 150.162 117.466 150.807 118.347 150.807H120.405V144.615H123.816V136.981C123.816 136.573 123.804 136.168 123.779 135.767C123.662 133.87 122.093 132.389 120.193 132.389H118.898C116.953 132.389 115.377 133.966 115.377 135.91V141.111H115.377Z" fill="#E7ECF6"/>
<path d="M123.779 135.766C123.662 133.87 122.093 132.389 120.193 132.389H118.898C118.53 132.389 118.176 132.446 117.843 132.551C119.236 132.982 120.273 134.238 120.367 135.766C120.392 136.168 120.405 136.573 120.405 136.981V144.615H123.816V136.981C123.816 136.573 123.804 136.168 123.779 135.766Z" fill="#D8E2F1"/>
<path d="M123.278 150.807H120.405V142.889C120.405 141.907 121.201 141.111 122.182 141.111H123.278C125.261 141.111 126.869 142.719 126.869 144.702V147.216C126.869 149.2 125.261 150.807 123.278 150.807Z" fill="#FFDDCE"/>
<path d="M93.2398 141.111L92.028 149.29C91.8989 150.162 91.1508 150.807 90.2696 150.807H88.2119V144.615H84.8003V136.981C84.8003 136.573 84.8129 136.168 84.8376 135.767C84.9544 133.87 86.5234 132.389 88.4238 132.389H89.719C91.6634 132.389 93.2396 133.966 93.2396 135.91V141.111H93.2398Z" fill="#E7ECF6"/>
<path d="M116.583 201.302H109.528C108.813 201.302 108.234 200.722 108.234 200.008C108.234 199.293 108.813 198.713 109.528 198.713H116.583C117.297 198.713 117.877 199.293 117.877 200.008C117.877 200.722 117.297 201.302 116.583 201.302Z" fill="#F9EFDA"/>
<path d="M85.2106 150.807H88.0835V142.889C88.0835 141.907 87.2877 141.111 86.3059 141.111H85.2104C83.2269 141.111 81.6191 142.719 81.6191 144.702V147.216C81.6193 149.2 83.2273 150.807 85.2106 150.807Z" fill="#FFDDCE"/>
<path d="M27.067 177.583L17.6803 178.188C17.6803 178.188 1.02587 157.361 13.6768 135.286C23.0023 119.018 39.8558 122.565 48.077 125.554C48.077 125.554 57.2461 124.692 58.8621 138.819C60.4781 152.946 55.8338 170.416 45.6391 179.6L27.067 177.583Z" fill="#3A3838"/>
<path d="M48.5272 189.326L42.9478 199.953L32.1745 201.237L22.8231 197.329L21.6123 188.044L23.9705 181.256L24.6406 179.254C25.1476 178.698 25.4915 178.014 25.6339 177.276C25.7532 176.819 25.8396 176.355 25.8926 175.887C25.941 175.508 25.9809 175.12 26.0003 174.716C26.1085 172.473 26.022 170.226 25.7417 167.998C25.7417 167.998 46.6419 158.373 45.695 167.998C44.748 177.623 46.6151 178.673 46.6151 178.673L48.5272 189.326Z" fill="#F4BB87"/>
<path d="M22.7468 188.99C22.7468 188.99 33.3552 194.244 49.4204 188.99V211.345H26.4851L22.7468 188.99Z" fill="#69B0EE"/>
<path d="M42.8799 137.646C42.8799 137.646 42.2745 140.202 38.2367 140.944C36.3597 141.334 34.5188 141.881 32.7337 142.58C28.0955 144.271 24.3282 147.75 22.2739 152.24C20.6995 155.884 20.1013 159.876 20.5384 163.822C20.5384 163.822 27.471 175.53 35.8148 175.462C44.1587 175.395 51.2206 164.225 52.4359 160.457C52.4359 160.457 54.6562 160.625 55.767 157.294C56.3121 155.794 56.5802 154.207 56.5588 152.611C56.5478 152.201 56.3986 151.807 56.1354 151.492C55.3029 150.622 54.0349 150.326 52.9034 150.738C52.9034 150.738 45.3695 147.739 42.8799 137.646Z" fill="#FED19A"/>
<path d="M46.6245 178.669L39.0833 211.345H68.1475C70.0704 211.345 71.6294 209.786 71.6294 207.863V198.293C71.6293 189.815 65.011 182.812 56.5469 182.333L52.6911 182.118C50.5149 181.995 48.4912 180.962 47.1148 179.272L46.6245 178.669Z" fill="#EEEFEE"/>
<path d="M25.0296 178.778L32.5516 211.345H3.48199C1.55905 211.345 0 209.786 0 207.863V198.293C0.000180236 189.815 6.61846 182.812 15.0825 182.333L18.9383 182.118C21.1145 181.995 23.1382 180.962 24.5145 179.272L25.0296 178.778Z" fill="#EEEFEE"/>
<path d="M56.3918 185.62C52.047 185.62 48.6349 191.386 48.6349 198.75C48.5668 201.932 49.3058 205.079 50.7832 207.898C51.1727 208.594 51.6427 209.242 52.1838 209.828C52.7831 209.811 53.3114 209.43 53.5165 208.867C52.9597 208.285 52.4882 207.627 52.1158 206.912C50.8369 204.385 50.1967 201.582 50.2509 198.75C50.2509 192.508 53.0606 187.235 56.3918 187.235C59.7229 187.235 62.5326 192.508 62.5326 198.75C62.5813 201.585 61.9382 204.39 60.659 206.921C60.309 207.592 59.8689 208.211 59.3513 208.762C59.5072 209.343 60.0113 209.763 60.6106 209.812C61.1763 209.189 61.6669 208.502 62.0725 207.765C63.4989 204.977 64.2122 201.88 64.1484 198.75C64.1486 191.386 60.7387 185.62 56.3918 185.62Z" fill="#BBBBCD"/>
<path d="M62.2006 208.367C62.1983 209.174 61.5451 209.827 60.7387 209.829C60.6949 209.832 60.6512 209.826 60.6095 209.813C60.0102 209.764 59.5061 209.344 59.3502 208.763C59.3041 208.637 59.2821 208.503 59.2855 208.368C59.2817 207.596 59.8871 206.959 60.658 206.922C60.6845 206.916 60.7117 206.913 60.7387 206.915C61.5426 206.911 62.197 207.56 62.2006 208.364V208.368V208.367Z" fill="#575B6D"/>
<path d="M53.6165 208.367C53.6179 208.539 53.5849 208.709 53.5195 208.868C53.3144 209.431 52.7861 209.812 52.1868 209.829H52.1546C51.35 209.825 50.7 209.172 50.7013 208.367C50.699 208.207 50.7264 208.048 50.7821 207.899C50.9747 207.319 51.5118 206.925 52.1223 206.914H52.1546C52.9591 206.913 53.613 207.563 53.6165 208.367Z" fill="#575B6D"/>
<path d="M56.3917 187.239C56.031 187.238 55.7145 186.998 55.616 186.651C55.0201 184.866 53.8924 183.305 52.384 182.179C52.0186 181.924 51.9296 181.421 52.1852 181.055C52.4407 180.69 52.9439 180.601 53.3093 180.856C55.1259 182.191 56.4759 184.065 57.1672 186.211C57.288 186.641 57.0371 187.088 56.6071 187.208C56.5362 187.228 56.4631 187.238 56.3895 187.238H56.3917V187.239Z" fill="#BBBBCD"/>
<path d="M26.0111 174.716C25.9864 175.12 25.9464 175.508 25.9033 175.887C25.8503 176.355 25.764 176.819 25.6447 177.275C24.2443 178.398 15.4941 186.02 15.9714 201.209C15.9865 201.657 15.636 202.033 15.1881 202.049H15.1634C14.7271 202.048 14.3698 201.701 14.3554 201.265C13.9441 191.093 18.244 181.298 26.0111 174.716Z" fill="#BBBBCD"/>
<path d="M15.0038 208.467C17.2344 208.467 19.0427 206.659 19.0427 204.428C19.0427 202.198 17.2344 200.39 15.0038 200.39C12.7731 200.39 10.9648 202.198 10.9648 204.428C10.9648 206.659 12.7731 208.467 15.0038 208.467Z" fill="#575B6D"/>
<path d="M15.005 206.627C16.2194 206.627 17.2039 205.643 17.2039 204.428C17.2039 203.214 16.2194 202.23 15.005 202.23C13.7906 202.23 12.8062 203.214 12.8062 204.428C12.8062 205.643 13.7906 206.627 15.005 206.627Z" fill="#BBBBCD"/>
</svg>
