<?xml version="1.0" encoding="utf-8"?>
<!-- Generator: Adobe Illustrator 25.2.1, SVG Export Plug-In . SVG Version: 6.00 Build 0)  -->
<svg version="1.1" id="Capa_1" xmlns="http://www.w3.org/2000/svg" xmlns:xlink="http://www.w3.org/1999/xlink" x="0px" y="0px"
	 viewBox="0 0 908 128" style="enable-background:new 0 0 908 128;" xml:space="preserve">
<style type="text/css">
	.st0{fill:#203968;}
	.st1{opacity:0.8;fill:#FDFDFD;enable-background:new    ;}
	.st2{fill:#99A8A2;}
	.st3{fill:#FFFFFF;}
	.st4{fill:#FDFDFD;}
	.st5{fill:#E0F0F3;}
	.st6{fill:none;stroke:#E3EBED;stroke-width:1.5129;stroke-linecap:round;stroke-miterlimit:10;}
</style>
<path class="st0" d="M727.8,46.9l0.2,28.7l34.4-3c1.8-0.2,3.2-1.7,3.2-3.5L765.4,53c0-1.8-1.4-3.3-3.2-3.4L727.8,46.9z"/>
<path class="st0" d="M721.2,29l0.3,64.6l3,0c4.5,0,8.5-3.1,9.7-7.4l5.9-21.3c0.5-1.8,0.5-3.6,0-5.4l-6.3-23
	c-1.2-4.4-5.2-7.5-9.8-7.5L721.2,29z"/>
<path class="st1" d="M88.5,3.2l19.6,7.2c6.1,2.2,14.3,3.5,22.9,3.4l557.7-3c17.9-0.1,32.4,5.2,32.4,11.8l0.4,77.4
	c0,6.6-14.4,12.1-32.3,12.2l-557.7,3c-8.6,0-16.8,1.4-22.9,3.7l-19.5,7.4c-9.4,3.5-25.5,1.2-25.5-3.8l0-6.9L63.1,14.2l0-6.9
	C63,2.3,79.1-0.2,88.5,3.2z"/>
<path class="st2" d="M697.6,15.8l0.5,91.3l11-0.1c4.7,0,8.4-3.8,8.4-8.5L717,24.1c0-4.7-3.8-8.4-8.5-8.4L697.6,15.8z"/>
<path class="st3" d="M765.4,58.4l0,5.5l142.2-0.8l-5.1-5.4L765.4,58.4z"/>
<path class="st2" d="M105.8,19.4l0.5,91.3l591.8-3.2l-0.5-91.3L105.8,19.4z"/>
<path class="st4" d="M105.2,33.5l0.2,55.2l0.1,19l-4.2,0c-1.2,0-2.2-1.9-2.2-4.4L99,88.8l-86.7,0.8l-0.2-55.2l86.7-0.8l0-12.7
	c0-2.4,1-4.4,2.2-4.4l4.2,0L105.2,33.5z"/>
<path class="st4" d="M0,7.9l0.3,110.5c0,4.4,2.7,7.9,6,7.8c3.3,0,6-3.6,6-7.9L12,7.8C12,3.5,9.3,0,6,0C2.7,0,0,3.6,0,7.9z"/>
<path class="st5" d="M97.5,33.6l0.1,22.8l0,9.7l0.1,22.8l-7.3,0l-0.1-22.8l-78.1,0.8l0-9.7l78.1-0.8l-0.1-22.8L97.5,33.6z"/>
<path class="st6" d="M717.5,39.7l0.2-17.9"/>
<path class="st6" d="M710.8,33.4l0.2-11.6"/>
<path class="st6" d="M704,33.3l0.2-11.6"/>
<path class="st6" d="M697.2,33.7l0.2-12.1"/>
<path class="st6" d="M690.4,33.1l0.2-11.6"/>
<path class="st6" d="M683.7,33l0.2-11.6"/>
<path class="st6" d="M676.9,33.5l0.2-12.1"/>
<path class="st6" d="M670.1,32.8l0.2-11.6"/>
<path class="st6" d="M663.3,32.7l0.2-11.6"/>
<path class="st6" d="M656.5,38.9l0.2-17.9"/>
<path class="st6" d="M656.3,39.7l0.2-17.9"/>
<path class="st6" d="M649.6,33.4l0.2-11.6"/>
<path class="st6" d="M642.8,33.3l0.2-11.6"/>
<path class="st6" d="M636,33.7l0.2-12.1"/>
<path class="st6" d="M629.3,33.1l0.2-11.6"/>
<path class="st6" d="M622.5,33l0.2-11.6"/>
<path class="st6" d="M615.7,33.5l0.2-12.1"/>
<path class="st6" d="M608.9,32.8l0.2-11.6"/>
<path class="st6" d="M602.1,32.7l0.2-11.6"/>
<path class="st6" d="M596.6,39.7l0.2-17.9"/>
<path class="st6" d="M589.9,33.4l0.2-11.6"/>
<path class="st6" d="M583.1,33.3l0.2-11.6"/>
<path class="st6" d="M576.3,33.7l0.2-12.1"/>
<path class="st6" d="M569.5,33.1l0.2-11.6"/>
<path class="st6" d="M562.7,33l0.2-11.6"/>
<path class="st6" d="M556,33.5l0.2-12.1"/>
<path class="st6" d="M549.2,32.8l0.2-11.6"/>
<path class="st6" d="M542.4,32.7l0.2-11.6"/>
<path class="st6" d="M536.8,39.7l0.2-17.9"/>
<path class="st6" d="M530.1,33.4l0.2-11.6"/>
<path class="st6" d="M523.3,33.3l0.2-11.6"/>
<path class="st6" d="M516.5,33.7l0.2-12.1"/>
<path class="st6" d="M509.8,33.1l0.2-11.6"/>
<path class="st6" d="M503,33l0.2-11.6"/>
<path class="st6" d="M496.2,33.5l0.2-12.1"/>
<path class="st6" d="M489.4,32.8l0.2-11.6"/>
<path class="st6" d="M482.6,32.7l0.2-11.6"/>
<path class="st6" d="M475.8,38.9l0.2-17.9"/>
<path class="st6" d="M475.6,39.7l0.2-17.9"/>
<path class="st6" d="M468.9,33.4l0.2-11.6"/>
<path class="st6" d="M462.2,33.3l0.2-11.6"/>
<path class="st6" d="M455.4,33.7l0.2-12.1"/>
<path class="st6" d="M448.6,33.1l0.2-11.6"/>
<path class="st6" d="M441.8,33l0.2-11.6"/>
<path class="st6" d="M435,33.5l0.2-12.1"/>
<path class="st6" d="M428.3,32.8l0.2-11.6"/>
<path class="st6" d="M421.5,32.7l0.2-11.6"/>
<path class="st6" d="M414.6,38.9l0.2-17.9"/>
<path class="st6" d="M414.5,39.7l0.2-17.9"/>
<path class="st6" d="M407.8,33.4l0.2-11.6"/>
<path class="st6" d="M401,33.3l0.2-11.6"/>
<path class="st6" d="M394.2,33.7l0.2-12.1"/>
<path class="st6" d="M387.4,33.1l0.2-11.6"/>
<path class="st6" d="M380.6,33l0.2-11.6"/>
<path class="st6" d="M373.9,33.5l0.2-12.1"/>
<path class="st6" d="M367.1,32.8l0.2-11.6"/>
<path class="st6" d="M360.3,32.7l0.2-11.6"/>
<path class="st6" d="M353.4,38.9l0.2-17.9"/>
<path class="st6" d="M353.3,39.7l0.2-17.9"/>
<path class="st6" d="M346.6,33.4l0.2-11.6"/>
<path class="st6" d="M339.8,33.3l0.2-11.6"/>
<path class="st6" d="M333,33.7l0.2-12.1"/>
<path class="st6" d="M326.3,33.1l0.2-11.6"/>
<path class="st6" d="M319.5,33l0.2-11.6"/>
<path class="st6" d="M312.7,33.5l0.2-12.1"/>
<path class="st6" d="M305.9,32.8l0.2-11.6"/>
<path class="st6" d="M299.1,32.7l0.2-11.6"/>
<path class="st6" d="M292.3,38.9l0.2-17.9"/>
<path class="st6" d="M292.1,39.7l0.2-17.9"/>
<path class="st6" d="M285.4,33.4l0.2-11.6"/>
<path class="st6" d="M278.6,33.3l0.2-11.6"/>
<path class="st6" d="M271.9,33.7l0.2-12.1"/>
<path class="st6" d="M265.1,33.1l0.2-11.6"/>
<path class="st6" d="M258.3,33l0.2-11.6"/>
<path class="st6" d="M251.5,33.5l0.2-12.1"/>
<path class="st6" d="M244.7,32.8l0.2-11.6"/>
<path class="st6" d="M238,32.7l0.2-11.6"/>
<path class="st6" d="M231.1,38.9l0.2-17.9"/>
<path class="st6" d="M231,39.7l0.2-17.9"/>
<path class="st6" d="M224.3,33.4l0.2-11.6"/>
<path class="st6" d="M217.5,33.3l0.2-11.6"/>
<path class="st6" d="M210.7,33.7l0.2-12.1"/>
<path class="st6" d="M203.9,33.1l0.2-11.6"/>
<path class="st6" d="M197.1,33l0.2-11.6"/>
<path class="st6" d="M190.3,33.5l0.2-12.1"/>
<path class="st6" d="M183.6,32.8l0.2-11.6"/>
<path class="st6" d="M176.8,32.7l0.2-11.6"/>
<path class="st6" d="M169.9,38.9l0.2-17.9"/>
<path class="st6" d="M169.8,39.7l0.2-17.9"/>
<path class="st6" d="M163.1,33.4l0.2-11.6"/>
<path class="st6" d="M156.3,33.3l0.2-11.6"/>
<path class="st6" d="M149.5,33.7l0.2-12.1"/>
<path class="st6" d="M142.7,33.1l0.2-11.6"/>
<path class="st6" d="M136,33l0.2-11.6"/>
<path class="st6" d="M129.2,33.5l0.2-12.1"/>
<path class="st6" d="M122.4,32.8l0.2-11.6"/>
<path class="st6" d="M115.6,32.7l0.2-11.6"/>
<path class="st6" d="M108.8,38.9l0.2-17.9"/>
<path d="M721.1,55c0,2-0.4,3.6-1.2,4.6c-0.8,1-1.9,1.6-3.5,1.6c-1.5,0-2.7-0.5-3.5-1.5c-0.8-1-1.2-2.5-1.2-4.5v-2.5
	c0-2,0.4-3.6,1.1-4.6c0.8-1,1.9-1.5,3.5-1.5c1.6,0,2.7,0.5,3.5,1.5c0.8,1,1.2,2.5,1.2,4.5V55z M718.8,52.4c0-1.3-0.2-2.3-0.5-2.9
	c-0.4-0.6-0.9-0.9-1.7-0.9c-0.8,0-1.3,0.3-1.7,0.9c-0.4,0.6-0.6,1.5-0.6,2.8v3.2c0,1.3,0.2,2.3,0.6,3c0.4,0.7,1,1,1.7,1
	c0.8,0,1.3-0.3,1.7-0.9c0.4-0.6,0.6-1.5,0.6-2.8V52.4z"/>
<path d="M653.6,61h-2.4V49.6l-3.5,1.2v-2l5.5-2h0.3V61z M667.8,55c0,2-0.4,3.6-1.2,4.6c-0.8,1-1.9,1.6-3.5,1.6
	c-1.5,0-2.7-0.5-3.5-1.5c-0.8-1-1.2-2.5-1.2-4.5v-2.5c0-2,0.4-3.6,1.1-4.6c0.8-1,1.9-1.5,3.5-1.5c1.6,0,2.7,0.5,3.5,1.5
	c0.8,1,1.2,2.5,1.2,4.5V55z M665.5,52.4c0-1.3-0.2-2.3-0.5-2.9c-0.4-0.6-0.9-0.9-1.7-0.9c-0.8,0-1.3,0.3-1.7,0.9
	c-0.4,0.6-0.6,1.5-0.6,2.8v3.2c0,1.3,0.2,2.3,0.6,3c0.4,0.7,1,1,1.7,1c0.8,0,1.3-0.3,1.7-0.9c0.4-0.6,0.6-1.5,0.6-2.8V52.4z"/>
<path d="M527.9,52.8h1.4c0.7,0,1.3-0.2,1.7-0.6c0.4-0.4,0.6-0.9,0.6-1.6c0-0.7-0.2-1.2-0.5-1.6c-0.4-0.4-0.9-0.6-1.6-0.6
	c-0.6,0-1.2,0.2-1.6,0.6c-0.4,0.4-0.6,0.8-0.6,1.4H525c0-0.7,0.2-1.4,0.6-2c0.4-0.6,0.9-1.1,1.6-1.4c0.7-0.3,1.5-0.5,2.3-0.5
	c1.4,0,2.5,0.4,3.3,1.1c0.8,0.7,1.2,1.7,1.2,3c0,0.6-0.2,1.2-0.6,1.8c-0.4,0.6-0.9,1-1.6,1.3c0.8,0.3,1.4,0.7,1.8,1.3
	c0.4,0.6,0.6,1.3,0.6,2.1c0,1.3-0.4,2.3-1.3,3c-0.9,0.8-2,1.1-3.4,1.1c-1.4,0-2.5-0.4-3.4-1.1c-0.9-0.7-1.3-1.7-1.3-2.9h2.4
	c0,0.6,0.2,1.1,0.6,1.5c0.4,0.4,1,0.6,1.7,0.6c0.7,0,1.3-0.2,1.7-0.6c0.4-0.4,0.6-1,0.6-1.7c0-0.7-0.2-1.3-0.7-1.7
	c-0.4-0.4-1.1-0.6-2-0.6h-1.4V52.8z M545.8,55c0,2-0.4,3.6-1.2,4.6c-0.8,1-1.9,1.6-3.5,1.6c-1.5,0-2.7-0.5-3.5-1.5
	c-0.8-1-1.2-2.5-1.2-4.5v-2.5c0-2,0.4-3.6,1.1-4.6c0.8-1,1.9-1.5,3.5-1.5c1.6,0,2.7,0.5,3.5,1.5c0.8,1,1.2,2.5,1.2,4.5V55z
	 M543.5,52.4c0-1.3-0.2-2.3-0.5-2.9c-0.4-0.6-0.9-0.9-1.7-0.9c-0.8,0-1.3,0.3-1.7,0.9c-0.4,0.6-0.6,1.5-0.6,2.8v3.2
	c0,1.3,0.2,2.3,0.6,3c0.4,0.7,1,1,1.7,1c0.8,0,1.3-0.3,1.7-0.9c0.4-0.6,0.6-1.5,0.6-2.8V52.4z"/>
<path d="M405.8,53.9l0.8-7.2h7.6v2.1h-5.7l-0.4,3.4c0.7-0.4,1.4-0.6,2.2-0.6c1.4,0,2.4,0.4,3.2,1.3c0.8,0.9,1.1,2,1.1,3.5
	c0,1.4-0.4,2.6-1.2,3.5c-0.8,0.9-2,1.3-3.4,1.3c-1.3,0-2.4-0.4-3.2-1.1c-0.9-0.7-1.3-1.7-1.4-2.9h2.3c0.1,0.7,0.3,1.2,0.7,1.6
	c0.4,0.4,0.9,0.5,1.6,0.5c0.7,0,1.3-0.3,1.7-0.8c0.4-0.5,0.6-1.2,0.6-2.1c0-0.9-0.2-1.5-0.7-2.1c-0.4-0.5-1.1-0.8-1.9-0.8
	c-0.4,0-0.8,0.1-1.1,0.2c-0.3,0.1-0.6,0.3-1,0.7L405.8,53.9z M425.8,55c0,2-0.4,3.6-1.2,4.6c-0.8,1-1.9,1.6-3.5,1.6
	c-1.5,0-2.7-0.5-3.5-1.5c-0.8-1-1.2-2.5-1.2-4.5v-2.5c0-2,0.4-3.6,1.1-4.6c0.8-1,1.9-1.5,3.5-1.5c1.6,0,2.7,0.5,3.5,1.5
	c0.8,1,1.2,2.5,1.2,4.5V55z M423.5,52.4c0-1.3-0.2-2.3-0.5-2.9c-0.4-0.6-0.9-0.9-1.7-0.9c-0.8,0-1.3,0.3-1.7,0.9
	c-0.4,0.6-0.6,1.5-0.6,2.8v3.2c0,1.3,0.2,2.3,0.6,3c0.4,0.7,1,1,1.7,1c0.8,0,1.3-0.3,1.7-0.9c0.4-0.6,0.6-1.5,0.6-2.8V52.4z"/>
<path d="M289.7,48.1L284,61h-2.5l5.7-12.3h-7.4v-1.9h9.9V48.1z M300.8,55c0,2-0.4,3.6-1.2,4.6c-0.8,1-1.9,1.6-3.5,1.6
	c-1.5,0-2.7-0.5-3.5-1.5c-0.8-1-1.2-2.5-1.2-4.5v-2.5c0-2,0.4-3.6,1.1-4.6c0.8-1,1.9-1.5,3.5-1.5c1.6,0,2.7,0.5,3.5,1.5
	c0.8,1,1.2,2.5,1.2,4.5V55z M298.5,52.4c0-1.3-0.2-2.3-0.5-2.9c-0.4-0.6-0.9-0.9-1.7-0.9c-0.8,0-1.3,0.3-1.7,0.9
	c-0.4,0.6-0.6,1.5-0.6,2.8v3.2c0,1.3,0.2,2.3,0.6,3c0.4,0.7,1,1,1.7,1c0.8,0,1.3-0.3,1.7-0.9c0.4-0.6,0.6-1.5,0.6-2.8V52.4z"/>
<path d="M162.9,55.1c-0.8,0.8-1.7,1.3-2.8,1.3c-1.2,0-2.2-0.4-3-1.3c-0.7-0.9-1.1-2-1.1-3.5c0-0.9,0.2-1.8,0.6-2.5
	c0.4-0.8,0.9-1.4,1.6-1.8c0.7-0.4,1.5-0.6,2.4-0.6c1.4,0,2.6,0.5,3.4,1.6c0.8,1.1,1.3,2.5,1.3,4.3v0.7c0,2.6-0.6,4.5-1.7,5.9
	c-1.2,1.3-2.9,2-5.2,2.1h-0.3v-2h0.3c1.4,0,2.5-0.4,3.2-1C162.4,57.4,162.8,56.4,162.9,55.1z M160.6,54.5c0.5,0,0.9-0.1,1.3-0.4
	c0.4-0.3,0.7-0.7,1-1.1V52c0-1-0.2-1.9-0.6-2.5c-0.4-0.6-1-1-1.7-1c-0.7,0-1.2,0.3-1.6,0.8c-0.4,0.6-0.6,1.3-0.6,2.1
	c0,0.9,0.2,1.6,0.6,2.2C159.4,54.2,160,54.5,160.6,54.5z M176.8,55c0,2-0.4,3.6-1.2,4.6c-0.8,1-1.9,1.6-3.5,1.6
	c-1.5,0-2.7-0.5-3.5-1.5c-0.8-1-1.2-2.5-1.2-4.5v-2.5c0-2,0.4-3.6,1.1-4.6c0.8-1,1.9-1.5,3.5-1.5c1.6,0,2.7,0.5,3.5,1.5
	c0.8,1,1.2,2.5,1.2,4.5V55z M174.5,52.4c0-1.3-0.2-2.3-0.5-2.9c-0.4-0.6-0.9-0.9-1.7-0.9c-0.8,0-1.3,0.3-1.7,0.9
	c-0.4,0.6-0.6,1.5-0.6,2.8v3.2c0,1.3,0.2,2.3,0.6,3c0.4,0.7,1,1,1.7,1c0.8,0,1.3-0.3,1.7-0.9c0.4-0.6,0.6-1.5,0.6-2.8V52.4z"/>
<path d="M595.8,61h-9.6v-1.6l4.7-5.2c0.7-0.8,1.2-1.4,1.5-1.9c0.3-0.5,0.4-1,0.4-1.5c0-0.7-0.2-1.2-0.6-1.6
	c-0.4-0.4-0.9-0.6-1.5-0.6c-0.8,0-1.4,0.2-1.8,0.7c-0.4,0.5-0.6,1.1-0.6,1.9h-2.4c0-0.9,0.2-1.6,0.6-2.3c0.4-0.7,1-1.2,1.7-1.6
	c0.7-0.4,1.6-0.6,2.5-0.6c1.4,0,2.5,0.3,3.3,1c0.8,0.7,1.2,1.6,1.2,2.9c0,0.7-0.2,1.5-0.6,2.2c-0.4,0.8-1.1,1.7-2,2.6l-3.5,3.7h6.6
	V61z M606.8,55c0,2-0.4,3.6-1.2,4.6c-0.8,1-1.9,1.6-3.5,1.6c-1.5,0-2.7-0.5-3.5-1.5c-0.8-1-1.2-2.5-1.2-4.5v-2.5
	c0-2,0.4-3.6,1.1-4.6c0.8-1,1.9-1.5,3.5-1.5c1.6,0,2.7,0.5,3.5,1.5c0.8,1,1.2,2.5,1.2,4.5V55z M604.5,52.4c0-1.3-0.2-2.3-0.5-2.9
	c-0.4-0.6-0.9-0.9-1.7-0.9c-0.8,0-1.3,0.3-1.7,0.9c-0.4,0.6-0.6,1.5-0.6,2.8v3.2c0,1.3,0.2,2.3,0.6,3c0.4,0.7,1,1,1.7,1
	c0.8,0,1.3-0.3,1.7-0.9c0.4-0.6,0.6-1.5,0.6-2.8V52.4z"/>
<path d="M472.2,55.9h1.8v1.9h-1.8V61h-2.4v-3.2h-6.1l-0.1-1.4l6.1-9.6h2.5V55.9z M466.1,55.9h3.7V50l-0.2,0.3L466.1,55.9z M484.8,55
	c0,2-0.4,3.6-1.2,4.6c-0.8,1-1.9,1.6-3.5,1.6c-1.5,0-2.7-0.5-3.5-1.5c-0.8-1-1.2-2.5-1.2-4.5v-2.5c0-2,0.4-3.6,1.1-4.6
	c0.8-1,1.9-1.5,3.5-1.5c1.6,0,2.7,0.5,3.5,1.5c0.8,1,1.2,2.5,1.2,4.5V55z M482.5,52.4c0-1.3-0.2-2.3-0.5-2.9
	c-0.4-0.6-0.9-0.9-1.7-0.9c-0.8,0-1.3,0.3-1.7,0.9c-0.4,0.6-0.6,1.5-0.6,2.8v3.2c0,1.3,0.2,2.3,0.6,3c0.4,0.7,1,1,1.7,1
	c0.8,0,1.3-0.3,1.7-0.9c0.4-0.6,0.6-1.5,0.6-2.8V52.4z"/>
<path d="M351.6,46.7v2h-0.3c-1.3,0-2.4,0.4-3.2,1.1c-0.8,0.7-1.3,1.7-1.4,3c0.8-0.8,1.7-1.2,2.9-1.2c1.3,0,2.2,0.4,3,1.3
	c0.7,0.9,1.1,2,1.1,3.4c0,1.4-0.4,2.6-1.3,3.5c-0.8,0.9-2,1.3-3.3,1.3c-1.4,0-2.6-0.5-3.5-1.6c-0.9-1-1.3-2.4-1.3-4.1v-0.8
	c0-2.5,0.6-4.4,1.8-5.9c1.2-1.4,3-2.1,5.2-2.1H351.6z M349,53.5c-0.5,0-1,0.1-1.4,0.4c-0.4,0.3-0.7,0.7-0.9,1.2v0.7
	c0,1.1,0.2,1.9,0.7,2.5c0.4,0.6,1,0.9,1.7,0.9s1.3-0.3,1.7-0.8c0.4-0.5,0.6-1.2,0.6-2.1c0-0.9-0.2-1.6-0.6-2.1
	C350.3,53.8,349.7,53.5,349,53.5z M364.8,55c0,2-0.4,3.6-1.2,4.6c-0.8,1-1.9,1.6-3.5,1.6c-1.5,0-2.7-0.5-3.5-1.5
	c-0.8-1-1.2-2.5-1.2-4.5v-2.5c0-2,0.4-3.6,1.1-4.6c0.8-1,1.9-1.5,3.5-1.5c1.6,0,2.7,0.5,3.5,1.5c0.8,1,1.2,2.5,1.2,4.5V55z
	 M362.5,52.4c0-1.3-0.2-2.3-0.5-2.9c-0.4-0.6-0.9-0.9-1.7-0.9c-0.8,0-1.3,0.3-1.7,0.9c-0.4,0.6-0.6,1.5-0.6,2.8v3.2
	c0,1.3,0.2,2.3,0.6,3c0.4,0.7,1,1,1.7,1c0.8,0,1.3-0.3,1.7-0.9c0.4-0.6,0.6-1.5,0.6-2.8V52.4z"/>
<path d="M228.2,50.5c0,0.7-0.2,1.3-0.5,1.9c-0.4,0.5-0.8,1-1.5,1.3c0.7,0.3,1.3,0.8,1.7,1.4c0.4,0.6,0.6,1.3,0.6,2
	c0,1.2-0.4,2.2-1.3,3c-0.8,0.7-2,1.1-3.4,1.1c-1.4,0-2.5-0.4-3.4-1.1c-0.8-0.7-1.3-1.7-1.3-3c0-0.8,0.2-1.4,0.6-2.1
	c0.4-0.6,1-1.1,1.7-1.4c-0.6-0.3-1.1-0.7-1.5-1.3c-0.4-0.5-0.5-1.2-0.5-1.9c0-1.2,0.4-2.2,1.2-2.9c0.8-0.7,1.8-1.1,3.2-1.1
	c1.3,0,2.4,0.4,3.2,1.1C227.8,48.4,228.2,49.3,228.2,50.5z M226.1,57c0-0.7-0.2-1.3-0.6-1.7c-0.4-0.4-1-0.7-1.7-0.7
	s-1.2,0.2-1.7,0.6c-0.4,0.4-0.6,1-0.6,1.7c0,0.7,0.2,1.3,0.6,1.7c0.4,0.4,1,0.6,1.7,0.6c0.7,0,1.3-0.2,1.7-0.6
	C225.9,58.3,226.1,57.7,226.1,57z M225.8,50.6c0-0.6-0.2-1.1-0.5-1.5c-0.4-0.4-0.8-0.6-1.4-0.6c-0.6,0-1.1,0.2-1.4,0.6
	c-0.4,0.4-0.5,0.9-0.5,1.6c0,0.7,0.2,1.2,0.5,1.6c0.4,0.4,0.8,0.6,1.4,0.6c0.6,0,1.1-0.2,1.4-0.6C225.6,51.8,225.8,51.3,225.8,50.6z
	 M239.8,55c0,2-0.4,3.6-1.2,4.6c-0.8,1-1.9,1.6-3.5,1.6c-1.5,0-2.7-0.5-3.5-1.5c-0.8-1-1.2-2.5-1.2-4.5v-2.5c0-2,0.4-3.6,1.1-4.6
	c0.8-1,1.9-1.5,3.5-1.5c1.6,0,2.7,0.5,3.5,1.5c0.8,1,1.2,2.5,1.2,4.5V55z M237.5,52.4c0-1.3-0.2-2.3-0.5-2.9
	c-0.4-0.6-0.9-0.9-1.7-0.9c-0.8,0-1.3,0.3-1.7,0.9c-0.4,0.6-0.6,1.5-0.6,2.8v3.2c0,1.3,0.2,2.3,0.6,3c0.4,0.7,1,1,1.7,1
	c0.8,0,1.3-0.3,1.7-0.9c0.4-0.6,0.6-1.5,0.6-2.8V52.4z"/>
<path d="M101.9,61h-2.4V49.6l-3.5,1.2v-2l5.5-2h0.3V61z M116.1,55c0,2-0.4,3.6-1.2,4.6c-0.8,1-1.9,1.6-3.5,1.6
	c-1.5,0-2.7-0.5-3.5-1.5c-0.8-1-1.2-2.5-1.2-4.5v-2.5c0-2,0.4-3.6,1.1-4.6c0.8-1,1.9-1.5,3.5-1.5c1.6,0,2.7,0.5,3.5,1.5
	c0.8,1,1.2,2.5,1.2,4.5V55z M113.8,52.4c0-1.3-0.2-2.3-0.5-2.9c-0.4-0.6-0.9-0.9-1.7-0.9c-0.8,0-1.3,0.3-1.7,0.9
	c-0.4,0.6-0.6,1.5-0.6,2.8v3.2c0,1.3,0.2,2.3,0.6,3c0.4,0.7,1,1,1.7,1c0.8,0,1.3-0.3,1.7-0.9c0.4-0.6,0.6-1.5,0.6-2.8V52.4z
	 M127.5,55c0,2-0.4,3.6-1.2,4.6c-0.8,1-1.9,1.6-3.5,1.6c-1.5,0-2.7-0.5-3.5-1.5c-0.8-1-1.2-2.5-1.2-4.5v-2.5c0-2,0.4-3.6,1.1-4.6
	c0.8-1,1.9-1.5,3.5-1.5c1.6,0,2.7,0.5,3.5,1.5c0.8,1,1.2,2.5,1.2,4.5V55z M125.1,52.4c0-1.3-0.2-2.3-0.5-2.9
	c-0.4-0.6-0.9-0.9-1.7-0.9c-0.8,0-1.3,0.3-1.7,0.9c-0.4,0.6-0.6,1.5-0.6,2.8v3.2c0,1.3,0.2,2.3,0.6,3c0.4,0.7,1,1,1.7,1
	c0.8,0,1.3-0.3,1.7-0.9c0.4-0.6,0.6-1.5,0.6-2.8V52.4z"/>
</svg>
