<svg width="88" height="88" viewBox="0 0 88 88" fill="none" xmlns="http://www.w3.org/2000/svg">
<path d="M29.3329 61.5999C29.0428 61.5999 28.7593 61.5139 28.5181 61.3527C28.2768 61.1916 28.0889 60.9625 27.9778 60.6945C27.8668 60.4265 27.8378 60.1315 27.8944 59.847C27.951 59.5625 28.0907 59.3012 28.2959 59.0961L36.3625 51.0294C36.6376 50.7543 37.0107 50.5998 37.3997 50.5999C37.7887 50.5999 38.1617 50.7544 38.4368 51.0295C38.7118 51.3046 38.8663 51.6776 38.8663 52.0666C38.8663 52.4556 38.7117 52.8287 38.4367 53.1037L30.37 61.1704C30.2339 61.3067 30.0723 61.4149 29.8943 61.4886C29.7163 61.5623 29.5256 61.6001 29.3329 61.5999Z" fill="#D3E1E9"/>
<path d="M48.4001 36.6667L33.7334 51.3334V55.7334H38.1334L52.8001 41.0667L48.4001 36.6667Z" fill="#00BFA6"/>
<path d="M32.2667 83.49V88H0V0H16.1333V26.4C16.1337 30.0401 15.0055 33.5908 12.9042 36.5632C10.8029 39.5356 7.8318 41.7834 4.4 42.9972V47.9032C4.39954 49.2774 4.88164 50.6082 5.76219 51.6634C6.64274 52.7185 7.86582 53.4309 9.218 53.6763C12.7788 54.324 16.1634 55.7141 19.1515 57.7561C22.1396 59.7982 24.6643 62.4466 26.5613 65.5288L27.7127 67.3988C30.69 72.238 32.2664 77.8083 32.2667 83.49Z" fill="#F2C194"/>
<path d="M16.1338 7.33325H17.6005C19.9344 7.33325 22.1727 8.26039 23.823 9.91071C25.4733 11.561 26.4005 13.7993 26.4005 16.1333C26.4005 18.4672 25.4733 20.7055 23.823 22.3558C22.1727 24.0061 19.9344 24.9333 17.6005 24.9333H16.1338V7.33325Z" fill="#F2C194"/>
<path d="M52.7905 30.803L57.1898 26.4037L63.0557 32.2695L58.6563 36.6688L52.7905 30.803Z" fill="#00BFA6"/>
<path d="M52.6957 48.2957L41.0669 36.6668L45.4669 32.2668L57.2002 44.0002L52.6957 48.2957Z" fill="#00BFA6"/>
<path d="M50.2861 37.0952L54.6855 32.6959L56.7593 34.7698L52.36 39.1691L50.2861 37.0952Z" fill="#8ACCE7"/>
<path d="M73.3331 46.9334L64.5331 55.7334L49.8665 58.6668L48.4511 56.5438L46.7241 53.9533L45.4665 54.2668L42.5331 51.3334L45.571 48.2956L36.2943 43.1421C35.5904 42.75 35.0582 42.1093 34.802 41.3455L34.7305 41.1328C34.5991 40.7393 34.5465 40.3237 34.5757 39.9099C34.605 39.496 34.7154 39.092 34.9008 38.7209C35.0862 38.3497 35.3429 38.0188 35.6563 37.7469C35.9696 37.4749 36.3334 37.2674 36.727 37.1361L36.7765 37.1196C37.2017 36.9758 37.6522 36.9223 38.0993 36.9627C38.5463 37.0032 38.98 37.1365 39.3725 37.3543C42.656 39.1803 51.3331 44.0001 51.3331 44.0001H59.1706C60.3309 43.9999 61.4651 43.6557 62.4298 43.0109C63.3944 42.3662 64.1462 41.4498 64.5901 40.3778C65.034 39.3058 65.15 38.1262 64.9235 36.9882C64.697 35.8503 64.1382 34.805 63.3176 33.9846L58.6665 29.3334C57.4996 28.1664 56.8441 26.5837 56.8441 24.9334C56.8441 23.2832 57.4996 21.7005 58.6665 20.5334L65.9998 24.9334H70.3998L73.3331 46.9334Z" fill="#F4CEAF"/>
<path d="M52.0445 55.6454L48.4511 56.5437L46.7241 53.9532L51.3331 52.8L52.0445 55.6454Z" fill="#F2C194"/>
<path d="M48.4002 49.8668L46.9757 52.4317L43.4136 50.4535L45.5714 48.2957L48.4002 49.8668Z" fill="#F2C194"/>
<path d="M87.9999 51.1703L73.3332 52.7999L70.3999 24.9332L87.9999 21.7332V51.1703Z" fill="#0A544F"/>
<path d="M79.2001 46.9333C80.0101 46.9333 80.6667 46.2767 80.6667 45.4667C80.6667 44.6566 80.0101 44 79.2001 44C78.39 44 77.7334 44.6566 77.7334 45.4667C77.7334 46.2767 78.39 46.9333 79.2001 46.9333Z" fill="#EEBE33"/>
</svg>
