<svg width="13" height="12" viewBox="0 0 13 12" fill="none" xmlns="http://www.w3.org/2000/svg">
<path d="M10.3328 3.4292H13V11.2879H10.3328V3.4292ZM11.2378 8.57255H12.095V7.81083H11.2378V8.57255ZM11.2378 6.8581H12.095V6.09638H11.2378V6.8581ZM12.095 5.14365V4.38193H11.2378V5.14365H12.095Z" fill="#016E09"/>
<path d="M2.66748 11.2879H0.000299454V3.4292H2.66748V11.2879ZM1.76248 4.38193H0.905271V5.14365H1.76248V4.38193ZM1.76248 6.09638H0.905271V6.8581H1.76248V6.09638ZM0.905297 7.81083V8.57255H1.76251V7.81083H0.905297Z" fill="#016E09"/>
<path d="M7.8335 10.287H6.88076V11.288H7.8335V10.287Z" fill="#016E09"/>
<path d="M6.11914 10.287H5.16643V11.288H6.11914V10.287Z" fill="#016E09"/>
<path d="M9.57129 11.288H8.5955V9.52532H4.40491V11.288H3.42909V0H9.57129V11.288ZM6.07157 8.57259H6.92881V7.81087H6.07157V8.57259ZM6.07157 6.85813H6.92881V6.09642H6.07157V6.85813ZM6.07157 5.14368H6.92881V4.38196H6.07157V5.14368ZM4.35715 8.57259H5.21436V7.81087H4.35715V8.57259ZM4.35715 6.85813H5.21436V6.09642H4.35715V6.85813ZM4.35715 5.14368H5.21436V4.38196H4.35715V5.14368ZM7.78602 1.81132H6.88105V0.906344H6.11933V1.81132H5.21433V2.57304H6.11933V3.47803H6.88105V2.57304H7.78602V1.81132ZM8.64326 4.38196H7.78602V5.14368H8.64326V4.38196ZM8.64326 6.09642H7.78602V6.85813H8.64326V6.09642ZM8.64326 7.81087H7.78602V8.57259H8.64326V7.81087Z" fill="#016E09"/>
</svg>
