<svg width="11" height="12" viewBox="0 0 11 12" fill="none" xmlns="http://www.w3.org/2000/svg">
<path d="M5.50049 5.15625C5.50049 5.03855 5.48215 4.92575 5.46575 4.8125H0.72273C0.706322 4.92575 0.687988 5.03855 0.687988 5.15625V9.64792H5.50049V5.15625ZM3.09424 8.96042C2.52558 8.96042 2.06299 8.49782 2.06299 7.92917C2.06299 7.36051 2.52558 6.89792 3.09424 6.89792C3.66289 6.89792 4.12549 7.36051 4.12549 7.92917C4.12549 8.49782 3.66289 8.96042 3.09424 8.96042ZM3.78174 6.1875C3.5919 6.1875 3.43799 6.03359 3.43799 5.84375C3.43799 5.65386 3.5919 5.5 3.78174 5.5C3.97158 5.5 4.12549 5.65386 4.12549 5.84375C4.12549 6.03359 3.97158 6.1875 3.78174 6.1875Z" fill="#00B092"/>
<path d="M0.687988 11.3896C0.687988 11.5796 0.841736 11.7334 1.03174 11.7334H5.15674C5.34674 11.7334 5.50049 11.5796 5.50049 11.3896V10.3354H0.687988V11.3896Z" fill="#00B092"/>
<path d="M3.09375 8.27295C3.2836 8.27295 3.4375 8.11905 3.4375 7.9292C3.4375 7.73935 3.2836 7.58545 3.09375 7.58545C2.9039 7.58545 2.75 7.73935 2.75 7.9292C2.75 8.11905 2.9039 8.27295 3.09375 8.27295Z" fill="#00B092"/>
<path d="M7.90625 10.3354C8.85392 10.3354 9.625 9.56434 9.625 8.61667V4.77771C10.4085 4.61801 11 3.9237 11 3.09375C11 2.2676 10.3306 0.6875 9.28125 0.6875C8.23187 0.6875 7.5625 2.2676 7.5625 3.09375C7.5625 3.9237 8.15396 4.61801 8.9375 4.77771V8.61667C8.9375 9.18532 8.4749 9.64792 7.90625 9.64792C7.3376 9.64792 6.875 9.18532 6.875 8.61667V3.09375C6.875 2.14608 6.10392 1.375 5.15625 1.375H3.4375V0.6875H3.78125C3.97125 0.6875 4.125 0.533752 4.125 0.34375C4.125 0.153748 3.97125 0 3.78125 0H2.40625C2.21625 0 2.0625 0.153748 2.0625 0.34375C2.0625 0.533752 2.21625 0.6875 2.40625 0.6875H2.75V1.375H1.99918C1.8568 0.975746 1.47881 0.6875 1.03125 0.6875C0.462596 0.6875 0 1.1501 0 1.71875C0 2.2874 0.462596 2.75 1.03125 2.75C1.47881 2.75 1.8568 2.46175 1.99918 2.0625H2.75V2.77525C1.94354 2.89229 1.26926 3.41399 0.928858 4.125H5.25864C4.91824 3.41401 4.24396 2.89229 3.4375 2.77525V2.0625H5.15625C5.7249 2.0625 6.1875 2.5251 6.1875 3.09375V8.61667C6.1875 9.56434 6.95858 10.3354 7.90625 10.3354ZM9.28125 2.75C9.47109 2.75 9.625 2.90386 9.625 3.09375C9.625 3.28359 9.47109 3.4375 9.28125 3.4375C9.09141 3.4375 8.9375 3.28359 8.9375 3.09375C8.9375 2.90386 9.09141 2.75 9.28125 2.75Z" fill="#00B092"/>
</svg>
