<svg width="14" height="13" viewBox="0 0 14 13" fill="none" xmlns="http://www.w3.org/2000/svg">
<path d="M6.51544 0C2.92017 0 0 2.91325 0 6.5C0 10.0867 2.92017 13 6.51544 13C10.1107 13 13.0309 10.0867 13.0309 6.5C13.0309 2.91325 10.1107 0 6.51544 0ZM6.51544 12.4361C3.23417 12.4361 0.565195 9.77349 0.565195 6.5C0.565195 3.22651 3.23417 0.563855 6.51544 0.563855C9.79671 0.563855 12.4657 3.22651 12.4657 6.5C12.4657 9.77349 9.79671 12.4361 6.51544 12.4361Z" fill="#FE5B00"/>
<path d="M9.90673 5.09038H7.92855V3.11689C7.92855 2.96026 7.80295 2.83496 7.64595 2.83496H5.38517C5.22817 2.83496 5.10258 2.96026 5.10258 3.11689V5.09038H3.12439C2.9674 5.09038 2.8418 5.21568 2.8418 5.37231V7.62773C2.8418 7.78436 2.9674 7.90966 3.12439 7.90966H5.10258V9.88316C5.10258 10.0398 5.22817 10.1651 5.38517 10.1651H7.64595C7.80295 10.1651 7.92855 10.0398 7.92855 9.88316V7.90966H9.90673C10.0637 7.90966 10.1893 7.78436 10.1893 7.62773V5.37231C10.1736 5.21568 10.048 5.09038 9.90673 5.09038Z" fill="#FE5B00"/>
</svg>
