<svg width="15" height="15" viewBox="0 0 15 15" fill="none" xmlns="http://www.w3.org/2000/svg">
<g clip-path="url(#clip0)">
<path d="M4.82693 1.19196H9.77793C9.8792 1.19196 9.9613 1.27406 9.9613 1.37533V4.95105C9.9613 5.05232 9.8792 5.13442 9.77793 5.13442H4.82693C4.72566 5.13442 4.64355 5.05232 4.64355 4.95105V1.37533C4.64355 1.27406 4.72566 1.19196 4.82693 1.19196Z" fill="#FD0600"/>
<path d="M5.28542 1.65033H9.31957C9.42084 1.65033 9.50294 1.73243 9.50294 1.8337V3.85078C9.50294 3.95204 9.42084 4.03415 9.31957 4.03415H5.28542C5.18416 4.03415 5.10205 3.95204 5.10205 3.85078V1.8337C5.10205 1.73243 5.18416 1.65033 5.28542 1.65033Z" fill="white"/>
<path d="M9.13627 4.58431C9.13627 4.68558 9.05417 4.76768 8.9529 4.76768C8.85164 4.76768 8.76953 4.68558 8.76953 4.58431C8.76953 4.48304 8.85164 4.40094 8.9529 4.40094C9.05417 4.40094 9.13627 4.48304 9.13627 4.58431Z" fill="white"/>
<path d="M6.66053 4.40094H6.8439C6.89454 4.40094 6.93559 4.44199 6.93559 4.49263V4.676C6.93559 4.72663 6.89454 4.76768 6.8439 4.76768H6.66053C6.6099 4.76768 6.56885 4.72663 6.56885 4.676V4.49263C6.56885 4.44199 6.6099 4.40094 6.66053 4.40094Z" fill="white"/>
<path d="M7.39393 4.40094H7.5773C7.62794 4.40094 7.66899 4.44199 7.66899 4.49263V4.676C7.66899 4.72663 7.62794 4.76768 7.5773 4.76768H7.39393C7.3433 4.76768 7.30225 4.72663 7.30225 4.676V4.49263C7.30225 4.44199 7.3433 4.40094 7.39393 4.40094Z" fill="white"/>
<path d="M8.12733 4.40094H8.3107C8.36133 4.40094 8.40239 4.44199 8.40239 4.49263V4.676C8.40239 4.72663 8.36133 4.76768 8.3107 4.76768H8.12733C8.0767 4.76768 8.03564 4.72663 8.03564 4.676V4.49263C8.03564 4.44199 8.0767 4.40094 8.12733 4.40094Z" fill="white"/>
<path d="M8.18218 0.428256C8.14739 0.389083 8.09752 0.366699 8.04514 0.366699H6.55946C6.50708 0.366699 6.45721 0.389083 6.42243 0.428256L5.74365 1.19187H6.38545L6.71338 0.79925C6.74825 0.757526 6.79978 0.73344 6.85413 0.73344H7.75048C7.80482 0.73344 7.85635 0.757526 7.89123 0.79925L8.21915 1.19187H8.86095L8.18218 0.428256Z" fill="#FD0600"/>
<path d="M6.20951 2.86513L6.47221 2.53662L6.96439 3.23975C6.99859 3.28886 7.05469 3.31805 7.1145 3.31791H7.11929C7.18085 3.31635 7.23748 3.28402 7.27011 3.23178L7.57986 2.73619L7.65722 2.85223C7.6912 2.90331 7.74846 2.93398 7.80979 2.93389H8.86095V2.75052H7.80979L7.73243 2.63448C7.69832 2.58215 7.63954 2.55126 7.57709 2.55282C7.51482 2.55358 7.45724 2.58609 7.42434 2.63896L7.11463 3.13463L6.62245 2.4315C6.58932 2.38423 6.53583 2.35526 6.47812 2.35343C6.42037 2.35159 6.36517 2.37702 6.32904 2.4221L6.06634 2.75052H5.74365V2.93389H6.06634C6.12208 2.93402 6.17477 2.90869 6.20951 2.86513Z" fill="#FD0600"/>
</g>
<path d="M13.3336 6.49243H5.5753C5.19625 6.49243 4.56348 6.6361 4.56348 7.61124V9.10299H14.3454V7.61124C14.3454 6.63916 13.7127 6.49243 13.3336 6.49243Z" fill="#FD0600"/>
<path d="M2.45466 9.42704H0.978194V4.21204H0V14.3211H0.978194V11.7105H14.0218V14.318H15V9.42704H2.45466Z" fill="#FD0600"/>
<path d="M2.60763 9.16417C3.36228 9.16417 3.97404 8.5524 3.97404 7.79775C3.97404 7.0431 3.36228 6.43134 2.60763 6.43134C1.85298 6.43134 1.24121 7.0431 1.24121 7.79775C1.24121 8.5524 1.85298 9.16417 2.60763 9.16417Z" fill="#F94123"/>
<defs>
<clipPath id="clip0">
<rect width="5.50112" height="5.50112" fill="white" transform="translate(4.55176)"/>
</clipPath>
</defs>
</svg>
