<svg width="68" height="68" viewBox="0 0 68 68" fill="none" xmlns="http://www.w3.org/2000/svg">
<g clip-path="url(#clip0)">
<path d="M34 68C52.7777 68 68 52.7777 68 34C68 15.2223 52.7777 0 34 0C15.2223 0 0 15.2223 0 34C0 52.7777 15.2223 68 34 68Z" fill="#4E4D68"/>
<path d="M68 34C68 42.6735 64.7526 50.5879 59.4056 56.5941C58.5562 57.5502 57.6514 58.4578 56.6994 59.3127C50.6794 64.7152 42.7249 68 34 68C25.2183 68 17.2152 64.6708 11.1825 59.2058C10.3151 58.4204 9.48945 57.5904 8.70679 56.7204C3.29309 50.7003 0 42.7331 0 34C0 29.9727 0.699391 26.1092 1.98581 22.5246H66.0141C67.3006 26.1092 68 29.9727 68 34Z" fill="#282942"/>
<path d="M14.2394 14.3626H15.7825C16.0334 14.3626 16.2367 14.1591 16.2367 13.9084V12.2494C16.2367 11.9985 16.4402 11.7952 16.691 11.7952H18.0027C18.2536 11.7952 18.457 11.9987 18.457 12.2494V13.9083C18.457 14.1591 18.6604 14.3625 18.9112 14.3625H20.4543C20.7052 14.3625 20.9086 14.5659 20.9086 14.8167V16.1285C20.9086 16.3794 20.7051 16.5827 20.4543 16.5827H18.9112C18.6603 16.5827 18.457 16.7862 18.457 17.0369V23.9692C18.457 24.2201 18.2535 24.4234 18.0027 24.4234H16.691C16.4401 24.4234 16.2367 24.22 16.2367 23.9692V17.0369C16.2367 16.786 16.0333 16.5827 15.7825 16.5827H14.2394C13.9885 16.5827 13.7852 16.3792 13.7852 16.1285V14.8167C13.785 14.5658 13.9885 14.3626 14.2394 14.3626Z" fill="#282942"/>
<path d="M60.2908 14.3626H58.7476C58.4967 14.3626 58.2934 14.1591 58.2934 13.9084V12.2494C58.2934 11.9985 58.0899 11.7952 57.8392 11.7952H56.5274C56.2765 11.7952 56.0732 11.9987 56.0732 12.2494V13.9083C56.0732 14.1591 55.8697 14.3625 55.619 14.3625H54.0758C53.8249 14.3625 53.6216 14.5659 53.6216 14.8167V16.1285C53.6216 16.3794 53.825 16.5827 54.0758 16.5827H55.619C55.8698 16.5827 56.0732 16.7862 56.0732 17.0369V23.9692C56.0732 24.2201 56.2766 24.4234 56.5274 24.4234H57.8392C58.0901 24.4234 58.2934 24.22 58.2934 23.9692V17.0369C58.2934 16.786 58.4969 16.5827 58.7476 16.5827H60.2908C60.5416 16.5827 60.745 16.3792 60.745 16.1285V14.8167C60.7451 14.5658 60.5416 14.3626 60.2908 14.3626Z" fill="#282942"/>
<path d="M6.95544 17.1448H8.49872C8.7496 17.1448 8.95294 16.9413 8.95294 16.6905V15.0317C8.95294 14.7808 9.15641 14.5775 9.40716 14.5775H10.7189C10.9698 14.5775 11.1732 14.781 11.1732 15.0317V16.6905C11.1732 16.9414 11.3766 17.1448 11.6274 17.1448H13.1705C13.4214 17.1448 13.6248 17.3482 13.6248 17.599V18.9108C13.6248 19.1617 13.4213 19.365 13.1705 19.365H11.6274C11.3765 19.365 11.1732 19.5685 11.1732 19.8192V26.7515C11.1732 27.0024 10.9697 27.2057 10.7189 27.2057H9.40716C9.15628 27.2057 8.95294 27.0022 8.95294 26.7515V19.8192C8.95294 19.5683 8.74947 19.365 8.49872 19.365H6.95544C6.70456 19.365 6.50122 19.1615 6.50122 18.9108V17.599C6.50122 17.3482 6.70456 17.1448 6.95544 17.1448Z" fill="#282942"/>
<path d="M65.3633 20.8524V27.1153C65.3633 27.3664 65.1593 27.5691 64.9095 27.5691H63.5966C63.3468 27.5691 63.1428 27.3664 63.1428 27.1153V20.1822C63.1428 19.9324 62.9388 19.7284 62.689 19.7284H61.1458C60.8947 19.7284 60.6907 19.5257 60.6907 19.2745V17.9617C60.6907 17.7119 60.8947 17.5079 61.1458 17.5079H62.689C62.9388 17.5079 63.1428 17.3052 63.1428 17.0541V16.4782C63.9839 17.8743 64.7277 19.3356 65.3633 20.8524Z" fill="#282942"/>
<path d="M55.4249 21.4265V55.4624C48.7273 53.0817 41.516 58.3935 34 58.3935C26.484 58.3935 19.2728 53.0816 12.5737 55.4624V21.4265C12.5737 9.59371 22.1657 0.000137329 33.9986 0.000137329C45.8328 0.000137329 55.4249 9.59371 55.4249 21.4265Z" fill="#EDEDED"/>
<path d="M16.4185 21.4265C16.4185 11.7321 24.3047 3.84505 33.9986 3.84505C43.693 3.84505 51.58 11.7321 51.58 21.4265V50.2424C45.8728 48.7132 39.9806 47.9403 34 47.9403C28.0196 47.9403 22.1271 48.7132 16.4186 50.2426V21.4265H16.4185Z" fill="#D9D9D9"/>
<path d="M62.343 50.8131C62.1734 50.1991 61.5392 49.8385 60.9242 50.0083C58.8977 50.5677 57.4597 51.7165 56.4467 52.9727C56.5083 49.8787 57.742 46.9792 59.9366 44.7848C60.3872 44.3343 60.3872 43.6041 59.9367 43.1536C59.4861 42.7031 58.7557 42.7031 58.3055 43.1534C56.2757 45.1829 54.936 47.7179 54.4009 50.4745C53.8113 49.5015 53.1011 48.5922 52.2759 47.7671C51.8256 47.3167 51.0954 47.3166 50.6447 47.7672C50.1942 48.2177 50.1942 48.948 50.6449 49.3985C52.897 51.6506 54.1373 54.6449 54.1373 57.8299V58.18C54.1373 58.2185 54.1394 58.2566 54.1432 58.2943C54.1446 58.3092 54.1474 58.3235 54.1495 58.3383C54.1526 58.3607 54.1554 58.3833 54.1598 58.4052C54.1632 58.423 54.1683 58.4402 54.1725 58.4577C54.177 58.4759 54.1811 58.4942 54.1866 58.5121C54.1923 58.5311 54.1992 58.5497 54.206 58.5683C54.2116 58.5837 54.2166 58.5993 54.2227 58.6144C54.2308 58.6342 54.2401 58.6536 54.2493 58.6728C54.2554 58.6857 54.2612 58.6987 54.2679 58.7116C54.2784 58.7319 54.29 58.7516 54.3017 58.7711C54.3082 58.7819 54.3145 58.7928 54.3213 58.8033C54.3343 58.8237 54.3483 58.8434 54.3627 58.8628C54.3692 58.8715 54.3756 58.8804 54.3822 58.8889C54.3982 58.9094 54.4149 58.9289 54.432 58.9482C54.438 58.9548 54.4438 58.9613 54.45 58.9678C54.4689 58.9881 54.4889 59.0077 54.5092 59.0265C54.514 59.0309 54.5187 59.0353 54.5237 59.0397C54.5461 59.0599 54.5694 59.079 54.5935 59.0973C54.5966 59.0997 54.5996 59.1018 54.6027 59.1041C54.6291 59.1237 54.6562 59.1423 54.6842 59.1597C54.6846 59.16 54.6852 59.1603 54.6856 59.1605C54.8617 59.2694 55.0686 59.3334 55.2909 59.3334C55.7516 59.3334 56.148 59.0628 56.3328 58.6723C56.3347 58.6686 56.3364 58.665 56.3383 58.6611C56.35 58.6356 56.3606 58.6096 56.3704 58.5832C56.3733 58.5752 56.3763 58.5675 56.3792 58.5595C56.3876 58.5358 56.395 58.5119 56.4016 58.4874C56.4051 58.4752 56.408 58.463 56.4111 58.4508C56.4161 58.4298 56.4208 58.4088 56.4246 58.3876C56.4257 58.3813 56.4275 58.3753 56.4286 58.369C56.4629 58.1667 57.3162 53.3977 61.538 52.2321C62.1521 52.0625 62.5126 51.4271 62.343 50.8131Z" fill="#50BC69"/>
<path d="M16.2234 46.9722C15.3983 47.7972 14.6883 48.7065 14.0987 49.6794C13.5636 46.9232 12.2237 44.3882 10.1943 42.3587C9.74379 41.9082 9.01345 41.9082 8.56309 42.3587C8.11259 42.8092 8.11259 43.5395 8.56309 43.9899C10.7577 46.1846 11.9915 49.084 12.053 52.1779C11.0399 50.9214 9.60221 49.7729 7.57549 49.2134C6.9615 49.0437 6.32626 49.4041 6.15666 50.0182C5.98705 50.6324 6.34751 51.2676 6.9615 51.4371C11.1833 52.6026 12.0367 57.3715 12.0704 57.5706C12.0716 57.5782 12.0737 57.5855 12.0752 57.5929C12.0785 57.6113 12.0824 57.6292 12.0866 57.6471C12.0907 57.6649 12.0952 57.6823 12.1 57.6997C12.1051 57.7172 12.1101 57.7345 12.116 57.7516C12.1219 57.7696 12.1286 57.787 12.1352 57.8045C12.1413 57.82 12.1474 57.8356 12.1541 57.8509C12.1624 57.8697 12.1716 57.8882 12.1809 57.9065C12.1875 57.9197 12.1939 57.9329 12.2012 57.9457C12.2126 57.9661 12.225 57.9858 12.2375 58.0053C12.2439 58.0154 12.2498 58.0258 12.2566 58.0356C12.2728 58.0594 12.2903 58.0822 12.3083 58.1045C12.3124 58.1097 12.3161 58.1152 12.3204 58.1202C12.3432 58.1478 12.3672 58.1741 12.3923 58.1995C12.3963 58.2035 12.4008 58.2071 12.405 58.2112C12.4259 58.2316 12.4473 58.2513 12.4698 58.27C12.4801 58.2786 12.4911 58.2865 12.5016 58.2948C12.5185 58.308 12.5355 58.321 12.5532 58.3332C12.5661 58.3423 12.5796 58.3505 12.593 58.3589C12.6092 58.3691 12.6257 58.3794 12.6423 58.3889C12.6568 58.3971 12.6714 58.4047 12.6864 58.4123C12.7031 58.4209 12.7201 58.429 12.7375 58.4368C12.7527 58.4436 12.7678 58.45 12.7833 58.4562C12.8015 58.4634 12.8201 58.47 12.8387 58.4765C12.8537 58.4817 12.8686 58.4866 12.8839 58.4911C12.9047 58.4973 12.9258 58.5024 12.9471 58.5073C12.9608 58.5105 12.9743 58.514 12.9881 58.5166C13.0138 58.5217 13.0399 58.5253 13.0661 58.5286C13.0762 58.5298 13.086 58.5317 13.0962 58.5327C13.1332 58.5363 13.1705 58.5386 13.2082 58.5386C13.2394 58.5386 13.2708 58.5374 13.3024 58.5347C13.3064 58.5344 13.3103 58.5335 13.3145 58.5332C13.3333 58.5315 13.3518 58.5287 13.3704 58.5261C13.3891 58.5234 13.4078 58.521 13.4263 58.5176C13.4451 58.514 13.4635 58.5093 13.4819 58.5048C13.4999 58.5006 13.5177 58.4962 13.5351 58.4913C13.5529 58.486 13.5701 58.48 13.5876 58.4739C13.6053 58.4678 13.6228 58.4617 13.64 58.4548C13.6563 58.4481 13.6725 58.4407 13.6886 58.4334C13.706 58.4254 13.7231 58.4173 13.7401 58.4085C13.7553 58.4006 13.7701 58.3923 13.785 58.3837C13.8019 58.374 13.8186 58.364 13.8348 58.3534C13.8489 58.3444 13.8624 58.335 13.8759 58.3254C13.8919 58.314 13.9076 58.3023 13.923 58.2902C13.9359 58.28 13.9485 58.2695 13.961 58.2589C13.9759 58.2461 13.9902 58.2328 14.0045 58.2193C14.0165 58.2079 14.0283 58.1964 14.0397 58.1845C14.0532 58.1704 14.0662 58.1561 14.0789 58.1414C14.0901 58.1288 14.1008 58.1161 14.1115 58.1029C14.1234 58.0879 14.1346 58.0726 14.1457 58.0571C14.1557 58.0433 14.1656 58.0294 14.1752 58.0149C14.1854 57.9991 14.195 57.983 14.2044 57.9665C14.2133 57.9514 14.2222 57.9364 14.2303 57.921C14.2391 57.9044 14.2468 57.8872 14.2548 57.8704C14.2622 57.8544 14.2699 57.8386 14.2765 57.822C14.2837 57.8044 14.2898 57.786 14.2962 57.7681C14.302 57.7518 14.3082 57.7354 14.3133 57.7187C14.3193 57.6992 14.3237 57.679 14.3287 57.6591C14.3326 57.6431 14.3372 57.6275 14.3404 57.6111C14.3449 57.588 14.3479 57.5644 14.3511 57.5407C14.3529 57.5271 14.3556 57.5136 14.357 57.4998C14.3608 57.4621 14.3629 57.4239 14.3629 57.3852V57.0351C14.3629 53.8501 15.6031 50.8558 17.8553 48.6037C18.3058 48.1532 18.3058 47.423 17.8553 46.9725C17.4043 46.5217 16.6738 46.5217 16.2234 46.9722Z" fill="#50BC69"/>
<path d="M59.124 56.9076C57.6196 58.5562 55.9557 60.0565 54.1558 61.3831C53.6992 61.7204 53.2329 62.0465 52.7584 62.3601C47.3821 65.9253 40.9333 68 34.0001 68C24.0471 68 15.0933 63.7244 8.87622 56.9076C10.0891 56.3873 11.3214 55.9057 12.5732 55.4616C19.2733 53.0816 26.4841 51.7854 34.0001 51.7854C41.5161 51.7854 48.727 53.0816 55.4257 55.4616C56.676 55.9057 57.9097 56.3886 59.124 56.9076Z" fill="#EF7064"/>
<path d="M37.6137 51.8896C31.3979 52.2352 25.4195 53.4661 19.8018 55.4617C16.8362 56.515 13.9704 57.7806 11.2226 59.2419C10.4025 58.5023 9.61973 57.7238 8.87598 56.9078C10.0888 56.3874 11.3212 55.9058 12.5729 55.4617C19.2731 53.0817 26.4839 51.7856 33.9998 51.7856C35.2128 51.7855 36.4174 51.8229 37.6137 51.8896Z" fill="#E0554A"/>
<path d="M48.756 58.2764C49.2414 58.2764 49.6348 57.8829 49.6348 57.3976C49.6348 56.9122 49.2414 56.5188 48.756 56.5188C48.2707 56.5188 47.8772 56.9122 47.8772 57.3976C47.8772 57.8829 48.2707 58.2764 48.756 58.2764Z" fill="#E0554A"/>
<path d="M51.5788 60.2665C52.0641 60.2665 52.4576 59.873 52.4576 59.3876C52.4576 58.9023 52.0641 58.5088 51.5788 58.5088C51.0934 58.5088 50.7 58.9023 50.7 59.3876C50.7 59.873 51.0934 60.2665 51.5788 60.2665Z" fill="#E0554A"/>
<path d="M54.1558 61.3832C53.6992 61.7204 53.2329 62.0466 52.7584 62.3601C52.5738 62.2005 52.4573 61.9633 52.4573 61.6995C52.4573 61.2151 52.8513 60.8211 53.3357 60.8211C53.7104 60.8211 54.0295 61.0543 54.1558 61.3832Z" fill="#E0554A"/>
<path d="M54.4931 58.5082C54.9784 58.5082 55.3719 58.1147 55.3719 57.6293C55.3719 57.144 54.9784 56.7505 54.4931 56.7505C54.0077 56.7505 53.6143 57.144 53.6143 57.6293C53.6143 58.1147 54.0077 58.5082 54.4931 58.5082Z" fill="#E0554A"/>
<path d="M51.7633 56.9358C52.2487 56.9358 52.6422 56.5423 52.6422 56.057C52.6422 55.5716 52.2487 55.1782 51.7633 55.1782C51.278 55.1782 50.8845 55.5716 50.8845 56.057C50.8845 56.5423 51.278 56.9358 51.7633 56.9358Z" fill="#E0554A"/>
<path d="M23.0368 61.7457C23.5221 61.7457 23.9156 61.3523 23.9156 60.8669C23.9156 60.3815 23.5221 59.9881 23.0368 59.9881C22.5514 59.9881 22.158 60.3815 22.158 60.8669C22.158 61.3523 22.5514 61.7457 23.0368 61.7457Z" fill="#E0554A"/>
<path d="M23.7306 57.7684C24.216 57.7684 24.6095 57.3749 24.6095 56.8896C24.6095 56.4042 24.216 56.0108 23.7306 56.0108C23.2453 56.0108 22.8518 56.4042 22.8518 56.8896C22.8518 57.3749 23.2453 57.7684 23.7306 57.7684Z" fill="#E0554A"/>
<path d="M20.6708 59.3741C21.1562 59.3741 21.5496 58.9806 21.5496 58.4953C21.5496 58.0099 21.1562 57.6165 20.6708 57.6165C20.1855 57.6165 19.792 58.0099 19.792 58.4953C19.792 58.9806 20.1855 59.3741 20.6708 59.3741Z" fill="#E0554A"/>
<path d="M15.2973 58.88C15.7826 58.88 16.1761 58.4866 16.1761 58.0012C16.1761 57.5159 15.7826 57.1224 15.2973 57.1224C14.8119 57.1224 14.4185 57.5159 14.4185 58.0012C14.4185 58.4866 14.8119 58.88 15.2973 58.88Z" fill="#E0554A"/>
<path d="M18.7138 62.2662C19.1991 62.2662 19.5926 61.8728 19.5926 61.3874C19.5926 60.902 19.1991 60.5086 18.7138 60.5086C18.2284 60.5086 17.835 60.902 17.835 61.3874C17.835 61.8728 18.2284 62.2662 18.7138 62.2662Z" fill="#E0554A"/>
<path d="M48.2482 61.0061C48.7336 61.0061 49.127 60.6126 49.127 60.1273C49.127 59.6419 48.7336 59.2484 48.2482 59.2484C47.7628 59.2484 47.3694 59.6419 47.3694 60.1273C47.3694 60.6126 47.7628 61.0061 48.2482 61.0061Z" fill="#E0554A"/>
<rect x="31" y="10" width="4" height="42" fill="#2B2929"/>
<rect x="18" y="26" width="4" height="30" transform="rotate(-90 18 26)" fill="#2B2929"/>
</g>
<defs>
<clipPath id="clip0">
<rect width="68" height="68" fill="white"/>
</clipPath>
</defs>
</svg>
