<svg width="246" height="210" viewBox="0 0 246 210" fill="none" xmlns="http://www.w3.org/2000/svg">
<g clip-path="url(#clip0)">
<path d="M93.84 108.237H93.2795V169.21H93.84V108.237Z" fill="#DEDEDE"/>
<path d="M133.763 108.237H133.203V169.21H133.763V108.237Z" fill="#DEDEDE"/>
<path d="M173.686 108.237H173.126V169.21H173.686V108.237Z" fill="#DEDEDE"/>
<path d="M63.1992 100.724H53.6382V102.312H63.1992V100.724Z" fill="#D7D7D7"/>
<path d="M67.2011 103.661H53.6382V105.249H67.2011V103.661Z" fill="#D7D7D7"/>
<path d="M104.357 100.724H93.1299V102.312H104.357V100.724Z" fill="#D7D7D7"/>
<path d="M100.307 103.661H93.1299V105.249H100.307V103.661Z" fill="#D7D7D7"/>
<path d="M140.722 100.724H133.766V102.312H140.722V100.724Z" fill="#D7D7D7"/>
<path d="M141.874 103.661H133.766V105.249H141.874V103.661Z" fill="#D7D7D7"/>
<path d="M183.82 100.724H173.686V102.312H183.82V100.724Z" fill="#D7D7D7"/>
<path d="M181.794 103.661H173.686V105.249H181.794V103.661Z" fill="#D7D7D7"/>
<path d="M99.9142 172.822H93.5613V174.94H99.9142V172.822Z" fill="#B6B6B6"/>
<path d="M140.116 172.822H133.766V174.94H140.116V172.822Z" fill="#B6B6B6"/>
<path d="M180.039 172.822H173.686V174.94H180.039V172.822Z" fill="#B6B6B6"/>
<path d="M219.96 172.822H213.609V174.94H219.96V172.822Z" fill="#B6B6B6"/>
<g opacity="0.43">
<path opacity="0.43" d="M199.493 151.095C187.041 151.095 176.217 145.522 164.932 139.716C151.001 132.544 136.593 125.131 117.4 127.16C105.143 128.457 97.4515 133.623 90.665 138.18C84.5201 142.307 78.7099 145.937 70.8404 146.247C58.122 146.748 53.7117 141.133 53.6382 140.792V137.191C53.6534 137.254 56.4304 143.554 70.8277 143.48C77.9186 143.443 83.1506 139.928 89.2093 135.86C96.2494 131.132 104.23 125.772 117.129 124.407C137.093 122.294 151.851 129.89 166.124 137.238C181.059 144.924 195.309 152.132 213.328 145.879V148.838C208.192 150.62 204.084 151.093 199.493 151.095Z" fill="url(#paint0_linear)"/>
</g>
<g opacity="0.22">
<path opacity="0.22" d="M124.75 150.404C115.559 150.404 108.268 144.007 101.131 137.744C95.7194 132.995 90.1045 128.139 83.6248 125.745C63.8459 118.437 53.7269 131.783 53.6382 131.901V127.837C53.7447 127.698 55.5504 125.273 60.7722 122.957C65.5273 120.849 73.5033 119.167 84.5048 123.128C91.4765 125.637 97.2639 130.717 102.864 135.631C114.22 145.598 124.027 154.203 141.062 140.723C153.963 130.512 166.124 120.781 178.089 117.227C189.793 113.749 201.994 116.295 213.414 128.118L213.33 131.806C189.07 106.585 168.414 122.564 142.688 142.926C135.871 148.315 130 150.402 124.75 150.404Z" fill="url(#paint1_linear)"/>
</g>
<path d="M144.29 93.6705L143.885 93.1796L150.608 87.2471H154.693L163.96 79.0755L169.755 84.1863H174.031L176.189 86.0921L182.902 80.1753H186.308L200.432 67.7197L200.837 68.2132L186.539 80.8211H183.133L176.189 86.9426L173.8 84.8347H169.527L163.96 79.926L154.924 87.8955H150.838L144.29 93.6705Z" fill="url(#paint2_linear)"/>
<path d="M145.262 85.4809H142.936V84.8325H145.003L148.493 81.2205L151.029 83.8481L157.093 77.5717L158.957 79.5037L165.102 73.1407L168.787 76.9522H172.984L179.466 70.2454H185.055L189.187 65.9666H194.246L199.265 60.7743L199.706 61.2311L194.505 66.615H189.445L185.314 70.8911H179.725L173.242 77.6006H168.525L165.102 74.0569L158.957 80.4172L157.093 78.4879L151.029 84.7616L148.493 82.1366L145.262 85.4809Z" fill="url(#paint3_linear)"/>
<path d="M207.33 86.9503C207.327 86.9372 207.322 86.9241 207.32 86.9083C201.342 65.3308 186.425 46.8876 165.814 37.3982H165.812C162.281 35.7576 158.576 34.3978 154.729 33.3242C145.105 30.6441 135.409 30.0377 126.089 31.2294C126.081 31.2321 126.071 31.2321 126.064 31.2321L126.051 31.2294C119.779 32.0432 113.675 33.6628 107.87 36.0384C107.86 36.0437 107.847 36.0489 107.837 36.0516C86.5211 44.7298 69.3264 63.4041 62.9177 88.0554C52.1622 129.423 75.8365 171.971 115.79 183.101C136.307 188.816 157.123 185.136 173.983 174.607L177.13 179.13L191.961 168.076L188.38 162.931C197.312 153.657 204.096 141.915 207.619 128.36C211.284 114.263 210.951 100.025 207.33 86.9503ZM152.472 157.804C125.983 167.63 96.8099 153.371 87.3174 125.953C77.9998 99.0437 91.0961 69.4599 116.627 59.0833C117.111 58.8864 117.598 58.6974 118.09 58.5137C121.704 57.1723 125.369 56.2798 129.023 55.8099C138.399 54.5998 147.727 56.1564 156.055 60.0073C168.289 65.6642 178.365 76.2797 183.242 90.3681C183.625 91.4758 183.973 92.5888 184.282 93.7071C191.601 120.191 177.888 148.373 152.472 157.804Z" fill="url(#paint4_linear)"/>
<path d="M222.087 82.5537L207.319 86.9085L184.284 93.7047C183.975 92.589 183.627 91.476 183.244 90.3657C178.368 76.2773 168.292 65.6618 156.058 60.0049L165.811 37.3984H165.814L166.841 35.0202L172.083 22.8717C196.921 34.3088 214.895 56.5452 222.087 82.5537Z" fill="#E93E3A"/>
<path d="M166.839 35.0201L165.812 37.3984L156.058 60.0049C147.729 56.154 138.402 54.6 129.026 55.8075L126.089 31.2323L125.782 28.6545C135.417 27.4155 145.442 28.0429 155.391 30.8149C159.36 31.92 163.192 33.327 166.839 35.0201Z" fill="#3864B0"/>
<path d="M129.026 55.8075C125.369 56.2774 121.707 57.1725 118.09 58.5112C117.598 58.695 117.109 58.884 116.627 59.0809L107.87 36.0386L105.219 29.064C111.593 26.4521 118.296 24.6698 125.184 23.7773L125.199 23.7825L125.782 28.6519L126.089 31.2296L129.026 55.8075Z" fill="#2D4F88"/>
<path d="M224.674 210.065H195.141L174.619 180.563L184.244 173.389L194.066 166.07L198.958 173.103L224.674 210.065Z" fill="url(#paint5_linear)"/>
<path d="M119.297 18.4379C119.297 18.4379 118.232 16.4167 117.629 15.6895C117.022 14.9624 115.011 14.4164 115.285 13.4872C115.559 12.5579 118.252 12.9622 118.996 13.8704C119.739 14.7813 122.003 15.1042 122.082 15.4874C122.161 15.8707 121.296 17.9733 120.809 18.3172C120.322 18.6584 119.297 18.4379 119.297 18.4379Z" fill="#6D74B5"/>
<path d="M114.776 20.1495C114.776 20.1495 113.043 18.7268 112.207 18.3068C111.372 17.8868 109.315 18.2149 109.211 17.2489C109.105 16.2829 111.735 15.5479 112.764 16.0755C113.794 16.6058 115.998 15.9705 116.216 16.2908C116.434 16.611 116.447 18.8948 116.135 19.4093C115.82 19.9264 114.776 20.1495 114.776 20.1495Z" fill="#575D90"/>
<path d="M118.625 23.8531C118.625 23.8531 119.381 18.4955 119.348 17.5662C119.338 17.3011 120.905 17.3982 120.832 17.9101C120.672 19.0205 121.395 23.3281 121.27 24.1156C121.144 24.9031 118.559 24.3492 118.625 23.8531Z" fill="#DBA585"/>
<path d="M116.254 25.3919C116.254 25.3919 114.836 20.1917 114.507 19.3255C114.359 18.9396 115.805 18.3437 116 19.0315C116.307 20.1077 118.595 23.7722 118.782 24.5466C118.968 25.321 116.383 25.8749 116.254 25.3919Z" fill="#DBA585"/>
<path d="M117.238 29.0063C117.238 29.0063 115.714 23.6907 115.481 23.1237L117.882 21.588C117.882 21.588 118.996 24.9848 119.15 25.8327C119.308 26.6831 117.238 29.0063 117.238 29.0063Z" fill="#D5D1C6"/>
<path d="M159.753 14.9622C159.753 14.9622 157.432 15.5685 156.329 17.385C155.226 19.2016 154.272 21.2911 152.198 22.2413C150.123 23.1889 150.111 25.6354 150.273 26.0108C150.435 26.3888 156.804 33.7992 158.196 34.0853C159.588 34.3714 162.188 34.1719 161.909 32.2688C161.63 30.3657 158.903 26.268 160.433 24.2022C161.964 22.1363 162.35 20.2305 162.35 20.2305L159.753 14.9622Z" fill="#282A3A"/>
<path d="M159.35 23.827C159.35 23.827 159.281 23.8034 159.167 23.7929C159.035 23.7798 158.842 23.785 158.624 23.8611C158.571 23.8795 158.497 23.9189 158.411 23.9714C157.861 24.3074 156.555 25.2209 156.38 25.2419C156.177 25.2681 156.347 22.1181 156.347 22.1181C156.347 22.1181 157.042 20.8476 157.128 20.0103C157.219 19.1703 159.35 23.827 159.35 23.827Z" fill="#DBA585"/>
<path d="M143.032 27.1164C143.032 27.1164 140.484 25.2657 137.496 25.8432C134.509 26.4181 134.187 27.8645 133.162 27.9301C132.137 27.9957 128.709 27.6912 125.899 28.5417C123.086 29.3896 120.715 29.4815 120.393 29.24C120.071 28.9985 122.15 24.1475 122.15 23.4807L118.666 22.541C118.666 22.541 117.669 26.846 117.278 27.8172C116.86 28.8541 116.059 30.8097 117.2 32.5055C118.341 34.2039 121.534 33.4374 123.469 33.7812C125.402 34.1225 134.055 33.9046 135.566 33.8206C137.207 33.7287 142.157 33.4872 142.157 33.4872L143.032 27.1164Z" fill="#D5D1C6"/>
<path d="M163.963 17.5327C163.963 17.5327 164.125 20.1393 163.567 20.9189C163.344 21.2313 163.192 21.4019 163.091 21.4938C162.946 21.6224 162.837 21.7852 162.771 21.9716C162.599 22.4729 162.492 23.1791 162.355 23.3287C162.205 23.4941 161.769 23.0741 161.612 23.0741C161.455 23.0741 159.92 24.4417 159.555 24.1634C159.188 23.8826 156.951 21.5332 157.138 19.9214C157.326 18.3097 158.013 15.9052 160.532 15.9209C163.05 15.9341 163.77 16.8843 163.963 17.5327Z" fill="#DBA585"/>
<path d="M156.35 29.967C156.301 30.0746 155.376 31.605 154.361 32.4922C153.94 32.8623 153.504 33.1196 153.108 33.1196C152.987 33.1196 152.87 33.1222 152.756 33.1248C151.592 33.1563 150.697 33.3427 149.124 33.4241C147.491 33.5081 143.53 33.2718 143.413 33.2718C143.296 33.2718 142.153 33.4845 142.153 33.4845C141.742 32.97 142.827 27.1477 143.033 27.1188C143.238 27.0873 144.557 27.6045 145.815 27.3918C147.075 27.1792 147.572 27.0585 149.446 24.7852C151.321 22.512 153.195 21.9345 153.986 22.1182C154.777 22.2993 156.35 22.1182 156.35 22.1182C156.35 22.1182 156.418 29.8147 156.35 29.967Z" fill="#F0C75E"/>
<path d="M162.905 19.3985C162.905 19.3985 163.374 20.6585 163.623 20.8318C163.623 20.8318 164.528 19.8395 163.948 17.393C163.367 14.9465 161.171 14.7155 159.755 14.9649C157.993 15.2746 156.215 21.4513 156.309 22.0524C156.4 22.6535 158.376 18.8604 160.108 19.1649C161.835 19.4694 161.85 19.5691 162.905 19.3985Z" fill="#282A3A"/>
<path d="M159.172 23.7958C159.04 23.7826 158.848 23.7931 158.629 23.8693C158.576 23.8876 158.498 23.9165 158.414 23.969C158.008 23.3154 157.633 21.764 157.62 21.7115C157.891 22.31 159.172 23.7958 159.172 23.7958Z" fill="#997761"/>
<path d="M154.361 32.492C153.94 32.8621 153.504 33.1194 153.108 33.1194C152.987 33.1194 152.87 33.122 152.756 33.1246L153.332 28.2999L154.361 32.492Z" fill="#B59749"/>
<path d="M163.476 40.803L162.352 41.8608C161.381 41.3227 158.951 39.5115 158.485 39.0993C157.995 38.6662 154.724 35.8365 154.275 35.1907C153.821 34.545 153.248 27.8748 153.306 27.5703C153.364 27.2685 156.149 27.1136 156.466 27.8197C156.466 27.8197 156.611 31.6233 156.687 32.2612C156.758 32.8991 156.994 33.474 157.415 34.0095C157.998 34.7497 159.243 36.4717 160.445 37.863C160.729 38.1963 163.103 40.4722 163.476 40.803Z" fill="#DBA585"/>
<path d="M156.692 27.9062C156.692 27.9062 156.867 22.84 155.277 22.903C153.266 22.9817 152.964 25.5306 153.235 28.3C153.235 28.3 156.243 28.3288 156.692 27.9062Z" fill="#F0C75E"/>
<path d="M162.933 40.3068C162.933 40.3068 163.083 40.5509 163.301 40.627C163.676 40.7583 164.229 40.5063 164.503 41.0129C164.777 41.5221 163.458 42.79 163.103 42.8661C162.748 42.9422 162.18 42.3726 161.736 41.2465C161.292 40.1204 162.933 40.3068 162.933 40.3068Z" fill="#DBA585"/>
<path d="M164.386 40.8554C164.386 40.8554 165.058 41.3857 165.741 42.0655C166.337 42.664 166.945 43.4463 166.791 43.5959C166.58 43.798 166.174 43.126 165.545 42.5722C164.965 42.0629 164.998 42.2598 164.998 42.2598C164.998 42.2598 164.99 42.202 165.52 42.8793C166.088 43.6064 166.677 44.47 166.502 44.596C166.392 44.6748 166.387 44.6958 166.139 44.4648C166.256 44.6275 166.228 44.6827 166.167 44.7352C165.85 45.0108 164.853 44.0684 164.457 43.6957C164.759 43.9844 164.952 44.2285 164.645 44.2653C164.295 44.3073 162.943 42.9134 162.413 42.4593C161.833 41.9632 164.386 40.8554 164.386 40.8554Z" fill="#DBA585"/>
<path d="M144.179 27.3498C144.179 27.3498 143.641 31.3345 143.908 33.2954C143.908 33.2954 144.187 33.5107 144.744 33.3374C144.744 33.3374 144.884 28.9852 145.196 27.4417C145.193 27.4417 145.023 27.3078 144.179 27.3498Z" fill="#DEDEDE"/>
<path d="M144.722 0.0531311H144.306V30.364H144.722V0.0531311Z" fill="#DEDEDE"/>
<path d="M209.316 157.635H217.378V157.05H209.316V157.635Z" fill="white"/>
<path d="M209.316 160.612H217.378V158.152H209.316V160.612Z" fill="white"/>
<path d="M205.53 161.805H210.285V161.438H205.53V161.805Z" fill="white"/>
<path d="M205.53 162.962H210.285V161.967H205.53V162.962Z" fill="white"/>
<path d="M218.702 160.788H219.057V153.897H218.702V160.788Z" fill="white"/>
<path d="M195.669 148.057L228.435 145.876L228.615 165.702H199.13L195.669 148.057Z" fill="#C3C4CC"/>
<path d="M197.089 146.209L228.435 145.876L228.615 165.702H199.13L197.089 146.209Z" fill="#E0E1EB"/>
<path d="M196.592 123.127C196.592 123.127 197.337 123.975 197.629 123.602C197.923 123.23 198.255 122.699 198.255 122.699L196.592 123.127Z" fill="#DBA686"/>
<path d="M195.121 115.016L196.08 119.631C195.785 119.255 195.265 118.654 195.098 118.833C194.857 119.087 195.659 120.347 195.796 120.888C195.922 121.384 196.087 122.161 196.293 122.618L196.655 123.374L198.258 122.697C198.258 122.697 198.184 119.408 198.124 118.667C198.025 117.462 195.788 114.853 195.57 114.827C195.177 114.777 195.121 115.016 195.121 115.016Z" fill="#DBA686"/>
<path d="M227.94 202.35C227.94 202.35 228.392 203.476 228.772 203.922C229.153 204.368 230.608 205.166 230.616 206.489C230.623 207.925 228.161 207.526 227.2 207.474C226.236 207.421 226.162 206.655 225.759 205.841C225.353 205.027 224.945 205.166 224.869 204.51C224.793 203.854 225.178 202.386 225.178 202.386L227.94 202.35Z" fill="#DFD1CB"/>
<path d="M205.242 202.607C205.242 202.607 203.901 204.066 202.539 204.371C201.177 204.675 200.224 205.067 200.213 205.904C200.203 206.741 204.134 207.293 205.691 206.447C208.017 205.187 208.253 205.568 208.511 204.938C208.77 204.308 208.202 202.625 208.217 202.426C208.24 202.179 205.242 202.607 205.242 202.607Z" fill="#DFD1CB"/>
<path d="M208.821 160.502C208.821 160.502 207.411 171.096 206.835 174.679C206.163 178.866 205.935 182.326 205.747 184.494C205.511 187.222 205.057 201.554 204.892 202.352C204.728 203.15 208.58 202.751 208.58 202.751C208.58 202.751 211.375 184.163 212.077 181.26C212.731 178.556 214.532 167.411 215.131 168.151C215.729 168.889 219.477 181.93 219.921 184.061C220.363 186.193 224.628 202.885 224.628 202.885C224.628 202.885 227.816 203.594 228.628 202.927C228.628 202.927 225.846 187.592 225.564 183.594C225.458 182.071 224.585 165.431 222.095 158.69C220.778 155.126 208.821 160.502 208.821 160.502Z" fill="#404347"/>
<path d="M212.955 135.092C212.955 135.092 209.227 135.89 208.783 136.297C208.304 136.73 207.457 140.956 207.406 142.132C207.355 143.311 207.855 148.227 208.337 150.06C208.816 151.892 208.707 161.452 208.491 162.956C208.491 162.956 215.97 164.471 223.353 163.476C223.353 163.476 222.077 155.173 222.371 152.664C222.749 149.448 223.66 142.04 223.66 142.04C223.66 142.04 222.673 137.053 222.016 136.475C221.359 135.9 216.789 134.963 216.789 134.963L212.955 135.092Z" fill="#F0C75E"/>
<path d="M214.497 123.156C214.497 123.156 210.01 121.439 210.292 127.608C210.573 133.777 211.623 134.404 214.573 133.543C217.525 132.682 217.771 128.787 218.156 126.915C218.539 125.041 215.963 123.427 214.497 123.156Z" fill="#DBA585"/>
<path d="M212.217 136.068C212.217 136.068 214.547 138.024 216.792 134.963C216.792 134.963 216.693 132.48 217.38 130.159C218.067 127.839 212.683 133.252 212.683 133.252C212.739 133.294 212.752 133.525 212.719 133.848C212.691 134.121 212.632 134.462 212.546 134.806C212.348 135.583 212.394 135.446 212.217 136.068Z" fill="#DBA585"/>
<path d="M217.532 129.976C217.532 129.976 217.545 128.327 216.883 128.175C216.221 128.023 215.879 128.976 215.879 128.976L215.346 128.947C215.346 128.947 215.823 127.277 215.192 126.894C214.56 126.511 210.784 126.847 210.31 126.285C209.835 125.723 210.523 122.384 211.552 122.056C212.582 121.728 215.397 121.064 217.185 122.71C217.185 122.71 218.785 122.72 218.783 124.707C218.78 126.02 218.07 129.081 217.532 129.976Z" fill="#263643"/>
<path d="M212.544 134.809C216.021 134.205 216.541 132.157 216.548 132.126C215.197 133.929 212.716 133.85 212.716 133.85C212.688 134.123 212.633 134.462 212.544 134.809Z" fill="#997761"/>
<path d="M216.132 127.477C216.33 126.934 217.449 127.002 217.335 127.863C217.22 128.724 216.295 130.052 215.924 129.803C215.554 129.553 215.859 128.225 216.132 127.477Z" fill="#DBA585"/>
<path d="M218.001 135.226C218.001 135.226 215.899 139.626 212.802 139.269C209.706 138.912 211.501 135.843 211.798 135.352C211.796 135.355 213.655 134.121 218.001 135.226Z" fill="#DBA585"/>
<path d="M198.466 131.674C197.591 129.913 195.669 123.112 195.669 123.112L198.39 122.524C198.39 122.524 199.838 125.947 200.525 128.314C200.86 129.469 201.311 130.603 201.41 130.785C201.512 130.966 206.145 134.599 206.65 134.866C207.155 135.134 209.095 135.83 210.023 136.804C210.951 137.778 210.5 139.114 210.5 139.114C208.532 141.733 204.898 138.326 204.898 138.326C204.898 138.326 199.691 134.145 198.466 131.674Z" fill="#F0C75E"/>
<path d="M203.003 136.712C203.003 136.712 207.297 141.565 207.444 143.363C207.55 144.647 208.324 139.505 208.324 139.505L203.003 136.712Z" fill="#F0C75E"/>
<path d="M199.13 165.702H231.27V144.742H199.13V165.702Z" fill="#E3835A"/>
<path d="M226.274 166.754C226.274 166.754 226.426 166.368 226.414 166.169C226.414 166.169 226.363 165.804 226.343 165.542C226.337 165.458 226.332 165.387 226.335 165.339C226.345 165.143 226.424 164.712 226.317 164.232C226.213 163.751 225.678 162.098 225.678 162.098L224.235 162.321L222.98 162.145C222.98 162.145 222.044 164.969 222.092 165.429C222.097 165.473 222.102 165.518 222.112 165.557C222.189 165.941 222.402 166.195 222.465 166.392C222.488 166.466 222.767 167.166 222.977 167.232C223.266 167.327 223.505 167.269 223.667 167.132C223.667 167.132 224.243 167.29 224.608 167.117C224.608 167.117 225.135 167.279 225.528 166.93C225.526 166.93 226.079 167.033 226.274 166.754Z" fill="#DCA787"/>
<path d="M219.964 136.368C219.475 136.565 218.958 137.788 219.343 140.19C219.756 142.768 220.578 143.868 220.908 144.469C221.238 145.07 223.279 149.086 223.271 149.679C223.251 151.225 223.287 155.307 223.238 155.62C223.157 156.153 222.825 162.303 222.825 162.303L225.98 163.093C225.98 163.093 226.601 156.158 226.883 154.06C226.994 153.22 227.24 150.913 226.959 148.614C226.688 146.395 225.135 141.492 224.928 141.103C224.72 140.715 223.198 135.074 219.964 136.368Z" fill="#F0C75E"/>
<path d="M64.6829 175.025H31.691C24.0295 175.025 17.8186 168.596 17.8186 160.666V114.999C17.8186 107.069 24.0295 100.64 31.691 100.64H64.6829C72.3444 100.64 78.5552 107.069 78.5552 114.999V160.666C78.5552 168.596 72.3444 175.025 64.6829 175.025Z" fill="url(#paint6_linear)"/>
<g opacity="0.76">
<g opacity="0.76">
<g opacity="0.76">
<path opacity="0.76" d="M39.5504 112.164C38.2266 108.329 34.6837 105.974 30.9531 106.089C30.0502 106.118 29.1347 106.292 28.2369 106.622C25.5183 107.628 23.568 109.869 22.7691 112.518C22.2137 114.353 22.2112 116.385 22.8858 118.332C22.9517 118.527 23.0253 118.718 23.1039 118.905C23.459 119.75 23.9231 120.514 24.4759 121.186C26.7914 124.005 30.6361 125.194 34.1993 123.876C38.7997 122.17 41.1963 116.928 39.5504 112.164ZM33.4511 121.716C30.7781 122.706 27.8971 121.813 26.1599 119.7C25.7465 119.196 25.3965 118.624 25.1328 117.991C25.0744 117.852 25.0187 117.708 24.9679 117.563C24.4633 116.101 24.4658 114.579 24.8817 113.203C25.4828 111.219 26.9435 109.539 28.9825 108.783C29.6546 108.533 30.3419 108.405 31.019 108.384C33.8163 108.297 36.4716 110.064 37.4657 112.938C38.6983 116.508 36.9027 120.438 33.4511 121.716Z" fill="white"/>
</g>
</g>
</g>
<path d="M75.8947 95.2637H20.4788C19.0079 95.2637 17.8159 94.0299 17.8159 92.5074C17.8159 90.9849 19.0079 89.7512 20.4788 89.7512H75.8947C77.3657 89.7512 78.5576 90.9849 78.5576 92.5074C78.5551 94.0299 77.3631 95.2637 75.8947 95.2637Z" fill="url(#paint7_linear)"/>
<path d="M56.5674 139.6L65.8444 140.141L73.2397 129.583L72.74 129.208L65.5426 139.482L56.3012 138.944L45.7054 151.449L34.6126 148.963L23.6516 159.668L24.0751 160.133L34.7977 149.659L45.9286 152.155L56.5674 139.6Z" fill="white"/>
<path d="M47.4274 151.442C47.6201 152.36 47.0546 153.269 46.1669 153.468C45.2793 153.668 44.4018 153.082 44.2091 152.163C44.0163 151.245 44.5819 150.336 45.4695 150.137C46.3572 149.937 47.2346 150.523 47.4274 151.442Z" fill="white"/>
<path d="M58.0409 139.017C58.2336 139.936 57.6681 140.844 56.7805 141.044C55.8928 141.243 55.0153 140.658 54.8226 139.739C54.6299 138.821 55.1954 137.912 56.083 137.713C56.9707 137.513 57.8481 138.099 58.0409 139.017Z" fill="white"/>
<path d="M67.2139 139.398C67.4067 140.316 66.8411 141.225 65.9535 141.424C65.0659 141.624 64.1884 141.038 63.9957 140.12C63.803 139.201 64.3685 138.293 65.2561 138.093C66.1437 137.894 67.0212 138.479 67.2139 139.398Z" fill="white"/>
<path d="M36.3068 149.108C36.4995 150.026 35.934 150.935 35.0463 151.134C34.1587 151.334 33.2812 150.748 33.0885 149.829C32.8957 148.911 33.4613 148.002 34.3489 147.803C35.2365 147.603 36.114 148.186 36.3068 149.108Z" fill="white"/>
<path d="M39.7885 155.805H33.0476V157.148H39.7885V155.805Z" fill="white"/>
<path d="M44.4777 142.016H37.7368V143.36H44.4777V142.016Z" fill="white"/>
<path d="M58.4618 151.625H51.7209V152.969H58.4618V151.625Z" fill="white"/>
<path d="M64.5102 132.754H57.7693V134.098H64.5102V132.754Z" fill="white"/>
<path d="M74.2995 143.997H67.5586V145.341H74.2995V143.997Z" fill="white"/>
<path d="M47.4476 112.914H45.4492V124.409H47.4476V112.914Z" fill="url(#paint8_linear)"/>
<path d="M50.955 109.851H48.9565V124.411H50.955V109.851Z" fill="url(#paint9_linear)"/>
<path d="M54.6349 111.454H52.6365V124.411H54.6349V111.454Z" fill="url(#paint10_linear)"/>
<path d="M58.4188 115.177H56.4204V124.411H58.4188V115.177Z" fill="url(#paint11_linear)"/>
<path d="M47.4476 117.119H45.4492V124.411H47.4476V117.119Z" fill="#457AD9"/>
<path d="M50.955 115.177H48.9565V124.411H50.955V115.177Z" fill="#457AD9"/>
<path d="M54.6349 116.193H52.6365V124.411H54.6349V116.193Z" fill="#457AD9"/>
<path d="M58.4188 118.663H56.4204V124.411H58.4188V118.663Z" fill="#457AD9"/>
<path d="M62.2684 116.7H60.27V124.412H62.2684V116.7Z" fill="url(#paint12_linear)"/>
<path d="M65.7758 111.027H63.7773V124.412H65.7758V111.027Z" fill="url(#paint13_linear)"/>
<path d="M69.4581 113.481H67.4597V124.411H69.4581V113.481Z" fill="url(#paint14_linear)"/>
<path d="M73.2396 107.525H71.2412V124.412H73.2396V107.525Z" fill="url(#paint15_linear)"/>
<path d="M62.2684 120.301H60.27V124.409H62.2684V120.301Z" fill="#457AD9"/>
<path d="M65.7758 118.288H63.7773V124.412H65.7758V118.288Z" fill="#457AD9"/>
<path d="M69.4581 118.946H67.4597V124.412H69.4581V118.946Z" fill="#457AD9"/>
<path d="M73.2396 111.861H71.2412V124.411H73.2396V111.861Z" fill="#457AD9"/>
<path d="M11.3375 154.99C11.3375 154.99 11.6469 155.515 11.6875 155.946C11.7179 156.284 11.9943 156.794 12.1135 157.075C12.2327 157.355 12.6182 158.626 12.6309 158.957C12.636 159.091 12.3443 159.944 12.3874 160.217C12.428 160.49 12.5802 161.03 12.3418 161.065C12.1059 161.101 11.8371 160.658 11.8371 160.658C11.8371 160.658 11.8599 160.91 11.6596 161.004C11.2715 161.191 11.0636 161.025 11.0636 161.025C11.0636 161.025 10.919 161.301 10.739 161.338C10.3408 161.419 10.1481 161.254 10.1481 161.254C10.1481 161.254 9.97308 161.408 9.69918 161.403C9.3492 161.395 9.19957 161.083 9.19957 161.083C9.19957 161.083 8.75576 161.175 8.62641 160.962C8.49707 160.747 8.5199 160.519 8.46664 160.324C8.41338 160.13 8.45396 158.374 9.02965 157.109C9.60534 155.843 8.88256 154.61 8.88256 154.61L11.3375 154.99Z" fill="#DBA585"/>
<path d="M11.8994 160.492C11.8994 160.492 11.94 158.917 11.5393 158.581C11.1386 158.245 11.0929 158.815 11.0929 158.815C11.0929 158.815 11.1462 158.253 10.71 158.177C10.2712 158.101 10.2535 158.768 10.2535 158.768C10.2535 158.768 10.1825 158.335 9.72092 158.424C9.26189 158.513 9.37094 159.067 9.37094 159.067C9.37094 159.067 8.93219 158.524 8.64562 159.046C8.16376 159.925 8.62786 160.965 8.62786 160.965C8.62786 160.965 8.76228 161.204 9.20102 161.086C9.20102 161.086 9.49267 161.697 10.1495 161.256C10.1495 161.256 10.8216 161.639 11.065 161.025C11.0625 161.028 11.803 161.39 11.8994 160.492Z" fill="#C99A7D"/>
<path d="M16.5005 132.287C16.5005 132.287 13.8934 141.28 13.0134 144.598C12.737 145.637 12.0675 155.573 11.9508 155.975C11.8316 156.374 8.5271 156.922 8.5271 156.922C8.5271 156.922 8.9278 144.493 8.96584 143.816C9.00388 143.138 12.6153 129.257 13.6652 128.764C14.4514 128.394 14.8673 128.701 15.8589 129.462C17.2487 130.528 16.5005 132.287 16.5005 132.287Z" fill="#4F5481"/>
<path d="M48.8171 117.97C48.8171 117.97 48.7613 118.319 48.6624 118.458C48.6624 118.458 48.4671 118.7 48.3378 118.878C48.2972 118.936 48.2617 118.986 48.244 119.023C48.1653 119.17 48.036 119.516 47.752 119.815C47.4679 120.115 46.3622 121.062 46.3622 121.062L45.4137 120.23L44.4297 119.773C44.4297 119.773 44.98 117.293 45.2159 116.983C45.2387 116.954 45.2615 116.923 45.2869 116.899C45.5101 116.657 45.7738 116.573 45.9032 116.461C45.9513 116.419 46.4586 116.041 46.6386 116.09C46.8897 116.159 47.0368 116.311 47.0926 116.484C47.0926 116.484 47.577 116.639 47.7672 116.933C47.7672 116.933 48.2186 117.062 48.353 117.497C48.353 117.495 48.7968 117.679 48.8171 117.97Z" fill="#DCA787"/>
<path d="M30.4281 134.694L31.1027 134.437C31.1027 134.437 30.2632 132.397 29.8955 132.444C29.472 132.502 28.947 132.647 28.947 132.647L30.4281 134.694Z" fill="#E3D6CD"/>
<path d="M30.5827 135.045C30.4965 134.98 29.1498 132.307 29.1498 132.307L26.2739 132.712L27.8285 135.877L30.5827 135.045Z" fill="#C8995F"/>
<path d="M14.3848 193.688C14.3848 193.688 14.1464 195.394 14.1185 195.651C14.088 195.909 11.4759 195.499 11.4759 195.499L11.2654 193.467C11.2628 193.467 14.0601 193.446 14.3848 193.688Z" fill="#454971"/>
<path d="M14.1463 195.434C14.1463 195.434 14.9756 196.463 15.7744 196.912C16.5758 197.361 17.8337 197.536 18.308 198.001C18.6503 198.337 19.5532 199.778 16.2258 199.749C12.8985 199.72 11.2957 199.954 10.9381 199.4C10.5805 198.846 11.4529 195.318 11.4529 195.318C11.4529 195.318 12.2442 195.612 14.1463 195.434Z" fill="#2E3048"/>
<path d="M33.1138 193.688C33.1138 193.688 32.8754 195.394 32.8475 195.651C32.817 195.909 30.2049 195.499 30.2049 195.499L29.9944 193.467C29.9919 193.467 32.7866 193.446 33.1138 193.688Z" fill="#454971"/>
<path d="M32.8728 195.434C32.8728 195.434 33.7021 196.463 34.501 196.912C35.3024 197.361 38.2493 197.728 38.7236 198.193C39.0659 198.529 39.634 199.875 34.9524 199.749C31.6276 199.66 30.0223 199.954 29.6647 199.4C29.3071 198.846 30.1795 195.318 30.1795 195.318C30.1795 195.318 30.9251 195.631 32.8728 195.434Z" fill="#2E3048"/>
<path d="M16.5506 149.819C16.5506 149.819 14.0956 153.856 14.2782 157.507C14.4608 161.159 13.3881 165.144 13.0178 168.958C12.607 173.21 10.923 183.274 10.8621 185.548C10.8013 187.821 11.1234 195.084 11.1234 195.084L14.4938 195.163C14.4938 195.163 17.3241 177.568 18.057 175.772C18.7899 173.977 22.4241 161.177 22.5459 159.741C22.6676 158.305 16.5506 149.819 16.5506 149.819Z" fill="#2E3048"/>
<path d="M29.4796 150.368C29.4796 150.368 31.3309 160.374 31.5744 162.608C31.8179 164.842 31.9827 173.421 32.1044 174.817C32.2262 176.214 33.2457 193.05 33.5703 195.166H29.264C29.264 195.166 25.957 182.897 25.957 177.09C25.957 171.284 23.4031 164.469 21.7547 160.64C20.1062 156.81 16.3325 156.718 15.3181 149.612C15.3156 149.614 28.105 148.113 29.4796 150.368Z" fill="#2E3048"/>
<path d="M20.6488 115.864C20.6488 115.864 23.9457 114.591 25.4648 117.187C26.9839 119.784 26.8394 124.984 25.1757 125.624C23.5146 126.265 21.0191 125.929 20.167 124.304C19.3174 122.679 18.5489 120.33 18.5844 118.76C18.6225 117.187 19.784 116.319 20.6488 115.864Z" fill="#DBA585"/>
<path d="M24.8183 125.742C24.8183 125.742 24.6814 126.664 24.9071 127.118C25.1328 127.572 20.6363 127.582 20.6363 127.582C20.6363 127.582 20.2711 125.115 19.5788 123.028C18.889 120.944 24.8183 125.742 24.8183 125.742Z" fill="#DBA585"/>
<path d="M19.5812 123.031C19.5812 123.031 19.8906 123.561 21.1587 123.357C22.4267 123.152 23.9712 121.406 24.5012 121.215C25.0313 121.023 25.0363 120.7 25.0363 120.7L25.3686 121.201L25.9316 121.238C25.9316 121.238 25.4193 119.676 26.1928 119.041C26.9663 118.403 25.3914 113.988 21.326 115.458C21.326 115.458 18.2041 116.348 18.3182 118.185C18.4273 120.023 18.8812 122.115 19.5812 123.031Z" fill="#393D3F"/>
<path d="M25.1758 127.063C25.1758 127.063 25.1606 126.197 24.7827 126.113C24.4023 126.029 20.5906 125.651 20.1265 125.84V126.85C20.1239 126.85 21.0217 127.423 25.1758 127.063Z" fill="#DCD0C8"/>
<path d="M24.9502 120.031C24.8792 119.723 24.1209 118.841 23.8318 119.784C23.5427 120.726 24.2705 121.994 24.6763 121.886C25.0821 121.779 25.1302 120.813 24.9502 120.031Z" fill="#DBA585"/>
<path d="M40.3012 137.308C40.2986 137.308 40.2986 137.308 40.2959 137.308C40.3226 137.318 40.3279 137.318 40.3012 137.308Z" fill="#363957"/>
<path d="M31.478 128.375C28.8658 128.018 25.1733 127.063 25.1733 127.063L20.1214 126.85C20.1214 126.85 15.4855 127.905 13.6595 128.761C13.487 128.843 13.4845 133.043 13.0103 134.142L14.5243 137.447C14.5243 137.447 15.3992 143.994 15.5793 146.905C15.663 148.241 13.7762 159.44 13.7762 159.44C13.7762 159.44 15.7974 160.056 19.2439 160.45C22.6905 160.844 31.3056 160.308 31.3588 159.886C31.4121 159.463 29.6901 144.194 29.614 143.401C29.4973 142.188 30.0172 135.736 30.0172 135.736C30.8136 135.098 37.8005 131.738 39.7076 129.99C40.2173 129.522 42.3705 127.352 42.9842 126.601C45.1526 123.947 46.9304 121.671 47.1459 121.18C47.3919 120.902 44.7899 119.437 44.554 119.356C44.3486 119.285 41.4169 123.215 40.2884 124.48C39.7862 125.044 37.6939 126.617 37.6939 126.617C37.6939 126.617 33.1138 128.472 31.478 128.375Z" fill="#4F5481"/>
<path d="M19.7106 116.172C19.7106 116.172 15.5083 116.513 19.5812 123.031L19.7106 116.172Z" fill="#393D3F"/>
<path d="M73.2243 194.633C73.2243 194.633 72.3392 196.003 71.0965 196.3C69.8538 196.597 68.6314 197.067 68.6238 197.878C68.6137 198.689 72.2124 199.172 73.6351 198.356C75.7553 197.135 75.9708 197.502 76.2067 196.893C76.4425 196.284 75.9252 194.652 75.9404 194.457C75.9556 194.218 73.2243 194.633 73.2243 194.633Z" fill="#393D3F"/>
<path d="M73.3613 193.959C73.3613 193.959 73.199 194.62 73.2244 194.636C73.2472 194.649 76.0217 194.993 75.938 194.46C75.8695 194.03 75.7731 193.56 75.7731 193.56L73.3613 193.959Z" fill="#807F7D"/>
<path d="M82.5596 194.544C82.5596 194.544 81.9281 195.854 80.8503 196.303C79.6964 196.781 78.7733 197.329 78.7935 198.119C78.8138 198.91 81.6111 199.71 83.6476 198.193C84.9334 197.235 85.3417 197.23 85.5471 196.626C85.7525 196.022 85.1895 194.455 85.1971 194.266C85.2047 194.03 82.5596 194.544 82.5596 194.544Z" fill="#393D3F"/>
<path d="M82.5266 193.861C82.5266 193.861 82.5342 194.531 82.557 194.541C82.5799 194.554 85.2605 194.783 85.1946 194.263C85.1413 193.851 84.9333 193.352 84.9333 193.352L82.5266 193.861Z" fill="#807F7D"/>
<path d="M72.6994 153.815C72.6994 153.815 70.209 165.186 69.6409 168.648C69.1565 171.596 68.771 174.665 69.0018 176.794C69.2884 179.429 72.8921 193.082 72.7425 193.856C72.5929 194.628 76.5137 193.98 76.5137 193.98C76.5137 193.98 73.7722 178.749 74.32 175.914C74.7257 173.814 78.2788 159.868 78.8215 160.582C79.3668 161.298 80.0414 173.746 80.4446 175.812C80.8478 177.878 82.0854 194.205 82.0854 194.205C82.0854 194.205 84.8523 194.628 85.5928 193.98C85.5928 193.98 85.9301 180.038 85.6715 176.164C85.5726 174.689 87.3427 158.461 85.073 151.93C83.8734 148.478 72.6994 153.815 72.6994 153.815Z" fill="#323436"/>
<path d="M61.8577 143.477C63.633 143.22 69.2174 145.779 69.7246 145.588C70.0746 145.454 70.8938 142.692 71.4771 140.603C71.822 139.366 72.0883 138.364 72.1238 138.282L72.1263 138.277C72.1212 138.332 72.0299 139.277 72.1441 140.519C72.1517 140.6 72.1593 140.682 72.1694 140.763C72.172 140.784 72.1745 140.805 72.177 140.829C72.2303 141.272 72.3089 141.747 72.4281 142.228C72.6056 142.936 72.6893 143.868 72.7197 144.853V144.855C72.7197 144.863 72.7198 144.871 72.7223 144.879C72.7223 144.903 72.7248 144.924 72.7248 144.947C72.7248 144.955 72.7248 144.966 72.7248 144.976C72.7755 146.766 72.6538 148.696 72.6056 149.725C72.527 151.315 73.0342 152.032 73.0469 152.053L73.582 151.974L73.9675 151.919H73.9726L74.4899 151.843L76.5163 151.549L77.2492 151.441L77.4216 151.415L78.7049 151.229L82.3214 150.701L82.7195 150.643L82.8818 150.62L84.2463 150.42L84.8625 150.331H84.8651C84.8651 150.331 85.39 146.485 85.4281 144.409C85.4636 142.501 86.4526 138.626 86.6124 138.004C86.6124 137.999 86.615 137.996 86.615 137.991C86.6175 137.986 86.6175 137.98 86.62 137.973C86.6226 137.962 86.6251 137.954 86.6276 137.946C86.6276 137.941 86.6302 137.938 86.6302 137.933C86.6302 137.931 86.6302 137.931 86.6302 137.931C86.6302 137.931 86.6302 137.928 86.6302 137.925C86.6327 137.92 86.6327 137.917 86.6327 137.917C86.6327 137.917 89.5847 141.128 90.1579 142.53C90.3329 142.955 90.868 144.11 91.5476 145.519C92.0117 144.601 92.3034 143.963 92.3034 143.803C92.3034 143.784 92.3034 143.763 92.3034 143.74C92.2603 142.354 90.8578 136.736 89.7496 133.066C88.8898 131.279 88.1493 129.832 87.9109 129.657C87.5508 129.389 86.0342 128.717 84.7129 128.173C84.6698 128.155 84.6267 128.139 84.5835 128.121C84.4593 128.071 84.3375 128.021 84.2209 127.974C84.1626 127.95 84.1042 127.927 84.0459 127.903C84.0155 127.89 83.9825 127.879 83.9521 127.866C83.9267 127.856 83.9013 127.845 83.876 127.837C83.2141 127.578 82.7119 127.396 82.6079 127.389C82.5902 127.386 82.5623 127.389 82.5243 127.389C82.4811 127.389 82.4253 127.391 82.3569 127.396C81.5402 127.446 79.098 127.683 78.3143 127.759C78.1723 127.772 78.0836 127.782 78.0709 127.782C78.0684 127.782 78.0683 127.782 78.0683 127.782C78.0683 127.782 77.6955 127.958 77.13 128.226L77.0767 128.25C76.7369 128.412 76.3413 128.628 75.9254 128.861C75.1087 129.323 74.2084 129.867 73.4603 130.234C72.7274 130.596 71.7231 131.098 71.6368 131.169L67.9215 142.257L61.4773 141.039L61.8577 143.477Z" fill="#D7C9C2"/>
<path d="M73.0492 152.048C73.0492 152.048 72.7778 152.384 72.6992 153.812C72.6992 153.812 83.8909 152.46 85.0753 151.927C85.0753 151.927 85.1209 150.355 84.8699 150.326C84.5934 150.299 73.0492 152.048 73.0492 152.048Z" fill="#4C5155"/>
<path d="M82.5928 126.995C82.5572 128.814 79.1564 129.807 79.1564 129.807C79.1564 129.807 77.7336 127.961 78.0734 127.783C78.2079 127.715 78.2611 127.439 78.2789 127.129C78.2941 126.835 78.2763 126.51 78.2586 126.305C78.2484 126.176 78.2383 126.092 78.2383 126.092C78.2383 126.092 78.7252 125.562 79.3415 124.929C80.4219 123.824 81.908 122.407 81.908 122.971C81.908 123 81.9029 123.037 81.8953 123.079C81.6392 124.349 82.5928 126.995 82.5928 126.995Z" fill="#DBA585"/>
<path d="M82.311 150.609C82.311 150.609 82.5545 152.203 82.5773 152.62L83.0947 152.513C83.0947 152.513 82.9527 150.825 82.869 150.544L82.311 150.609Z" fill="#393D3F"/>
<path d="M73.9828 151.864C73.9828 151.864 73.7875 153.313 73.7825 153.862L74.3302 153.788C74.3302 153.788 74.4418 151.98 74.5052 151.791L73.9828 151.864Z" fill="#393D3F"/>
<path d="M81.284 124.333C81.2764 124.344 81.1318 124.567 80.8858 124.887C80.3634 125.567 79.3819 126.682 78.2787 127.131C78.2939 126.837 78.2762 126.512 78.2584 126.307C78.1443 126.304 78.0327 126.291 77.9211 126.265C78.2229 125.719 78.6617 125.144 78.6617 125.144L79.3439 124.932L81.284 124.333Z" fill="#997761"/>
<path d="M81.9356 123C81.6414 123.661 81.3624 124.141 81.2838 124.333C81.2331 124.456 81.0911 124.659 80.8856 124.887C80.3252 125.512 79.2828 126.336 78.2583 126.307C78.1441 126.304 78.0325 126.291 77.921 126.265C77.5076 126.171 77.0181 125.974 76.7493 125.428C74.6266 121.128 76.1635 117.613 76.1635 117.613C76.1635 117.613 81.966 115.915 82.8714 117.723C83.5105 118.991 82.6279 121.443 81.9356 123Z" fill="#DBA585"/>
<path d="M76.1662 117.613C76.1662 117.613 75.6286 117.582 75.4942 116.524C75.3623 115.479 75.6286 115.19 75.6286 115.19C75.6286 115.19 78.0227 114.153 78.8824 114.017C79.7421 113.883 81.8572 113.752 82.3543 114.34C82.3543 114.34 83.5589 114.051 83.8861 116.12C84.406 119.403 82.1134 122.59 82.1134 122.59C82.1134 122.59 82.1337 120.446 81.6772 120.162C81.2207 119.879 80.825 120.553 80.825 120.553L79.8892 120.726C79.8892 120.726 81.3094 117.553 79.6052 117.435C77.9035 117.319 77.1401 117.797 76.1662 117.613Z" fill="#263643"/>
<path d="M80.8504 119.698C80.9392 118.753 82.5902 118.393 82.4786 119.383C82.367 120.372 81.5555 121.325 81.1801 121.291C80.8048 121.26 80.7819 120.42 80.8504 119.698Z" fill="#DBA585"/>
<path d="M92.3083 143.8C92.3083 143.782 92.3083 143.761 92.3083 143.737C92.2753 142.357 91.6185 136.823 90.5127 133.153C89.9751 131.371 89.8508 130.127 89.6429 129.972C89.2827 129.704 86.0771 128.722 84.7178 128.171C84.6747 128.153 84.6316 128.137 84.5885 128.118C84.4642 128.069 84.3425 128.019 84.2258 127.971C84.1675 127.948 84.1091 127.924 84.0508 127.901C84.0204 127.887 83.9874 127.877 83.957 127.864C83.9316 127.853 83.9063 127.843 83.8809 127.835C83.8784 127.838 83.8758 127.84 83.8733 127.843C83.7516 127.982 83.1226 128.722 82.3719 129.83C80.9669 131.898 79.1384 135.245 79.4174 138.335C79.5062 139.327 79.6177 140.753 79.8054 142.351C79.8206 142.488 79.8384 142.624 79.8561 142.766C79.9018 143.134 79.95 143.509 80.0058 143.89C80.0387 144.118 80.0717 144.349 80.1072 144.58C80.48 146.977 81.6441 148.609 82.6788 150.565C82.6889 150.581 82.6965 150.599 82.7067 150.615C82.7118 150.625 82.7168 150.633 82.7219 150.644C82.7447 150.686 82.765 150.728 82.7878 150.77C82.8234 150.838 82.8589 150.906 82.8944 150.977C82.9146 151.016 82.9349 151.056 82.9552 151.098C83.153 151.492 83.3458 151.893 83.536 152.297C83.6577 152.557 83.7769 152.82 83.8936 153.08C83.9063 153.106 83.9189 153.135 83.9291 153.161C83.9291 153.161 84.1193 153.62 84.3628 154.208C84.4515 154.424 84.5504 154.657 84.6468 154.894C84.7127 155.054 84.7812 155.216 84.8446 155.374C84.9029 155.51 84.9562 155.644 85.0095 155.773C85.1261 156.056 85.2301 156.306 85.3011 156.479C85.3544 156.608 85.3899 156.697 85.4025 156.726C85.7576 157.647 86.0163 158.359 86.1355 158.692C86.1837 158.826 86.209 158.899 86.209 158.899L89.79 156.854C90.4696 156.503 90.1146 154.605 89.8584 153.865C89.6454 153.248 89.3462 152.589 89.0114 151.906C88.8744 151.628 88.7299 151.345 88.5828 151.058C89.7037 149.032 90.8374 146.942 91.5576 145.522C92.0192 144.601 92.3083 143.96 92.3083 143.8ZM86.6173 138.002C86.6173 137.996 86.6199 137.994 86.6199 137.988C86.6224 137.983 86.6224 137.978 86.6249 137.97C86.6275 137.96 86.63 137.952 86.6325 137.944C86.6325 137.939 86.6351 137.936 86.6351 137.931C86.6351 137.928 86.6351 137.928 86.6351 137.928C86.6351 137.928 86.6351 137.925 86.6351 137.923C86.6351 137.923 88.3774 140.74 88.2455 143.189C88.2252 143.569 87.86 144.533 87.3274 145.766C87.3274 145.766 87.3274 145.766 87.3274 145.769C87.1347 146.218 86.9166 146.704 86.6883 147.21C86.6807 147.189 86.6706 147.168 86.663 147.147C86.3308 146.307 86.1126 145.517 86.1126 144.827C86.1126 144.829 86.2597 139.458 86.6173 138.002Z" fill="#404347"/>
<path d="M59.4788 139.718L67.5867 141.545L71.4517 131.085C71.5379 131.014 72.6462 130.397 73.3791 130.037C74.1424 129.662 75.1087 129.197 75.9659 128.788C76.3742 128.591 76.7622 128.41 77.0868 128.255L77.1147 128.276C77.1147 128.276 76.6354 129.925 76.0166 134.041C76.0166 134.041 76.0166 134.041 76.0166 134.043C75.9963 134.182 75.9735 134.321 75.9532 134.466C75.9507 134.482 75.9481 134.5 75.9456 134.516C75.9329 134.61 75.9177 134.707 75.905 134.804C75.9025 134.815 75.9025 134.828 75.9 134.839C75.8898 134.904 75.8822 134.97 75.8721 135.038C75.8492 135.201 75.8264 135.366 75.801 135.534C75.5246 137.537 75.1366 140.947 74.7663 144.391V144.394C74.4721 147.108 73.8026 149.89 73.5896 151.969C73.5896 151.969 73.5896 151.972 73.5896 151.975C73.5465 152.381 73.4476 152.925 73.3106 153.536C73.2954 153.605 73.2802 153.676 73.2624 153.746C72.6639 156.369 71.4973 160.081 71.4973 160.081L71.1575 159.755L70.1532 158.794C69.9224 158.574 69.8336 158.235 69.9275 157.925C70.4854 156.064 72.3773 149.483 72.7248 144.856V144.853C72.8338 143.399 72.423 142.028 72.1846 140.732C72.1795 140.742 72.177 140.755 72.1719 140.766C71.9716 141.341 71.7509 141.963 71.5303 142.572C70.9318 144.202 70.3206 145.714 70.067 145.811C69.5014 146.026 58.8271 143.005 58.751 142.572L59.4788 139.718Z" fill="#404347"/>
<path d="M82.9376 132.35L81.284 133.316L81.9916 134.061L80.1098 144.58C79.7269 142.115 79.5519 139.773 79.4226 138.338C78.9889 133.557 83.5969 128.168 83.8861 127.838C84.1067 127.924 84.3476 128.021 84.5936 128.121L82.9376 132.35Z" fill="#53575C"/>
<path d="M77.1375 128.229C77.1375 128.229 76.5187 130.318 75.7985 135.534C75.522 137.537 75.134 140.949 74.7612 144.391L74.3757 134.539L75.1645 133.655L74.4645 132.749L75.9633 128.785C76.3716 128.588 76.7571 128.405 77.0843 128.252L77.1375 128.229Z" fill="#53575C"/>
<path d="M83.9647 127.859L82.5927 126.995C82.5927 126.995 82.5546 127.775 79.1562 129.806L80.12 132.618L83.9647 127.859Z" fill="#EEE0D7"/>
<path d="M78.2536 127.389C78.2536 127.389 78.3068 128.229 79.1564 129.809L77.2746 132.35L77.1377 128.229L78.2536 127.389Z" fill="#EEE0D7"/>
<path d="M79.1639 129.809C79.1639 129.809 79.5291 131.321 79.3972 131.743C79.3972 131.743 78.5958 132.045 78.0176 131.667C78.0176 131.667 78.4259 130.609 79.1639 129.809Z" fill="#363957"/>
<path d="M77.277 151.596C77.0716 150.531 77.2669 147.336 77.2745 147.199L77.4495 147.21C77.4469 147.244 77.2491 150.515 77.4469 151.56L77.277 151.596Z" fill="#A79D97"/>
<path d="M78.7049 151.105C78.7049 151.105 77.0589 151.308 76.5137 151.449L76.5847 153.36L78.7404 153.121L78.7049 151.105Z" fill="#6C7279"/>
<path d="M78.3448 131.53C78.3448 131.53 76.5086 136.332 76.8079 141.705C77.1173 147.278 77.627 149.296 77.627 149.296L78.7607 150.766L79.2603 148.96C79.2603 148.96 77.7412 141.857 78.7226 134.946C78.9002 133.693 79.1639 131.32 79.1639 131.32L78.3448 131.53Z" fill="#363957"/>
<path d="M83.8632 154.203C83.8632 154.203 83.4701 155.02 83.0745 155.156C82.6814 155.293 82.1057 155.954 82.1057 155.954L84.8802 157.466C84.8802 157.466 85.6182 155.97 85.6512 155.02C85.6867 154.067 83.8632 154.203 83.8632 154.203Z" fill="#DBA585"/>
<path d="M83.5996 154.279L83.417 154.662C83.417 154.662 85.1796 155.996 85.6538 156.082L85.8161 155.573L83.5996 154.279Z" fill="#D7C9C2"/>
<path d="M83.417 154.298C83.417 154.298 84.7383 155.429 85.8516 155.949L89.5949 148.979L87.6548 145.097C87.6548 145.097 83.5032 153.618 83.417 154.298Z" fill="#404347"/>
<path d="M72.2351 138.293C72.1742 139.582 72.1818 140.726 72.1818 140.726C72.1818 140.732 72.1793 140.768 72.1768 140.826C72.1742 140.805 72.1717 140.784 72.1692 140.761C71.9688 141.335 71.7482 141.958 71.5275 142.567C71.4768 141.863 71.4616 141.207 71.4768 140.6C71.5656 136.986 72.6637 135.091 72.6637 135.091C72.4126 135.721 72.2934 137.072 72.2351 138.293Z" fill="#323436"/>
<path d="M89.0089 151.901L86.0112 155.647L88.5777 151.053C88.7274 151.339 88.8694 151.622 89.0089 151.901Z" fill="#323436"/>
<path d="M67.2442 147.205H60.3258C59.8515 147.205 59.4382 146.869 59.3266 146.391L56.3213 133.547C56.1641 132.878 56.6536 132.235 57.3205 132.235H64.239C64.7132 132.235 65.1266 132.571 65.2382 133.048L68.2434 145.892C68.4007 146.559 67.9112 147.205 67.2442 147.205Z" fill="#D2C7C0"/>
<path d="M58.7815 143.632C59.1188 143.306 59.7731 143.12 60.3335 142.731C60.894 142.345 60.4248 141.946 60.4248 141.946C61.0005 141.742 60.9371 141.471 60.8636 141.285C60.7647 141.036 60.1357 141.106 60.1357 141.106C60.1357 141.106 60.6987 140.978 60.9295 140.873C61.1603 140.768 61.0817 140.348 60.7266 140.217C60.3716 140.085 58.9184 140.455 58.9184 140.455C58.9184 140.455 59.1543 140.335 59.8694 139.965C60.5846 139.592 60.7419 139.256 60.3209 139.093C60.0267 138.98 59.451 139.216 58.3453 139.986C57.5134 140.566 57.5794 140.639 57.5794 140.639C57.5794 140.639 58.3782 144.02 58.7815 143.632Z" fill="#DBA585"/>
<path d="M110.779 170.893H141.62L131.899 201.789L132.81 202.096L142.936 169.903H110.084L100.051 201.789L100.961 202.096L110.779 170.893Z" fill="#898DBB"/>
<path d="M121.276 201.789L111.555 170.893H142.396L152.213 202.096L153.121 201.789L143.091 169.903H110.239L120.365 202.096L121.276 201.789Z" fill="#898DBB"/>
<path d="M145.658 179.632H107.908V180.621H145.658V179.632Z" fill="#898DBB"/>
<path d="M149.185 190.376H104.02V191.365H149.185V190.376Z" fill="#898DBB"/>
<path d="M126.233 100.372C126.233 100.372 127.002 98.978 125.782 95.2478C124.603 91.6384 120.52 91.9666 119.224 94.2792C117.925 96.5918 118.364 98.0277 120.274 100.64C122.183 103.249 125.44 101.566 126.233 100.372Z" fill="#DBA585"/>
<path d="M116.751 164.587C116.751 164.587 116.548 166.12 116.523 166.351C116.497 166.582 114.276 166.215 114.276 166.215L114.096 164.39C114.096 164.39 116.472 164.372 116.751 164.587Z" fill="#DBA585"/>
<path d="M116.548 166.154C116.548 166.154 117.253 167.078 117.933 167.48C118.612 167.882 119.683 168.042 120.086 168.459C120.378 168.761 121.143 170.055 118.316 170.029C115.488 170.003 114.124 170.213 113.822 169.714C113.52 169.218 114.261 166.049 114.261 166.049C114.261 166.049 114.953 166.254 116.548 166.154Z" fill="#222F3F"/>
<path d="M132.135 164.587C132.135 164.587 131.932 166.12 131.907 166.351C131.881 166.582 129.66 166.215 129.66 166.215L129.48 164.39C129.48 164.39 131.859 164.372 132.135 164.587Z" fill="#DBA585"/>
<path d="M131.932 166.154C131.932 166.154 132.637 167.078 133.317 167.48C133.996 167.882 136.502 168.212 136.905 168.63C137.197 168.932 137.679 170.142 133.7 170.029C130.872 169.947 129.507 170.213 129.206 169.714C128.904 169.218 129.644 166.049 129.644 166.049C129.644 166.049 130.522 166.212 131.932 166.154Z" fill="#222F3F"/>
<path d="M117.499 126.42C117.499 126.42 116.36 130.084 116.51 133.242C116.66 136.4 115.922 139.854 115.62 143.154C115.282 146.832 113.905 155.536 113.855 157.505C113.804 159.471 114.068 165.753 114.068 165.753L116.827 165.821C116.827 165.821 119.145 150.601 119.743 149.047C120.344 147.493 123.319 136.424 123.421 135.179C123.52 133.94 117.499 126.42 117.499 126.42Z" fill="#EEBE63"/>
<path d="M128.939 126.039C128.939 126.039 130.613 135.728 130.814 137.66C131.014 139.592 131.146 147.013 131.247 148.221C131.346 149.428 131.914 164.028 132.447 165.821H129.37C129.37 165.821 126.211 155.208 126.211 150.187C126.211 145.165 124.118 139.272 122.769 135.957C121.42 132.644 118.328 132.565 117.497 126.417C117.499 126.42 127.816 124.089 128.939 126.039Z" fill="#EEBE63"/>
<path d="M125.117 101.356C125.117 101.356 124.77 102.401 125.117 103.147C125.465 103.892 120.684 103.446 120.684 103.446C120.684 103.446 120.9 101.905 120.276 100.635C119.65 99.3693 125.117 101.356 125.117 101.356Z" fill="#DBA585"/>
<path d="M117.279 127.217C117.279 127.217 118.998 129.044 129.094 126.934L128.94 126.039L117.461 126.485L117.279 127.217Z" fill="#EEBE63"/>
<path d="M125.84 103.391C125.84 103.391 127.605 103.577 128.11 103.677C128.615 103.777 132.011 103.05 132.708 102.973C133.405 102.9 136.375 100.792 136.472 100.543C136.568 100.293 138.28 95.8097 138.376 94.8385C138.473 93.8699 140.042 94.3686 139.908 95.038C139.657 96.2875 139.332 99.322 139.155 100.201C138.962 101.152 138.45 103.302 138.161 103.567C137.872 103.832 135.199 105.937 132.579 106.832C129.959 107.727 127.988 109.045 127.988 109.045H115.082C115.082 109.045 110.063 101.619 109.954 100.498C109.845 99.3798 113.462 91.9405 114.182 91.0086C114.902 90.0767 115.945 91.3131 115.945 91.3131C115.945 91.3131 113.784 97.873 113.497 98.8049C113.208 99.7368 116.01 103.834 116.779 103.848C117.547 103.861 119.523 103.598 120.398 103.561C121.275 103.525 122.201 103.126 122.201 103.126L125.84 103.391Z" fill="#DBA585"/>
<path d="M131.402 108.352C131.402 108.352 129.822 109.439 129.677 111.305C129.533 113.169 128.957 116.117 128.668 117.125C128.379 118.133 128.919 125.444 128.993 125.966C129.064 126.488 119.006 127.73 117.461 126.488C117.461 126.488 117.027 119.663 116.847 117.723C116.667 115.784 115.802 111.085 115.513 110.45C115.224 109.814 111.73 104.74 111.585 104.071C111.585 104.071 113.393 101.086 114.692 101.049C114.692 101.049 116.751 103.548 117.423 103.661C118.095 103.774 122.214 102.992 122.214 102.987C122.214 102.987 122.663 103.619 125.052 102.874C125.052 102.874 127.897 103.207 128.359 103.268C128.919 103.341 132.815 102.761 132.815 102.761C132.815 102.761 134.377 105.494 134.103 106.872L131.402 108.352Z" fill="#33457D"/>
<path d="M138.285 95.4239C138.285 95.4239 138.637 93.694 138.214 93.1979C137.973 92.9144 137.39 92.1663 137.339 92.0587C137.286 91.9484 136.662 91.5783 136.662 91.3998C136.662 91.2213 137.273 91.0008 137.803 91.51C138.333 92.0193 138.665 92.1295 138.878 92.0744C139.091 92.0193 139.396 90.1923 139.424 89.7382C139.449 89.284 139.619 88.0897 139.893 88.1711C140.167 88.2524 140.154 88.7748 140.154 88.7748C140.154 88.7748 140.474 87.8692 140.684 88.0477C140.897 88.2262 140.869 88.6672 140.869 88.6672C140.869 88.6672 141.267 88.1579 141.374 88.5307C141.48 88.9034 141.374 89.2316 141.374 89.2316C141.374 89.2316 141.785 88.9979 141.813 89.5754C141.838 90.1529 141.693 91.8434 141.402 92.4472C141.11 93.0509 140.017 94.6338 139.885 95.2507C139.753 95.8649 138.285 95.4239 138.285 95.4239Z" fill="#DBA585"/>
<path d="M115.595 92.3867C115.595 92.3867 116.794 90.2972 117.202 90.1109C117.611 89.9245 118.186 89.8195 118.691 89.4467C119.196 89.074 119.863 88.7616 119.827 88.6382C119.792 88.5149 119.196 88.5647 118.559 88.8509C117.923 89.137 117.644 88.9979 117.583 88.8482C117.522 88.6986 117.923 87.646 118.115 87.3966C118.308 87.1472 119.678 85.7219 119.449 85.5119C119.221 85.2992 118.331 86.0841 118.189 86.2442C118.189 86.2442 118.897 84.7034 118.62 84.6272C118.344 84.5537 117.826 85.0997 117.826 85.0997C117.826 85.0997 117.887 83.782 116.518 85.9214C116.518 85.9214 116.807 85.2126 116.386 85.4488C115.965 85.6851 115.557 87.016 115.425 87.688C115.293 88.36 114.694 90.4994 114.182 91.0139C113.672 91.5284 115.595 92.3867 115.595 92.3867Z" fill="#DBA585"/>
<path d="M120.274 100.637C120.274 100.637 120.905 100.695 122.252 100.214C123.599 99.7339 123.698 97.2979 123.989 97.5867C124.583 98.1747 125.143 97.7704 125.369 97.4213C125.369 97.4213 124.712 96.5262 125.016 96.0957C125.321 95.6652 125.815 95.3502 125.815 95.3502C125.815 95.3502 124.869 90.6304 120.563 92.7803C115.516 95.2977 120.274 100.637 120.274 100.637Z" fill="#393D3F"/>
<path d="M125.118 103.149L124.966 102.467C124.966 102.467 122.216 102.409 120.718 102.635L120.56 103.451C120.558 103.448 122.48 104.351 125.118 103.149Z" fill="#33457D"/>
<path d="M124.438 96.9913C124.189 96.5608 123.266 96.272 123.157 97.4874C123.074 98.4298 124.808 99.4614 124.823 98.582C124.839 97.7026 124.605 97.2774 124.438 96.9913Z" fill="#DBA585"/>
<path d="M138.351 95.0299C138.351 95.0299 139.343 95.0562 139.824 95.505C139.824 95.505 139.855 95.7912 139.743 96.0169C139.743 96.0169 138.884 95.6022 138.224 95.5234C138.224 95.5234 138.234 95.1507 138.351 95.0299Z" fill="#C75454"/>
<path d="M139.52 95.2874C139.611 95.5131 139.51 95.7704 139.292 95.8649C139.074 95.9594 138.825 95.8543 138.734 95.6286C138.642 95.4029 138.744 95.1456 138.959 95.0511C139.178 94.9566 139.429 95.0616 139.52 95.2874Z" fill="#393D3F"/>
</g>
<defs>
<linearGradient id="paint0_linear" x1="53.6387" y1="137.57" x2="213.329" y2="137.57" gradientUnits="userSpaceOnUse">
<stop stop-color="#EEBE63"/>
<stop offset="1" stop-color="#DC3B57"/>
</linearGradient>
<linearGradient id="paint1_linear" x1="53.6387" y1="133.096" x2="213.413" y2="133.096" gradientUnits="userSpaceOnUse">
<stop stop-color="#81D3E4"/>
<stop offset="1" stop-color="#6076FA"/>
</linearGradient>
<linearGradient id="paint2_linear" x1="143.884" y1="80.6953" x2="200.838" y2="80.6953" gradientUnits="userSpaceOnUse">
<stop stop-color="#A5D4FC"/>
<stop offset="1" stop-color="#CBE9FC"/>
</linearGradient>
<linearGradient id="paint3_linear" x1="142.937" y1="73.1266" x2="199.706" y2="73.1266" gradientUnits="userSpaceOnUse">
<stop stop-color="#A5D4FC"/>
<stop offset="1" stop-color="#CBE9FC"/>
</linearGradient>
<linearGradient id="paint4_linear" x1="153.492" y1="54.4661" x2="119.369" y2="148.393" gradientUnits="userSpaceOnUse">
<stop stop-color="#C5C9CD"/>
<stop offset="1" stop-color="#F5F0FC"/>
</linearGradient>
<linearGradient id="paint5_linear" x1="169.755" y1="151.513" x2="230.682" y2="234.847" gradientUnits="userSpaceOnUse">
<stop stop-color="#C5C9CD"/>
<stop offset="1" stop-color="#F5F0FC"/>
</linearGradient>
<linearGradient id="paint6_linear" x1="48.1863" y1="140.333" x2="48.1863" y2="401.533" gradientUnits="userSpaceOnUse">
<stop stop-color="#4E607B"/>
<stop offset="1" stop-color="#F4F4F4"/>
</linearGradient>
<linearGradient id="paint7_linear" x1="48.1861" y1="83.9122" x2="48.1861" y2="267.061" gradientUnits="userSpaceOnUse">
<stop stop-color="#656E79"/>
<stop offset="1" stop-color="#F4F4F4"/>
</linearGradient>
<linearGradient id="paint8_linear" x1="45.4485" y1="118.663" x2="47.4464" y2="118.663" gradientUnits="userSpaceOnUse">
<stop stop-color="#D7E2FD"/>
<stop offset="1" stop-color="#F1FFFD"/>
</linearGradient>
<linearGradient id="paint9_linear" x1="48.9563" y1="117.131" x2="50.9543" y2="117.131" gradientUnits="userSpaceOnUse">
<stop stop-color="#D7E2FD"/>
<stop offset="1" stop-color="#F1FFFD"/>
</linearGradient>
<linearGradient id="paint10_linear" x1="52.6375" y1="117.932" x2="54.6356" y2="117.932" gradientUnits="userSpaceOnUse">
<stop stop-color="#D7E2FD"/>
<stop offset="1" stop-color="#F1FFFD"/>
</linearGradient>
<linearGradient id="paint11_linear" x1="56.42" y1="119.793" x2="58.418" y2="119.793" gradientUnits="userSpaceOnUse">
<stop stop-color="#D7E2FD"/>
<stop offset="1" stop-color="#F1FFFD"/>
</linearGradient>
<linearGradient id="paint12_linear" x1="60.27" y1="120.555" x2="62.2681" y2="120.555" gradientUnits="userSpaceOnUse">
<stop stop-color="#D7E2FD"/>
<stop offset="1" stop-color="#F1FFFD"/>
</linearGradient>
<linearGradient id="paint13_linear" x1="63.778" y1="117.719" x2="65.776" y2="117.719" gradientUnits="userSpaceOnUse">
<stop stop-color="#D7E2FD"/>
<stop offset="1" stop-color="#F1FFFD"/>
</linearGradient>
<linearGradient id="paint14_linear" x1="67.4591" y1="118.946" x2="69.4571" y2="118.946" gradientUnits="userSpaceOnUse">
<stop stop-color="#D7E2FD"/>
<stop offset="1" stop-color="#F1FFFD"/>
</linearGradient>
<linearGradient id="paint15_linear" x1="71.2415" y1="115.968" x2="73.2395" y2="115.968" gradientUnits="userSpaceOnUse">
<stop stop-color="#D7E2FD"/>
<stop offset="1" stop-color="#F1FFFD"/>
</linearGradient>
<clipPath id="clip0">
<rect width="246" height="210" fill="white"/>
</clipPath>
</defs>
</svg>
