<svg width="158" height="157" viewBox="0 0 158 157" fill="none" xmlns="http://www.w3.org/2000/svg">
<path d="M46.7367 9.79794C46.7367 9.79794 75.1123 -3.66899 97.7987 4.9529C116.626 12.1081 109.299 21.3951 125.886 20.86C142.474 20.325 158.912 39.0915 150.657 63.278C146.363 75.8609 166.414 86.2173 153.736 100.3C137.988 117.791 105.679 104.561 53.1802 110.813C25.5197 114.106 7.2771 89.1649 24.1725 66.993C34.34 53.651 29.075 48.638 28.9072 34.6411C28.7309 19.799 46.7367 9.79794 46.7367 9.79794Z" fill="#F9F3F3"/>
<path d="M59.5364 61.4014C59.4528 61.4013 59.3716 61.3758 59.3056 61.3289C58.1494 60.4068 57.2248 59.2669 56.5954 57.9874C55.5444 55.9592 54.6104 52.559 56.1299 47.8712C56.9628 45.3416 57.9562 42.8585 59.1049 40.4346C60.7587 36.8136 61.9531 34.1974 62.0474 28.651C62.0457 28.6051 62.0545 28.5593 62.0734 28.5167C62.0922 28.4741 62.1206 28.4355 62.1567 28.4035C62.1928 28.3715 62.2358 28.3468 62.283 28.331C62.3302 28.3151 62.3805 28.3085 62.4306 28.3115C62.4802 28.3122 62.5291 28.3219 62.5746 28.3399C62.62 28.3579 62.6612 28.3839 62.6957 28.4164C62.7301 28.449 62.7572 28.4875 62.7755 28.5296C62.7937 28.5717 62.8027 28.6168 62.8019 28.6621C62.703 34.341 61.4211 37.1504 59.799 40.701C58.6606 43.1021 57.6764 45.5619 56.8512 48.0678C54.08 56.6141 59.7092 60.7437 59.7665 60.7837C59.8303 60.8275 59.8773 60.8885 59.9008 60.9582C59.9243 61.0279 59.923 61.1026 59.8972 61.1716C59.8714 61.2405 59.8224 61.3003 59.7571 61.3422C59.6919 61.3841 59.6139 61.406 59.5342 61.4048L59.5364 61.4014Z" fill="#242B61"/>
<path d="M83.0065 13.6172C87.1176 13.6172 90.4503 10.5689 90.4503 6.80859C90.4503 3.04831 87.1176 0 83.0065 0C78.8954 0 75.5627 3.04831 75.5627 6.80859C75.5627 10.5689 78.8954 13.6172 83.0065 13.6172Z" fill="#242B61"/>
<path d="M58.815 58.9679C58.815 58.9679 61.1049 63.0395 70.0569 64.2941C79.009 65.5488 85.9307 62.446 92.8727 64.5798C99.8148 66.7136 109.681 63.5233 111.584 60.8353C113.487 58.1474 112.312 28.8613 106.755 24.0671C101.199 19.273 72.6592 15.7907 66.6459 21.6725C60.6326 27.5542 54.8207 55.7534 58.815 58.9679Z" fill="#242B61"/>
<path d="M85.1624 56.8706C98.7108 56.8706 109.694 46.8247 109.694 34.4324C109.694 22.0402 98.7108 11.9943 85.1624 11.9943C71.614 11.9943 60.6309 22.0402 60.6309 34.4324C60.6309 46.8247 71.614 56.8706 85.1624 56.8706Z" fill="#242B61"/>
<path d="M65.116 34.0248C65.116 34.0248 66.831 61.2315 86.988 61.9699C107.145 62.7083 106.128 24.3453 98.7497 20.8548C91.3716 17.3642 60.9957 18.7086 65.116 34.0248Z" fill="#FFC4AC"/>
<path d="M78.0863 44.0282C79.131 44.0282 79.9779 43.2536 79.9779 42.2981C79.9779 41.3426 79.131 40.568 78.0863 40.568C77.0417 40.568 76.1948 41.3426 76.1948 42.2981C76.1948 43.2536 77.0417 44.0282 78.0863 44.0282Z" fill="#3E2D4A"/>
<path d="M94.3009 42.8604C95.3456 42.8604 96.1924 42.0858 96.1924 41.1303C96.1924 40.1748 95.3456 39.4003 94.3009 39.4003C93.2563 39.4003 92.4094 40.1748 92.4094 41.1303C92.4094 42.0858 93.2563 42.8604 94.3009 42.8604Z" fill="#3E2D4A"/>
<path d="M80.586 19.1599C80.586 19.1599 73.4523 22.509 72.2353 28.5309C71.0183 34.5527 72.1259 49.8807 64.464 49.3431C64.4618 49.3431 48.8695 19.2993 80.586 19.1599Z" fill="#3E2D4A"/>
<path d="M84.3936 19.2089C83.75 19.6519 91.845 19.4587 96.6066 24.4903C101.368 29.5218 102.801 42.3233 103.523 42.5455C104.245 42.7677 106.684 26.5751 101.486 21.8423C96.2874 17.1096 88.0559 16.6886 84.3936 19.2089Z" fill="#3E2D4A"/>
<path d="M101.816 43.6759C101.816 43.6759 103.565 36.8175 106.989 39.1701C110.413 41.5227 107.557 48.713 104.252 49.4314C100.947 50.1498 100.072 47.2293 101.816 43.6759Z" fill="#DF9F85"/>
<path d="M70.0447 43.2782C70.0447 43.2782 68.5011 36.3771 65.0078 38.6448C61.5145 40.9125 64.1544 48.1683 67.4365 48.9709C70.7185 49.7735 71.6812 46.8743 70.0447 43.2782Z" fill="#DF9F85"/>
<path d="M93.3869 35.0699C93.3869 35.0699 96.9466 33.3522 99.1399 35.82C101.069 37.9896 96.6659 36.2341 95.0452 36.5101C93.4246 36.7861 91.2826 36.6709 93.3869 35.0699Z" fill="#3E2D4A"/>
<path d="M79.2434 35.697C79.2434 35.697 75.5931 34.1477 73.5394 36.7149C71.7347 38.9716 76.0292 37.0103 77.668 37.2153C79.3067 37.4202 81.4314 37.198 79.2434 35.697Z" fill="#3E2D4A"/>
<path d="M92.0946 53.3491C92.0946 53.3491 89.7723 50.1394 87.2599 50.3416C84.7474 50.5438 82.8204 53.5023 82.4824 53.6272C82.4824 53.6272 86.4043 55.3117 92.0946 53.3491Z" fill="#3E2D4A"/>
<path d="M71.9746 42.8392C71.9304 42.8393 71.8865 42.8323 71.8449 42.8185L69.4252 42.0056C69.3313 41.974 69.2549 41.9096 69.2129 41.8265C69.1708 41.7434 69.1666 41.6485 69.2011 41.5625C69.2357 41.4766 69.3061 41.4068 69.3969 41.3683C69.4878 41.3299 69.5916 41.326 69.6855 41.3576L72.1052 42.1705C72.1882 42.1985 72.2578 42.2524 72.3018 42.3227C72.3457 42.3929 72.3613 42.4751 72.3458 42.5548C72.3302 42.6345 72.2845 42.7066 72.2167 42.7586C72.1488 42.8106 72.0631 42.8391 71.9746 42.8392Z" fill="#FFFCF6"/>
<path d="M100.191 41.2717C100.1 41.2721 100.013 41.2427 99.9438 41.1889C99.8751 41.1351 99.8297 41.0605 99.8161 40.9786C99.8024 40.8968 99.8214 40.8132 99.8696 40.7431C99.9177 40.673 99.9918 40.6211 100.078 40.5968L103.385 39.6527C103.481 39.6253 103.584 39.6336 103.673 39.676C103.762 39.7184 103.829 39.7913 103.859 39.8787C103.889 39.9661 103.88 40.0608 103.833 40.1421C103.787 40.2233 103.707 40.2843 103.612 40.3118L100.305 41.2565C100.268 41.2667 100.229 41.2718 100.191 41.2717Z" fill="#FFFCF6"/>
<path d="M84.2753 25.5346C84.2753 25.5346 84.2821 32.4171 88.7645 33.66C93.2469 34.9028 104.776 34.3542 104.659 32.6724C103.602 17.49 95.7994 18.2492 89.2821 16.3093C77.8523 12.9022 68.5049 29.9734 69.9037 34.0057C71.3025 38.038 80.9502 34.2735 83.0153 33.7055C85.0803 33.1376 83.9357 28.4607 84.2753 25.5346Z" fill="#242B61"/>
<path opacity="0.21" d="M72.7167 48.7795C72.7167 48.7795 82.885 43.4133 87.3478 44.1635C91.8107 44.9136 99.6423 45.0316 99.9976 46.496C100.353 47.9604 90.0678 47.3007 86.9042 47.5815C83.7406 47.8624 71.5948 51.1942 72.7167 48.7795Z" fill="#C17657"/>
<path d="M78.4072 45.1887C78.3198 45.1886 78.2351 45.1607 78.1677 45.1098C78.1003 45.0589 78.0543 44.9882 78.0375 44.9097C78.0208 44.8312 78.0343 44.7499 78.0759 44.6795C78.1174 44.6092 78.1844 44.5542 78.2653 44.524C79.2877 44.1431 79.4771 43.8429 79.4793 43.8401C79.4948 43.7978 79.5195 43.7588 79.552 43.7256C79.5844 43.6923 79.624 43.6655 79.6682 43.6467C79.7124 43.6279 79.7604 43.6175 79.8091 43.6162C79.8578 43.615 79.9063 43.6228 79.9516 43.6393C80.0462 43.6729 80.1228 43.7389 80.1651 43.8233C80.2073 43.9077 80.212 44.0039 80.178 44.0913C80.1305 44.2183 79.8762 44.6697 78.5475 45.1631C78.503 45.1798 78.4553 45.1884 78.4072 45.1887Z" fill="#D39D87"/>
<path d="M93.943 44.458C93.3727 44.4215 92.8183 44.2702 92.3193 44.015C92.2747 43.9951 92.2348 43.9674 92.2019 43.9335C92.1691 43.8995 92.1438 43.86 92.1276 43.8171C92.1114 43.7742 92.1046 43.7289 92.1076 43.6836C92.1106 43.6383 92.1233 43.594 92.145 43.5533C92.1667 43.5125 92.197 43.476 92.2341 43.4459C92.2712 43.4158 92.3144 43.3927 92.3613 43.3779C92.4082 43.3631 92.4578 43.3569 92.5073 43.3596C92.5568 43.3624 92.6052 43.374 92.6498 43.3938C93.058 43.6335 93.5326 43.7613 94.0176 43.7624C94.0625 43.7453 94.1106 43.7366 94.1592 43.7368C94.2078 43.7371 94.2559 43.7462 94.3005 43.7637C94.3452 43.7812 94.3856 43.8067 94.4193 43.8387C94.453 43.8707 94.4793 43.9086 94.4968 43.9501C94.533 44.0369 94.5308 44.1333 94.4907 44.2188C94.4505 44.3042 94.3756 44.3719 94.2817 44.4077C94.1735 44.4446 94.0584 44.4617 93.943 44.458Z" fill="#D39D87"/>
<path d="M78.5209 13.5251C78.4636 13.5252 78.407 13.5132 78.3557 13.4899C76.216 12.5383 74.9205 11.1808 74.5078 9.45487C73.5881 5.62273 77.3311 1.38068 77.4903 1.20401C77.5536 1.13309 77.6452 1.08808 77.7448 1.07889C77.8444 1.0697 77.9439 1.0971 78.0215 1.15502C78.099 1.21295 78.1482 1.29667 78.1582 1.38778C78.1683 1.47889 78.1384 1.56992 78.075 1.64084C78.038 1.68225 74.4022 5.80494 75.2457 9.30859C75.6086 10.8172 76.7667 12.0158 78.6884 12.8702C78.7649 12.9045 78.8265 12.9614 78.8631 13.0318C78.8997 13.1021 78.9092 13.1817 78.89 13.2576C78.8709 13.3336 78.8242 13.4013 78.7576 13.4499C78.691 13.4984 78.6084 13.5249 78.5232 13.5251H78.5209Z" fill="#242B61"/>
<path d="M87.1345 14.5491C87.0807 14.5494 87.0275 14.5391 86.9786 14.5188C86.9296 14.4986 86.886 14.4689 86.8508 14.4318C86.818 14.3977 86.7929 14.3581 86.7769 14.3152C86.7608 14.2723 86.7542 14.227 86.7574 14.1817C86.7605 14.1365 86.7734 14.0922 86.7952 14.0515C86.8171 14.0108 86.8475 13.9745 86.8847 13.9445C86.9285 13.91 91.2547 10.3905 91.0525 6.80745C90.9658 5.26437 90.0385 3.90899 88.2971 2.77653C88.2555 2.75077 88.2199 2.71764 88.1924 2.67912C88.165 2.6406 88.1462 2.59746 88.1372 2.55221C88.1283 2.50696 88.1293 2.46054 88.1402 2.41566C88.1512 2.37077 88.1718 2.32834 88.2009 2.29085C88.23 2.25336 88.267 2.22158 88.3098 2.19736C88.3525 2.17315 88.4001 2.15698 88.4498 2.14983C88.4994 2.14268 88.5502 2.14467 88.599 2.15571C88.6478 2.16674 88.6937 2.18659 88.734 2.21409C90.6738 3.47422 91.7082 5.00833 91.8063 6.77432C92.0258 10.6914 87.5721 14.3117 87.3827 14.4635C87.314 14.5186 87.2258 14.549 87.1345 14.5491Z" fill="#242B61"/>
<path d="M109.574 59.8563C109.496 59.8564 109.42 59.8343 109.356 59.7933C109.293 59.7522 109.244 59.6941 109.218 59.6269C109.192 59.5597 109.189 59.4868 109.21 59.4181C109.231 59.3494 109.275 59.2884 109.336 59.2434C109.385 59.2055 114.348 55.4154 112.911 49.4184C112.218 46.8595 111.365 44.339 110.357 41.8693C108.574 37.2001 106.731 32.3707 106.58 27.6883C106.579 27.643 106.587 27.5979 106.605 27.5555C106.623 27.5132 106.649 27.4744 106.683 27.4415C106.717 27.4085 106.758 27.3821 106.803 27.3635C106.849 27.345 106.897 27.3349 106.947 27.3336C107.046 27.3348 107.14 27.3698 107.212 27.4318C107.284 27.4938 107.328 27.5782 107.335 27.6683C107.482 32.2437 109.305 37.022 111.07 41.6423C112.089 44.1377 112.95 46.6847 113.648 49.2707C115.187 55.6887 109.867 59.7396 109.812 59.779C109.745 59.8291 109.661 59.8564 109.574 59.8563Z" fill="#242B61"/>
<path d="M110.914 35.2103H110.876C110.777 35.2012 110.685 35.1564 110.622 35.0856C110.558 35.0148 110.528 34.9239 110.538 34.8328C111.189 28.7951 109.801 23.8939 106.41 20.2654C100.952 14.4236 92.084 13.8867 91.9949 13.8825C91.9454 13.8799 91.897 13.8684 91.8524 13.8486C91.8077 13.8288 91.7678 13.8012 91.7349 13.7673C91.7019 13.7334 91.6766 13.6938 91.6604 13.651C91.6442 13.6081 91.6374 13.5628 91.6403 13.5175C91.6427 13.4721 91.655 13.4277 91.6764 13.3867C91.6978 13.3458 91.728 13.3092 91.7651 13.279C91.8022 13.2489 91.8455 13.2258 91.8925 13.2112C91.9395 13.1966 91.9892 13.1907 92.0387 13.1938C92.1315 13.198 101.319 13.7535 106.984 19.8189C110.513 23.5965 111.964 28.6709 111.289 34.9025C111.279 34.9871 111.235 35.0653 111.166 35.1221C111.097 35.1789 111.007 35.2103 110.914 35.2103Z" fill="#242B61"/>
<path d="M83.8945 54.0291C83.8945 54.0291 87.6542 51.6137 91.0117 53.6841C91.0139 53.6847 87.0906 55.0284 83.8945 54.0291Z" fill="#C05C5D"/>
<path d="M86.382 56.508C86.0108 56.508 85.6917 56.5045 85.4948 56.5018C85.3948 56.5003 85.2996 56.4627 85.23 56.3971C85.1604 56.3315 85.1221 56.2433 85.1236 56.1519C85.1216 56.1059 85.1303 56.06 85.1491 56.0172C85.1678 55.9744 85.1962 55.9357 85.2323 55.9037C85.2685 55.8716 85.3116 55.8468 85.3589 55.831C85.4062 55.8151 85.4566 55.8085 85.5068 55.8117C86.6386 55.8539 87.7723 55.8184 88.8983 55.7054C88.9911 55.6742 89.0936 55.6776 89.1837 55.7148C89.2738 55.752 89.3443 55.82 89.3801 55.9043C89.4159 55.9886 89.4141 56.0824 89.375 56.1655C89.336 56.2485 89.2629 56.3143 89.1714 56.3486C88.25 56.4887 87.3153 56.5422 86.382 56.508Z" fill="#D39D87"/>
<path d="M68.0849 47.0646C68.0504 47.0647 68.0161 47.0603 67.983 47.0515C67.8867 47.0269 67.805 46.9683 67.7559 46.8885C67.7068 46.8088 67.6943 46.7145 67.7212 46.6264C68.0135 45.6392 68.0065 44.5978 67.7007 43.614C67.395 42.6302 66.8022 41.7411 65.9859 41.0421C65.9128 40.982 65.8681 40.8983 65.8615 40.8086C65.8548 40.7189 65.8867 40.6304 65.9503 40.5619C66.0139 40.4934 66.1042 40.4503 66.202 40.4417C66.2998 40.4332 66.3974 40.4599 66.4741 40.5162C67.408 41.2957 68.087 42.2969 68.4355 43.4085C68.784 44.5201 68.7882 45.6984 68.4478 46.812C68.4257 46.8846 68.3783 46.9486 68.3128 46.9942C68.2473 47.0398 68.1672 47.0645 68.0849 47.0646Z" fill="#BF7B5F"/>
<path d="M103.285 47.8889H103.26C103.21 47.886 103.162 47.8742 103.118 47.8542C103.073 47.8342 103.033 47.8064 103.001 47.7724C102.968 47.7384 102.943 47.6988 102.927 47.6559C102.911 47.613 102.904 47.5677 102.908 47.5224C102.981 45.2562 103.847 43.0712 105.378 41.2881C105.446 41.224 105.539 41.1867 105.637 41.1841C105.735 41.1815 105.83 41.2138 105.902 41.2742C105.974 41.3346 106.018 41.4183 106.024 41.5077C106.03 41.5971 105.998 41.6851 105.935 41.7532C104.533 43.4272 103.738 45.4595 103.66 47.5666C103.654 47.6539 103.612 47.7357 103.542 47.7955C103.472 47.8554 103.38 47.8887 103.285 47.8889Z" fill="#BF7B5F"/>
<path d="M95.7084 59.1543C95.7084 59.1543 96.9081 71.4286 95.3161 73.3705C93.7241 75.3125 83.6411 73.8536 80.9876 73.3705C78.334 72.8874 78.3287 52.5831 78.8644 53.9544C83.294 65.2797 95.4029 55.258 95.7084 59.1543Z" fill="#F2B49A"/>
<path d="M79.8238 60.3683C82.2719 61.2781 84.907 61.69 87.5465 61.5758C90.1859 61.4615 92.7666 60.8237 95.1098 59.7065C95.1098 59.7065 95.7421 64.2792 95.1098 65.3337C94.4776 66.3882 81.5961 67.1417 79.0603 61.9445C79.0603 61.9445 79.0935 60.1427 79.8238 60.3683Z" fill="#EBA587"/>
<path d="M40.7595 156.526H133.33C133.33 156.526 138.057 82.9114 126.464 74.9054C114.87 66.8995 63.8198 70.9028 51.8015 77.7349C39.7832 84.5669 40.7595 156.526 40.7595 156.526Z" fill="#FC312F"/>
<path d="M86.9767 71.9144C86.9767 71.9144 83.4095 100.209 84.966 104.149C86.5225 108.09 84.5284 125.549 83.8946 127.82C83.2608 130.09 64.0281 131.054 59.0643 129.239C54.1005 127.423 60.3288 78.48 63.1076 69.4244C65.8864 60.3689 86.6719 65.7041 86.9767 71.9144Z" fill="#3A427F"/>
<path d="M30.4973 37.2454C30.4973 37.2454 38.2339 50.7998 43.6572 50.9254C49.0804 51.051 67.3678 30.6811 74.1107 30.4713C80.8536 30.2616 86.6451 30.8606 86.6715 29.3906C86.6979 27.9207 77.2916 26.3148 77.2916 26.3148C77.2916 26.3148 90.8936 27.1071 88.0809 25.7462C85.2681 24.3853 78.5275 23.1618 78.5275 23.1618C78.5275 23.1618 88.3035 23.5227 88.3744 22.5662C88.4453 21.6097 78.1963 20.2012 78.1963 20.2012C78.1963 20.2012 90.6673 19.8368 88.3864 18.2689C86.1056 16.701 81.811 17.3807 70.1972 19.0032C58.5833 20.6256 32.3073 34.8052 30.4973 37.2454Z" fill="#FFC4AC"/>
<path d="M44.0711 36.5987C44.0711 36.5987 56.4448 43.3424 51.06 50.9846C45.3213 59.1223 45.6427 56.7049 44.6468 59.9974C43.6509 63.2899 60.0098 69.7024 60.7537 72.5207C61.4976 75.3391 53.7875 109.994 46.5693 108.573C40.2821 107.335 5.34763 89.1985 0.328002 71.0777C-3.56442 57.0258 28.1567 22.6668 44.0711 36.5987Z" fill="#FC312F"/>
<path d="M76.4711 115.646C76.4711 115.646 62.7567 143.279 67.799 146.977C72.8413 150.674 76.9034 148.266 81.3632 150.668C85.823 153.069 90.101 151.869 93.6833 149.779C97.2657 147.688 87.9424 120.197 84.0862 117.579C80.23 114.961 77.1653 114.21 76.4711 115.646Z" fill="white"/>
<path d="M105.655 71.9013C105.655 71.9013 133.072 67.1134 140.524 79.596C146.115 88.9614 160.549 130.611 144.127 138.409C127.704 146.206 112.301 142.127 106.34 136.873C100.379 131.618 110.985 104.539 118.055 102.518C125.126 100.497 105.655 71.9013 105.655 71.9013Z" fill="#FC312F"/>
<path d="M124.299 72.2635C124.299 72.2635 124.644 70.298 114.025 66.0946C105.55 62.74 98.2913 68.4016 85.3646 69.0117C72.4379 69.6217 73.6051 64.9345 64.4607 67.1125C50.3517 70.4726 61.5845 78.9333 66.1311 79.8829C70.6777 80.8325 85.9101 104.254 124.299 72.2635Z" fill="#3A427F"/>
<path d="M87.3638 48.6689C87.3638 48.6689 87.3245 49.4702 87.827 49.542C88.009 49.5759 88.1975 49.5648 88.3732 49.51C88.5489 49.4551 88.7055 49.3585 88.8269 49.23C88.9483 49.1014 89.0301 48.9457 89.0639 48.7786C89.0976 48.6116 89.0822 48.4394 89.0191 48.2797C88.478 48.4447 87.9248 48.5748 87.3638 48.6689Z" fill="white"/>
<path d="M139.707 114.977C139.671 114.977 139.635 114.975 139.599 114.97C139.433 114.949 139.28 114.877 139.164 114.767C139.047 114.657 138.974 114.515 138.956 114.363C138.327 113.698 134.107 112.306 131.292 111.377C125.714 109.537 123.214 108.626 122.676 107.631C122.22 106.787 122.424 105.569 122.683 104.028C123.093 101.589 123.603 98.5529 121.91 95.6282C118.986 90.5766 119.265 83.0856 119.279 82.7695C119.282 82.6789 119.306 82.5898 119.347 82.5074C119.388 82.425 119.447 82.3508 119.52 82.2892C119.593 82.2275 119.678 82.1796 119.771 82.1481C119.864 82.1166 119.963 82.1022 120.062 82.1056C120.161 82.109 120.258 82.1303 120.348 82.1682C120.438 82.206 120.519 82.2598 120.587 82.3263C120.654 82.3928 120.707 82.4708 120.741 82.5558C120.776 82.6409 120.791 82.7313 120.788 82.8219C120.784 82.8958 120.512 90.262 123.244 94.9823C125.171 98.3106 124.595 101.736 124.174 104.237C123.974 105.435 123.784 106.565 124.029 107.019C124.486 107.664 128.891 109.118 131.805 110.079C138.369 112.246 140.652 113.115 140.453 114.385C140.428 114.549 140.338 114.699 140.201 114.808C140.064 114.917 139.889 114.977 139.707 114.977Z" fill="#D6201E"/>
<path d="M120.022 109.303C119.954 109.303 119.888 109.295 119.823 109.279C117.333 108.658 113.457 108.01 113.418 108.003C113.319 107.989 113.223 107.957 113.137 107.908C113.052 107.86 112.977 107.796 112.919 107.721C112.861 107.646 112.819 107.561 112.797 107.471C112.775 107.381 112.773 107.288 112.791 107.198C112.81 107.107 112.847 107.021 112.902 106.943C112.958 106.866 113.029 106.8 113.113 106.749C113.196 106.697 113.29 106.662 113.389 106.644C113.488 106.626 113.59 106.627 113.688 106.646C113.85 106.673 117.663 107.31 120.22 107.947C120.396 107.991 120.549 108.092 120.651 108.231C120.752 108.371 120.794 108.539 120.77 108.705C120.746 108.871 120.656 109.023 120.519 109.133C120.381 109.243 120.204 109.303 120.022 109.303Z" fill="#D6201E"/>
<path d="M133.574 143.44H133.539C119.574 142.861 105.66 137.42 104.907 132.244C104.671 130.617 104.501 129.804 104.395 129.401C104.254 129.339 104.139 129.237 104.067 129.111C103.994 128.984 103.968 128.84 103.992 128.698C104.002 128.495 104.095 128.303 104.253 128.161C104.41 128.018 104.621 127.935 104.843 127.928H104.851C105.611 127.936 105.863 128.342 106.404 132.063C106.988 136.08 119.655 141.483 133.608 142.062C133.808 142.066 133.998 142.142 134.136 142.274C134.275 142.407 134.35 142.584 134.345 142.767C134.341 142.95 134.257 143.124 134.113 143.25C133.968 143.377 133.774 143.446 133.574 143.442V143.44Z" fill="#D6201E"/>
<path d="M108.539 131.225C108.482 131.225 108.426 131.219 108.371 131.208C108.274 131.188 108.183 131.15 108.102 131.098C108.02 131.045 107.951 130.979 107.899 130.902C107.846 130.825 107.81 130.739 107.793 130.649C107.777 130.56 107.78 130.468 107.802 130.379C107.835 130.246 111.135 116.94 114.215 107.369C114.272 107.194 114.403 107.046 114.579 106.959C114.754 106.871 114.961 106.851 115.153 106.903C115.345 106.955 115.506 107.075 115.602 107.235C115.697 107.396 115.719 107.585 115.663 107.761C112.592 117.288 109.303 130.551 109.27 130.684C109.233 130.836 109.14 130.973 109.008 131.071C108.875 131.17 108.709 131.224 108.539 131.225Z" fill="#D6201E"/>
<path d="M43.0728 102.33C43.0349 102.33 42.9971 102.327 42.9596 102.322C42.8615 102.309 42.7673 102.278 42.6823 102.231C42.5974 102.184 42.5233 102.123 42.4644 102.05C42.4054 101.977 42.3628 101.894 42.3389 101.806C42.315 101.718 42.3103 101.626 42.3251 101.537C42.4005 101.061 44.2664 89.816 46.8226 84.5539C48.4087 81.211 49.671 77.7472 50.595 74.2024C50.6384 74.0236 50.7575 73.868 50.9263 73.7696C51.0951 73.6712 51.2998 73.6382 51.4952 73.6779C51.6906 73.7175 51.8607 73.8265 51.9683 73.9809C52.0758 74.1353 52.1119 74.3224 52.0686 74.5012C51.1281 78.1377 49.834 81.69 48.2018 85.1157C45.7278 90.2066 43.8363 101.629 43.8175 101.743C43.7904 101.906 43.7004 102.055 43.5638 102.163C43.4272 102.27 43.253 102.329 43.0728 102.33Z" fill="#D6201E"/>
<path d="M31.5711 63.0663C29.3182 63.0632 27.0679 62.9295 24.8335 62.6661C24.635 62.643 24.4546 62.5487 24.3321 62.404C24.2096 62.2594 24.1549 62.0761 24.1801 61.8945C24.2075 61.7139 24.3112 61.5503 24.4688 61.4386C24.6264 61.3269 24.8255 61.276 25.0236 61.2969C30.2376 61.9672 35.5393 61.8037 40.6921 60.8138C39.0079 60.3019 37.2382 60.0655 35.4643 60.1154C31.1342 60.3018 24.7995 56.7643 24.5317 56.6125C24.3677 56.5136 24.2524 56.3602 24.2101 56.1848C24.1679 56.0094 24.2021 55.8259 24.3054 55.6732C24.4087 55.5204 24.573 55.4106 24.7635 55.3669C24.954 55.3232 25.1555 55.3492 25.3254 55.4393C25.3865 55.4738 31.5356 58.9098 35.3858 58.7373C39.0534 58.5606 43.397 60.0547 43.7924 60.6965C43.8615 60.811 43.8952 60.9406 43.8898 61.0714C43.8843 61.2021 43.8399 61.329 43.7614 61.4383C43.6761 61.5399 43.565 61.621 43.4378 61.6744C43.3105 61.7278 43.1709 61.7519 43.0311 61.7448C42.9119 61.7572 42.558 61.8345 42.2147 61.909C38.7328 62.6958 35.1576 63.0846 31.5711 63.0663Z" fill="#D6201E"/>
<path d="M50.1169 48.2339C49.9751 48.2339 49.8362 48.1973 49.7161 48.1283C49.596 48.0593 49.4995 47.9608 49.4379 47.844C49.4197 47.8095 47.5358 44.3093 44.3277 42.9222C40.6858 41.346 36.567 35.8548 36.3934 35.6223C36.3344 35.5475 36.2923 35.4627 36.2697 35.3728C36.2471 35.2829 36.2444 35.1898 36.2618 35.099C36.2792 35.0082 36.3163 34.9214 36.371 34.8439C36.4256 34.7665 36.4967 34.6998 36.58 34.6478C36.6634 34.5959 36.7572 34.5597 36.856 34.5415C36.9549 34.5233 37.0567 34.5234 37.1555 34.5418C37.2543 34.5602 37.3481 34.5966 37.4313 34.6487C37.5145 34.7008 37.5854 34.7676 37.6399 34.8452C37.6799 34.899 41.7013 40.2584 44.9728 41.6772C48.6698 43.2769 50.7122 47.0863 50.7967 47.2471C50.8834 47.4117 50.8952 47.6011 50.8294 47.7737C50.7636 47.9463 50.6257 48.088 50.4459 48.1677C50.3433 48.2127 50.2307 48.2353 50.1169 48.2339Z" fill="#D6201E"/>
<path d="M85.1618 88.339C85.1331 88.3391 85.1045 88.3361 85.0766 88.3301C85.0283 88.3199 84.9826 88.3011 84.9422 88.2748C84.9019 88.2485 84.8676 88.2151 84.8413 88.1767C84.815 88.1382 84.7973 88.0954 84.7891 88.0507C84.7809 88.006 84.7825 87.9602 84.7936 87.916C84.8118 87.8429 86.6112 80.6485 87.1371 76.993C87.958 71.2948 85.1679 69.3073 85.1392 69.288C85.0684 69.2308 85.0236 69.1513 85.0137 69.0653C85.0039 68.9793 85.0297 68.8931 85.086 68.8237C85.1424 68.7543 85.2252 68.7067 85.318 68.6905C85.4109 68.6742 85.507 68.6904 85.5874 68.7359C85.7179 68.8236 88.7691 70.9498 87.8856 77.0862C87.3574 80.7734 85.5466 88.0002 85.5293 88.072C85.51 88.1479 85.4632 88.2156 85.3965 88.2641C85.3298 88.3126 85.2471 88.339 85.1618 88.339Z" fill="#5B64AA"/>
<path d="M62.9116 77.9622L62.1616 77.8828C62.1616 77.8828 62.7479 73.2239 63.0534 70.9335C63.2203 69.5797 63.5753 68.2509 64.1097 66.9792C64.1283 66.9365 64.156 66.8977 64.1912 66.8649C64.2263 66.8322 64.2683 66.8062 64.3146 66.7884C64.361 66.7707 64.4107 66.7616 64.4609 66.7617C64.5111 66.7618 64.5608 66.771 64.607 66.7889C64.6533 66.8068 64.6952 66.8329 64.7302 66.8658C64.7653 66.8986 64.7928 66.9376 64.8112 66.9803C64.8296 67.023 64.8385 67.0687 64.8374 67.1146C64.8363 67.1605 64.8251 67.2057 64.8046 67.2476C64.2999 68.4614 63.962 69.7277 63.7989 71.0177C63.4971 73.3061 62.9116 77.9615 62.9116 77.9622Z" fill="#5B64AA"/>
<path d="M84.3347 154.469C80.0341 154.469 77.665 154.339 74.3905 154.16C70.179 153.929 64.4109 153.613 50.9311 153.422C50.832 153.42 50.7342 153.401 50.6433 153.365C50.5523 153.329 50.47 153.277 50.401 153.212C50.3321 153.147 50.2778 153.07 50.2413 152.986C50.2048 152.901 50.1868 152.811 50.1883 152.721C50.1899 152.63 50.2109 152.541 50.2502 152.458C50.2896 152.374 50.3464 152.299 50.4176 152.236C50.4887 152.173 50.5728 152.123 50.6649 152.09C50.757 152.056 50.8554 152.04 50.9545 152.041C64.4675 152.233 70.2552 152.551 74.4811 152.783C77.7299 152.961 80.0764 153.089 84.3347 153.089C89.2664 153.021 94.1886 152.67 99.0722 152.039C103.053 151.532 107.06 151.209 111.076 151.072C119.842 150.896 126.392 151.072 126.459 151.072C126.558 151.075 126.655 151.096 126.746 151.133C126.836 151.17 126.918 151.224 126.986 151.29C127.053 151.356 127.106 151.433 127.141 151.518C127.177 151.603 127.193 151.693 127.19 151.784C127.18 151.966 127.093 152.137 126.948 152.261C126.803 152.386 126.612 152.454 126.413 152.453C126.348 152.453 119.834 152.275 111.109 152.453C107.143 152.589 103.186 152.907 99.2548 153.408C94.3107 154.048 89.3275 154.402 84.3347 154.469Z" fill="#D6201E"/>
<path d="M124.694 66.7467C124.461 66.743 124.234 66.6796 124.038 66.5639C123.843 66.4481 123.686 66.2846 123.587 66.0918C122.643 64.6426 122.342 64.5094 120.359 64.6992C118.569 64.8697 117.924 63.6875 117.498 62.9049C117.399 62.6851 117.264 62.4801 117.098 62.2969C116.764 62.0285 115.882 62.2921 115.507 62.4612L115.173 61.8401C115.336 61.7649 116.794 61.1355 117.594 61.7711C117.843 62.0103 118.04 62.2903 118.175 62.5964C118.586 63.3556 119.01 64.1299 120.282 64.0132C122.545 63.7945 123.142 64.0533 124.236 65.7385C124.527 66.1857 124.8 66.1395 125.661 65.7295C126.314 65.4162 127.302 64.9469 127.972 65.8951L127.339 66.2699C127.077 65.9 126.821 65.9552 126.009 66.3389C125.611 66.5661 125.161 66.7058 124.694 66.7467Z" fill="#FC312F"/>
<path d="M138.539 42.5248C138.306 42.521 138.079 42.4576 137.883 42.3419C137.687 42.2261 137.531 42.0626 137.432 41.8698C136.488 40.4206 136.187 40.2874 134.204 40.4772C132.414 40.6476 131.769 39.4655 131.343 38.6829C131.244 38.463 131.109 38.2581 130.943 38.0749C130.608 37.8065 129.727 38.0701 129.352 38.2392L129.018 37.618C129.181 37.5428 130.639 36.9135 131.439 37.5491C131.688 37.7883 131.885 38.0683 132.02 38.3744C132.43 39.1335 132.854 39.9079 134.126 39.7912C136.39 39.5725 136.987 39.8312 138.081 41.5165C138.372 41.9637 138.645 41.9175 139.505 41.5075C140.159 41.1942 141.147 40.7249 141.817 41.6732L141.183 42.0479C140.922 41.678 140.666 41.7332 139.854 42.1169C139.456 42.3442 139.006 42.4838 138.539 42.5248Z" fill="#3A427F"/>
<path d="M142.311 46.6653C142.079 46.6615 141.851 46.5981 141.656 46.4824C141.46 46.3666 141.304 46.2031 141.205 46.0103C140.261 44.5611 139.96 44.4279 137.977 44.6177C136.187 44.7881 135.541 43.606 135.116 42.8234C135.016 42.6035 134.881 42.3986 134.715 42.2154C134.381 41.947 133.5 42.2106 133.125 42.3797L132.791 41.7585C132.953 41.6833 134.412 41.054 135.212 41.6896C135.46 41.9288 135.658 42.2088 135.793 42.5149C136.203 43.274 136.627 44.0484 137.899 43.9317C140.163 43.713 140.759 43.9718 141.853 45.657C142.145 46.1042 142.418 46.058 143.278 45.648C143.931 45.3347 144.92 44.8654 145.59 45.8137L144.956 46.1884C144.695 45.8185 144.438 45.8737 143.627 46.2574C143.229 46.4847 142.778 46.6243 142.311 46.6653Z" fill="#BBC1EE"/>
<path d="M49.9831 19.7459C49.8336 19.7441 49.685 19.7232 49.5417 19.6838L49.7507 19.0206C50.2117 19.14 50.3672 18.9482 50.7022 18.1684C50.9858 17.5093 51.4121 16.5121 52.7099 16.9048C54.4641 17.4355 54.784 17.352 56.1443 16.0187C57.3741 14.8131 58.7096 15.321 59.5908 15.6571C59.8236 15.7633 60.0727 15.8369 60.3295 15.8752C60.7746 15.8752 61.25 15.1492 61.4114 14.7965L62.1078 15.0629C62.0369 15.2168 61.3895 16.5653 60.3302 16.5653C59.9724 16.5345 59.624 16.4425 59.3034 16.294C58.4515 15.9704 57.568 15.6364 56.6989 16.4893C55.1416 18.0165 54.5108 18.1753 52.4737 17.5604C51.9327 17.3961 51.76 17.5956 51.4053 18.4216C51.1715 18.9633 50.8349 19.7459 49.9831 19.7459Z" fill="#FC312F"/>
<path d="M32.7336 109.676C32.4473 109.686 32.166 109.606 31.9377 109.447C31.7095 109.289 31.5486 109.063 31.4826 108.808C30.8723 107.214 30.6052 107.031 28.6194 106.858C26.8252 106.703 26.4517 105.425 26.205 104.581C26.1549 104.347 26.0669 104.122 25.9439 103.912C25.6753 103.592 24.7526 103.688 24.3489 103.786L24.155 103.118C24.3323 103.077 25.8972 102.722 26.5422 103.493C26.734 103.771 26.8669 104.08 26.9338 104.403C27.1722 105.218 27.4197 106.059 28.6918 106.171C30.9636 106.369 31.4834 106.729 32.1956 108.58C32.3835 109.071 32.6612 109.075 33.5922 108.829C34.3014 108.641 35.372 108.359 35.8232 109.409L35.1208 109.662C34.945 109.254 34.6824 109.26 33.802 109.492C33.4567 109.598 33.0972 109.66 32.7336 109.676Z" fill="white"/>
<path d="M118.514 145.261C118.292 145.256 118.075 145.197 117.886 145.09C117.697 144.984 117.542 144.834 117.436 144.655C116.417 143.246 116.109 143.13 114.138 143.408C112.355 143.662 111.648 142.506 111.185 141.742C111.074 141.527 110.929 141.328 110.753 141.152C110.406 140.902 109.539 141.203 109.168 141.388L108.802 140.785C108.962 140.703 110.387 140.01 111.217 140.611C111.477 140.838 111.688 141.107 111.84 141.406C112.293 142.142 112.757 142.9 114.019 142.726C116.275 142.407 116.878 142.64 118.062 144.274C118.375 144.708 118.647 144.649 119.483 144.205C120.119 143.864 121.083 143.35 121.801 144.267L121.188 144.669C120.908 144.314 120.655 144.378 119.864 144.801C119.464 145.056 119 145.215 118.514 145.261Z" fill="white"/>
<path d="M47.4419 24.2537C47.3637 24.2534 47.2856 24.2486 47.208 24.2392L47.3061 23.5546C47.7799 23.6161 47.9029 23.3987 48.1066 22.5816C48.2779 21.8915 48.5374 20.8494 49.8827 21.0558C51.704 21.3408 52.0073 21.2131 53.1315 19.7059C54.1486 18.3444 55.5504 18.6625 56.4792 18.8723C56.7271 18.9441 56.985 18.9827 57.245 18.9869C57.6849 18.9261 58.0365 18.1415 58.1368 17.7709L58.8694 17.9386C58.8257 18.1001 58.4069 19.5258 57.3605 19.6687C57.0027 19.6894 56.644 19.6465 56.3042 19.5424C55.4093 19.3402 54.4828 19.1283 53.7615 20.0945C52.4744 21.8197 51.8753 22.0626 49.7627 21.7355C49.1991 21.6479 49.0625 21.8735 48.8483 22.7341C48.6868 23.3497 48.465 24.2537 47.4419 24.2537Z" fill="#FFADAC"/>
<path d="M109.735 112.756C109.735 112.756 91.713 106.797 83.8942 109.845C76.0754 112.893 69.6344 120.753 70.8257 121.272C72.017 121.792 78.4068 117.261 78.4068 117.261C78.4068 117.261 71.8933 123.282 73.1012 123.886C74.3092 124.49 80.5858 121.274 80.5858 121.274C80.5858 121.274 76.2045 125.559 78.0862 125.886C79.9679 126.213 84.0021 122.684 88.2099 122.551C92.4177 122.418 97.7165 125.46 102.98 126.316C108.243 127.171 109.735 112.756 109.735 112.756Z" fill="#FFC4AC"/>
<path d="M136.933 109.668C136.886 109.669 136.839 109.665 136.792 109.657C136.74 109.648 131.435 108.73 125.088 107.55C124.989 107.533 124.894 107.499 124.81 107.449C124.726 107.399 124.653 107.334 124.597 107.258C124.54 107.182 124.501 107.096 124.481 107.006C124.461 106.915 124.462 106.823 124.482 106.732C124.502 106.642 124.542 106.557 124.598 106.481C124.655 106.405 124.728 106.34 124.813 106.29C124.897 106.24 124.992 106.206 125.091 106.191C125.19 106.175 125.292 106.177 125.39 106.198C131.724 107.375 137.022 108.291 137.075 108.301C137.259 108.333 137.423 108.427 137.536 108.564C137.648 108.701 137.701 108.872 137.683 109.042C137.666 109.213 137.58 109.372 137.441 109.487C137.303 109.603 137.122 109.668 136.935 109.668H136.933Z" fill="#D6201E"/>
<path d="M85.9312 39.4052C85.9312 39.4052 89.9926 47.7023 89.0186 48.2792C88.0445 48.8562 85.1465 48.8196 84.3505 48.2206C83.5545 47.6216 84.3354 38.5018 85.9312 39.4052Z" fill="#D39D87"/>
<path d="M77.9734 49.7589H77.8828C77.0244 49.7481 76.1767 49.5829 75.3882 49.2725C74.5996 48.9621 73.8856 48.5127 73.2869 47.95C72.6882 47.3872 72.2166 46.7221 71.899 45.9926C71.5813 45.2631 71.4239 44.4835 71.4357 43.6984C71.466 42.1291 72.1671 40.633 73.3886 39.5307C74.6102 38.4284 76.2551 37.8074 77.9711 37.8008H78.0616C79.7953 37.8115 81.4534 38.4517 82.671 39.5805C83.8886 40.7094 84.5661 42.2345 84.5544 43.8202C84.5427 45.4059 83.8428 46.9225 82.6086 48.0362C81.3744 49.1499 79.707 49.7696 77.9734 49.7589ZM77.9734 38.4902C76.4398 38.481 74.965 39.0295 73.8735 40.0149C72.782 41.0003 72.1632 42.3419 72.1532 43.7446C72.1432 45.1473 72.7428 46.4962 73.8202 47.4946C74.8975 48.4929 76.3643 49.0589 77.8979 49.0681H77.9779C79.5115 49.0772 80.9862 48.5288 82.0777 47.5434C83.1692 46.558 83.788 45.2164 83.798 43.8136C83.808 42.4109 83.2084 41.062 82.1311 40.0637C81.0537 39.0653 79.5869 38.4993 78.0533 38.4902H77.9734Z" fill="#FFFCF6"/>
<path d="M94.3047 48.5628H94.2134C92.4797 48.5521 90.8216 47.9118 89.604 46.783C88.3864 45.6541 87.7089 44.1291 87.7206 42.5433C87.7323 40.9576 88.4323 39.441 89.6664 38.3273C90.9006 37.2136 92.568 36.5939 94.3017 36.6046H94.393C95.2514 36.6153 96.0991 36.7806 96.8877 37.091C97.6763 37.4015 98.3902 37.8509 98.9889 38.4138C99.5875 38.9767 100.059 39.6419 100.377 40.3714C100.694 41.101 100.851 41.8806 100.839 42.6658C100.809 44.2349 100.108 45.7307 98.8864 46.8328C97.665 47.935 96.0204 48.556 94.3047 48.5628ZM94.3047 37.294C92.7711 37.2849 91.2963 37.8333 90.2048 38.8187C89.1133 39.8041 88.4945 41.1458 88.4845 42.5485C88.4745 43.9512 89.0741 45.3001 90.1515 46.2985C91.2288 47.2968 92.6956 47.8628 94.2292 47.872H94.31C95.8278 47.8664 97.2829 47.3172 98.3634 46.3421C99.4438 45.367 100.064 44.0436 100.09 42.6555C100.101 41.961 99.9614 41.2713 99.6805 40.626C99.3996 39.9807 98.9825 39.3923 98.4529 38.8945C97.9234 38.3966 97.2919 37.999 96.5943 37.7244C95.8968 37.4498 95.147 37.3036 94.3877 37.294H94.3047Z" fill="#FFFCF6"/>
<path d="M84.1256 43.8846C84.0255 43.8892 83.9276 43.8572 83.8533 43.7958C83.779 43.7343 83.7345 43.6484 83.7295 43.5569C83.7245 43.4654 83.7594 43.3758 83.8266 43.3079C83.8938 43.2399 83.9878 43.1992 84.0879 43.1946L88.1365 42.8165C88.1869 42.8098 88.2383 42.8124 88.2875 42.8244C88.3368 42.8363 88.3828 42.8573 88.423 42.8859C88.4632 42.9146 88.4965 42.9504 88.5211 42.9913C88.5458 43.0321 88.5611 43.077 88.5662 43.1233C88.5713 43.1697 88.5661 43.2165 88.5508 43.261C88.5356 43.3055 88.5107 43.3466 88.4776 43.3821C88.4445 43.4175 88.4039 43.4464 88.3582 43.4671C88.3125 43.4878 88.2628 43.4997 88.2119 43.5024L84.1633 43.8805L84.1256 43.8846Z" fill="#FFFCF6"/>
</svg>
