<svg width="68" height="68" viewBox="0 0 68 68" fill="none" xmlns="http://www.w3.org/2000/svg">
<path d="M0 34C0 15.2223 15.2223 0 34 0C52.7777 0 68 15.2223 68 34C68 42.7627 64.685 50.7512 59.2407 56.7799C53.0186 63.6699 44.015 52.6057 34 52.6057C23.985 52.6057 14.9814 63.6699 8.75912 56.7797C3.315 50.7512 0 42.7627 0 34Z" fill="#FF4A4A"/>
<path d="M49.5713 13.5714C45.3095 3.84877 33.9999 4.14799 33.9999 4.14799C33.9999 4.14799 22.6904 3.84877 18.4286 13.5714C14.1668 23.2941 8.43539 40.3718 17.1022 44.1732H50.8977C59.5645 40.3718 53.8332 23.2941 49.5713 13.5714Z" fill="#0A617D"/>
<path d="M50.8977 44.1734H34V4.14773C34 4.14773 45.309 3.8489 49.5709 13.5721C53.8329 23.294 59.5651 40.3723 50.8977 44.1734Z" fill="#08475E"/>
<path d="M26.5586 33.2339H41.4416V49.0173H26.5586V33.2339Z" fill="#EAA678"/>
<path d="M34 33.2345H41.4415V49.0179H34V33.2345Z" fill="#D38C5B"/>
<path d="M26.5586 43.1402H41.4416V59.2516H26.5586V43.1402Z" fill="#EAA678"/>
<path d="M34 43.1402H41.4415V59.2516H34V43.1402Z" fill="#D38C5B"/>
<path d="M59.2411 50.7702V56.78C53.0175 63.6703 44.0141 68 34.0001 68C23.986 68 14.9826 63.6703 8.75903 56.78V50.7702C8.75903 46.5561 12.175 43.1402 16.3891 43.1402H26.5586V44.795C26.5586 48.9055 29.8908 52.2365 34.0001 52.2365C36.0547 52.2365 37.9154 51.4037 39.2621 50.057C40.6088 48.7103 41.4415 46.8509 41.4415 44.795V43.1402H51.611C55.8251 43.1402 59.2411 46.5561 59.2411 50.7702Z" fill="#FFD845"/>
<path d="M59.241 50.7702V56.78C53.0174 63.6703 44.0141 68 34 68V52.2365C36.0546 52.2365 37.9153 51.4037 39.262 50.057C40.6087 48.7103 41.4415 46.8509 41.4415 44.795V43.1402H51.6109C55.8251 43.1402 59.241 46.5561 59.241 50.7702Z" fill="#FFB454"/>
<path d="M20.8955 55.7341V65.3796C19.412 64.7607 17.9803 64.0369 16.6123 63.2214V55.7341H20.8955Z" fill="#FFB454"/>
<path d="M51.3879 55.7341V63.2214C50.02 64.0369 48.5883 64.7607 47.1047 65.3796V55.7341H51.3879Z" fill="#FF936B"/>
<path d="M45.7209 20.2174C45.2258 12.7002 39.1452 9.92215 34.0001 9.92215C28.8549 9.92215 22.7743 12.7002 22.2792 20.2174C20.9487 20.4748 20.0036 22.2198 20.1524 23.6308L20.3804 26.8418C20.5365 28.3236 21.839 29.4052 23.2744 29.2442L23.522 29.2174C26.4623 37.1126 31.0733 37.9358 34.0001 38.3981C36.9268 37.9359 41.538 37.1127 44.4782 29.2174L44.7257 29.2442C46.161 29.4052 47.4635 28.3236 47.6197 26.8418L47.8478 23.6308C47.9965 22.2198 47.0514 20.4748 45.7209 20.2174Z" fill="#FFC397"/>
<path d="M47.8476 23.6308L47.6195 26.8418C47.4635 28.3236 46.161 29.4052 44.7256 29.2442L44.478 29.2174C43.4731 31.9126 42.2744 33.7846 41.0145 35.098C38.5852 37.6321 35.9279 38.0931 33.9998 38.3979V9.92215C39.1449 9.92215 45.2255 12.7002 45.7206 20.2174C47.0512 20.4748 47.9963 22.2198 47.8476 23.6308Z" fill="#E5A376"/>
<path d="M37.856 26.7287H30.1438C29.13 26.7287 28.1297 26.9604 27.2192 27.4064L23.5217 29.2174C25.5737 38.9469 34 38.8944 34 38.8944C34 38.8944 42.4263 38.9469 44.4782 29.2174L40.7807 27.4064C39.8701 26.9605 38.8698 26.7287 37.856 26.7287Z" fill="white"/>
<path d="M44.4776 29.2174C42.427 38.9473 34 38.8941 34 38.8941V26.7285H37.8555C38.8702 26.7285 39.8703 26.9609 40.7801 27.4059L44.4776 29.2174Z" fill="#D8F1FB"/>
<path d="M44.004 10.8384C42.4333 9.59504 38.6042 7.37321 34 7.37321C29.3958 7.37321 25.5667 9.59504 23.996 10.8384C20.8549 13.3252 22.2792 20.2174 22.2792 20.2174C31.0327 20.3972 34 14.3034 34 14.3034C34 14.3034 36.9673 20.3972 45.7208 20.2174C45.7208 20.2174 47.1451 13.3252 44.004 10.8384Z" fill="#0A617D"/>
<path d="M45.7207 20.2167C45.5932 20.2194 45.4657 20.2207 45.3409 20.2207C36.8807 20.2207 34 14.3039 34 14.3039V7.37375C38.6046 7.37375 42.4336 9.5957 44.0034 10.8388C47.1445 13.3251 45.7207 20.2167 45.7207 20.2167Z" fill="#08475E"/>
</svg>
