<svg width="132" height="128" viewBox="0 0 132 128" fill="none" xmlns="http://www.w3.org/2000/svg">
<path d="M65.9857 0.0654297C91.3789 0.0654297 107.021 13.8779 107.064 13.9011C107.064 13.9011 107.715 14.6839 107.836 15.2042C108.824 19.4334 109.747 25.1017 109.747 29.2378C109.747 64.3811 79.0152 92.8632 42.5721 92.8632C28.5389 92.8632 12.9256 86.3772 2.47624 78.5788C2.24258 78.4044 1.50093 77.2323 1.50093 77.2323C1.45487 76.9611 8.39233e-05 71.3739 8.39233e-05 63.6976C-0.000175476 28.5548 29.5426 0.0654297 65.9857 0.0654297Z" fill="#B1E4F9"/>
<path d="M42.5761 91.0684C79.0193 91.0684 108.562 62.5793 108.562 27.436C108.562 22.7908 108.043 18.2647 107.062 13.9025C122.238 25.5609 131.97 43.5345 131.97 63.6989C131.97 82.2527 123.735 98.9518 110.599 110.583L80.0357 125.886C75.5075 126.833 70.8062 127.331 65.9841 127.331C43.803 127.331 23.9821 116.719 11.9843 100.281L11.8301 98.5328L10.2247 97.7433C6.16148 91.5664 3.16573 84.6535 1.49899 77.2337C12.7709 85.8917 27.0456 91.0684 42.5761 91.0684Z" fill="#9DC6FB"/>
<path d="M93.3796 104.083V121.605C89.1527 123.467 84.6871 124.913 80.0381 125.886C79.3945 124.227 79.0426 122.43 79.0426 120.555V104.083H93.3796Z" fill="#F9A58E"/>
<path d="M110.6 110.581C105.491 115.105 99.6407 118.862 93.2445 121.663V118.057C93.2445 110.493 86.8858 104.361 79.0417 104.361V89.2991H110.6V110.581Z" fill="#DF9380"/>
<path d="M68.8534 1.90063C75.9941 1.90063 82.7151 3.63094 88.5928 6.67831V95.8672H48.0678C40.6326 90.8058 35.7761 82.4565 35.7761 73.0125V1.90063H68.8534Z" fill="#F9A58E"/>
<path d="M71.7476 2.44633C79.2177 2.23796 83.1365 4.63478 83.6884 4.40046C84.0005 4.26796 84.3783 4.37102 84.5124 4.67346C84.7553 5.22219 87.187 5.4892 92.3075 8.85099C103.452 16.1575 110.6 28.4764 110.6 42.1579V100.969H64.4679C57.566 100.969 51.9743 98.7096 47.4024 95.401L72.3684 95.4546C80.9758 95.4546 87.9532 88.7258 87.9532 80.4256V48.8138C87.9532 43.5518 83.6049 39.1839 78.1487 39.114C78.1102 39.1135 78.0714 39.1133 78.0328 39.113C77.9805 39.1128 77.9283 39.1128 77.876 39.1128H51.1142C45.6485 39.1128 40.4565 37.9816 35.7762 35.9499V3.03998C35.7762 3.03998 62.6125 2.70086 71.7476 2.44633Z" fill="#DF9380"/>
<path d="M105.379 0C113.095 0 119.351 6.0326 119.351 13.4738V13.5237C126.409 13.9425 132 19.5923 132 26.5042V64.9514C132 78.1365 120.916 88.825 107.243 88.825V64.3942C107.243 60.8655 106.573 57.488 105.35 54.3727C104.568 52.3824 101.493 52.9444 101.493 55.0727V64.7333C96.3932 64.7333 92.2591 60.7467 92.2591 55.8288V49.9971C92.2591 42.3864 85.9232 36.113 78.031 36.0731C77.9787 36.0728 77.9265 36.0726 77.8742 36.0726H51.1124C30.4531 36.0726 13.7056 19.9222 13.7056 0H105.379V0Z" fill="#664545"/>
<path d="M56.517 48.0249H64.6909C66.2389 48.0249 67.4939 46.8149 67.4939 45.3219C67.4939 43.8291 66.2391 42.6188 64.6909 42.6188H56.517C54.969 42.6188 53.714 43.8288 53.714 45.3219C53.714 46.8146 54.969 48.0249 56.517 48.0249Z" fill="#664545"/>
<path d="M35.4985 48.0249H41.3337C42.8817 48.0249 44.1367 46.8149 44.1367 45.3219C44.1367 43.8291 42.882 42.6188 41.3337 42.6188H35.4985C33.9506 42.6188 32.6956 43.8288 32.6956 45.3219C32.6958 46.8146 33.9506 48.0249 35.4985 48.0249Z" fill="#664545"/>
<path d="M63.4065 60.4717V62.6839C63.4065 64.1766 62.1515 65.3869 60.6035 65.3869C59.0556 65.3869 57.8005 64.1766 57.8005 62.6839V60.4717H63.4065Z" fill="#DF9380"/>
<path d="M60.604 50.4243C62.152 50.4243 63.407 51.6346 63.407 53.1273V60.5196H57.8013V53.1273C57.801 51.6346 59.056 50.4243 60.604 50.4243Z" fill="#373C41"/>
<path d="M58.8346 58.0391C58.2641 58.0391 57.8014 57.5929 57.8014 57.0427V54.0251C57.8014 53.4749 58.2641 53.0287 58.8346 53.0287C59.4052 53.0287 59.8679 53.4749 59.8679 54.0251V57.0427C59.8679 57.5931 59.4052 58.0391 58.8346 58.0391Z" fill="white"/>
<path d="M41.3772 60.4717V62.6839C41.3772 64.1766 40.1222 65.3869 38.5742 65.3869C37.0263 65.3869 35.7712 64.1766 35.7712 62.6839V60.4717H41.3772Z" fill="#DF9380"/>
<path d="M38.5742 50.4243C40.1222 50.4243 41.3772 51.6346 41.3772 53.1273V60.5196H35.7715V53.1273C35.7712 51.6346 37.0263 50.4243 38.5742 50.4243Z" fill="#373C41"/>
<path d="M36.8054 58.0391C36.2348 58.0391 35.7721 57.5929 35.7721 57.0427V54.0251C35.7721 53.4749 36.2348 53.0287 36.8054 53.0287C37.3759 53.0287 37.8386 53.4749 37.8386 54.0251V57.0427C37.8386 57.5931 37.3759 58.0391 36.8054 58.0391Z" fill="white"/>
<path d="M51.2885 66.1219C51.9853 68.805 50.7189 71.7279 48.2974 72.6087C47.8101 72.7859 47.2887 72.882 46.7471 72.882C46.2052 72.882 45.684 72.7859 45.1968 72.6087C42.7752 71.7279 41.5088 68.805 42.2057 66.1219L44.5157 57.2268C45.0972 54.9874 48.3972 54.9874 48.9789 57.2268L51.2885 66.1219Z" fill="#DF9380"/>
<path d="M101.493 58.6419L101.23 13.2009C101.23 5.9154 95.1061 0.00931514 87.5516 0.00756837H105.379C113.095 0.00731883 119.351 6.03991 119.351 13.4812V13.5311C126.409 13.9498 132 19.5996 132 26.5116V64.9587C132 78.1438 120.916 88.8323 107.243 88.8323V64.4015C107.243 60.8728 106.573 57.4953 105.35 54.38C104.568 52.3897 101.493 52.9514 101.493 55.08V58.6419H101.493Z" fill="#523838"/>
<path d="M114.894 60.6376C114.894 67.0577 110.038 72.3843 103.675 73.3882C102.532 73.5687 101.496 72.7077 101.496 71.5911V49.6841C101.496 48.5674 102.532 47.7065 103.675 47.8869C110.038 48.8905 114.894 54.2172 114.894 60.6376Z" fill="#DF9380"/>
<path d="M104.704 58.0939V56.4604C104.704 55.8607 105.284 55.425 105.891 55.5563C108.304 56.0778 110.107 58.1558 110.107 60.6402C110.107 63.4151 107.856 65.6766 105.019 65.8349C104.357 65.8995 103.633 65.763 102.912 65.3525C102.583 65.1653 102.306 64.8943 102.116 64.5747C101.052 62.7807 101.838 60.9578 103.303 60.2347C104.147 59.8179 104.704 59.0082 104.704 58.0939Z" fill="#F9A58E"/>
<path d="M104.241 72.0959L110.6 70.1088V91.7828H104.241V72.0959Z" fill="#DF9380"/>
<path d="M10.2263 97.7399L32.5092 76.2521L34.7046 78.3694L11.9857 100.278C11.3789 99.4468 10.7923 98.6004 10.2263 97.7399Z" fill="#63AFCB"/>
<path d="M26.6775 87.1151C27.5053 87.1151 28.3331 86.8107 28.9647 86.2015L39.1866 76.3445C40.4499 75.1265 40.4499 73.1514 39.1866 71.9331C37.9235 70.7148 35.8751 70.7148 34.6121 71.9331L24.3902 81.7902C23.1269 83.0082 23.1269 84.9833 24.3902 86.2015C25.0216 86.8107 25.8494 87.1151 26.6775 87.1151Z" fill="white"/>
<path d="M58.8335 84.9765C57.1071 84.9765 55.7076 83.1713 55.7076 80.9445C55.7076 78.7177 57.1071 76.9125 58.8335 76.9125C60.5599 76.9125 61.9595 78.7177 61.9595 80.9445C61.9595 83.1713 60.5599 84.9765 58.8335 84.9765Z" fill="#373C41"/>
</svg>
