<svg width="68" height="68" viewBox="0 0 68 68" fill="none" xmlns="http://www.w3.org/2000/svg">
<circle cx="34" cy="34" r="34" fill="#9E1F63"/>
<path d="M53.3962 42.444C53.0327 42.4549 52.7525 42.7719 52.7525 43.1355V45.8064H15.7898V43.1355C15.7898 42.772 15.5097 42.4549 15.1463 42.4439C14.7703 42.4327 14.4619 42.7341 14.4619 43.1076V49.8077C14.4619 50.1712 14.7421 50.4883 15.1054 50.4992C15.4815 50.5105 15.7898 50.2091 15.7898 49.8355V47.1343H52.7525V49.8077C52.7525 50.1713 53.0327 50.4883 53.3962 50.4991C53.7722 50.5104 54.0805 50.2089 54.0805 49.8354V43.1075C54.0805 42.7341 53.7722 42.4328 53.3962 42.444Z" fill="#E0DFE1"/>
<path fill-rule="evenodd" clip-rule="evenodd" d="M22.2975 31.5241L15.7732 29.4865L14.8899 35.745L23.4569 34.0085C23.7706 33.0198 23.2737 31.9281 22.2975 31.5241Z" fill="#EDF4FF"/>
<path fill-rule="evenodd" clip-rule="evenodd" d="M23.4568 34.0085C23.7705 33.0198 23.2736 31.9281 22.2975 31.5241L19.4695 30.6408C20.4456 31.0448 20.9425 33.0197 20.6288 34.0085H23.4568Z" fill="#DBEAFF"/>
<path fill-rule="evenodd" clip-rule="evenodd" d="M32.8094 34.0085H27.251H17.8008H15.7731L14.1797 38.2419L15.7731 40.9295L32.8094 39.336L34.2711 36.4552L32.8094 34.0085Z" fill="#C3DDFF"/>
<path fill-rule="evenodd" clip-rule="evenodd" d="M32.8093 39.336H15.7731V34.0085V29.4865V25.6231C15.7731 24.6453 15.0466 23.7967 14.0733 23.7013C12.9538 23.5917 12.0015 24.4784 12.0015 25.5792V42.8422C12.0015 42.9889 12.1204 43.1078 12.2671 43.1078H15.1257H32.8093L34.271 41.222L32.8093 39.336Z" fill="#F9F7F8"/>
<path fill-rule="evenodd" clip-rule="evenodd" d="M52.0889 39.336V29.8026H36.1719C34.3225 29.8026 32.8093 31.3158 32.8093 33.1652V34.0085V39.336V43.1077H52.0889V39.336Z" fill="#B3E59F"/>
<path fill-rule="evenodd" clip-rule="evenodd" d="M55.8603 42.8422V29.8491C55.8603 28.8712 55.1338 28.0226 54.1605 27.9272C53.041 27.8175 52.0887 28.7044 52.0887 29.8026L49.3748 39.336L52.0887 43.1077H53.4162H55.5947C55.7414 43.1077 55.8603 42.9888 55.8603 42.8422Z" fill="#F9F7F8"/>
<path fill-rule="evenodd" clip-rule="evenodd" d="M29.3713 34.0085H32.8092V39.336H29.3713V34.0085Z" fill="#A4CCFF"/>
<path fill-rule="evenodd" clip-rule="evenodd" d="M29.3713 39.336H32.8092V43.1077H29.3713V39.336Z" fill="#F0F0F0"/>
<path fill-rule="evenodd" clip-rule="evenodd" d="M52.0889 39.336V34.0085V29.8026H48.9722V34.0085V39.336V43.1077H52.0889V39.336Z" fill="#95D6A4"/>
<path fill-rule="evenodd" clip-rule="evenodd" d="M15.7731 34.0085V29.4865V25.6256C15.7731 24.6263 15.0151 23.7658 14.0181 23.6967C13.6408 23.6705 13.2822 23.7573 12.9751 23.928C13.5547 24.2517 13.9488 24.8715 13.9488 25.5792V29.4865V34.0085V39.336H14.8271H15.7731V35.5643V34.0085Z" fill="#F0F0F0"/>
<path fill-rule="evenodd" clip-rule="evenodd" d="M36.0438 25.9983C39.9283 23.9356 41.4038 19.1149 39.3411 15.2303C38.2671 13.2052 36.4377 11.8325 34.3851 11.2779C33.0476 10.9166 31.6122 10.9015 30.227 11.2779C29.6649 11.431 29.1103 11.6469 28.5733 11.9329C24.6913 13.9956 23.2133 18.8163 25.276 22.7009C27.3387 26.5855 32.1593 28.0611 36.0438 25.9983Z" fill="#FAF5DC"/>
<path fill-rule="evenodd" clip-rule="evenodd" d="M36.6789 18.3369C36.6789 17.8621 36.2905 17.4737 35.8157 17.4737H33.8007V15.4586C33.8007 14.9838 33.4122 14.5954 32.9374 14.5954H31.6803C31.2068 14.5954 30.8195 14.9827 30.8195 15.4561V17.4737H28.802C28.3272 17.4737 27.9387 17.8621 27.9387 18.3369V19.5942C27.9387 20.069 28.3272 20.4574 28.802 20.4574H30.8195V22.4725C30.8195 22.9473 31.208 23.3357 31.6828 23.3357H32.9374C33.4122 23.3357 33.8007 22.9473 33.8007 22.4725V20.4574H35.8157C36.2906 20.4574 36.679 20.069 36.679 19.5942V18.3369H36.6789Z" fill="#FF8086"/>
<path fill-rule="evenodd" clip-rule="evenodd" d="M36.0439 25.9983C39.9284 23.9356 41.4039 19.1149 39.3412 15.2303C38.2672 13.2052 36.4378 11.8325 34.3852 11.2779C33.3488 10.9968 32.2547 10.9241 31.1682 11.0822C31.4894 11.1274 31.8056 11.1926 32.1168 11.2779C34.1695 11.8325 35.9963 13.2052 37.0728 15.2303C39.1355 19.1149 37.66 23.9356 33.7755 25.9983C32.9398 26.4425 32.0641 26.7211 31.1808 26.849C32.7942 27.0823 34.4931 26.8214 36.0439 25.9983Z" fill="#F5EBCD"/>
<path fill-rule="evenodd" clip-rule="evenodd" d="M17.7078 52.4178C17.7078 50.9924 16.551 49.8355 15.1256 49.8355C13.6978 49.8355 12.5435 50.9924 12.5435 52.4178C12.5435 53.8431 13.6978 55 15.1256 55C16.5509 55 17.7078 53.8431 17.7078 52.4178Z" fill="#7E707D"/>
<path fill-rule="evenodd" clip-rule="evenodd" d="M55.9983 52.4077C55.9907 50.9848 54.8364 49.8355 53.4161 49.8355C51.9883 49.8355 50.834 50.9924 50.834 52.4178C50.834 53.8431 51.9883 55 53.4161 55C54.8364 55 55.9907 53.8507 55.9983 52.4303V52.4178V52.4077Z" fill="#7E707D"/>
<path fill-rule="evenodd" clip-rule="evenodd" d="M55.9984 52.4077C55.9909 50.9848 54.8366 49.8355 53.4163 49.8355C53.1001 49.8355 52.7965 49.8933 52.5154 49.9961C53.494 50.36 54.1942 51.301 54.1992 52.4077V52.4178V52.4303C54.1942 53.5344 53.494 54.4755 52.5154 54.8394C52.7964 54.9448 53.1001 55 53.4163 55C54.8366 55 55.9909 53.8507 55.9984 52.4303V52.4178V52.4077Z" fill="#6A5D6A"/>
<path fill-rule="evenodd" clip-rule="evenodd" d="M15.1257 55C16.6265 55 17.8295 53.7176 17.698 52.1896C17.5996 51.0453 16.7346 50.0893 15.6053 49.8799C15.117 49.7894 14.6456 49.8422 14.2249 49.9962C15.2085 50.3626 15.9086 51.3086 15.9086 52.4178C15.9086 53.527 15.2085 54.4756 14.2249 54.8395C14.5059 54.9448 14.8095 55 15.1257 55Z" fill="#6A5D6A"/>
<path fill-rule="evenodd" clip-rule="evenodd" d="M55.8604 42.8422V29.8499C55.8604 28.865 55.1237 28.0123 54.1426 27.9256C53.718 27.888 53.3179 27.9934 52.9846 28.1991C53.5241 28.5329 53.883 29.1276 53.883 29.8026V43.1077H55.5948C55.7416 43.1077 55.8604 42.9888 55.8604 42.8422Z" fill="#F0F0F0"/>
</svg>
