<svg width="68" height="68" viewBox="0 0 68 68" fill="none" xmlns="http://www.w3.org/2000/svg">
<g clip-path="url(#clip0)">
<path d="M60.4298 50.3899H52.5229V51.8064H59.6329L59.8473 51.6973C60.0979 51.3114 60.3399 50.9196 60.5743 50.5227L60.4298 50.3899Z" fill="#FE99A0"/>
<path d="M52.5229 47.0792H62.1564L62.3984 46.9464C62.5731 46.5439 62.7402 46.1373 62.8991 45.7265L62.6876 45.5937H52.5229V47.0792Z" fill="#FE99A0"/>
<path d="M4.93401 17.7277L12.6699 39.8428C12.8747 40.428 13.4288 40.8212 14.0489 40.8212H39.7557L39.7933 40.7514C40.1171 40.1491 40.5256 39.5994 41.0075 39.1175L48.1128 32.0121C48.4592 31.6658 48.9197 31.475 49.4096 31.475C49.8995 31.475 50.3599 31.6658 50.7064 32.0121C51.4214 32.7271 51.4214 33.8906 50.7064 34.6055L48.5644 36.7476C48.3822 36.9297 48.2204 37.1352 48.0837 37.3583L47.9598 37.5604H61.9621C62.419 37.5604 62.8445 37.7425 63.1601 38.0732C63.4754 38.4038 63.6373 38.8381 63.6156 39.296C63.5742 40.1792 62.8257 40.8712 61.9116 40.8712H52.5233V42.2829H63.8828L64.0489 42.15C64.7206 39.5455 65.0782 36.8144 65.0782 34C65.0782 16.0291 50.5099 1.46094 32.5391 1.46094C20.8115 1.46094 10.5343 7.6662 4.80811 16.9716C4.8085 16.9708 4.80904 16.9701 4.80943 16.9695L4.93401 17.7277Z" fill="#FE99A0"/>
<path d="M36.1077 31.0489L31.7802 26.7213L31.5249 26.6537L24.9047 33.2739C24.6454 33.5333 24.6454 33.9536 24.9047 34.213L28.6167 37.925C28.8761 38.1844 29.2965 38.1844 29.5558 37.925L36.1761 31.3047L36.1077 31.0489Z" fill="white"/>
<path d="M41.8416 16.3371L33.9797 24.199L34.0448 24.4518L38.3773 28.7843L38.6308 28.8501L46.4927 20.9882L41.8416 16.3371Z" fill="white"/>
<path d="M45.9502 55.1172C43.5692 55.1172 41.3741 53.9208 40.078 51.9171L40.0387 51.8564H5.7109L5.4231 51.9892C11.2522 60.7581 21.2202 66.5391 32.539 66.5391C42.3877 66.5391 51.2139 62.1632 57.1809 55.25L56.9563 55.1172H45.9502Z" fill="#FE99A0"/>
<path d="M29.8798 9.57804L29.789 9.44855L15.425 23.8122L15.5545 23.9031C17.2919 25.1216 19.3301 25.7656 21.4492 25.7656C27.1248 25.7656 31.7421 21.1481 31.7421 15.4727C31.7421 13.3539 31.0981 11.3156 29.8798 9.57804Z" fill="white"/>
<path d="M13.5684 22.0842L13.6616 22.1951L28.1715 7.68493L28.0608 7.59183C26.2095 6.03633 23.8616 5.17969 21.4492 5.17969C15.7736 5.17969 11.1562 9.79718 11.1562 15.4727C11.1562 17.8849 12.0129 20.2331 13.5684 22.0842Z" fill="white"/>
<path d="M15.5545 23.9032C17.2919 25.1216 19.3301 25.7656 21.4492 25.7656C21.5184 25.7656 21.5866 25.7618 21.6554 25.7604C19.8921 24.884 18.3858 23.5693 17.2803 21.9572L15.425 23.8125L15.5545 23.9032Z" fill="#F8F6F6"/>
<path d="M13.5684 22.0842L13.6616 22.1951L16.1001 19.7567C15.5672 18.4329 15.2734 16.9873 15.2734 15.4727C15.2734 10.9625 17.8744 7.06363 21.6567 5.18434C21.5876 5.18287 21.5185 5.17969 21.4492 5.17969C15.7736 5.17969 11.1562 9.79718 11.1562 15.4727C11.1562 17.8849 12.0129 20.2331 13.5684 22.0842Z" fill="#F8F6F6"/>
<path d="M66.1613 42.1502H52.6556V41.004H61.9113C62.8742 41.004 63.7027 40.2641 63.748 39.3023C63.7963 38.2754 62.9781 37.4276 61.9619 37.4276H48.0407C47.7509 37.926 47.5958 38.4939 47.5958 39.0857V39.522C47.5958 42.5056 45.177 44.9244 42.1933 44.9244H39.824C39.3469 44.9244 38.9599 44.5372 38.9599 44.0602C38.9599 42.8614 39.2611 41.7095 39.8252 40.6884H14.0489C13.4845 40.6884 12.9816 40.3317 12.7953 39.7989L4.80941 16.9695C1.76016 21.9235 0 27.756 0 34C0 40.6517 1.9975 46.8361 5.42313 51.9892H39.9665C41.2352 53.9507 43.4403 55.25 45.9502 55.25H59.5207C60.4836 55.25 61.3121 54.51 61.3574 53.5483C61.4057 52.5214 60.5875 51.6738 59.5712 51.6738H52.6556V50.5228H63.7771C64.74 50.5228 65.5685 49.7828 65.6138 48.8211C65.6621 47.7942 64.8438 46.9466 63.8276 46.9466H52.6556V45.7267H66.2118C67.2281 45.7267 68.0462 44.8789 67.998 43.852C67.9527 42.8901 67.1242 42.1502 66.1613 42.1502Z" fill="#FED2A4"/>
<path d="M47.8096 52.4609C45.6421 52.4609 43.702 51.4919 42.3959 49.9643C41.9859 49.4848 41.3933 49.2001 40.7624 49.2001H11.2393C10.4963 49.2001 9.80767 48.8125 9.41973 48.1788C6.39386 43.2383 4.64844 37.4288 4.64844 31.211C4.64844 27.6793 5.21196 24.2796 6.25281 21.0958L4.80941 16.9695C1.76016 21.9235 0 27.756 0 34C0 40.6517 1.9975 46.8361 5.42313 51.9892H39.9665C41.2352 53.9507 43.4403 55.25 45.9502 55.25H59.5207C60.4464 55.25 61.2572 54.5674 61.3501 53.6464C61.3946 53.205 61.2765 52.7936 61.0511 52.4609H47.8096Z" fill="#FFBD86"/>
<path d="M47.7284 39.522V39.0857C47.7284 38.2439 48.0628 37.4367 48.658 36.8414L50.8 34.6994C51.568 33.9314 51.568 32.6862 50.8 31.9182C50.0319 31.1501 48.7868 31.1501 48.0187 31.9182L40.9133 39.0236C39.5774 40.3595 38.8269 42.1713 38.8269 44.0604C38.8269 44.6109 39.2732 45.0573 39.8238 45.0573H42.193C45.2501 45.0572 47.7284 42.579 47.7284 39.522Z" fill="#FFE5C2"/>
<path d="M23.9307 37.5834L17.3461 44.168C17.0868 44.4274 17.0868 44.8477 17.3461 45.1071L17.7225 45.4835C17.9819 45.7429 18.4023 45.7429 18.6617 45.4835L25.2462 38.8989L23.9307 37.5834Z" fill="#868686"/>
<path d="M25.3042 34.4247L23.4138 36.3152C23.1544 36.5746 23.1544 36.9949 23.4138 37.2543L25.5754 39.416C25.8348 39.6753 26.2552 39.6753 26.5145 39.416L28.405 37.5255L25.3042 34.4247Z" fill="#0182FC"/>
<path d="M25.4289 37.2543C25.1696 36.9949 25.1696 36.5746 25.4289 36.3152L26.3117 35.4324L25.3042 34.4249L23.4138 36.3153C23.1544 36.5747 23.1544 36.9951 23.4138 37.2544L25.5754 39.4161C25.8348 39.6755 26.2552 39.6755 26.5145 39.4161L27.0526 38.8781L25.4289 37.2543Z" fill="#0172FB"/>
<path d="M26.6589 33.274C26.3995 33.5334 26.3995 33.9539 26.6589 34.2132L28.6168 36.1711C28.8762 36.4305 29.2965 36.4305 29.5559 36.1711L35.3868 30.3401L32.4898 27.443L26.6589 33.274Z" fill="#22B27F"/>
<path d="M33.867 28.8203L32.4897 27.443L26.6589 33.2739C26.3995 33.5333 26.3995 33.9538 26.6589 34.213L28.6168 36.1709C28.8762 36.4303 29.2965 36.4303 29.5559 36.1709L30.4636 35.2633L29.4133 34.2132C29.1539 33.9538 29.1539 33.5333 29.4133 33.274L33.867 28.8203Z" fill="#09A76D"/>
<path d="M45.3315 15.3027L48.2892 12.3451L50.4815 14.5375L47.5239 17.4951L45.3315 15.3027Z" fill="#60B7FF"/>
<path d="M35.1091 25.5234L43.0638 17.5688L45.2561 19.7611L37.3015 27.7157L35.1091 25.5234Z" fill="#60B7FF"/>
<path d="M47.4795 22.1629L40.6667 15.3502C40.4073 15.0908 40.4073 14.6705 40.6667 14.4111L42.1824 12.8954C42.4418 12.636 42.8621 12.636 43.1215 12.8954L49.9343 19.7082C50.1937 19.9675 50.1937 20.3879 49.9343 20.6473L48.4186 22.1629C48.1594 22.4222 47.7389 22.4222 47.4795 22.1629Z" fill="#0182FC"/>
<path d="M43.3972 15.3502C43.1378 15.0908 43.1378 14.6705 43.3972 14.4111L44.0172 13.7911L43.1215 12.8954C42.8621 12.636 42.4418 12.636 42.1824 12.8954L40.6667 14.4111C40.4073 14.6705 40.4073 15.0908 40.6667 15.3502L47.4795 22.1629C47.7389 22.4223 48.1592 22.4223 48.4186 22.1629L49.3143 21.2673L43.3972 15.3502Z" fill="#0172FB"/>
<path d="M31.5188 26.6548L33.9732 24.2004L38.6236 28.8508L36.1692 31.3052L31.5188 26.6548Z" fill="#868686"/>
<path d="M34.7352 26.1841L35.35 25.5692L33.9797 24.1988L31.5249 26.6536L36.176 31.3047L37.5463 29.9343L34.7351 27.1231C34.476 26.864 34.476 26.4435 34.7352 26.1841Z" fill="#5A5A5A"/>
<path d="M51.6712 15.9043L46.9255 11.1586C46.6661 10.8992 46.6661 10.4789 46.9255 10.2195L48.4412 8.70386C48.7005 8.44448 49.1209 8.44448 49.3803 8.70386L54.126 13.4495C54.3854 13.7089 54.3854 14.1292 54.126 14.3886L52.6103 15.9043C52.3509 16.1637 51.9304 16.1637 51.6712 15.9043Z" fill="#0182FC"/>
<path d="M49.7146 11.1588C49.4552 10.8994 49.4552 10.4789 49.7146 10.2196L50.3053 9.62903L49.3803 8.70412C49.1209 8.44474 48.7005 8.44474 48.4412 8.70412L46.9255 10.2198C46.6661 10.4792 46.6661 10.8996 46.9255 11.1589L51.6712 15.9044C51.9306 16.1638 52.3509 16.1638 52.6103 15.9044L53.5352 14.9795L49.7146 11.1588Z" fill="#0172FB"/>
<path d="M20.0614 7.46155L21.5661 10.1505C21.7177 10.4214 22.0941 10.4555 22.292 10.2163L24.256 7.84219C24.5369 7.50272 25.0872 7.73833 25.0353 8.17595L24.672 11.2357C24.6354 11.5441 24.9198 11.793 25.2207 11.7157L28.2051 10.9493C28.6318 10.8398 28.9385 11.3539 28.6392 11.6773L26.5469 13.9392C26.336 14.1671 26.42 14.5357 26.7086 14.65L29.5735 15.7842C29.983 15.9464 29.929 16.5426 29.4968 16.6284L26.4745 17.2284C26.17 17.2889 26.0211 17.6364 26.1875 17.8985L27.8387 20.5C28.0748 20.872 27.6806 21.3225 27.2804 21.1379L24.4826 19.847C24.2007 19.7169 23.8761 19.9106 23.8565 20.2204L23.6632 23.2956C23.6355 23.7353 23.0518 23.8681 22.8367 23.4836L21.332 20.7947C21.1804 20.5238 20.804 20.4897 20.6061 20.7288L18.6421 23.103C18.3612 23.4425 17.8109 23.2069 17.8629 22.7692L18.2261 19.7095C18.2627 19.4011 17.9783 19.1522 17.6774 19.2295L14.693 19.9959C14.2663 20.1054 13.9596 19.5913 14.2589 19.2679L16.3512 17.006C16.5621 16.7781 16.4781 16.4095 16.1895 16.2952L13.3247 15.161C12.9151 14.9988 12.9691 14.4026 13.4013 14.3168L16.4236 13.7167C16.7281 13.6563 16.877 13.3087 16.7106 13.0467L15.0594 10.4452C14.8233 10.0732 15.2175 9.62267 15.6177 9.80728L18.4155 11.0982C18.6974 11.2282 19.022 11.0346 19.0416 10.7248L19.2349 7.64961C19.2626 7.20987 19.8463 7.07706 20.0614 7.46155Z" fill="#FE646F"/>
<path d="M19.125 16.0039C19.125 13.6534 19.9808 11.5038 21.3955 9.84567L20.0614 7.46155C19.8463 7.07706 19.2626 7.20987 19.2349 7.64961L19.0416 10.7249C19.022 11.0347 18.6975 11.2284 18.4155 11.0984L15.6177 9.80742C15.2176 9.62281 14.8234 10.0733 15.0595 10.4453L16.7106 13.0468C16.877 13.309 16.7281 13.6565 16.4236 13.7169L13.4013 14.3171C12.9691 14.4029 12.9151 14.9991 13.3247 15.1612L16.1896 16.2954C16.4783 16.4098 16.5621 16.7783 16.3512 17.0062L14.2589 19.2682C13.9596 19.5916 14.2663 20.1057 14.693 19.9961L17.6775 19.2298C17.9781 19.1526 18.2626 19.4015 18.2261 19.7098L17.8629 22.7695C17.8109 23.207 18.3612 23.4427 18.6421 23.1033L20.4758 20.8866C19.6188 19.4597 19.125 17.7897 19.125 16.0039Z" fill="#FD4755"/>
<path d="M21.4492 2.65625C14.3823 2.65625 8.63281 8.4057 8.63281 15.4727C8.63281 22.5396 14.3823 28.2891 21.4492 28.2891C28.5162 28.2891 34.2656 22.5396 34.2656 15.4727C34.2656 8.4057 28.5162 2.65625 21.4492 2.65625ZM11.2891 15.4727C11.2891 9.87023 15.8469 5.3125 21.4492 5.3125C23.932 5.3125 26.2086 6.20898 27.9752 7.69356L13.67 21.9988C12.1855 20.232 11.2891 17.9555 11.2891 15.4727ZM21.4492 25.6328C19.2861 25.6328 17.2804 24.9512 15.631 23.7944L29.7711 9.65441C30.9278 11.3038 31.6094 13.3095 31.6094 15.4727C31.6094 21.0751 27.0515 25.6328 21.4492 25.6328Z" fill="#22B27F"/>
</g>
<defs>
<clipPath id="clip0">
<rect width="68" height="68" fill="white"/>
</clipPath>
</defs>
</svg>
